<svg width="631" height="530" viewBox="0 0 631 530" fill="none" xmlns="http://www.w3.org/2000/svg">
<path d="M109.087 227.936C109.087 233.48 113.155 236.288 117.727 236.288C122.299 236.288 126.367 233.48 126.367 227.936V210.8H123.991V228.152C123.991 231.284 121.939 234.056 117.727 234.056C113.515 234.056 111.463 231.284 111.463 228.152V210.8H109.087V227.936ZM134.432 210.8H132.056V236H134.432V210.8ZM163.431 209L147.735 237.8H150.111L165.807 209H163.431ZM178.31 227.936C178.31 233.48 182.378 236.288 186.95 236.288C191.522 236.288 195.59 233.48 195.59 227.936V210.8H193.214V228.152C193.214 231.284 191.162 234.056 186.95 234.056C182.738 234.056 180.686 231.284 180.686 228.152V210.8H178.31V227.936ZM213.617 210.8L208.217 219.98L202.817 210.8H200.333L206.993 222.104L198.785 236H201.269L208.217 224.192L215.165 236H217.649L209.441 222.104L216.101 210.8H213.617ZM243.33 210.512V220.412C241.998 218.684 239.55 217.568 237.606 217.568C232.314 217.568 229.506 221.744 229.506 226.928C229.506 232.112 232.314 236.288 237.606 236.288C239.982 236.288 242.394 235.028 243.33 233.624V236H245.562V210.512H243.33ZM231.846 226.928C231.846 222.896 233.862 219.656 237.714 219.656C241.566 219.656 243.546 222.896 243.546 226.928C243.546 231.032 241.566 234.2 237.714 234.2C233.862 234.2 231.846 231.032 231.846 226.928ZM266.128 225.92C266.128 220.916 262.852 217.568 258.172 217.568C253.348 217.568 250.108 221.528 250.108 226.928C250.108 232.328 253.348 236.288 258.172 236.288C261.52 236.288 263.86 234.992 265.732 231.284L263.752 230.312C262.42 233.012 260.944 234.2 258.172 234.2C254.536 234.2 252.448 231.176 252.448 226.928H266.128V225.92ZM258.172 219.656C261.448 219.656 263.392 221.708 263.824 224.84H252.592C253.204 221.888 255.148 219.656 258.172 219.656ZM276.024 217.568C273.144 217.568 270.948 219.512 270.948 222.428C270.948 228.116 279.516 226.82 279.516 230.96C279.516 232.94 278.364 234.2 276.24 234.2C273.576 234.2 272.46 232.472 271.668 230.276L269.688 231.32C270.408 233.696 272.388 236.288 276.24 236.288C279.696 236.288 281.856 234.092 281.856 230.6C281.856 225.344 273.252 226.064 273.252 222.392C273.252 220.736 274.368 219.656 275.916 219.656C277.356 219.656 278.364 220.268 279.48 221.744L281.064 220.376C279.84 218.648 278.328 217.568 276.024 217.568ZM285.89 212.636C285.89 213.68 286.682 214.472 287.726 214.472C288.77 214.472 289.562 213.68 289.562 212.636C289.562 211.592 288.77 210.8 287.726 210.8C286.682 210.8 285.89 211.592 285.89 212.636ZM286.61 217.856V236H288.842V217.856H286.61ZM294.926 223.652C294.926 225.236 295.466 226.64 296.294 227.648C295.034 228.224 294.062 229.376 294.062 230.888C294.062 232.364 294.602 233.3 295.502 233.84C294.494 234.596 293.63 235.892 293.63 237.656C293.63 241.4 296.51 243.632 301.118 243.632C305.33 243.632 308.57 241.832 308.57 237.368C308.57 234.02 306.266 232.616 303.134 232.616H298.454C297.302 232.616 296.222 232.184 296.222 230.888C296.222 230.024 296.618 229.34 297.698 228.872C298.67 229.448 299.822 229.736 301.082 229.736C304.538 229.736 307.238 227.36 307.238 223.652C307.238 222.14 306.77 220.88 305.978 219.872L308.498 218.468L307.454 216.56L304.214 218.396C303.314 217.892 302.234 217.568 301.082 217.568C297.626 217.568 294.926 219.98 294.926 223.652ZM302.882 234.56C305.006 234.56 306.41 235.388 306.41 237.656C306.41 239.888 304.682 241.616 301.118 241.616C297.518 241.616 295.79 240.068 295.79 237.728C295.79 236.504 296.186 235.244 297.41 234.452C297.95 234.524 298.526 234.56 299.174 234.56H302.882ZM297.158 223.652C297.158 221.024 298.994 219.512 301.082 219.512C303.17 219.512 305.006 221.024 305.006 223.652C305.006 226.28 303.17 227.792 301.082 227.792C298.994 227.792 297.158 226.28 297.158 223.652ZM325.923 223.544C325.923 219.728 323.763 217.568 320.343 217.568C317.715 217.568 315.339 219.26 314.115 221.636V217.856H311.883V236H314.115V228.044C314.115 222.896 316.671 219.656 319.983 219.656C322.503 219.656 323.691 221.204 323.691 223.832V236H325.923V223.544ZM346.917 225.92C346.917 220.916 343.641 217.568 338.961 217.568C334.137 217.568 330.897 221.528 330.897 226.928C330.897 232.328 334.137 236.288 338.961 236.288C342.309 236.288 344.649 234.992 346.521 231.284L344.541 230.312C343.209 233.012 341.733 234.2 338.961 234.2C335.325 234.2 333.237 231.176 333.237 226.928H346.917V225.92ZM338.961 219.656C342.237 219.656 344.181 221.708 344.613 224.84H333.381C333.993 221.888 335.937 219.656 338.961 219.656ZM362.215 218.18C361.315 217.82 360.523 217.568 359.479 217.568C357.031 217.568 355.231 218.864 354.151 221.096V217.856H351.919V236H354.151V228.98C354.151 222.788 356.383 219.656 359.155 219.656C360.091 219.656 360.919 219.872 361.711 220.304L362.215 218.18ZM394.016 217.856L389.768 232.832L385.952 217.856H383.72L379.904 232.832L375.656 217.856H373.316L378.752 236H381.056L384.836 221.168L388.616 236H390.92L396.356 217.856H394.016ZM399.797 212.636C399.797 213.68 400.589 214.472 401.633 214.472C402.677 214.472 403.469 213.68 403.469 212.636C403.469 211.592 402.677 210.8 401.633 210.8C400.589 210.8 399.797 211.592 399.797 212.636ZM400.517 217.856V236H402.749V217.856H400.517ZM407.021 219.944H410.225V230.852C410.225 234.668 412.133 236.288 414.761 236.288C415.877 236.288 417.065 236.108 417.929 235.64L417.317 233.624C416.633 234.056 415.769 234.2 415.049 234.2C413.501 234.2 412.457 233.264 412.457 231.212V219.944H417.353V217.856H412.457V210.512L410.225 211.988V217.856H407.021V219.944ZM436.525 223.544C436.525 219.728 434.437 217.568 430.873 217.568C428.389 217.568 425.653 218.9 424.393 221.816V210.512H422.161V236H424.393V228.26C424.393 223.004 427.201 219.656 430.513 219.656C432.997 219.656 434.293 221.204 434.293 223.832V236H436.525V223.544ZM453.226 230.78C453.226 228.404 455.17 226.928 459.31 226.928H462.262V227.612C462.262 232.508 459.094 234.2 456.754 234.2C454.594 234.2 453.226 233.012 453.226 230.78ZM464.494 223.976C464.494 219.872 461.65 217.568 458.086 217.568C454.846 217.568 452.11 219.476 451.606 222.536L453.766 223.04C454.306 221.204 455.602 219.656 458.086 219.656C460.498 219.656 462.262 220.88 462.262 224.048V224.84H459.238C454.162 224.84 450.886 226.748 450.886 230.78C450.886 234.776 453.514 236.288 456.538 236.288C459.418 236.288 461.254 234.956 462.262 233.192L462.802 236H464.494V223.976ZM65.8345 297.344V287.444C67.1665 289.172 69.6145 290.288 71.5585 290.288C76.8505 290.288 79.6585 286.112 79.6585 280.928C79.6585 275.744 76.8505 271.568 71.5585 271.568C69.1825 271.568 66.7705 272.828 65.8345 274.232V271.856H63.6025V297.344H65.8345ZM77.3185 280.928C77.3185 284.96 75.3025 288.2 71.4505 288.2C67.5985 288.2 65.6185 284.96 65.6185 280.928C65.6185 276.824 67.5985 273.656 71.4505 273.656C75.3025 273.656 77.3185 276.824 77.3185 280.928ZM85.4565 284.78C85.4565 282.404 87.4005 280.928 91.5405 280.928H94.4925V281.612C94.4925 286.508 91.3245 288.2 88.9845 288.2C86.8245 288.2 85.4565 287.012 85.4565 284.78ZM96.7245 277.976C96.7245 273.872 93.8805 271.568 90.3165 271.568C87.0765 271.568 84.3405 273.476 83.8365 276.536L85.9965 277.04C86.5365 275.204 87.8325 273.656 90.3165 273.656C92.7285 273.656 94.4925 274.88 94.4925 278.048V278.84H91.4685C86.3925 278.84 83.1165 280.748 83.1165 284.78C83.1165 288.776 85.7445 290.288 88.7685 290.288C91.6485 290.288 93.4845 288.956 94.4925 287.192L95.0325 290H96.7245V277.976ZM107.169 271.568C104.289 271.568 102.093 273.512 102.093 276.428C102.093 282.116 110.661 280.82 110.661 284.96C110.661 286.94 109.509 288.2 107.385 288.2C104.721 288.2 103.605 286.472 102.813 284.276L100.833 285.32C101.553 287.696 103.533 290.288 107.385 290.288C110.841 290.288 113.001 288.092 113.001 284.6C113.001 279.344 104.397 280.064 104.397 276.392C104.397 274.736 105.513 273.656 107.061 273.656C108.501 273.656 109.509 274.268 110.625 275.744L112.209 274.376C110.985 272.648 109.473 271.568 107.169 271.568ZM122.251 271.568C119.371 271.568 117.175 273.512 117.175 276.428C117.175 282.116 125.743 280.82 125.743 284.96C125.743 286.94 124.591 288.2 122.467 288.2C119.803 288.2 118.687 286.472 117.895 284.276L115.915 285.32C116.635 287.696 118.615 290.288 122.467 290.288C125.923 290.288 128.083 288.092 128.083 284.6C128.083 279.344 119.479 280.064 119.479 276.392C119.479 274.736 120.595 273.656 122.143 273.656C123.583 273.656 124.591 274.268 125.707 275.744L127.291 274.376C126.067 272.648 124.555 271.568 122.251 271.568ZM132.117 266.636C132.117 267.68 132.909 268.472 133.953 268.472C134.997 268.472 135.789 267.68 135.789 266.636C135.789 265.592 134.997 264.8 133.953 264.8C132.909 264.8 132.117 265.592 132.117 266.636ZM132.837 271.856V290H135.069V271.856H132.837ZM140.209 280.928C140.209 285.68 143.413 290.288 148.705 290.288C153.997 290.288 157.201 285.68 157.201 280.928C157.201 276.176 153.997 271.568 148.705 271.568C143.413 271.568 140.209 276.176 140.209 280.928ZM142.549 280.928C142.549 277.292 144.637 273.656 148.705 273.656C152.773 273.656 154.861 277.292 154.861 280.928C154.861 284.564 152.773 288.2 148.705 288.2C144.637 288.2 142.549 284.564 142.549 280.928ZM175.244 277.544C175.244 273.728 173.084 271.568 169.664 271.568C167.036 271.568 164.66 273.26 163.436 275.636V271.856H161.204V290H163.436V282.044C163.436 276.896 165.992 273.656 169.304 273.656C171.824 273.656 173.012 275.204 173.012 277.832V290H175.244V277.544ZM189.353 273.944H192.233V290H194.465V273.944H198.857V271.856H194.465V270.344C194.465 267.788 195.689 266.6 197.669 266.6C198.533 266.6 199.073 266.816 199.541 267.032L200.009 264.98C199.541 264.728 198.749 264.512 197.849 264.512C194.321 264.512 192.233 266.456 192.233 270.704V271.856H189.353V273.944ZM201.241 280.928C201.241 285.68 204.445 290.288 209.737 290.288C215.029 290.288 218.233 285.68 218.233 280.928C218.233 276.176 215.029 271.568 209.737 271.568C204.445 271.568 201.241 276.176 201.241 280.928ZM203.581 280.928C203.581 277.292 205.669 273.656 209.737 273.656C213.805 273.656 215.893 277.292 215.893 280.928C215.893 284.564 213.805 288.2 209.737 288.2C205.669 288.2 203.581 284.564 203.581 280.928ZM233.332 272.18C232.432 271.82 231.64 271.568 230.596 271.568C228.148 271.568 226.348 272.864 225.268 275.096V271.856H223.036V290H225.268V282.98C225.268 276.788 227.5 273.656 230.272 273.656C231.208 273.656 232.036 273.872 232.828 274.304L233.332 272.18ZM270.461 277.544C270.461 273.584 268.913 271.568 265.349 271.568C262.865 271.568 260.597 273.296 259.409 275.6C258.869 273.008 257.249 271.568 254.477 271.568C251.849 271.568 249.833 273.26 248.717 275.636V271.856H246.485V290H248.717V282.044C248.717 276.896 251.165 273.656 254.117 273.656C256.637 273.656 257.357 275.132 257.357 277.832V290H259.589V282.044C259.589 276.896 262.037 273.656 264.989 273.656C267.509 273.656 268.229 275.132 268.229 277.832V290H270.461V277.544ZM277.796 284.78C277.796 282.404 279.74 280.928 283.88 280.928H286.832V281.612C286.832 286.508 283.664 288.2 281.324 288.2C279.164 288.2 277.796 287.012 277.796 284.78ZM289.064 277.976C289.064 273.872 286.22 271.568 282.656 271.568C279.416 271.568 276.68 273.476 276.176 276.536L278.336 277.04C278.876 275.204 280.172 273.656 282.656 273.656C285.068 273.656 286.832 274.88 286.832 278.048V278.84H283.808C278.732 278.84 275.456 280.748 275.456 284.78C275.456 288.776 278.084 290.288 281.108 290.288C283.988 290.288 285.824 288.956 286.832 287.192L287.372 290H289.064V277.976ZM294.087 264.512V290H296.319V280.46L304.527 290H307.371L298.875 280.172L306.723 271.856H303.915L296.319 279.884V264.512H294.087ZM310.64 266.636C310.64 267.68 311.432 268.472 312.476 268.472C313.52 268.472 314.312 267.68 314.312 266.636C314.312 265.592 313.52 264.8 312.476 264.8C311.432 264.8 310.64 265.592 310.64 266.636ZM311.36 271.856V290H313.592V271.856H311.36ZM332.392 277.544C332.392 273.728 330.232 271.568 326.812 271.568C324.184 271.568 321.808 273.26 320.584 275.636V271.856H318.352V290H320.584V282.044C320.584 276.896 323.14 273.656 326.452 273.656C328.972 273.656 330.16 275.204 330.16 277.832V290H332.392V277.544ZM338.415 277.652C338.415 279.236 338.955 280.64 339.783 281.648C338.523 282.224 337.551 283.376 337.551 284.888C337.551 286.364 338.091 287.3 338.991 287.84C337.983 288.596 337.119 289.892 337.119 291.656C337.119 295.4 339.999 297.632 344.607 297.632C348.819 297.632 352.059 295.832 352.059 291.368C352.059 288.02 349.755 286.616 346.623 286.616H341.943C340.791 286.616 339.711 286.184 339.711 284.888C339.711 284.024 340.107 283.34 341.187 282.872C342.159 283.448 343.311 283.736 344.571 283.736C348.027 283.736 350.727 281.36 350.727 277.652C350.727 276.14 350.259 274.88 349.467 273.872L351.987 272.468L350.943 270.56L347.703 272.396C346.803 271.892 345.723 271.568 344.571 271.568C341.115 271.568 338.415 273.98 338.415 277.652ZM346.371 288.56C348.495 288.56 349.899 289.388 349.899 291.656C349.899 293.888 348.171 295.616 344.607 295.616C341.007 295.616 339.279 294.068 339.279 291.728C339.279 290.504 339.675 289.244 340.899 288.452C341.439 288.524 342.015 288.56 342.663 288.56H346.371ZM340.647 277.652C340.647 275.024 342.483 273.512 344.571 273.512C346.659 273.512 348.495 275.024 348.495 277.652C348.495 280.28 346.659 281.792 344.571 281.792C342.483 281.792 340.647 280.28 340.647 277.652ZM383.851 263.18C382.951 262.496 381.475 262.532 380.143 263.324C379.243 263.864 378.739 264.404 377.659 265.772C375.787 268.184 373.735 272.072 372.259 276.104C372.007 276.716 371.791 277.22 371.791 277.22C371.719 277.256 371.935 275.96 372.187 274.412C372.403 273.368 372.583 272.504 373.411 269.084C373.519 268.472 373.915 266.996 374.239 265.772C374.599 264.548 374.923 263.216 375.067 262.82C375.427 261.524 377.875 254.036 378.091 253.64C378.127 253.568 378.307 253.136 378.487 252.668C379.495 249.968 379.711 249.5 381.007 246.692C381.223 246.224 381.043 246.008 380.647 246.08C380.503 246.116 380.395 246.116 380.395 246.044C380.359 245.9 379.063 246.332 378.955 246.548C378.883 246.692 378.847 246.8 378.883 246.836C378.919 246.836 378.487 247.844 377.875 249.104C377.299 250.292 376.651 251.66 376.471 252.092C376.255 252.56 376.039 252.992 375.967 253.028C375.859 253.136 374.779 255.368 374.815 255.44C374.815 255.476 374.887 255.512 374.959 255.44C375.031 255.404 375.103 255.476 375.067 255.584C375.103 255.692 375.175 255.764 375.247 255.728C375.391 255.692 375.499 255.728 375.499 255.836C375.499 255.908 375.067 257.276 374.563 258.86C371.683 267.356 370.135 273.296 369.523 278.552C369.451 279.2 369.343 279.812 369.271 279.812C369.235 279.848 369.235 280.064 369.271 280.28C369.343 280.604 369.307 280.712 369.127 280.784C368.983 280.856 368.911 280.928 369.019 281.036C369.163 281.216 369.163 281.288 369.127 282.188C368.947 284.78 369.019 287.552 369.271 288.668C369.415 289.388 369.775 290 370.315 290.288C370.747 290.504 370.927 290.504 370.963 290.288C370.963 290.18 371.035 290.18 371.179 290.252C371.431 290.396 371.791 290.288 371.755 290.108C371.719 290 371.647 289.352 371.539 288.704C371.287 287.3 371.359 285.968 371.683 284.06L371.935 282.872L373.015 282.656C373.879 282.44 374.203 282.296 374.995 281.828C376.723 280.82 378.559 279.092 380.647 276.608C381.259 275.924 381.979 274.952 382.267 274.484C384.931 270.236 385.687 264.728 383.851 263.18ZM375.103 261.848C374.959 262.352 374.815 262.748 374.743 262.784C374.635 262.784 374.563 262.784 374.563 262.748C374.563 262.712 374.779 262.064 374.959 261.74C374.959 261.668 374.995 261.524 374.995 261.452C374.995 261.38 375.031 261.308 375.103 261.272C375.175 261.2 375.211 261.092 375.211 261.02C375.175 260.948 375.211 260.876 375.247 260.912C375.319 260.948 375.247 261.344 375.103 261.848ZM375.895 259.256C375.823 259.364 375.715 259.652 375.715 259.904C375.643 260.12 375.535 260.444 375.427 260.588C375.247 260.84 375.247 260.804 375.391 260.372C375.463 260.12 375.607 259.724 375.643 259.508C375.715 259.292 375.823 259.076 375.895 259.076C376.003 259.04 376.003 259.112 375.895 259.256ZM370.063 283.052C369.883 283.7 369.703 284.096 369.739 283.628C369.775 283.484 369.775 283.088 369.811 282.8C369.847 282.332 369.883 282.224 370.027 282.332C370.171 282.44 370.171 282.584 370.063 283.052ZM370.855 278.588C370.783 279.452 370.675 280.388 370.639 280.712C370.603 281.036 370.531 281.288 370.459 281.288C370.423 281.288 370.279 281.18 370.171 281C369.919 280.748 369.919 280.676 370.027 280.388C370.063 280.208 370.135 279.704 370.171 279.272C370.207 278.804 370.315 278.084 370.423 277.688C370.495 277.256 370.603 276.644 370.639 276.32C370.639 275.996 370.819 275.096 370.963 274.34C371.107 273.584 371.323 272.648 371.395 272.288C371.503 271.64 372.115 269.12 372.403 268.112C372.655 267.14 373.195 265.376 373.375 264.728C373.519 264.332 373.771 263.432 373.951 262.784C374.167 262.136 374.599 260.84 374.923 259.94C375.247 259.004 375.823 257.528 376.111 256.592C376.435 255.692 376.723 254.936 376.759 254.972C376.795 254.972 376.651 255.548 376.435 256.268C375.787 258.32 374.923 260.948 374.599 261.848C374.455 262.316 374.347 262.748 374.383 262.748C374.419 262.82 374.419 262.928 374.311 263C374.203 263.144 374.167 263.288 374.203 263.324C374.203 263.396 374.275 263.324 374.419 263.144C374.635 262.82 374.779 262.856 374.563 263.216C374.167 263.972 372.331 270.308 371.935 272.216C371.503 274.34 371.035 277.256 370.855 278.588ZM379.999 263.972C380.107 263.936 380.179 263.936 380.143 264.008C380.107 264.044 379.999 264.116 379.963 264.152C379.819 264.152 379.819 264.08 379.999 263.972ZM375.319 270.236C376.579 267.824 378.379 265.196 379.207 264.584C379.495 264.404 379.351 264.548 378.919 265.088C377.695 266.528 375.787 269.624 374.707 271.964C374.311 272.828 374.095 273.152 374.059 272.936C374.023 272.828 374.743 271.352 375.319 270.236ZM374.779 281.144C374.743 281.216 374.671 281.288 374.599 281.288C374.455 281.324 374.455 281.252 374.671 281.108C374.743 281.072 374.815 281.108 374.779 281.144ZM374.671 280.856C374.527 281 374.347 281.144 374.275 281.144C374.167 281.18 374.131 281.216 374.131 281.288C374.131 281.324 374.059 281.468 373.915 281.54C373.447 281.792 372.799 282.008 372.799 281.864C372.763 281.756 372.835 281.756 373.627 281.396C373.879 281.288 374.095 281.144 374.095 281.072C374.095 281 374.527 280.676 374.743 280.64C374.815 280.604 374.779 280.748 374.671 280.856ZM375.571 280.676C375.355 280.892 375.175 280.856 375.391 280.64C375.463 280.532 375.607 280.46 375.643 280.496C375.715 280.532 375.679 280.604 375.571 280.676ZM382.519 272.144C382.339 272.504 382.195 272.936 382.159 273.116C382.087 273.26 382.015 273.368 381.943 273.368C381.835 273.332 381.799 273.368 381.871 273.404C381.943 273.44 381.907 273.692 381.799 273.872C381.367 274.736 379.711 276.86 379.063 277.4C378.883 277.58 378.631 277.868 378.487 278.048C378.235 278.372 377.047 279.56 376.867 279.56C376.867 279.596 376.651 279.74 376.399 279.992C376.183 280.208 375.931 280.388 375.859 280.424C375.787 280.424 375.859 280.352 375.967 280.208C376.111 280.064 376.327 279.848 376.435 279.704C376.615 279.524 376.723 279.38 376.759 279.38C376.795 279.38 376.975 279.164 377.227 278.876C377.515 278.516 377.731 278.372 377.875 278.372C377.983 278.408 378.091 278.372 378.055 278.3C378.019 278.12 378.487 277.58 378.631 277.544C378.703 277.508 378.739 277.472 378.667 277.436C378.631 277.364 378.919 276.968 379.351 276.464C380.287 275.42 381.799 273.188 382.303 272.216C382.555 271.784 382.699 271.46 382.735 271.46C382.771 271.46 382.663 271.748 382.519 272.144ZM382.987 267.716C382.771 269.048 382.159 271.064 381.583 272.108C380.251 274.808 376.471 279.056 373.951 280.748C372.943 281.432 372.403 281.684 372.295 281.576C372.115 281.396 373.951 275.924 375.031 273.332C375.247 272.9 375.427 272.468 375.427 272.468C375.391 272.396 376.903 269.336 377.407 268.472C377.947 267.5 379.135 265.844 379.855 265.016C381.007 263.72 381.907 263.288 382.447 263.756C382.627 263.864 382.843 264.116 382.879 264.26C383.095 264.764 383.167 266.636 382.987 267.716ZM405.353 268.616C404.705 269.3 402.149 271.604 400.277 273.152C395.957 276.716 392.825 278.48 390.053 278.948C389.837 278.984 389.549 279.02 389.477 279.092C389.189 279.236 388.001 279.02 387.425 278.768C387.029 278.552 386.885 278.408 386.813 278.156C386.705 277.76 386.777 276.284 386.957 275.456C387.065 274.988 387.749 272.936 387.893 272.756C387.893 272.72 388.073 272.828 388.325 273.008C388.649 273.224 388.865 273.296 389.513 273.296C391.025 273.296 392.825 272.396 394.445 270.848C395.669 269.66 396.317 268.76 396.569 267.752C396.785 266.852 396.641 266.168 396.065 265.304C395.525 264.476 394.985 264.26 393.833 264.296C393.077 264.332 392.789 264.404 392.177 264.728C391.349 265.088 390.161 266.204 388.937 267.644C388.217 268.508 386.957 270.416 386.741 270.956C386.633 271.172 386.417 271.712 386.201 272.18C385.553 273.728 385.265 275.024 385.229 276.572C385.229 277.832 385.265 277.976 385.553 278.552C385.913 279.308 386.957 280.244 387.749 280.532C388.217 280.712 388.505 280.712 389.369 280.676C392.933 280.496 396.173 278.912 399.449 275.852C400.421 274.952 400.241 275.024 398.873 276.032C398.405 276.392 398.009 276.68 397.973 276.68C397.937 276.68 397.757 276.788 397.613 276.896C397.217 277.184 397.037 277.148 397.361 276.824C397.505 276.68 397.577 276.572 397.541 276.572C397.433 276.572 397.649 276.356 397.973 276.14C398.729 275.6 399.989 274.556 400.421 274.124C401.249 273.26 403.841 270.956 403.913 271.028C403.949 271.064 403.805 271.28 403.589 271.496C403.337 271.784 403.301 271.856 403.445 271.748C404.129 271.388 405.353 269.66 405.389 269.012C405.389 268.904 405.497 268.688 405.677 268.544C405.821 268.364 405.929 268.22 405.893 268.184C405.857 268.148 405.605 268.328 405.353 268.616ZM388.577 271.352C388.721 271.1 388.973 270.704 389.117 270.452C389.981 269.048 393.581 265.34 393.797 265.592C393.941 265.808 394.445 265.844 394.733 265.7C394.877 265.628 394.949 265.664 395.057 265.952C395.129 266.168 395.129 266.348 395.057 266.42C395.021 266.492 394.913 266.744 394.841 267.032C394.481 268.472 392.717 270.164 390.485 271.28C389.945 271.532 389.513 271.676 389.009 271.712L388.325 271.784L388.577 271.352ZM403.013 271.208C402.725 271.46 402.509 271.604 402.617 271.496C402.797 271.28 403.625 270.596 403.625 270.668C403.625 270.704 403.337 270.956 403.013 271.208ZM424.969 270.056C424.897 270.056 424.609 270.416 424.285 270.812C423.961 271.244 422.773 272.54 421.657 273.656C419.569 275.744 418.237 276.86 416.941 277.544C415.789 278.156 413.989 278.588 413.629 278.372C413.449 278.264 413.197 277.112 413.197 276.428C413.197 275.492 413.521 273.62 413.845 272.396C414.025 271.82 414.385 270.596 414.601 269.732C414.853 268.868 415.357 267.464 415.645 266.636C416.149 265.376 416.473 264.476 416.473 264.404C416.473 264.404 416.401 264.368 416.257 264.296C416.077 264.26 416.041 264.188 416.077 264.044C416.185 263.792 416.149 263.792 415.141 263.756C414.817 263.756 414.781 263.828 413.521 265.556L413.053 266.204L412.837 265.808C412.369 264.872 411.901 264.656 410.497 264.62C409.633 264.62 409.453 264.656 408.949 264.944C408.157 265.376 407.221 266.06 406.465 266.888C405.601 267.788 403.909 270.02 403.225 271.244C402.901 271.748 402.613 272.216 402.541 272.252C402.433 272.324 401.245 274.916 400.849 275.96C400.525 276.788 400.057 278.876 400.057 279.38C400.057 279.992 400.525 280.64 401.209 280.892C401.605 281.036 401.641 281.036 402.217 280.892C402.793 280.748 403.729 280.352 404.413 279.884C405.493 279.164 407.797 276.608 409.489 274.16C410.857 272.216 411.577 271.136 411.505 271.064C411.505 271.028 411.397 271.172 411.289 271.352C411.181 271.532 411.073 271.748 410.965 271.82C410.893 271.892 410.497 272.432 410.101 272.972C409.669 273.548 409.309 273.98 409.273 273.944C409.237 273.908 409.669 272.9 409.777 272.792C409.957 272.648 410.893 271.244 410.893 271.136C410.893 271.1 410.857 271.028 410.785 271.028C410.713 271.028 410.677 271.1 410.677 271.136C410.677 271.208 410.425 271.532 410.101 271.856C409.777 272.216 409.381 272.72 409.201 272.972C408.409 274.088 406.069 276.788 406.069 276.572C406.069 276.356 407.401 274.664 407.581 274.664C407.617 274.664 408.049 274.16 408.481 273.548C408.949 272.936 409.453 272.252 409.669 272C409.993 271.604 412.729 267.608 413.233 266.852C413.341 266.672 413.449 266.528 413.485 266.564C413.485 266.6 413.305 267.212 413.089 267.932C412.261 270.38 411.505 273.548 411.397 275.024C411.253 276.824 411.721 278.372 412.585 279.092C413.269 279.632 413.485 279.704 414.385 279.776C415.897 279.884 418.021 279.092 419.569 277.868C420.397 277.148 421.873 275.6 421.909 275.348C421.945 275.204 422.305 274.664 422.305 274.808C422.305 274.844 422.233 274.988 422.197 275.096C421.981 275.492 422.161 275.312 422.809 274.52C423.745 273.368 424.753 271.568 424.573 271.388C424.465 271.28 424.717 270.56 424.933 270.452C425.041 270.344 425.077 270.056 424.969 270.056ZM402.433 273.584C402.505 273.332 402.901 272.72 402.901 272.828C402.901 272.864 402.793 273.116 402.685 273.332C402.433 273.8 402.289 273.944 402.433 273.584ZM401.857 274.808C402.001 274.52 402.109 274.196 402.181 274.052C402.217 273.944 402.253 273.872 402.289 273.908C402.325 273.944 402.253 274.268 402.073 274.628C401.965 274.988 401.677 275.672 401.497 276.176C401.353 276.68 401.173 277.076 401.137 277.076C401.065 277.076 401.425 275.96 401.857 274.808ZM401.137 278.876C401.137 279.236 401.029 279.344 400.885 279.2C400.813 279.092 400.993 278.228 401.425 277.004C401.641 276.356 401.857 275.78 401.857 275.744C402.001 275.636 401.785 276.5 401.461 277.508C401.281 278.048 401.137 278.66 401.137 278.876ZM410.209 269.768C410.029 269.948 409.993 270.056 410.065 270.056C410.389 270.056 410.101 270.668 409.057 271.964C408.877 272.216 408.337 272.936 407.869 273.548C405.493 276.788 403.873 278.408 402.361 279.2C401.785 279.488 401.605 279.524 401.533 279.38C401.425 279.2 402.181 276.716 402.793 275.312C403.657 273.404 404.017 272.756 405.277 270.884C406.357 269.228 407.509 267.896 408.877 266.636C409.885 265.7 410.101 265.556 410.533 265.556C411.073 265.556 411.217 265.664 411.325 266.132C411.577 266.96 410.893 269.084 410.209 269.768ZM412.729 278.048C412.621 278.048 412.225 277.616 412.225 277.472C412.225 277.436 412.225 277.364 412.225 277.4C412.261 277.436 412.369 277.58 412.549 277.76C412.657 277.904 412.765 278.048 412.729 278.048ZM419.209 276.788C419.137 276.896 419.065 276.968 419.029 276.968C418.993 276.968 419.029 276.896 419.101 276.788C419.209 276.716 419.281 276.644 419.317 276.644C419.353 276.644 419.317 276.716 419.209 276.788ZM422.341 274.088C421.981 274.556 420.433 276.104 420.433 275.996C420.433 275.96 420.361 275.996 420.325 276.104C420.253 276.212 420.037 276.356 419.857 276.464C419.461 276.68 419.461 276.68 419.461 276.536C419.461 276.464 419.497 276.392 419.605 276.392C419.677 276.392 420.361 275.78 421.153 274.988C422.521 273.584 422.953 273.26 422.341 274.088ZM422.953 274.052C422.773 274.232 422.629 274.34 422.629 274.304C422.629 274.268 422.773 274.124 422.953 273.944C423.133 273.764 423.277 273.656 423.277 273.692C423.277 273.692 423.133 273.872 422.953 274.052ZM443.159 269.228C442.583 270.236 442.043 271.136 441.863 271.352C441.827 271.388 441.431 271.964 440.999 272.612C438.911 275.744 437.399 277.436 436.211 277.976C435.743 278.192 435.203 278.264 435.203 278.084C435.203 278.012 435.131 277.832 435.059 277.688C434.951 277.472 434.915 277.004 434.915 275.816C434.951 274.268 435.059 273.476 435.455 271.856C435.563 271.388 435.779 270.488 435.959 269.768C436.247 268.364 436.571 267.284 436.967 266.276C437.183 265.664 437.183 265.556 437.111 265.304C436.967 265.052 436.787 264.944 436.679 265.124C436.643 265.16 436.463 265.196 436.319 265.16C435.995 265.124 435.995 265.124 435.455 266.096C434.591 267.608 432.431 271.064 431.603 272.18C431.171 272.756 430.523 273.656 430.127 274.196C429.767 274.7 429.227 275.384 428.939 275.708C428.687 276.068 428.327 276.536 428.111 276.752C426.707 278.48 425.087 279.884 424.223 280.028C423.863 280.1 423.827 280.1 423.791 279.74C423.719 279.524 423.755 278.912 423.827 278.372C423.971 277.112 425.087 272.612 425.483 271.748C426.095 270.416 426.239 270.128 426.347 270.128C426.527 270.128 426.815 269.516 427.103 268.616C427.715 266.564 428.651 263.936 428.903 263.468C429.047 263.216 428.939 262.964 428.687 263C428.615 263.036 428.507 263 428.507 262.964C428.435 262.82 427.643 263.18 427.643 263.324C427.643 263.396 427.571 263.504 427.499 263.576C427.247 263.756 426.203 265.844 425.951 266.528C425.843 266.852 425.627 267.392 425.483 267.68C425.339 267.968 425.051 268.652 424.871 269.192C424.691 269.732 424.367 270.56 424.187 271.064C423.971 271.532 423.719 272.36 423.575 272.864C422.963 275.132 422.567 276.932 422.459 277.544C422.351 278.372 422.351 279.848 422.459 280.28C422.567 280.676 422.927 281.072 423.395 281.288C423.791 281.504 424.655 281.504 425.159 281.252C426.419 280.676 428.363 278.804 429.335 277.256C429.479 277.004 429.767 276.644 429.947 276.428C430.091 276.212 430.451 275.672 430.667 275.276C430.883 274.844 431.351 274.088 431.711 273.584C432.035 273.08 432.287 272.648 432.215 272.648C432.179 272.648 432.143 272.72 432.107 272.792C432.035 272.972 431.135 274.052 431.099 273.98C431.027 273.944 431.387 273.404 432.215 272.288C432.863 271.388 433.871 269.876 434.195 269.192C434.375 268.832 434.771 268.364 434.771 268.472C434.771 268.508 434.699 268.904 434.591 269.336C434.483 269.804 434.339 270.344 434.339 270.56C434.303 270.776 434.195 271.208 434.123 271.496C433.907 272.396 433.511 275.384 433.511 276.176C433.511 277.148 433.799 278.264 434.159 278.624C434.627 279.128 435.131 279.308 435.959 279.344C436.823 279.344 437.255 279.164 438.299 278.264C439.163 277.544 439.847 276.68 441.287 274.592C442.511 272.792 443.447 271.136 443.663 270.416C444.023 269.3 444.023 269.192 443.879 269.084C443.735 268.976 443.771 268.688 444.023 268.112C444.203 267.608 443.735 268.256 443.159 269.228ZM426.563 268.22C426.707 268.04 426.815 268.076 426.707 268.256C426.671 268.328 426.599 268.364 426.563 268.364C426.491 268.364 426.491 268.292 426.563 268.22ZM434.555 276.068C434.483 275.888 434.627 274.52 434.771 273.836C434.807 273.584 434.879 273.188 434.915 272.936C435.023 272.252 435.275 271.244 435.383 271.136C435.455 271.064 435.455 271.1 435.419 271.244C435.383 271.352 435.311 271.64 435.275 271.928C435.203 272.18 435.095 272.756 435.023 273.188C434.915 273.62 434.771 274.484 434.735 275.096C434.663 275.708 434.591 276.14 434.555 276.068ZM440.963 274.736C440.891 274.916 440.819 274.952 440.819 274.808C440.819 274.772 440.855 274.7 440.927 274.664C440.963 274.628 440.999 274.664 440.963 274.736ZM442.943 271.496C442.871 271.604 442.799 271.856 442.727 271.964C442.655 272.108 442.511 272.324 442.403 272.468C442.223 272.648 442.223 272.612 442.475 272.108C442.763 271.46 443.051 271.064 442.943 271.496ZM443.159 270.812C443.087 270.956 443.015 271.064 442.943 271.028C442.871 271.028 442.727 271.172 442.583 271.352C442.439 271.532 442.295 271.748 442.223 271.82C442.187 271.892 441.863 272.36 441.503 272.864C441.179 273.404 440.855 273.872 440.783 273.908C440.675 273.944 440.855 273.62 441.215 273.08C441.863 272.144 442.763 270.704 443.087 270.2C443.267 269.876 443.447 269.624 443.483 269.624C443.555 269.624 443.375 270.2 443.159 270.812ZM460.929 255.08C460.317 254.396 456.825 254.54 450.669 255.584C450.129 255.656 449.661 255.728 449.409 255.764C450.381 253.244 451.497 250.508 451.749 249.968C451.929 249.536 452.073 249.068 452.073 248.996C452.073 248.852 452.181 248.528 452.289 248.24C452.541 247.628 452.469 247.34 452.181 247.34C452.073 247.34 452.001 247.268 452.001 247.16C452.037 247.088 451.929 247.016 451.749 247.052C451.569 247.088 451.497 247.052 451.533 246.944C451.569 246.908 451.461 246.836 451.245 246.836C450.777 246.836 450.633 247.16 449.769 249.32C449.121 250.904 448.473 252.308 448.293 252.416C448.185 252.452 447.717 253.388 447.717 253.496C447.717 253.568 447.789 253.568 447.861 253.532C447.933 253.46 448.041 253.496 448.041 253.568C448.041 253.604 447.645 254.72 447.141 255.98C447.105 256.088 447.069 256.16 447.033 256.232L446.097 256.412C443.901 256.808 441.417 257.312 438.321 257.996C436.521 258.392 434.973 258.752 434.865 258.788C434.721 258.824 434.397 258.896 434.109 258.968C433.749 259.04 433.533 259.04 433.461 258.968C433.389 258.896 433.209 259.004 432.921 259.256C432.453 259.724 432.381 260.12 432.741 260.48C433.065 260.84 433.713 260.84 434.937 260.48C436.053 260.156 439.833 259.184 441.165 258.896C442.713 258.572 445.665 257.996 446.421 257.888C444.225 263.864 442.713 269.048 441.705 274.088C440.913 278.084 440.769 279.38 440.769 282.26C440.769 284.96 440.877 285.86 441.381 287.408C441.885 289.028 442.281 289.568 443.433 290.324C444.153 290.756 444.261 290.792 444.801 290.72C445.665 290.648 446.133 290.36 447.465 289.28C448.329 288.56 448.869 287.948 449.697 286.904C450.273 286.112 450.813 285.32 450.885 285.14C450.957 284.924 451.209 284.492 451.425 284.132C451.605 283.772 451.785 283.34 451.785 283.16C451.785 283.016 451.893 282.656 452.073 282.404C452.865 281.072 453.549 279.884 453.585 279.668C453.621 279.56 453.333 279.848 452.973 280.316C452.613 280.784 452.289 281.252 452.289 281.324C452.289 281.396 452.073 281.756 451.821 282.188C451.569 282.584 451.317 283.016 451.209 283.124C450.957 283.52 449.841 285.176 449.337 285.896C448.905 286.544 448.725 286.688 448.725 286.436C448.725 286.364 449.049 285.86 449.445 285.212C449.841 284.636 450.237 284.024 450.309 283.844C450.381 283.7 450.777 283.124 451.173 282.584C451.605 282.008 451.965 281.432 452.037 281.252C452.073 281.144 452.361 280.676 452.613 280.28C453.225 279.38 456.069 274.592 457.113 272.72C457.473 272.108 457.653 271.928 457.545 272.324C457.509 272.468 457.653 272.288 457.833 272.036C458.229 271.424 458.337 271.064 458.013 271.424C457.905 271.568 457.797 271.604 457.797 271.568C457.797 271.46 457.149 272.324 456.933 272.72C456.861 272.9 456.393 273.692 455.925 274.484C455.457 275.276 454.809 276.392 454.449 276.968C453.477 278.66 452.937 279.452 452.901 279.416C452.865 279.38 453.117 278.948 453.441 278.372C454.197 277.112 455.169 275.348 455.133 275.348C455.097 275.348 454.449 276.356 453.693 277.58C451.785 280.676 450.669 282.332 448.725 284.996C447.069 287.264 445.773 288.416 444.441 288.812C443.757 288.992 443.433 288.884 443.253 288.38C443.217 288.164 443.073 288.092 443.037 288.128C442.857 288.164 442.425 286.796 442.353 285.86C442.209 284.096 442.173 282.584 442.245 282.584C442.317 282.584 442.353 283.124 442.353 283.736C442.389 284.852 442.569 286.508 442.641 286.4C442.677 286.364 442.641 286.004 442.569 285.572C442.425 284.42 442.461 281.504 442.641 280.028C442.713 279.344 442.893 278.084 443.037 277.256C443.181 276.428 443.289 275.636 443.253 275.564C443.145 275.204 442.389 280.568 442.389 281.612C442.389 281.972 442.353 282.368 442.281 282.404C442.173 282.476 442.173 282.368 442.281 280.856C442.497 278.336 442.893 276.212 443.973 271.172C444.189 270.2 444.765 268.364 444.765 268.58C444.765 268.688 444.621 269.372 444.405 270.092C444.009 271.712 443.253 275.24 443.289 275.312C443.361 275.348 443.361 275.276 443.397 275.132C443.433 275.024 443.541 274.484 443.685 273.908C444.477 270.2 446.133 264.512 447.825 259.796C447.969 259.4 448.329 258.5 448.761 257.384L450.777 257.06C455.493 256.304 458.301 255.98 459.957 256.016C461.037 256.052 461.253 255.98 461.181 255.584C461.145 255.404 461.037 255.188 460.929 255.08ZM450.489 284.96C450.561 284.852 450.669 284.672 450.777 284.528C450.957 284.276 450.993 284.312 450.921 284.528C450.885 284.708 450.777 284.924 450.633 284.996C450.381 285.176 450.381 285.176 450.489 284.96ZM449.769 286.112C450.273 285.284 450.345 285.176 450.165 285.644C450.093 285.86 449.877 286.148 449.697 286.364C449.373 286.76 449.373 286.76 449.769 286.112ZM443.577 272.036L443.505 272.288L443.469 272.036C443.469 271.928 443.541 271.712 443.577 271.604C443.685 271.46 443.685 271.46 443.685 271.604C443.685 271.712 443.613 271.928 443.577 272.036ZM443.973 270.38C443.937 270.452 443.865 270.488 443.865 270.416C443.865 270.38 443.937 270.2 443.973 270.128C444.009 270.02 444.081 269.984 444.081 270.056C444.081 270.128 444.009 270.272 443.973 270.38ZM444.189 269.516C444.153 269.768 444.081 269.84 444.081 269.552C444.081 269.48 444.117 269.372 444.153 269.3C444.225 269.264 444.225 269.372 444.189 269.516ZM444.549 268.148C444.405 268.652 444.297 269.012 444.261 268.904C444.261 268.688 444.801 266.96 444.837 267.068C444.873 267.14 444.729 267.644 444.549 268.148ZM444.873 268.328C444.801 268.364 444.765 268.328 444.765 268.22C444.765 268.112 444.801 267.968 444.873 267.932C444.909 267.896 444.945 267.932 444.945 268.076C444.945 268.148 444.909 268.292 444.873 268.328ZM445.197 267.176C445.089 267.5 444.981 267.68 445.017 267.5C445.125 267.032 445.341 266.348 445.413 266.42C445.449 266.456 445.341 266.78 445.197 267.176ZM445.485 265.016C445.413 265.304 445.341 265.376 445.341 265.088C445.341 264.98 445.413 264.908 445.449 264.836C445.485 264.8 445.485 264.908 445.485 265.016ZM445.701 263C445.557 263.468 445.413 263.972 445.341 264.152C445.305 264.332 445.161 264.872 445.017 265.34C444.405 267.32 443.397 271.352 443.037 273.224C442.893 273.944 442.677 274.988 442.569 275.492C441.669 280.244 441.489 283.808 442.065 286.652C442.245 287.696 442.173 287.768 441.885 286.832C441.489 285.464 441.381 284.492 441.381 282.332C441.381 280.1 441.489 278.732 442.029 275.96C442.389 273.908 443.397 269.408 443.685 268.58C443.721 268.436 444.009 267.428 444.297 266.384C444.621 265.34 444.945 264.332 445.017 264.152C445.341 263.576 445.845 262.208 445.845 262.028C445.881 261.92 445.881 261.92 445.917 261.992C445.953 262.064 445.845 262.496 445.701 263ZM446.241 261.2C446.133 261.524 446.025 261.776 445.989 261.776C445.917 261.776 445.953 261.668 446.061 261.452C446.097 261.308 446.205 261.056 446.241 260.84C446.313 260.66 446.385 260.516 446.385 260.552C446.421 260.588 446.385 260.876 446.241 261.2ZM446.565 257.456C446.313 257.492 446.025 257.564 445.881 257.6C445.233 257.744 444.549 257.78 443.937 257.708L443.397 257.636L444.513 257.456C445.089 257.348 445.953 257.168 446.421 257.096C446.529 257.06 446.637 257.06 446.745 257.024C446.673 257.168 446.637 257.312 446.565 257.456ZM457.617 255.692C457.545 255.692 457.509 255.728 457.509 255.8C457.509 255.836 457.221 255.836 456.897 255.836C456.573 255.8 456.285 255.836 456.285 255.908C456.285 255.944 455.997 255.98 455.637 256.016C455.241 256.016 454.917 256.052 454.845 256.088C454.773 256.124 453.945 256.268 452.973 256.412C452.001 256.556 450.741 256.772 450.165 256.844C449.589 256.952 449.013 257.06 448.905 257.096C448.869 257.096 448.869 257.132 448.869 257.132C448.905 256.952 448.977 256.808 449.049 256.628C449.373 256.556 449.913 256.448 450.597 256.376C451.461 256.232 452.469 256.088 452.793 256.016C455.061 255.62 459.345 255.296 459.345 255.548C459.345 255.656 458.481 255.728 457.617 255.692ZM450.309 256.592C450.201 256.592 449.949 256.664 449.769 256.7C449.481 256.772 449.481 256.772 449.697 256.772C449.877 256.772 450.129 256.736 450.273 256.7C450.489 256.628 450.489 256.592 450.309 256.592ZM461.878 263.36C462.418 263.36 462.454 263.36 462.814 262.856C463.246 262.244 463.282 262.172 463.498 261.164C463.678 260.336 463.606 259.976 463.282 259.976C463.174 259.976 463.066 259.904 463.03 259.796C462.958 259.544 462.634 259.616 462.418 259.94C462.31 260.12 461.842 260.732 461.374 261.344L460.51 262.424L460.906 262.892C461.266 263.36 461.338 263.36 461.878 263.36ZM464.074 278.012C464.47 277.58 464.938 277.076 465.118 276.86C465.622 276.356 467.17 274.232 467.674 273.404C468.538 271.964 468.898 270.812 468.538 270.56C468.394 270.452 468.43 270.38 468.646 270.092C468.754 269.876 468.862 269.696 468.826 269.66C468.79 269.624 468.682 269.732 468.61 269.84C468.574 269.984 468.25 270.452 467.926 270.884C467.638 271.28 467.386 271.712 467.386 271.82C467.35 271.892 467.314 271.964 467.242 271.964C467.062 271.964 466.414 272.828 466.522 272.936C466.558 273.008 466.522 273.044 466.45 272.972C466.414 272.936 466.198 273.116 466.054 273.332C464.326 275.6 460.222 279.848 458.962 280.676C458.17 281.18 457.486 281.432 457.342 281.288C457.27 281.18 457.306 279.236 457.45 278.444C457.666 276.788 459.106 272.18 460.114 269.804C460.258 269.408 460.51 268.868 460.618 268.544C460.762 268.184 460.942 267.788 461.014 267.644C461.194 267.284 461.158 267.068 460.798 266.816C460.474 266.636 460.258 266.636 459.754 266.816C459.286 266.96 458.89 267.392 458.674 267.968C458.566 268.148 454.39 277.724 455.506 280.928C455.83 281.864 456.226 282.44 456.982 282.728C457.666 282.98 458.638 282.872 459.466 282.404C460.906 281.612 461.446 281.108 464.074 278.012ZM468.358 270.74C468.394 270.776 468.394 270.884 468.358 270.956C468.358 271.064 468.322 271.028 468.322 270.884C468.322 270.776 468.322 270.704 468.358 270.74ZM465.226 276.068C465.478 275.744 465.658 275.456 465.658 275.384C465.658 275.348 465.982 274.844 466.378 274.304C467.314 273.008 467.422 272.864 467.494 272.936C467.638 273.08 467.314 273.764 466.594 274.7C465.586 276.032 464.794 276.968 464.794 276.788C464.794 276.716 465.01 276.392 465.226 276.068ZM468.176 278.372L467.708 277.652L467.888 276.932L468.068 276.248L468.572 276.14C472.964 275.132 478.76 272.54 480.416 270.848C480.596 270.632 480.992 270.344 481.244 270.128C481.532 269.948 482 269.552 482.288 269.228C482.756 268.724 482.792 268.688 482.576 268.508C482.432 268.4 482.396 268.328 482.504 268.22C482.756 267.86 482.144 268.112 481.424 268.688C478.472 270.956 474.944 272.792 470.804 274.16C469.148 274.736 468.464 274.916 468.464 274.736C468.428 274.448 470.444 268.184 471.164 266.276C473.072 261.38 474.188 258.68 476.096 254.684C476.78 253.1 476.96 252.344 476.564 252.056C476.384 251.912 476.24 251.912 475.916 251.948C475.16 252.128 475.016 252.236 474.62 253.172C474.188 254.144 472.928 256.736 471.596 259.4C470.696 261.128 470.372 261.956 470.084 263.18C470.012 263.504 470.012 263.684 470.12 263.756C470.192 263.864 470.12 264.08 469.904 264.692C469.4 265.88 468.608 268.076 467.816 270.524C467.384 271.784 466.988 272.864 466.916 272.936C466.88 273.008 466.844 273.296 466.88 273.476C466.916 273.764 466.88 273.908 466.808 273.908C466.736 273.908 466.592 274.232 466.52 274.556C466.412 274.916 466.304 275.276 466.232 275.348C466.16 275.42 465.836 275.456 465.116 275.42C463.964 275.42 463.28 275.636 463.352 276.032C463.388 276.212 463.568 276.356 464.144 276.572C464.576 276.752 465.116 277.076 465.332 277.22L465.764 277.544L465.548 278.732C465.404 279.416 465.152 280.82 464.972 281.9C464.324 285.212 464.18 286.796 464.288 288.308C464.396 289.676 464.612 290.36 465.08 291.008C465.512 291.548 465.908 291.8 466.52 291.872C467.024 291.944 468.32 291.332 468.212 291.116C468.176 291.044 468.248 290.972 468.32 290.972C468.428 290.972 468.644 290.72 468.824 290.468C469.976 288.776 470.336 285.032 469.58 282.188C469.184 280.64 468.68 279.344 468.176 278.372ZM480.452 270.308C480.56 270.236 480.812 270.056 480.992 269.912C481.316 269.732 481.388 269.696 481.28 269.876C481.208 269.948 481.1 270.056 480.992 270.056C480.956 270.056 480.848 270.128 480.776 270.236C480.704 270.308 480.56 270.416 480.488 270.416C480.344 270.416 480.344 270.38 480.452 270.308ZM471.2 264.8C471.308 264.8 471.308 264.8 471.308 264.872C471.344 264.908 471.308 264.98 471.236 265.016C471.2 265.052 471.128 265.052 471.128 265.016C471.128 264.944 471.164 264.836 471.2 264.8ZM470.624 266.312C470.66 266.276 470.768 265.988 470.876 265.7C471.092 265.052 471.2 265.088 470.984 265.736C470.876 266.024 470.768 266.276 470.696 266.312C470.624 266.384 470.624 266.384 470.624 266.312ZM470.408 266.96C470.48 266.708 470.588 266.528 470.624 266.528C470.66 266.564 470.588 266.744 470.516 266.96C470.444 267.14 470.336 267.356 470.3 267.392C470.264 267.428 470.3 267.248 470.408 266.96ZM469.868 268.472C469.94 268.112 470.012 268.004 470.012 268.22C470.012 268.328 469.976 268.472 469.904 268.58C469.796 268.796 469.796 268.796 469.868 268.472ZM468.896 271.352C469.04 270.956 469.22 270.416 469.328 270.164C469.364 269.948 469.472 269.732 469.508 269.732C469.544 269.732 469.58 269.588 469.58 269.444C469.544 269.3 469.616 269.12 469.652 269.048C469.868 268.796 469.832 269.66 469.616 270.308C469.472 270.668 469.256 271.244 469.148 271.568C469.004 271.964 468.824 272.288 468.752 272.324C468.572 272.396 468.572 272.36 468.896 271.352ZM468.5 272.612C468.536 272.54 468.572 272.504 468.608 272.576C468.608 272.612 468.536 272.756 468.5 272.828C468.464 272.9 468.428 272.936 468.392 272.9C468.392 272.828 468.428 272.72 468.5 272.612ZM467.924 274.772C467.996 274.772 468.032 274.772 468.032 274.808C468.032 274.844 468.032 274.88 467.924 274.916C467.888 274.952 467.852 274.952 467.816 274.88C467.816 274.808 467.888 274.772 467.924 274.772ZM467.024 275.024C467.096 274.844 467.312 274.772 467.312 274.988C467.312 275.06 467.276 275.132 467.168 275.132C467.096 275.132 467.024 275.096 467.024 275.024ZM467.204 276.644C467.276 276.716 467.312 276.68 467.348 276.572C467.42 276.464 467.492 276.356 467.6 276.356C467.708 276.356 467.744 276.428 467.708 276.644C467.636 277.04 467.456 277.364 467.348 277.22C467.312 277.184 467.348 277.04 467.42 276.968C467.6 276.716 467.6 276.716 467.42 276.716C467.024 276.788 466.736 276.752 466.7 276.644C466.7 276.5 467.096 276.464 467.204 276.644ZM466.664 280.352C466.7 280.136 466.772 279.848 466.844 279.704C466.916 279.56 466.916 279.344 466.88 279.2C466.772 278.876 466.844 278.84 467.024 279.128C467.096 279.272 467.132 279.416 466.988 279.704C466.88 279.92 466.772 280.244 466.736 280.424C466.664 280.784 466.628 280.784 466.664 280.352ZM466.592 280.964C466.7 280.82 466.736 280.82 466.736 280.964C466.772 281.036 466.7 281.18 466.628 281.324C466.52 281.54 466.52 281.54 466.448 281.324C466.448 281.18 466.52 281.036 466.592 280.964ZM466.412 282.008C466.34 282.188 466.304 282.044 466.376 281.756C466.448 281.612 466.484 281.576 466.484 281.684C466.484 281.756 466.448 281.936 466.412 282.008ZM465.332 290.18C465.116 289.856 464.864 288.704 464.864 288.056C464.864 285.752 464.9 285.5 465.44 282.152C465.8 279.74 465.8 279.74 465.944 279.812C466.016 279.848 466.052 279.812 465.98 279.704C465.944 279.632 465.98 279.236 466.052 278.84C466.124 278.408 466.196 278.192 466.232 278.336C466.232 278.444 466.304 278.552 466.34 278.516C466.484 278.408 466.484 278.624 466.376 279.092C466.16 280.172 465.512 284.096 465.368 285.248C465.188 286.904 465.188 289.244 465.368 289.856C465.512 290.36 465.512 290.468 465.332 290.18ZM465.728 288.308C465.728 288.524 465.728 288.38 465.692 287.912C465.656 287.516 465.62 287.336 465.692 287.552C465.728 287.732 465.764 288.092 465.728 288.308ZM465.764 286.76L465.692 287.156V286.832C465.62 286.508 465.728 285.644 465.908 284.204C465.98 283.808 466.052 283.304 466.052 283.124C466.088 282.728 466.268 282.296 466.376 282.368C466.412 282.44 466.376 282.62 466.34 282.872C466.196 283.304 466.124 283.808 465.908 285.644C465.872 286.04 465.8 286.544 465.764 286.76ZM468.068 287.444C468.032 287.48 467.996 287.732 468.032 288.056C468.068 288.344 468.068 288.56 467.996 288.596C467.96 288.596 467.78 288.848 467.636 289.1C467.492 289.424 467.24 289.82 466.988 290.036C466.592 290.54 466.412 290.576 466.304 290.18C465.98 289.028 466.124 286.184 466.664 283.304C466.772 282.62 466.952 281.648 466.988 281.216C467.132 280.496 467.168 280.388 467.42 280.352C467.708 280.352 467.708 280.352 468.068 281.972C468.464 283.952 468.5 287.12 468.068 287.444ZM499.585 269.228C499.009 270.236 498.469 271.136 498.289 271.352C498.253 271.388 497.857 271.964 497.425 272.612C495.337 275.744 493.825 277.436 492.637 277.976C492.169 278.192 491.629 278.264 491.629 278.084C491.629 278.012 491.557 277.832 491.485 277.688C491.377 277.472 491.341 277.004 491.341 275.816C491.377 274.268 491.485 273.476 491.881 271.856C491.989 271.388 492.205 270.488 492.385 269.768C492.673 268.364 492.997 267.284 493.393 266.276C493.609 265.664 493.609 265.556 493.537 265.304C493.393 265.052 493.213 264.944 493.105 265.124C493.069 265.16 492.889 265.196 492.745 265.16C492.421 265.124 492.421 265.124 491.881 266.096C491.017 267.608 488.857 271.064 488.029 272.18C487.597 272.756 486.949 273.656 486.553 274.196C486.193 274.7 485.653 275.384 485.365 275.708C485.113 276.068 484.753 276.536 484.537 276.752C483.133 278.48 481.513 279.884 480.649 280.028C480.289 280.1 480.253 280.1 480.217 279.74C480.145 279.524 480.181 278.912 480.253 278.372C480.397 277.112 481.513 272.612 481.909 271.748C482.521 270.416 482.665 270.128 482.773 270.128C482.953 270.128 483.241 269.516 483.529 268.616C484.141 266.564 485.077 263.936 485.329 263.468C485.473 263.216 485.365 262.964 485.113 263C485.041 263.036 484.933 263 484.933 262.964C484.861 262.82 484.069 263.18 484.069 263.324C484.069 263.396 483.997 263.504 483.925 263.576C483.673 263.756 482.629 265.844 482.377 266.528C482.269 266.852 482.053 267.392 481.909 267.68C481.765 267.968 481.477 268.652 481.297 269.192C481.117 269.732 480.793 270.56 480.613 271.064C480.397 271.532 480.145 272.36 480.001 272.864C479.389 275.132 478.993 276.932 478.885 277.544C478.777 278.372 478.777 279.848 478.885 280.28C478.993 280.676 479.353 281.072 479.821 281.288C480.217 281.504 481.081 281.504 481.585 281.252C482.845 280.676 484.789 278.804 485.761 277.256C485.905 277.004 486.193 276.644 486.373 276.428C486.517 276.212 486.877 275.672 487.093 275.276C487.309 274.844 487.777 274.088 488.137 273.584C488.461 273.08 488.713 272.648 488.641 272.648C488.605 272.648 488.569 272.72 488.533 272.792C488.461 272.972 487.561 274.052 487.525 273.98C487.453 273.944 487.813 273.404 488.641 272.288C489.289 271.388 490.297 269.876 490.621 269.192C490.801 268.832 491.197 268.364 491.197 268.472C491.197 268.508 491.125 268.904 491.017 269.336C490.909 269.804 490.765 270.344 490.765 270.56C490.729 270.776 490.621 271.208 490.549 271.496C490.333 272.396 489.937 275.384 489.937 276.176C489.937 277.148 490.225 278.264 490.585 278.624C491.053 279.128 491.557 279.308 492.385 279.344C493.249 279.344 493.681 279.164 494.725 278.264C495.589 277.544 496.273 276.68 497.713 274.592C498.937 272.792 499.873 271.136 500.089 270.416C500.449 269.3 500.449 269.192 500.305 269.084C500.161 268.976 500.197 268.688 500.449 268.112C500.629 267.608 500.161 268.256 499.585 269.228ZM482.989 268.22C483.133 268.04 483.241 268.076 483.133 268.256C483.097 268.328 483.025 268.364 482.989 268.364C482.917 268.364 482.917 268.292 482.989 268.22ZM490.981 276.068C490.909 275.888 491.053 274.52 491.197 273.836C491.233 273.584 491.305 273.188 491.341 272.936C491.449 272.252 491.701 271.244 491.809 271.136C491.881 271.064 491.881 271.1 491.845 271.244C491.809 271.352 491.737 271.64 491.701 271.928C491.629 272.18 491.521 272.756 491.449 273.188C491.341 273.62 491.197 274.484 491.161 275.096C491.089 275.708 491.017 276.14 490.981 276.068ZM497.389 274.736C497.317 274.916 497.245 274.952 497.245 274.808C497.245 274.772 497.281 274.7 497.353 274.664C497.389 274.628 497.425 274.664 497.389 274.736ZM499.369 271.496C499.297 271.604 499.225 271.856 499.153 271.964C499.081 272.108 498.937 272.324 498.829 272.468C498.649 272.648 498.649 272.612 498.901 272.108C499.189 271.46 499.477 271.064 499.369 271.496ZM499.585 270.812C499.513 270.956 499.441 271.064 499.369 271.028C499.297 271.028 499.153 271.172 499.009 271.352C498.865 271.532 498.721 271.748 498.649 271.82C498.613 271.892 498.289 272.36 497.929 272.864C497.605 273.404 497.281 273.872 497.209 273.908C497.101 273.944 497.281 273.62 497.641 273.08C498.289 272.144 499.189 270.704 499.513 270.2C499.693 269.876 499.873 269.624 499.909 269.624C499.981 269.624 499.801 270.2 499.585 270.812ZM512.035 272.792C511.279 273.764 511.135 274.052 511.567 273.656C511.855 273.404 511.855 273.404 511.711 273.62C511.315 274.268 510.451 275.384 510.055 275.852C509.803 276.14 509.479 276.572 509.335 276.86C509.155 277.148 508.759 277.76 508.471 278.192C508.147 278.66 507.391 279.704 506.779 280.568C506.167 281.432 505.483 282.44 505.231 282.764C504.691 283.448 503.539 284.816 503.467 284.816C503.431 284.816 502.891 285.392 502.243 286.076C501.055 287.408 499.975 288.236 499.003 288.632L498.427 288.848L498.247 288.344C498.139 287.948 498.139 287.408 498.247 285.176C498.463 282.116 498.895 279.416 499.795 275.6C499.903 275.132 500.155 274.088 500.335 273.26C500.695 271.532 502.099 266.852 503.467 262.784C503.971 261.236 504.691 259.112 505.051 258.032C505.411 256.988 505.807 255.836 505.951 255.548C506.059 255.224 506.455 254.252 506.743 253.352C507.463 251.264 508.327 249.212 509.011 247.808C509.299 247.16 509.623 246.332 509.731 245.936C509.875 245.288 509.875 245.144 509.731 244.856C509.623 244.604 509.515 244.496 509.371 244.568C509.263 244.604 509.083 244.64 508.975 244.604C508.867 244.604 508.579 244.784 508.363 245.036C508.147 245.252 507.895 245.468 507.859 245.468C507.643 245.432 507.283 245.972 507.283 246.296C507.247 246.512 506.923 247.448 506.527 248.384C506.131 249.32 505.519 250.976 505.123 252.092C504.727 253.172 504.151 254.792 503.827 255.692C503.539 256.556 502.999 258.068 502.711 259.004C502.387 259.976 501.991 261.164 501.811 261.632C501.631 262.136 501.271 263.252 501.019 264.152C500.767 265.016 500.299 266.564 499.975 267.536C497.491 275.672 495.907 284.6 496.519 287.516C496.771 288.776 497.203 289.64 497.815 290.072C498.067 290.252 498.463 290.432 498.679 290.432C500.191 290.54 502.567 288.776 503.827 286.652C504.079 286.256 504.655 285.356 505.159 284.636C505.663 283.916 506.095 283.232 506.167 283.088C506.239 282.836 506.239 282.836 505.987 283.088L505.735 283.304L505.987 282.872C506.095 282.62 506.563 281.936 506.995 281.288C508.219 279.596 508.615 278.984 509.263 278.012C509.587 277.544 509.911 277.076 510.019 276.968C510.379 276.644 510.235 277.148 509.659 278.048C509.371 278.552 509.011 279.092 508.939 279.308C508.831 279.524 508.615 279.884 508.435 280.064C508.291 280.28 508.147 280.496 508.147 280.568C508.111 280.712 506.419 283.304 505.843 284.06C505.447 284.6 504.727 285.752 504.979 285.5C505.735 284.672 507.823 281.684 508.903 279.92C510.127 277.796 511.315 275.456 511.387 274.988C511.387 274.772 511.495 274.412 511.639 274.232C511.747 274.052 511.855 273.764 511.891 273.62C511.891 273.44 512.035 273.152 512.143 272.936C512.251 272.756 512.431 272.468 512.539 272.324C512.863 271.784 512.647 272 512.035 272.792ZM503.467 260.84C503.467 260.732 503.611 260.444 503.719 260.192C503.863 259.904 503.935 259.832 503.899 260.012C503.791 260.372 503.467 261.02 503.467 260.84ZM502.639 261.632C502.639 261.416 503.107 260.12 503.179 260.012C503.323 259.868 503.323 259.94 503.071 260.768C502.891 261.344 502.639 261.848 502.639 261.632ZM497.887 288.488C497.779 288.596 497.275 287.732 497.383 287.588C497.419 287.516 497.383 287.48 497.311 287.516C497.275 287.552 497.167 287.48 497.131 287.372C497.023 286.904 497.167 283.412 497.383 281.972C497.923 278.552 498.967 273.764 499.975 270.272C500.191 269.444 500.551 268.184 500.731 267.536C501.163 265.952 502.567 261.776 502.603 261.956C502.603 262.028 502.243 263.252 501.811 264.656C500.947 267.356 499.543 272.36 499.039 274.556C498.355 277.544 497.527 282.08 497.599 282.584C497.635 282.836 498.175 280.028 498.463 278.264C498.643 277.148 499.291 274.304 500.083 271.424C500.731 268.868 501.127 267.536 502.495 263.252C502.855 262.208 503.431 260.84 503.431 261.128C503.431 261.236 503.179 262.136 502.855 263.144C501.343 267.752 500.767 269.732 500.227 271.892C500.047 272.756 499.723 274.088 499.507 274.844C499.327 275.636 499.111 276.5 499.075 276.752C499.039 277.004 498.859 277.94 498.679 278.804C498.139 281.684 497.959 282.836 497.815 285.428C497.707 287.372 497.707 288.056 497.815 288.236C497.887 288.344 497.923 288.452 497.887 288.488ZM139.246 338.78C139.246 336.404 141.19 334.928 145.33 334.928H148.282V335.612C148.282 340.508 145.114 342.2 142.774 342.2C140.614 342.2 139.246 341.012 139.246 338.78ZM150.514 331.976C150.514 327.872 147.67 325.568 144.106 325.568C140.866 325.568 138.13 327.476 137.626 330.536L139.786 331.04C140.326 329.204 141.622 327.656 144.106 327.656C146.518 327.656 148.282 328.88 148.282 332.048V332.84H145.258C140.182 332.84 136.906 334.748 136.906 338.78C136.906 342.776 139.534 344.288 142.558 344.288C145.438 344.288 147.274 342.956 148.282 341.192L148.822 344H150.514V331.976ZM168.599 331.544C168.599 327.728 166.439 325.568 163.019 325.568C160.391 325.568 158.015 327.26 156.791 329.636V325.856H154.559V344H156.791V336.044C156.791 330.896 159.347 327.656 162.659 327.656C165.179 327.656 166.367 329.204 166.367 331.832V344H168.599V331.544ZM187.361 318.512V328.412C186.029 326.684 183.581 325.568 181.637 325.568C176.345 325.568 173.537 329.744 173.537 334.928C173.537 340.112 176.345 344.288 181.637 344.288C184.013 344.288 186.425 343.028 187.361 341.624V344H189.593V318.512H187.361ZM175.877 334.928C175.877 330.896 177.893 327.656 181.745 327.656C185.597 327.656 187.577 330.896 187.577 334.928C187.577 339.032 185.597 342.2 181.745 342.2C177.893 342.2 175.877 339.032 175.877 334.928ZM203.907 327.944H206.787V344H209.019V327.944H213.411V325.856H209.019V324.344C209.019 321.788 210.243 320.6 212.223 320.6C213.087 320.6 213.627 320.816 214.095 321.032L214.563 318.98C214.095 318.728 213.303 318.512 212.403 318.512C208.875 318.512 206.787 320.456 206.787 324.704V325.856H203.907V327.944ZM217.054 338.312C217.054 342.128 219.214 344.288 222.634 344.288C225.262 344.288 227.638 342.596 228.862 340.22V344H231.094V325.856H228.862V333.812C228.862 338.96 226.306 342.2 222.994 342.2C220.474 342.2 219.286 340.652 219.286 338.024V325.856H217.054V338.312ZM249.915 331.544C249.915 327.728 247.755 325.568 244.335 325.568C241.707 325.568 239.331 327.26 238.107 329.636V325.856H235.875V344H238.107V336.044C238.107 330.896 240.663 327.656 243.975 327.656C246.495 327.656 247.683 329.204 247.683 331.832V344H249.915V331.544ZM268.174 338.492C267.202 340.868 265.582 342.2 262.882 342.2C258.994 342.2 257.194 338.852 257.194 334.928C257.194 331.004 258.994 327.656 262.882 327.656C265.582 327.656 267.202 328.988 268.174 331.364L270.19 330.572C268.93 327.296 266.446 325.568 262.882 325.568C257.554 325.568 254.854 330.176 254.854 334.928C254.854 339.68 257.554 344.288 262.882 344.288C266.446 344.288 268.93 342.56 270.19 339.284L268.174 338.492ZM273.322 327.944H276.526V338.852C276.526 342.668 278.434 344.288 281.062 344.288C282.178 344.288 283.366 344.108 284.23 343.64L283.618 341.624C282.934 342.056 282.07 342.2 281.35 342.2C279.802 342.2 278.758 341.264 278.758 339.212V327.944H283.654V325.856H278.758V318.512L276.526 319.988V325.856H273.322V327.944ZM287.508 320.636C287.508 321.68 288.3 322.472 289.344 322.472C290.388 322.472 291.18 321.68 291.18 320.636C291.18 319.592 290.388 318.8 289.344 318.8C288.3 318.8 287.508 319.592 287.508 320.636ZM288.228 325.856V344H290.46V325.856H288.228ZM295.6 334.928C295.6 339.68 298.804 344.288 304.096 344.288C309.388 344.288 312.592 339.68 312.592 334.928C312.592 330.176 309.388 325.568 304.096 325.568C298.804 325.568 295.6 330.176 295.6 334.928ZM297.94 334.928C297.94 331.292 300.028 327.656 304.096 327.656C308.164 327.656 310.252 331.292 310.252 334.928C310.252 338.564 308.164 342.2 304.096 342.2C300.028 342.2 297.94 338.564 297.94 334.928ZM330.634 331.544C330.634 327.728 328.474 325.568 325.054 325.568C322.426 325.568 320.05 327.26 318.826 329.636V325.856H316.594V344H318.826V336.044C318.826 330.896 321.382 327.656 324.694 327.656C327.214 327.656 328.402 329.204 328.402 331.832V344H330.634V331.544ZM337.773 338.78C337.773 336.404 339.717 334.928 343.857 334.928H346.809V335.612C346.809 340.508 343.641 342.2 341.301 342.2C339.141 342.2 337.773 341.012 337.773 338.78ZM349.041 331.976C349.041 327.872 346.197 325.568 342.633 325.568C339.393 325.568 336.657 327.476 336.153 330.536L338.313 331.04C338.853 329.204 340.149 327.656 342.633 327.656C345.045 327.656 346.809 328.88 346.809 332.048V332.84H343.785C338.709 332.84 335.433 334.748 335.433 338.78C335.433 342.776 338.061 344.288 341.085 344.288C343.965 344.288 345.801 342.956 346.809 341.192L347.349 344H349.041V331.976ZM354.343 318.512V344H356.575V318.512H354.343ZM372.058 338.312C372.058 342.128 374.218 344.288 377.638 344.288C380.266 344.288 382.642 342.596 383.866 340.22V344H386.098V325.856H383.866V333.812C383.866 338.96 381.31 342.2 377.998 342.2C375.478 342.2 374.29 340.652 374.29 338.024V325.856H372.058V338.312ZM396.68 325.568C393.8 325.568 391.604 327.512 391.604 330.428C391.604 336.116 400.172 334.82 400.172 338.96C400.172 340.94 399.02 342.2 396.896 342.2C394.232 342.2 393.116 340.472 392.324 338.276L390.344 339.32C391.064 341.696 393.044 344.288 396.896 344.288C400.352 344.288 402.512 342.092 402.512 338.6C402.512 333.344 393.908 334.064 393.908 330.392C393.908 328.736 395.024 327.656 396.572 327.656C398.012 327.656 399.02 328.268 400.136 329.744L401.72 328.376C400.496 326.648 398.984 325.568 396.68 325.568ZM422.222 333.92C422.222 328.916 418.946 325.568 414.266 325.568C409.442 325.568 406.202 329.528 406.202 334.928C406.202 340.328 409.442 344.288 414.266 344.288C417.614 344.288 419.954 342.992 421.826 339.284L419.846 338.312C418.514 341.012 417.038 342.2 414.266 342.2C410.63 342.2 408.542 339.176 408.542 334.928H422.222V333.92ZM414.266 327.656C417.542 327.656 419.486 329.708 419.918 332.84H408.686C409.298 329.888 411.242 327.656 414.266 327.656ZM437.52 326.18C436.62 325.82 435.828 325.568 434.784 325.568C432.336 325.568 430.536 326.864 429.456 329.096V325.856H427.224V344H429.456V336.98C429.456 330.788 431.688 327.656 434.46 327.656C435.396 327.656 436.224 327.872 437.016 328.304L437.52 326.18ZM203.989 387.92C203.989 382.916 200.713 379.568 196.033 379.568C191.209 379.568 187.969 383.528 187.969 388.928C187.969 394.328 191.209 398.288 196.033 398.288C199.381 398.288 201.721 396.992 203.593 393.284L201.613 392.312C200.281 395.012 198.805 396.2 196.033 396.2C192.397 396.2 190.309 393.176 190.309 388.928H203.989V387.92ZM196.033 381.656C199.309 381.656 201.253 383.708 201.685 386.84H190.453C191.065 383.888 193.009 381.656 196.033 381.656ZM207.016 379.856L212.128 388.1L206.008 398H208.348L213.352 390.08L218.356 398H220.696L214.576 388.1L219.688 379.856H217.204L213.352 386.12L209.5 379.856H207.016ZM227.079 405.344V395.444C228.411 397.172 230.859 398.288 232.803 398.288C238.095 398.288 240.903 394.112 240.903 388.928C240.903 383.744 238.095 379.568 232.803 379.568C230.427 379.568 228.015 380.828 227.079 382.232V379.856H224.847V405.344H227.079ZM238.563 388.928C238.563 392.96 236.547 396.2 232.695 396.2C228.843 396.2 226.863 392.96 226.863 388.928C226.863 384.824 228.843 381.656 232.695 381.656C236.547 381.656 238.563 384.824 238.563 388.928ZM260.661 387.92C260.661 382.916 257.385 379.568 252.705 379.568C247.881 379.568 244.641 383.528 244.641 388.928C244.641 394.328 247.881 398.288 252.705 398.288C256.053 398.288 258.393 396.992 260.265 393.284L258.285 392.312C256.953 395.012 255.477 396.2 252.705 396.2C249.069 396.2 246.981 393.176 246.981 388.928H260.661V387.92ZM252.705 381.656C255.981 381.656 257.925 383.708 258.357 386.84H247.125C247.737 383.888 249.681 381.656 252.705 381.656ZM275.959 380.18C275.059 379.82 274.267 379.568 273.223 379.568C270.775 379.568 268.975 380.864 267.895 383.096V379.856H265.663V398H267.895V390.98C267.895 384.788 270.127 381.656 272.899 381.656C273.835 381.656 274.663 381.872 275.455 382.304L275.959 380.18ZM278.736 374.636C278.736 375.68 279.528 376.472 280.572 376.472C281.616 376.472 282.408 375.68 282.408 374.636C282.408 373.592 281.616 372.8 280.572 372.8C279.528 372.8 278.736 373.592 278.736 374.636ZM279.456 379.856V398H281.688V379.856H279.456ZM303.059 387.92C303.059 382.916 299.783 379.568 295.103 379.568C290.279 379.568 287.039 383.528 287.039 388.928C287.039 394.328 290.279 398.288 295.103 398.288C298.451 398.288 300.791 396.992 302.663 393.284L300.683 392.312C299.351 395.012 297.875 396.2 295.103 396.2C291.467 396.2 289.379 393.176 289.379 388.928H303.059V387.92ZM295.103 381.656C298.379 381.656 300.323 383.708 300.755 386.84H289.523C290.135 383.888 292.079 381.656 295.103 381.656ZM320.843 385.544C320.843 381.728 318.683 379.568 315.263 379.568C312.635 379.568 310.259 381.26 309.035 383.636V379.856H306.803V398H309.035V390.044C309.035 384.896 311.591 381.656 314.903 381.656C317.423 381.656 318.611 383.204 318.611 385.832V398H320.843V385.544ZM339.102 392.492C338.13 394.868 336.51 396.2 333.81 396.2C329.922 396.2 328.122 392.852 328.122 388.928C328.122 385.004 329.922 381.656 333.81 381.656C336.51 381.656 338.13 382.988 339.102 385.364L341.118 384.572C339.858 381.296 337.374 379.568 333.81 379.568C328.482 379.568 325.782 384.176 325.782 388.928C325.782 393.68 328.482 398.288 333.81 398.288C337.374 398.288 339.858 396.56 341.118 393.284L339.102 392.492ZM360.681 387.92C360.681 382.916 357.405 379.568 352.725 379.568C347.901 379.568 344.661 383.528 344.661 388.928C344.661 394.328 347.901 398.288 352.725 398.288C356.073 398.288 358.413 396.992 360.285 393.284L358.305 392.312C356.973 395.012 355.497 396.2 352.725 396.2C349.089 396.2 347.001 393.176 347.001 388.928H360.681V387.92ZM352.725 381.656C356.001 381.656 357.945 383.708 358.377 386.84H347.145C347.757 383.888 349.701 381.656 352.725 381.656ZM370.577 379.568C367.697 379.568 365.501 381.512 365.501 384.428C365.501 390.116 374.069 388.82 374.069 392.96C374.069 394.94 372.917 396.2 370.793 396.2C368.129 396.2 367.013 394.472 366.221 392.276L364.241 393.32C364.961 395.696 366.941 398.288 370.793 398.288C374.249 398.288 376.409 396.092 376.409 392.6C376.409 387.344 367.805 388.064 367.805 384.392C367.805 382.736 368.921 381.656 370.469 381.656C371.909 381.656 372.917 382.268 374.033 383.744L375.617 382.376C374.393 380.648 372.881 379.568 370.577 379.568ZM380.092 396.236C380.092 397.316 380.848 398.072 381.928 398.072C382.972 398.072 383.764 397.316 383.764 396.236C383.764 395.192 382.972 394.4 381.928 394.4C380.848 394.4 380.092 395.192 380.092 396.236Z" fill="black"/>
<path d="M203.468 105V78.72H210.272C211.952 78.72 213.416 79.044 214.664 79.692C215.912 80.34 216.872 81.264 217.544 82.464C218.24 83.64 218.588 85.02 218.588 86.604V97.08C218.588 99.504 217.832 101.436 216.32 102.876C214.832 104.292 212.816 105 210.272 105H203.468ZM210.272 102.12C211.856 102.12 213.092 101.676 213.98 100.788C214.892 99.9 215.348 98.664 215.348 97.08V86.604C215.348 85.044 214.892 83.82 213.98 82.932C213.092 82.044 211.856 81.6 210.272 81.6H206.708V102.12H210.272ZM240.462 105H225.342V78.72H240.462V81.636H228.546V89.808H239.202V92.724H228.546V102.084H240.462V105ZM254.272 105.36C251.704 105.36 249.676 104.724 248.188 103.452C246.724 102.156 245.968 100.392 245.92 98.16H249.16C249.16 99.504 249.604 100.56 250.492 101.328C251.404 102.096 252.664 102.48 254.272 102.48C255.784 102.48 256.96 102.108 257.8 101.364C258.664 100.596 259.096 99.552 259.096 98.232C259.096 97.176 258.808 96.252 258.232 95.46C257.656 94.668 256.852 94.116 255.82 93.804L252.256 92.688C250.456 92.136 249.064 91.224 248.08 89.952C247.12 88.656 246.64 87.12 246.64 85.344C246.64 83.952 246.952 82.728 247.576 81.672C248.224 80.616 249.124 79.8 250.276 79.224C251.452 78.624 252.808 78.324 254.344 78.324C256.648 78.324 258.484 78.972 259.852 80.268C261.244 81.54 261.964 83.244 262.012 85.38H258.772C258.772 84.084 258.376 83.064 257.584 82.32C256.816 81.576 255.724 81.204 254.308 81.204C252.916 81.204 251.824 81.552 251.032 82.248C250.264 82.92 249.88 83.856 249.88 85.056C249.88 86.136 250.168 87.072 250.744 87.864C251.32 88.656 252.148 89.22 253.228 89.556L256.828 90.708C258.58 91.26 259.936 92.196 260.896 93.516C261.856 94.836 262.336 96.384 262.336 98.16C262.336 99.576 262 100.836 261.328 101.94C260.656 103.02 259.708 103.86 258.484 104.46C257.26 105.06 255.856 105.36 254.272 105.36ZM282.734 105H268.694V102.084H274.058V81.636H268.694V78.72H282.734V81.636H277.37V102.084H282.734V105ZM297.444 105.36C295.044 105.36 293.148 104.688 291.756 103.344C290.364 102 289.668 100.152 289.668 97.8V85.92C289.668 83.568 290.364 81.72 291.756 80.376C293.148 79.032 295.044 78.36 297.444 78.36C299.796 78.36 301.668 79.044 303.06 80.412C304.452 81.756 305.148 83.592 305.148 85.92H301.908C301.908 84.432 301.512 83.28 300.72 82.464C299.952 81.648 298.86 81.24 297.444 81.24C296.028 81.24 294.912 81.648 294.096 82.464C293.304 83.28 292.908 84.42 292.908 85.884V97.8C292.908 99.288 293.304 100.44 294.096 101.256C294.888 102.072 296.004 102.48 297.444 102.48C298.86 102.48 299.952 102.072 300.72 101.256C301.512 100.44 301.908 99.288 301.908 97.8V94.56H296.58V91.68H305.148V97.8C305.148 100.128 304.452 101.976 303.06 103.344C301.668 104.688 299.796 105.36 297.444 105.36ZM311.326 105V78.72H315.646L323.674 101.22C323.434 98.34 323.314 95.76 323.314 93.48V78.72H326.446V105H322.126L314.134 82.5C314.35 85.38 314.458 87.96 314.458 90.24V105H311.326ZM348.392 105H333.272V78.72H348.392V81.636H336.476V89.808H347.132V92.724H336.476V102.084H348.392V105ZM354.57 105V78.72H362.706C364.242 78.72 365.598 79.044 366.774 79.692C367.974 80.316 368.898 81.204 369.546 82.356C370.194 83.484 370.518 84.792 370.518 86.28C370.518 88.056 370.05 89.58 369.114 90.852C368.202 92.124 366.954 93 365.37 93.48L370.878 105H367.062L362.022 93.84H357.81V105H354.57ZM362.706 90.96C364.05 90.96 365.13 90.54 365.946 89.7C366.762 88.836 367.17 87.696 367.17 86.28C367.17 84.888 366.762 83.76 365.946 82.896C365.13 82.032 364.05 81.6 362.706 81.6H357.81V90.96H362.706Z" fill="black"/>
<rect x="10.5" y="10.5" width="570" height="468" stroke="black"/>
<rect width="20" height="20" fill="#0671A1"/>
<rect x="571" width="20" height="20" fill="#0671A1"/>
<rect x="573" y="469" width="20" height="20" fill="#0671A1"/>
<rect y="469" width="20" height="20" fill="#0671A1"/>
<g filter="url(#filter0_d)">
<path fill-rule="evenodd" clip-rule="evenodd" d="M622 496.791L583 479L592.224 521L603.495 504.411L622 496.791Z" fill="#414042"/>
<path d="M622.381 497.716L624.512 496.838L622.415 495.881L583.415 478.09L581.594 477.259L582.023 479.215L591.247 521.215L591.746 523.483L593.051 521.562L604.154 505.222L622.381 497.716Z" stroke="white" stroke-opacity="0.8" stroke-width="2"/>
</g>
<defs>
<filter id="filter0_d" x="577.188" y="473.519" width="52.8368" height="56.4481" filterUnits="userSpaceOnUse" color-interpolation-filters="sRGB">
<feFlood flood-opacity="0" result="BackgroundImageFix"/>
<feColorMatrix in="SourceAlpha" type="matrix" values="0 0 0 0 0 0 0 0 0 0 0 0 0 0 0 0 0 0 127 0"/>
<feOffset dy="1"/>
<feGaussianBlur stdDeviation="1.5"/>
<feColorMatrix type="matrix" values="0 0 0 0 0 0 0 0 0 0 0 0 0 0 0 0 0 0 0.25 0"/>
<feBlend mode="normal" in2="BackgroundImageFix" result="effect1_dropShadow"/>
<feBlend mode="normal" in="SourceGraphic" in2="effect1_dropShadow" result="shape"/>
</filter>
</defs>
</svg>
