<svg width="329" height="848" viewBox="0 0 329 848" fill="none" xmlns="http://www.w3.org/2000/svg">
<path d="M286.924 294.015V392.657H282.957L275.022 384.389V313.74L286.924 294.015Z" fill="#0097A7"/>
<path d="M315.955 247.965C315.955 247.965 307.713 351.319 287.029 392.657H282.901C282.901 392.657 282.403 351.319 276.698 320.311L274.637 313.74L287.029 294.015L315.955 247.965ZM187.333 313.284H195.688V317.457L199.893 384.298C199.893 384.298 191.51 392.657 166.46 392.657H158.105L187.333 313.284Z" fill="#00838F"/>
<path d="M283.615 392.657C283.615 392.657 309.444 319.792 316.677 247.965V392.657H283.615ZM158 247.797V392.488L195.687 318.081V247.797H158Z" fill="#0097A7"/>
<path d="M254.059 362.889L315.682 247.797H268.462L221.187 362.889H254.059Z" fill="#33BDCD"/>
<path d="M158.932 247.137L206.453 243L253.974 362.91H220.92L196.122 317.415L158.932 247.137Z" fill="#80D5E0"/>
<path d="M21.1321 330H19.9261L23.4541 316.86H25.0021L28.5301 330H27.3241L26.3701 326.328H22.0681L21.1321 330ZM22.3381 325.302H26.1001L24.8401 320.496C24.5761 319.452 24.3721 318.564 24.2281 317.832C24.1201 318.408 23.9101 319.296 23.5981 320.496L22.3381 325.302ZM35.0031 330.18C33.8991 330.18 33.0291 329.85 32.3931 329.19C31.7571 328.518 31.4391 327.612 31.4391 326.472V320.1H32.6271V326.472C32.6271 327.3 32.8371 327.948 33.2571 328.416C33.6771 328.884 34.2591 329.118 35.0031 329.118C35.7591 329.118 36.3471 328.89 36.7671 328.434C37.1991 327.966 37.4151 327.312 37.4151 326.472V320.1H38.6031V326.472C38.6031 327.612 38.2791 328.518 37.6311 329.19C36.9831 329.85 36.1071 330.18 35.0031 330.18ZM46.8941 330C46.1021 330 45.4901 329.796 45.0581 329.388C44.6261 328.968 44.4101 328.374 44.4101 327.606V321.18H41.5661V320.1H44.4101V317.4H45.5981V320.1H49.6121V321.18H45.5981V327.606C45.5981 328.482 46.0301 328.92 46.8941 328.92H49.4321V330H46.8941ZM56.607 330.18C55.503 330.18 54.621 329.85 53.961 329.19C53.301 328.53 52.971 327.636 52.971 326.508V323.592C52.971 322.464 53.301 321.57 53.961 320.91C54.621 320.25 55.503 319.92 56.607 319.92C57.711 319.92 58.593 320.25 59.253 320.91C59.913 321.57 60.243 322.464 60.243 323.592V326.508C60.243 327.636 59.913 328.53 59.253 329.19C58.593 329.85 57.711 330.18 56.607 330.18ZM56.607 329.136C57.387 329.136 57.987 328.908 58.407 328.452C58.839 327.996 59.055 327.348 59.055 326.508V323.592C59.055 322.752 58.839 322.104 58.407 321.648C57.987 321.192 57.387 320.964 56.607 320.964C55.827 320.964 55.221 321.192 54.789 321.648C54.369 322.104 54.159 322.752 54.159 323.592V326.508C54.159 327.348 54.369 327.996 54.789 328.452C55.221 328.908 55.827 329.136 56.607 329.136ZM69.758 316.86H70.946V330H69.758V328.434H69.74C69.572 328.974 69.248 329.4 68.768 329.712C68.288 330.024 67.706 330.18 67.022 330.18C66.038 330.18 65.246 329.856 64.646 329.208C64.058 328.548 63.764 327.666 63.764 326.562V323.556C63.764 322.452 64.058 321.57 64.646 320.91C65.234 320.25 66.026 319.92 67.022 319.92C67.706 319.92 68.288 320.076 68.768 320.388C69.248 320.7 69.572 321.126 69.74 321.666H69.776L69.758 319.632V316.86ZM67.364 329.154C68.108 329.154 68.69 328.926 69.11 328.47C69.542 328.002 69.758 327.354 69.758 326.526V323.592C69.758 322.764 69.548 322.116 69.128 321.648C68.708 321.18 68.114 320.946 67.346 320.946C66.602 320.946 66.014 321.18 65.582 321.648C65.162 322.104 64.952 322.752 64.952 323.592V326.526C64.952 327.354 65.162 328.002 65.582 328.47C66.014 328.926 66.608 329.154 67.364 329.154ZM81.829 325.32H75.727V326.508C75.727 327.348 75.943 328.002 76.375 328.47C76.807 328.926 77.419 329.154 78.211 329.154C78.847 329.154 79.369 329.016 79.777 328.74C80.197 328.452 80.473 328.05 80.605 327.534H81.793C81.649 328.35 81.259 328.998 80.623 329.478C79.987 329.946 79.183 330.18 78.211 330.18C77.083 330.18 76.189 329.85 75.529 329.19C74.881 328.518 74.557 327.624 74.557 326.508V323.592C74.557 322.476 74.881 321.588 75.529 320.928C76.189 320.256 77.083 319.92 78.211 319.92C79.327 319.92 80.209 320.256 80.857 320.928C81.505 321.588 81.829 322.476 81.829 323.592V325.32ZM75.727 324.366H80.659V323.592C80.659 322.752 80.449 322.098 80.029 321.63C79.609 321.162 79.003 320.928 78.211 320.928C77.407 320.928 76.789 321.162 76.357 321.63C75.937 322.098 75.727 322.752 75.727 323.592V324.366ZM88.5179 330.18C87.5819 330.18 86.8139 329.94 86.2139 329.46C85.6259 328.98 85.2899 328.35 85.2059 327.57H86.3939C86.4779 328.026 86.7119 328.398 87.0959 328.686C87.4799 328.974 87.9539 329.118 88.5179 329.118H89.5439C90.1799 329.118 90.6779 328.962 91.0379 328.65C91.4099 328.338 91.5959 327.924 91.5959 327.408C91.5959 326.928 91.4459 326.532 91.1459 326.22C90.8459 325.908 90.4319 325.71 89.9039 325.626L88.2119 325.374C86.3759 325.098 85.4579 324.192 85.4579 322.656C85.4579 321.804 85.7399 321.138 86.3039 320.658C86.8799 320.166 87.6779 319.92 88.6979 319.92H89.4179C90.3299 319.92 91.0739 320.142 91.6499 320.586C92.2259 321.03 92.5619 321.63 92.6579 322.386H91.4699C91.3979 321.966 91.1759 321.63 90.8039 321.378C90.4439 321.114 89.9819 320.982 89.4179 320.982H88.6979C88.0499 320.982 87.5459 321.132 87.1859 321.432C86.8379 321.72 86.6639 322.128 86.6639 322.656C86.6639 323.112 86.8079 323.472 87.0959 323.736C87.3839 323.988 87.8159 324.162 88.3919 324.258L90.0479 324.492C90.9359 324.624 91.6079 324.93 92.0639 325.41C92.5319 325.89 92.7659 326.52 92.7659 327.3C92.7659 328.188 92.4839 328.89 91.9199 329.406C91.3559 329.922 90.5639 330.18 89.5439 330.18H88.5179ZM97.4749 330H96.2869V316.86H97.4749V324.33H99.5809L102.605 320.1H103.991L100.661 324.798L104.045 330H102.641L99.5989 325.392H97.4749V330ZM41.9621 352V338.86H43.6181L45.2741 343.576L45.8501 345.376C46.0421 344.74 46.2341 344.14 46.4261 343.576L48.0281 338.86H49.6661V352H48.5141V345.34C48.5141 343.612 48.6041 341.65 48.7841 339.454L46.4621 346.186H45.2021L42.8441 339.454C43.0241 341.602 43.1141 343.564 43.1141 345.34V352H41.9621ZM56.661 341.92C57.753 341.92 58.611 342.22 59.235 342.82C59.871 343.408 60.189 344.212 60.189 345.232V352H59.019V350.38C58.863 350.932 58.503 351.37 57.939 351.694C57.375 352.018 56.679 352.18 55.851 352.18C54.831 352.18 54.027 351.922 53.439 351.406C52.851 350.878 52.557 350.17 52.557 349.282C52.557 348.394 52.839 347.692 53.403 347.176C53.979 346.66 54.759 346.402 55.743 346.402H59.001V345.25C59.001 344.53 58.791 343.972 58.371 343.576C57.963 343.18 57.387 342.982 56.643 342.982C55.983 342.982 55.437 343.138 55.005 343.45C54.573 343.762 54.321 344.182 54.249 344.71H53.061C53.193 343.858 53.577 343.18 54.213 342.676C54.861 342.172 55.677 341.92 56.661 341.92ZM56.067 351.19C56.955 351.19 57.663 350.992 58.191 350.596C58.731 350.2 59.001 349.672 59.001 349.012V347.374H55.743C55.119 347.374 54.627 347.542 54.267 347.878C53.919 348.202 53.745 348.652 53.745 349.228C53.745 349.828 53.955 350.308 54.375 350.668C54.795 351.016 55.359 351.19 56.067 351.19ZM65.492 355.24L66.95 351.334L63.26 342.1H64.574L66.968 348.328C67.148 348.82 67.34 349.366 67.544 349.966C67.736 349.354 67.916 348.808 68.084 348.328L70.262 342.1H71.54L66.734 355.24H65.492ZM78.247 341.92C79.339 341.92 80.197 342.22 80.821 342.82C81.457 343.408 81.775 344.212 81.775 345.232V352H80.605V350.38C80.449 350.932 80.089 351.37 79.525 351.694C78.961 352.018 78.265 352.18 77.437 352.18C76.417 352.18 75.613 351.922 75.025 351.406C74.437 350.878 74.143 350.17 74.143 349.282C74.143 348.394 74.425 347.692 74.989 347.176C75.565 346.66 76.345 346.402 77.329 346.402H80.587V345.25C80.587 344.53 80.377 343.972 79.957 343.576C79.549 343.18 78.973 342.982 78.229 342.982C77.569 342.982 77.023 343.138 76.591 343.45C76.159 343.762 75.907 344.182 75.835 344.71H74.647C74.779 343.858 75.163 343.18 75.799 342.676C76.447 342.172 77.263 341.92 78.247 341.92ZM77.653 351.19C78.541 351.19 79.249 350.992 79.777 350.596C80.317 350.2 80.587 349.672 80.587 349.012V347.374H77.329C76.705 347.374 76.213 347.542 75.853 347.878C75.505 348.202 75.331 348.652 75.331 349.228C75.331 349.828 75.541 350.308 75.961 350.668C76.381 351.016 76.945 351.19 77.653 351.19Z" fill="#414042"/>
<path d="M14.2151 717.603C14.2151 707.425 14.2151 697.243 14.2151 687.057C14.2151 685.563 14.1161 684.057 14.0283 682.551C13.8305 679.253 14.6326 678.253 17.6538 676.912C20.4334 675.67 23.1471 674.439 26.0475 673.329C28.1239 672.527 30.1894 671.625 32.2219 670.713C34.7927 669.559 37.3965 668.515 39.9124 667.251C41.8656 666.155 43.937 665.284 46.0868 664.657C46.6331 664.472 47.1623 664.24 47.6688 663.964C49.3497 663.206 51.0417 662.491 52.6896 661.678C55.5791 660.271 58.5454 659.029 61.4788 657.71C63.1883 656.784 64.9934 656.047 66.8622 655.512C67.4711 655.334 68.0601 655.095 68.62 654.797C70.4108 654.006 72.1576 653.137 73.9704 652.412C75.1105 652.046 76.0999 651.318 76.7881 650.338C77.4762 649.357 77.8255 648.179 77.7826 646.982C77.7826 644.091 77.7826 641.2 77.7826 638.31C77.7826 620.196 77.7826 602.085 77.7826 583.978C77.7956 583.059 77.8912 582.143 78.0683 581.241C78.184 580.313 78.5925 579.446 79.2347 578.766C79.8768 578.086 80.7191 577.628 81.6389 577.46C82.375 577.307 83.0663 576.987 83.6604 576.526C84.903 575.578 86.3401 574.917 87.8683 574.591C88.944 574.21 89.9873 573.743 90.9884 573.195C91.2411 573.075 91.4608 572.855 91.7245 572.745C95.2292 571.294 98.8327 570.063 102.216 568.348C105.6 566.633 109.544 565.677 112.829 563.501C113.522 563.097 114.259 562.776 115.027 562.545C115.73 562.292 116.51 562.226 117.224 561.918C120.355 560.456 123.442 558.928 126.563 557.455C127.551 556.983 128.573 556.587 129.584 556.191C129.902 556.059 130.276 556.059 130.584 555.917C133.967 554.345 137.384 552.861 140.691 551.135C143.449 549.695 146.184 549.53 148.733 551.19C150.228 552.179 151.893 552.884 153.644 553.268C154.272 553.358 154.875 553.579 155.413 553.916C157.214 555.18 159.227 556.11 161.357 556.664C161.955 556.888 162.529 557.172 163.07 557.51C163.422 557.697 163.73 557.994 164.092 558.148C167.707 559.643 171.321 561.116 174.936 562.6C175.709 562.82 176.448 563.145 177.133 563.567C178.464 564.593 180.013 565.3 181.66 565.633C182.582 565.952 183.478 566.342 184.34 566.798L188.416 568.612C189.778 569.216 191.141 569.832 192.503 570.426C193.668 570.92 194.843 571.393 196.008 571.876C196.892 572.138 197.74 572.508 198.535 572.976C199.804 573.878 201.243 574.514 202.764 574.844C203.891 575.24 204.973 575.752 205.994 576.372C206.514 576.733 207.07 577.039 207.653 577.284C210.774 578.065 211.598 580.428 211.729 583.187C211.828 585.385 211.729 587.704 211.729 589.958C211.729 608.764 211.729 627.56 211.652 646.367C211.556 647.845 212.007 649.307 212.918 650.475C213.83 651.642 215.139 652.434 216.596 652.698C218.008 653.148 219.373 653.733 220.672 654.445L231.11 658.842C232.208 659.293 233.219 659.743 234.263 660.216C235.306 660.689 236.636 661.315 237.833 661.898C239.196 662.502 240.569 663.085 241.942 663.678L252.676 668.306C253.577 668.701 254.467 669.097 255.346 669.504C256.543 670.053 257.719 670.603 258.927 671.175C260.136 671.746 261.553 672.274 262.86 672.889C263.234 673.043 263.541 673.384 263.959 673.483C266.848 674.197 269.331 675.813 272.023 676.989C274.715 678.165 275.319 678.825 275.319 681.924C275.319 702.742 275.293 723.568 275.242 744.401C275.242 746.709 275.242 749.028 275.242 751.336C275.31 752.204 275.077 753.069 274.583 753.786C274.089 754.502 273.363 755.027 272.528 755.271C269.749 756.371 267.035 757.591 264.256 758.778C263.788 759.002 263.336 759.259 262.904 759.547C262.509 759.8 262.157 760.207 261.74 760.295C258.202 761.042 255.247 763.196 251.852 764.372C251.076 764.564 250.335 764.876 249.655 765.296C248.051 766.549 246.073 766.857 244.337 767.681C240.909 769.297 237.24 770.374 234.01 772.407C233.064 772.955 232.042 773.359 230.978 773.605C229.51 773.92 228.12 774.525 226.891 775.386C225.94 775.919 224.939 776.357 223.902 776.694C222.65 777.255 221.419 777.881 220.167 778.442C218.915 779.002 217.97 779.365 216.871 779.827C215.41 780.337 213.992 780.962 212.63 781.695C211.437 782.529 210.016 782.977 208.56 782.977C207.104 782.977 205.683 782.529 204.489 781.695C203.178 780.973 201.824 780.33 200.435 779.772L196.997 778.167C196.855 778.064 196.704 777.976 196.546 777.903C193.008 776.804 189.8 775.034 186.406 773.649C185.186 773.155 184.033 772.55 182.835 771.968C181.638 771.385 180.638 771.055 179.539 770.572C175.705 768.89 171.761 767.461 168.069 765.439C167.07 764.9 165.872 764.647 164.861 764.208C163.85 763.768 162.576 763.163 161.444 762.614C161.082 762.438 160.785 762.119 160.423 761.976C157.127 760.646 153.908 759.349 150.667 758.019C149.593 757.608 148.55 757.12 147.547 756.557C146.742 756.035 145.803 755.757 144.844 755.757C143.885 755.757 142.946 756.035 142.141 756.557C140.912 757.184 139.651 757.746 138.362 758.239C137.537 758.5 136.742 758.846 135.989 759.272C134.367 760.38 132.528 761.13 130.595 761.471C129.912 761.593 129.268 761.876 128.716 762.295C127.341 763.371 125.741 764.122 124.036 764.493C123.302 764.661 122.613 764.983 122.014 765.439C120.63 766.604 118.927 766.911 117.323 767.549C113.697 768.989 110.182 770.704 106.622 772.286C105.523 772.759 104.491 773.155 103.447 773.616C102.184 774.166 100.931 774.716 99.6897 775.298C99.3821 775.441 99.1293 775.727 98.8217 775.859L89.1316 779.915C87.7777 780.387 86.4658 780.971 85.2095 781.662C83.9785 782.547 82.4974 783.015 80.9818 783C79.4661 782.984 77.9951 782.484 76.7828 781.574C75.6826 780.95 74.5368 780.41 73.3551 779.959C72.0477 779.354 70.7513 778.727 69.433 778.156C68.3343 777.65 67.0818 777.233 65.9282 776.738C64.7746 776.243 63.3355 775.54 62.0281 774.957C61.0283 774.518 60.0066 774.144 59.0068 773.704C58.0071 773.265 56.7217 772.605 55.5681 772.143C54.4145 771.682 53.0303 771.044 51.7668 770.528C50.5034 770.011 49.163 769.33 47.8556 768.758C46.7569 768.285 45.6033 767.868 44.5046 767.384C43.406 766.9 42.1426 766.219 40.9341 765.68C39.9453 765.23 38.9235 764.856 37.9238 764.416C36.5615 763.823 35.2102 763.218 33.8588 762.603C33.6501 762.504 33.4853 762.306 33.2765 762.218L23.9161 758.25C22.5427 757.668 21.1584 757.096 19.7851 756.502C18.8843 756.118 18.0164 755.634 17.0935 755.304C16.2219 755.064 15.4621 754.525 14.9462 753.782C14.4304 753.039 14.1912 752.139 14.2701 751.237C14.325 745.863 14.27 740.477 14.3249 735.102V717.603H14.2151ZM141.658 716.944V687.266C141.676 686.688 141.628 686.108 141.515 685.541C141.427 685.141 141.213 684.78 140.904 684.511C140.596 684.241 140.209 684.079 139.801 684.046C138.944 683.925 138.131 683.991 137.736 684.903C136.978 686.629 135.604 687.101 133.825 687.222C132.851 687.243 131.912 687.588 131.155 688.201C129.902 689.322 128.339 690.039 126.672 690.256C125.816 690.353 125.001 690.676 124.31 691.19C123.037 692.288 121.493 693.024 119.839 693.323C118.763 693.514 117.738 693.926 116.829 694.532C115.502 695.556 113.95 696.249 112.302 696.554C111.354 696.752 110.459 697.15 109.676 697.719C108.453 698.688 107.013 699.344 105.479 699.632C104.402 699.981 103.361 700.434 102.37 700.984C101.349 701.467 100.349 702.017 99.3161 702.457C98.17 702.767 97.064 703.21 96.0201 703.776C94.5863 704.772 92.9636 705.464 91.252 705.809C90.19 706.043 89.1805 706.471 88.2748 707.073C87.2985 707.887 86.1358 708.446 84.8908 708.7C83.4736 708.931 82.9792 709.601 82.8584 711.085C82.8584 711.547 82.8584 712.008 82.8584 712.47C82.8584 721.67 82.8584 730.87 82.8584 740.059C82.8901 740.867 82.7359 741.672 82.4079 742.411C82.3065 742.735 82.1025 743.017 81.8267 743.214C81.5508 743.411 81.2183 743.513 80.8793 743.505C80.5403 743.496 80.2134 743.377 79.948 743.166C79.6827 742.955 79.4933 742.663 79.4086 742.334C79.1303 741.514 79.011 740.649 79.0571 739.784C79.0571 731.288 79.0571 722.78 79.0571 714.284C79.0571 713.185 79.145 712.085 79.0571 710.986C78.9363 709.535 78.3539 709.008 76.9477 708.634C76.0977 708.488 75.2866 708.17 74.5637 707.7C73.1756 706.657 71.5793 705.926 69.8835 705.556C68.9191 705.39 68.0101 704.99 67.2357 704.391C65.9063 703.028 64.2803 702.742 62.5774 702.369C61.5122 702.162 60.5108 701.706 59.655 701.039C58.7103 700.287 57.605 699.764 56.4251 699.511C55.1886 699.28 54.0092 698.81 52.9533 698.126C51.843 697.309 50.5804 696.722 49.2399 696.4C47.9377 695.957 46.6676 695.424 45.4386 694.807C44.329 694.232 43.1841 693.73 42.0108 693.301C40.5482 692.961 39.1692 692.329 37.9568 691.443C37.1296 690.833 36.1759 690.416 35.1662 690.223C33.6305 689.959 32.1846 689.316 30.9584 688.354C30.093 687.705 29.0679 687.303 27.9921 687.189C26.3332 687.002 24.9488 686.673 24.2017 684.991C24.0106 684.596 23.682 684.284 23.2774 684.114C22.8729 683.944 22.4202 683.928 22.0044 684.068C21.5972 684.109 21.2154 684.285 20.9191 684.568C20.6227 684.851 20.4287 685.224 20.3675 685.629C20.2527 686.252 20.1975 686.885 20.2026 687.519C20.2026 705.978 20.2026 724.433 20.2026 742.884V747.05C20.179 748.103 20.5094 749.134 21.1409 749.977C21.7723 750.82 22.6684 751.426 23.6854 751.699C24.1139 751.853 24.5862 751.908 25.0147 752.084C28.4974 753.557 31.9801 755.052 35.4628 756.535C35.5727 756.535 35.6496 756.678 35.7595 756.722C37.0119 757.283 38.2645 757.821 39.5389 758.393L49.2069 762.46C49.4156 762.548 49.5804 762.746 49.7782 762.845C51.0197 763.416 52.2612 764.021 53.5246 764.537C54.5256 764.795 55.4947 765.164 56.4141 765.636C58.0329 766.627 59.7622 767.423 61.5666 768.011C64.522 769.275 67.3676 770.759 70.4438 771.781C72.4687 772.621 74.4327 773.602 76.3215 774.716C77.6069 775.364 78.365 775.001 78.7715 773.616C79.0022 772.836 79.0901 772.023 79.3318 771.253C79.3985 770.846 79.6117 770.477 79.9314 770.215C80.2511 769.954 80.6552 769.819 81.0676 769.835C81.9795 769.835 82.342 770.539 82.5617 771.286C82.7814 772.034 82.9682 773.089 83.2319 773.979C83.2588 774.184 83.3351 774.379 83.4541 774.548C83.5731 774.716 83.7312 774.854 83.9149 774.948C84.0986 775.042 84.3024 775.09 84.5088 775.088C84.7151 775.086 84.9179 775.033 85.0997 774.935C87.0223 774.144 88.9229 773.298 90.8016 772.44C94.0975 770.956 97.2727 769.44 100.514 767.945C100.667 767.879 100.854 767.868 101.008 767.802C104.363 766.432 107.706 765.047 111.039 763.647C111.247 763.57 111.401 763.361 111.61 763.262C112.851 762.68 114.082 762.086 115.345 761.537C116.444 761.064 117.609 760.701 118.707 760.207C122.212 758.613 125.695 756.986 129.21 755.392C129.617 755.205 130.122 755.205 130.54 755.019C131.429 754.634 132.297 754.161 133.176 753.744C134.259 753.102 135.413 752.589 136.615 752.216C140.01 751.567 141.735 749.721 141.68 745.775C141.559 736.146 141.647 726.539 141.647 716.944H141.658ZM210.279 741.708C210.279 751.358 210.279 761.016 210.279 770.682C210.256 771.607 210.334 772.532 210.51 773.441C210.873 775.067 211.674 775.386 213.169 774.672C213.949 774.287 214.74 773.935 215.531 773.572L224.078 769.923C224.342 769.802 224.551 769.571 224.814 769.462C226.221 768.824 227.649 768.208 229.066 767.604C230.165 767.131 231.263 766.703 232.362 766.219C233.461 765.735 234.746 765.12 235.944 764.548C237.141 763.977 238.064 763.658 239.108 763.196C240.415 762.614 241.7 761.987 243.008 761.427C244.107 760.965 245.205 760.591 246.194 760.13C249.863 758.492 253.522 756.832 257.18 755.183C258.274 754.834 259.333 754.385 260.344 753.842C261.624 752.955 263.064 752.328 264.585 751.996C267.881 751.193 269.09 749.622 269.134 746.192C269.134 743.939 269.134 741.686 269.134 739.443V692.949C269.134 690.751 269.134 688.453 269.134 686.2C269.17 685.7 269.015 685.204 268.701 684.813C268.388 684.422 267.938 684.163 267.442 684.09C266.968 683.974 266.469 684.018 266.023 684.218C265.577 684.417 265.211 684.758 264.981 685.189C264.511 685.889 263.852 686.442 263.08 686.783C261.541 687.399 259.963 687.913 258.356 688.321C258.092 688.392 257.816 688.405 257.547 688.36C257.278 688.314 257.022 688.211 256.796 688.058C256.682 687.813 256.623 687.547 256.623 687.277C256.623 687.008 256.682 686.741 256.796 686.497C257.101 685.677 257.626 684.957 258.315 684.418C259.003 683.879 259.827 683.541 260.696 683.441C261.5 683.366 262.295 683.211 263.069 682.98C263.301 682.935 263.517 682.829 263.694 682.672C263.87 682.515 264.001 682.313 264.072 682.087C264.143 681.862 264.152 681.621 264.097 681.391C264.042 681.161 263.926 680.951 263.761 680.781C263.529 680.45 263.224 680.176 262.871 679.979C261.059 679.089 259.235 678.209 257.378 677.396C254.082 675.967 250.786 674.593 247.49 673.186C247.172 673.054 246.919 672.79 246.6 672.636C245.403 672.087 244.205 671.537 242.997 671.021C242.008 670.718 241.049 670.328 240.129 669.856C236.888 667.712 232.966 667.064 229.703 664.997C229.487 664.926 229.267 664.867 229.044 664.821L224.935 663.019C223.837 662.568 222.815 662.139 221.76 661.7C220.562 661.298 219.406 660.779 218.31 660.15C217.168 659.376 215.889 658.824 214.542 658.523C213.475 658.301 212.453 657.9 211.521 657.336C209.071 655.753 207.785 655.819 205.291 657.226C202.556 658.776 199.37 659.425 196.755 661.271C192.954 661.931 190.064 664.92 186.175 665.382C185.659 665.448 185.186 665.954 184.692 666.25C184.249 666.62 183.757 666.927 183.231 667.163C180.601 668.017 178.058 669.121 175.639 670.46C173.716 671.427 171.673 672.285 169.673 673.076C166.564 674.307 163.499 675.604 160.478 677.044C158.456 678 156.347 678.825 154.303 679.748C153.827 679.963 153.401 680.273 153.051 680.66C152.844 680.825 152.69 681.047 152.609 681.299C152.527 681.551 152.521 681.821 152.591 682.076C152.661 682.331 152.804 682.56 153.003 682.734C153.202 682.908 153.448 683.021 153.71 683.057C154.534 683.298 155.446 683.287 156.259 683.562C157.132 683.812 157.952 684.222 158.676 684.771C159.496 685.488 160.481 685.99 161.543 686.233C162.958 686.483 164.317 686.985 165.553 687.717C166.79 688.558 168.166 689.172 169.618 689.531C170.736 689.784 171.8 690.234 172.76 690.861C174.02 691.78 175.463 692.418 176.99 692.729C178.105 692.966 179.154 693.442 180.066 694.125C181.011 694.87 182.111 695.393 183.286 695.653C184.539 696.03 185.759 696.512 186.933 697.093C188.032 697.576 189.053 698.192 190.152 698.643C191.416 699.181 192.921 699.368 193.964 700.17C195.316 701.154 196.876 701.813 198.524 702.094C199.386 702.166 200.215 702.462 200.93 702.951C202.775 704.809 205.324 704.919 207.522 705.908C208.108 706.138 208.759 706.138 209.345 705.908C211.74 704.886 214.553 704.809 216.531 702.753C217.014 702.237 218.025 702.193 218.805 701.995C220.319 701.64 221.749 700.99 223.013 700.083C224.179 699.359 225.486 698.891 226.847 698.709C227.074 698.645 227.312 698.631 227.545 698.666C227.778 698.701 228.001 698.786 228.199 698.913C228.398 699.041 228.566 699.209 228.695 699.407C228.824 699.605 228.909 699.827 228.945 700.061C229.053 700.526 228.975 701.016 228.729 701.426C228.484 701.836 228.088 702.134 227.627 702.259C226.99 702.512 226.297 702.633 225.649 702.874C224.815 703.113 224.025 703.484 223.309 703.974C222.194 704.906 220.845 705.514 219.409 705.732C217.738 705.949 216.168 706.652 214.894 707.755C214.311 708.223 213.626 708.547 212.894 708.7C210.565 709.283 210.18 709.722 210.18 712.14L210.279 741.708ZM206.555 741.895V717.251C206.555 715.405 206.555 713.547 206.555 711.701C206.555 709.645 206.049 709.129 204.039 708.612C203.238 708.463 202.484 708.124 201.842 707.623C200.683 706.661 199.299 706.007 197.821 705.721C196.747 705.513 195.73 705.082 194.832 704.457C193.494 703.351 191.873 702.643 190.152 702.413C189.032 702.198 187.974 701.736 187.054 701.061C186.057 700.286 184.896 699.752 183.659 699.5C182.411 699.115 181.204 698.607 180.055 697.983C179.078 697.532 178.155 696.972 177.166 696.554C175.947 696.06 174.485 695.928 173.486 695.158C172.13 694.182 170.59 693.49 168.959 693.125C167.893 692.906 166.881 692.476 165.982 691.861C164.847 690.978 163.523 690.368 162.115 690.08C160.929 689.819 159.808 689.322 158.819 688.618C157.835 687.716 156.56 687.197 155.226 687.156C154.499 687.217 153.771 687.059 153.135 686.702C152.499 686.346 151.984 685.807 151.656 685.156C151.478 684.717 151.143 684.361 150.716 684.157C150.289 683.953 149.801 683.918 149.348 684.057C148.861 684.156 148.426 684.427 148.121 684.82C147.817 685.214 147.664 685.703 147.689 686.2C147.689 686.541 147.689 686.893 147.689 687.244C147.689 704.655 147.689 722.066 147.689 739.476C147.689 742.026 147.689 744.566 147.689 747.116C147.654 747.872 147.818 748.625 148.165 749.298C148.512 749.972 149.03 750.542 149.667 750.952C150.417 751.375 151.209 751.722 152.029 751.985L162.653 756.382C164.356 757.096 166.037 757.821 167.729 758.58C168.674 758.987 169.629 759.393 170.563 759.822C171.662 760.35 172.826 760.987 174.002 761.416C177.232 762.614 180.077 764.713 183.505 765.417C183.934 765.505 184.263 765.933 184.681 766.142C185.714 766.648 186.746 767.142 187.801 767.593C191.405 769.11 195.03 770.572 198.612 772.132C200.402 772.924 202.116 773.902 203.896 774.727C205.138 775.309 205.885 774.946 206.203 773.627C206.392 772.665 206.477 771.684 206.456 770.704C206.558 761.112 206.588 751.509 206.544 741.895H206.555ZM143.02 642.256C143.02 632.539 143.02 622.823 143.02 613.106C143.02 610.6 142.394 609.808 139.922 609.006C139.04 608.761 138.218 608.338 137.505 607.764C136.593 606.967 135.486 606.424 134.297 606.192C133.17 605.998 132.1 605.555 131.166 604.895C130.086 604.036 128.823 603.437 127.474 603.148C126.242 602.885 125.067 602.405 124.003 601.73C122.861 600.953 121.599 600.37 120.267 600.004C118.996 599.658 117.782 599.129 116.664 598.432C115.571 597.688 114.354 597.145 113.071 596.827C111.785 596.552 110.563 596.038 109.468 595.311C108.443 594.579 107.286 594.053 106.062 593.761C104.936 593.543 103.869 593.09 102.931 592.431C101.737 591.527 100.355 590.903 98.8876 590.606C97.7604 590.393 96.6924 589.94 95.7565 589.276C94.7732 588.477 93.5998 587.947 92.3507 587.737C90.7065 587.637 89.1503 586.96 87.9561 585.825C87.5795 585.423 87.0858 585.15 86.5452 585.046C86.0047 584.941 85.445 585.01 84.9458 585.242C83.979 585.803 83.99 586.748 84.023 587.693C84.0889 590.397 84.2207 593.112 84.2207 595.827C84.2207 609.186 84.2207 622.548 84.2207 635.914C84.2207 639.321 84.0999 642.728 84.023 646.136C84.023 648.741 85.1216 651.884 88.8569 652.599C90.4727 653.014 92.0171 653.67 93.4383 654.544C96.185 655.962 99.0963 657.017 101.898 658.369C103.886 659.326 105.985 660.095 108.017 660.996C110.962 662.282 113.895 663.623 116.883 664.821C118.696 665.547 120.63 665.921 122.179 667.251C122.591 667.573 123.073 667.795 123.585 667.899C125.52 668.274 127.34 669.094 128.903 670.295C129.553 670.668 130.252 670.949 130.979 671.131C132.671 671.845 134.385 672.494 136.033 673.329C137.463 674.212 139.109 674.683 140.79 674.692C141.07 674.708 141.35 674.668 141.614 674.573C141.878 674.478 142.12 674.33 142.325 674.139C142.53 673.948 142.695 673.718 142.809 673.461C142.922 673.205 142.983 672.928 142.987 672.647C143.015 672.186 143.015 671.724 142.987 671.263L143.02 642.256ZM146.426 642.19V664.931C146.426 667.36 146.426 669.79 146.426 672.219C146.426 673.999 147.283 674.824 149.052 674.637C150.435 674.525 151.784 674.152 153.029 673.538C155.186 672.302 157.489 671.342 159.884 670.68C160.417 670.468 160.928 670.207 161.411 669.9C164.795 668.317 168.146 666.679 171.563 665.195C174.98 663.711 178.397 662.447 181.802 661.073C182.121 660.941 182.374 660.678 182.681 660.524L186.735 658.666L189.548 657.391C190.646 656.864 191.811 656.292 192.976 655.819C194.14 655.347 195.173 655.138 196.271 654.72C197.908 654.028 199.447 653.049 201.128 652.522C202.461 652.101 203.608 651.232 204.375 650.063C205.142 648.893 205.481 647.494 205.335 646.103C205.335 644.894 205.181 643.674 205.181 642.465C205.225 624.145 205.266 605.826 205.302 587.506C205.257 586.719 204.911 585.979 204.336 585.44C203.966 585.192 203.516 585.093 203.076 585.162C202.636 585.231 202.238 585.464 201.962 585.814C200.714 586.876 199.19 587.562 197.568 587.792C196.711 587.913 195.893 588.225 195.173 588.705C193.76 589.815 192.09 590.548 190.317 590.837C189.366 591.009 188.463 591.384 187.669 591.936C186.507 592.893 185.125 593.547 183.648 593.838C182.679 593.981 181.759 594.358 180.967 594.937C179.722 595.972 178.231 596.669 176.639 596.959C175.61 597.244 174.61 597.623 173.65 598.091C172.354 598.685 171.091 599.355 169.794 599.938C168.704 600.296 167.649 600.752 166.641 601.301C165.327 602.236 163.829 602.881 162.246 603.191C161.272 603.328 160.346 603.705 159.555 604.291C158.242 605.426 156.612 606.132 154.886 606.313C154.019 606.555 153.193 606.926 152.436 607.412C151.478 608.026 150.48 608.573 149.447 609.05C147.151 609.841 146.459 610.655 146.459 613.062L146.426 642.19ZM81.2434 656.061C80.6216 656.109 80.0105 656.249 79.4306 656.479C77.4149 657.725 75.222 658.659 72.9266 659.249C72.5669 659.427 72.2217 659.633 71.8939 659.864C70.6561 660.458 69.4146 661.04 68.1695 661.612C66.9244 662.183 65.6719 662.744 64.4121 663.294C63.1486 663.843 61.8852 664.393 60.6108 664.909C59.5122 665.349 58.4904 665.767 57.4467 666.217C56.1283 666.789 54.832 667.382 53.5246 667.965C50.2287 669.46 46.8339 670.933 43.494 672.439C42.9227 672.702 42.4613 673.274 41.879 673.417C39.0202 674.138 36.2867 675.286 33.771 676.824C33.4139 676.986 33.0469 677.126 32.6724 677.242C30.6728 678.132 28.6512 678.979 26.6957 679.957C25.8827 680.364 24.9708 680.946 25.2455 682.067C25.5202 683.188 26.5198 683.1 27.3548 683.276C27.638 683.333 27.9241 683.373 28.2118 683.397C29.6025 683.536 30.9044 684.145 31.9032 685.123C32.59 685.635 33.3699 686.008 34.1994 686.222C35.4298 686.684 36.9021 686.805 37.8909 687.563C39.3454 688.601 40.9986 689.327 42.7468 689.695C43.706 689.863 44.6171 690.239 45.4166 690.795C46.6294 691.78 48.0742 692.438 49.6134 692.707C50.5777 692.845 51.492 693.223 52.2721 693.806C53.4951 694.867 54.9909 695.564 56.5897 695.818C57.5484 695.964 58.4571 696.341 59.2375 696.917C60.3103 697.791 61.5756 698.398 62.9289 698.687C64.2376 699.096 65.5122 699.606 66.7412 700.214C67.8809 700.849 69.0673 701.397 70.2899 701.852C72.0368 702.325 73.7727 702.688 75.102 704.05C75.4261 704.306 75.8006 704.489 76.2007 704.589C77.4971 705.062 78.7934 705.534 80.1228 705.941C80.6092 706.097 81.1281 706.124 81.6279 706.018C83.188 705.6 84.737 705.128 86.2642 704.622C86.7635 704.482 87.2228 704.226 87.6046 703.875C88.653 702.87 89.9761 702.201 91.4059 701.951C92.5312 701.717 93.6062 701.285 94.581 700.676C96.0409 699.633 97.7084 698.917 99.4699 698.577C100.32 698.455 101.126 698.119 101.81 697.598C103.063 696.476 104.625 695.756 106.292 695.532C107.203 695.391 108.059 695.012 108.775 694.433C109.895 693.43 111.279 692.77 112.763 692.531C113.785 692.38 114.76 692.005 115.62 691.432C116.956 690.419 118.497 689.71 120.135 689.355C121.105 689.213 122.031 688.86 122.849 688.321C124.317 687.194 126.036 686.44 127.859 686.123C128.815 685.79 129.729 685.347 130.584 684.804C131.363 684.34 132.17 683.926 133.001 683.562C133.693 683.309 134.517 683.397 135.198 683.133C135.82 682.957 136.36 682.568 136.725 682.034C137.066 681.265 136.472 680.583 135.769 680.21C134.143 679.341 132.473 678.495 130.836 677.693C129.199 676.89 127.31 676.011 125.497 675.274C122.618 674.109 119.773 672.9 116.971 671.537C115.137 670.636 113.06 670.229 111.368 668.932C110.674 668.554 109.936 668.263 109.171 668.064L98.8437 663.755C98.635 663.667 98.4811 663.469 98.2724 663.371C97.0199 662.81 95.7455 662.271 94.493 661.722C93.2405 661.172 91.9992 660.623 90.7577 660.007C89.799 659.491 88.7949 659.065 87.7583 658.732C86.2879 658.43 84.8893 657.848 83.6384 657.017C82.8758 656.607 82.0685 656.286 81.2324 656.061H81.2434ZM144.899 606.478C146.865 605.906 148.964 605.302 151.062 604.675C151.286 604.611 151.485 604.481 151.634 604.302C152.864 603.145 154.43 602.41 156.105 602.202C157.008 602.038 157.859 601.661 158.588 601.103C159.714 600.105 161.108 599.459 162.598 599.246C163.617 599.125 164.589 598.747 165.422 598.146C166.627 597.159 168.064 596.493 169.596 596.212C170.731 596.034 171.811 595.606 172.76 594.959C174.004 593.925 175.496 593.236 177.089 592.958C178.054 592.81 178.969 592.433 179.759 591.859C181.019 590.813 182.537 590.126 184.154 589.87C185.169 589.749 186.137 589.37 186.966 588.771C188.133 587.731 189.59 587.071 191.141 586.88C192.056 586.799 192.933 586.472 193.679 585.935C195.003 584.71 196.703 583.97 198.502 583.835C199.348 583.725 200.128 583.462 200.293 582.483C200.352 582.045 200.258 581.599 200.025 581.222C199.793 580.845 199.437 580.56 199.018 580.417C197.041 579.483 195.03 578.603 193.02 577.713C189.932 576.35 187.021 574.591 183.769 573.569C183.67 573.569 183.582 573.426 183.483 573.382C182.286 572.822 181.099 572.283 179.891 571.723C178.682 571.162 177.254 570.623 175.936 570.019C174.617 569.414 173.497 569.019 172.277 568.491C168.908 567.197 165.607 565.729 162.389 564.094C159.093 562.27 155.468 561.313 152.15 559.544C150.469 558.643 148.481 558.269 146.8 557.181C146.209 556.805 145.527 556.599 144.827 556.585C144.128 556.572 143.438 556.751 142.833 557.104C139.801 558.621 136.769 560.126 133.704 561.588C133.088 561.885 132.363 561.94 131.726 562.215C128.364 563.666 125.013 565.15 121.652 566.611L121.509 566.71C120.41 567.227 119.235 567.81 118.07 568.271C114.423 569.821 110.764 571.349 107.084 572.888C106.985 572.888 106.897 573.02 106.787 573.063L103.161 574.657C102.216 575.064 101.272 575.46 100.338 575.899C99.0964 576.482 97.8879 577.119 96.6354 577.68C94.537 578.625 92.4166 579.527 90.3182 580.461C90.0633 580.602 89.8422 580.797 89.6701 581.032C89.4492 581.225 89.2888 581.478 89.2085 581.76C89.1281 582.041 89.131 582.341 89.217 582.621C89.303 582.901 89.4685 583.15 89.6931 583.339C89.9178 583.527 90.1922 583.646 90.483 583.681C91.2631 583.879 92.109 583.857 92.867 584.088C93.7557 584.287 94.596 584.66 95.339 585.187C96.382 586.101 97.6613 586.703 99.0304 586.924C100.162 587.067 101.239 587.494 102.162 588.166C103.269 589.085 104.593 589.705 106.007 589.969C107.191 590.166 108.317 590.624 109.303 591.31C110.442 592.19 111.769 592.796 113.181 593.079C114.351 593.341 115.467 593.806 116.477 594.453C117.699 595.323 119.08 595.943 120.542 596.278C121.67 596.483 122.738 596.933 123.673 597.597C124.798 598.494 126.126 599.102 127.54 599.366C128.668 599.562 129.733 600.022 130.649 600.707C131.672 601.544 132.882 602.121 134.176 602.389C135.352 602.626 136.472 603.089 137.472 603.752C139.592 605.445 142.174 605.786 144.888 606.478H144.899Z" fill="black"/>
<path d="M79.1675 756.689C79.1125 755.653 79.1125 754.615 79.1675 753.579C79.2339 752.898 79.4679 752.245 79.8487 751.677C79.9796 751.466 80.1655 751.294 80.3865 751.18C80.6074 751.066 80.8552 751.014 81.1033 751.03C81.3514 751.046 81.5906 751.128 81.7953 751.27C82 751.411 82.1625 751.605 82.2656 751.831C82.6332 752.544 82.8431 753.327 82.8809 754.128C82.9798 755.854 82.9358 757.591 82.8809 759.316C82.9104 759.891 82.7893 760.463 82.5294 760.976C82.1732 761.59 81.6075 762.054 80.9363 762.284C80.0464 762.438 79.4532 761.658 79.3104 760.811C79.1858 759.845 79.116 758.873 79.1016 757.899C79.1016 757.492 79.1016 757.085 79.1016 756.689H79.1675Z" fill="black"/>
<path d="M239.866 696.807C238.427 696.521 237.559 695.928 237.416 694.939C237.273 693.949 237.823 693.301 239.097 692.883C239.479 692.754 239.873 692.662 240.273 692.608C241.543 692.482 242.72 691.881 243.569 690.927C243.948 690.484 244.451 690.165 245.012 690.008C245.573 689.852 246.168 689.865 246.722 690.047C247.003 690.129 247.264 690.27 247.487 690.459C247.71 690.648 247.891 690.883 248.018 691.146C248.014 691.75 247.778 692.328 247.359 692.762C246.958 693.085 246.509 693.345 246.03 693.532C245.096 694.092 244.206 694.708 243.239 695.213C242.272 695.719 240.987 696.291 239.866 696.807Z" fill="black"/>
<path d="M84.6917 812.702C85.7957 812.726 86.6717 813.068 87.3197 813.728C87.9797 814.376 88.3097 815.24 88.3097 816.32V817.508C88.3097 818.612 87.9677 819.5 87.2837 820.172C86.5997 820.844 85.6937 821.18 84.5657 821.18C83.4257 821.18 82.5137 820.85 81.8297 820.19C81.1577 819.518 80.8217 818.624 80.8217 817.508H82.0097C82.0097 818.312 82.2377 818.948 82.6937 819.416C83.1497 819.884 83.7737 820.118 84.5657 820.118C85.3577 820.118 85.9817 819.884 86.4377 819.416C86.8937 818.948 87.1217 818.312 87.1217 817.508V816.32C87.1217 815.516 86.8937 814.892 86.4377 814.448C85.9937 813.992 85.3697 813.764 84.5657 813.764H83.4677V812.63L86.8157 808.94H81.3077V807.86H88.0217V809.048L84.6917 812.702ZM91.9927 821V807.86H95.0707C95.8867 807.86 96.6067 808.022 97.2307 808.346C97.8547 808.67 98.3347 809.132 98.6707 809.732C99.0067 810.332 99.1747 811.028 99.1747 811.82V817.04C99.1747 817.832 99.0067 818.528 98.6707 819.128C98.3347 819.728 97.8547 820.19 97.2307 820.514C96.6067 820.838 95.8867 821 95.0707 821H91.9927ZM95.0707 819.938C95.9587 819.938 96.6667 819.68 97.1947 819.164C97.7227 818.636 97.9867 817.928 97.9867 817.04V811.82C97.9867 810.944 97.7227 810.242 97.1947 809.714C96.6667 809.186 95.9587 808.922 95.0707 808.922H93.1807V819.938H95.0707ZM114.029 821H112.823L116.351 807.86H117.899L121.427 821H120.221L119.267 817.328H114.965L114.029 821ZM115.235 816.302H118.997L117.737 811.496C117.473 810.452 117.269 809.564 117.125 808.832C117.017 809.408 116.807 810.296 116.495 811.496L115.235 816.302ZM127.9 821.18C126.796 821.18 125.926 820.85 125.29 820.19C124.654 819.518 124.336 818.612 124.336 817.472V811.1H125.524V817.472C125.524 818.3 125.734 818.948 126.154 819.416C126.574 819.884 127.156 820.118 127.9 820.118C128.656 820.118 129.244 819.89 129.664 819.434C130.096 818.966 130.312 818.312 130.312 817.472V811.1H131.5V817.472C131.5 818.612 131.176 819.518 130.528 820.19C129.88 820.85 129.004 821.18 127.9 821.18ZM139.791 821C138.999 821 138.387 820.796 137.955 820.388C137.523 819.968 137.307 819.374 137.307 818.606V812.18H134.463V811.1H137.307V808.4H138.495V811.1H142.509V812.18H138.495V818.606C138.495 819.482 138.927 819.92 139.791 819.92H142.329V821H139.791ZM149.504 821.18C148.4 821.18 147.518 820.85 146.858 820.19C146.198 819.53 145.868 818.636 145.868 817.508V814.592C145.868 813.464 146.198 812.57 146.858 811.91C147.518 811.25 148.4 810.92 149.504 810.92C150.608 810.92 151.49 811.25 152.15 811.91C152.81 812.57 153.14 813.464 153.14 814.592V817.508C153.14 818.636 152.81 819.53 152.15 820.19C151.49 820.85 150.608 821.18 149.504 821.18ZM149.504 820.136C150.284 820.136 150.884 819.908 151.304 819.452C151.736 818.996 151.952 818.348 151.952 817.508V814.592C151.952 813.752 151.736 813.104 151.304 812.648C150.884 812.192 150.284 811.964 149.504 811.964C148.724 811.964 148.118 812.192 147.686 812.648C147.266 813.104 147.056 813.752 147.056 814.592V817.508C147.056 818.348 147.266 818.996 147.686 819.452C148.118 819.908 148.724 820.136 149.504 820.136ZM162.456 810.92C163.056 810.92 163.524 811.136 163.86 811.568C164.196 812 164.364 812.588 164.364 813.332V821H163.248V813.386C163.248 812.918 163.14 812.552 162.924 812.288C162.72 812.012 162.432 811.874 162.06 811.874C161.676 811.874 161.37 812.012 161.142 812.288C160.926 812.564 160.818 812.93 160.818 813.386V821H159.774V813.386C159.774 812.918 159.666 812.552 159.45 812.288C159.246 812.012 158.958 811.874 158.586 811.874C158.214 811.874 157.92 812.012 157.704 812.288C157.488 812.552 157.368 812.918 157.344 813.386V821H156.228V811.1H157.272V812.378H157.362C157.422 811.922 157.596 811.568 157.884 811.316C158.172 811.052 158.544 810.92 159 810.92C159.444 810.92 159.81 811.046 160.098 811.298C160.398 811.55 160.608 811.91 160.728 812.378H160.8C160.86 811.922 161.034 811.568 161.322 811.316C161.61 811.052 161.988 810.92 162.456 810.92ZM171.143 810.92C172.235 810.92 173.093 811.22 173.717 811.82C174.353 812.408 174.671 813.212 174.671 814.232V821H173.501V819.38C173.345 819.932 172.985 820.37 172.421 820.694C171.857 821.018 171.161 821.18 170.333 821.18C169.313 821.18 168.509 820.922 167.921 820.406C167.333 819.878 167.039 819.17 167.039 818.282C167.039 817.394 167.321 816.692 167.885 816.176C168.461 815.66 169.241 815.402 170.225 815.402H173.483V814.25C173.483 813.53 173.273 812.972 172.853 812.576C172.445 812.18 171.869 811.982 171.125 811.982C170.465 811.982 169.919 812.138 169.487 812.45C169.055 812.762 168.803 813.182 168.731 813.71H167.543C167.675 812.858 168.059 812.18 168.695 811.676C169.343 811.172 170.159 810.92 171.143 810.92ZM170.549 820.19C171.437 820.19 172.145 819.992 172.673 819.596C173.213 819.2 173.483 818.672 173.483 818.012V816.374H170.225C169.601 816.374 169.109 816.542 168.749 816.878C168.401 817.202 168.227 817.652 168.227 818.228C168.227 818.828 168.437 819.308 168.857 819.668C169.277 820.016 169.841 820.19 170.549 820.19ZM182.962 821C182.17 821 181.558 820.796 181.126 820.388C180.694 819.968 180.478 819.374 180.478 818.606V812.18H177.634V811.1H180.478V808.4H181.666V811.1H185.68V812.18H181.666V818.606C181.666 819.482 182.098 819.92 182.962 819.92H185.5V821H182.962ZM192.675 821.18C191.571 821.18 190.689 820.85 190.029 820.19C189.369 819.53 189.039 818.636 189.039 817.508V814.592C189.039 813.464 189.369 812.57 190.029 811.91C190.689 811.25 191.571 810.92 192.675 810.92C193.779 810.92 194.661 811.25 195.321 811.91C195.981 812.57 196.311 813.464 196.311 814.592V817.508C196.311 818.636 195.981 819.53 195.321 820.19C194.661 820.85 193.779 821.18 192.675 821.18ZM192.675 820.136C193.455 820.136 194.055 819.908 194.475 819.452C194.907 818.996 195.123 818.348 195.123 817.508V814.592C195.123 813.752 194.907 813.104 194.475 812.648C194.055 812.192 193.455 811.964 192.675 811.964C191.895 811.964 191.289 812.192 190.857 812.648C190.437 813.104 190.227 813.752 190.227 814.592V817.508C190.227 818.348 190.437 818.996 190.857 819.452C191.289 819.908 191.895 820.136 192.675 820.136ZM203.81 810.92C204.794 810.92 205.58 811.232 206.168 811.856C206.756 812.48 207.05 813.32 207.05 814.376V821H205.862V814.52C205.862 813.716 205.652 813.086 205.232 812.63C204.812 812.162 204.242 811.928 203.522 811.928C202.778 811.928 202.19 812.168 201.758 812.648C201.326 813.116 201.11 813.764 201.11 814.592V821H199.922V811.1H201.11V812.882C201.242 812.258 201.542 811.778 202.01 811.442C202.478 811.094 203.078 810.92 203.81 810.92ZM106.422 843.18C105.186 843.18 104.202 842.862 103.47 842.226C102.75 841.59 102.384 840.726 102.372 839.634H103.56C103.56 840.39 103.812 840.996 104.316 841.452C104.832 841.896 105.528 842.118 106.404 842.118C107.244 842.118 107.904 841.908 108.384 841.488C108.864 841.068 109.104 840.486 109.104 839.742C109.104 839.118 108.924 838.572 108.564 838.104C108.216 837.636 107.736 837.306 107.124 837.114L105.504 836.61C104.628 836.346 103.944 835.902 103.452 835.278C102.972 834.642 102.732 833.892 102.732 833.028C102.732 832.008 103.068 831.198 103.74 830.598C104.412 829.986 105.312 829.68 106.44 829.68C107.556 829.68 108.444 829.998 109.104 830.634C109.776 831.258 110.118 832.098 110.13 833.154H108.942C108.942 832.41 108.714 831.822 108.258 831.39C107.802 830.958 107.19 830.742 106.422 830.742C105.642 830.742 105.03 830.94 104.586 831.336C104.142 831.72 103.92 832.254 103.92 832.938C103.92 833.538 104.088 834.066 104.424 834.522C104.76 834.966 105.228 835.284 105.828 835.476L107.448 835.98C108.336 836.256 109.032 836.724 109.536 837.384C110.04 838.044 110.292 838.812 110.292 839.688C110.292 840.756 109.938 841.608 109.23 842.244C108.534 842.868 107.598 843.18 106.422 843.18ZM118.205 843C117.413 843 116.801 842.796 116.369 842.388C115.937 841.968 115.721 841.374 115.721 840.606V834.18H112.877V833.1H115.721V830.4H116.909V833.1H120.923V834.18H116.909V840.606C116.909 841.482 117.341 841.92 118.205 841.92H120.743V843H118.205ZM128.53 832.92C129.586 832.92 130.42 833.244 131.032 833.892C131.644 834.54 131.95 835.422 131.95 836.538V837.096H130.708V836.592C130.708 835.752 130.498 835.098 130.078 834.63C129.658 834.162 129.064 833.928 128.296 833.928C127.54 833.928 126.946 834.162 126.514 834.63C126.094 835.098 125.884 835.752 125.884 836.592V843H124.696V833.1H125.866V834.666H125.884C126.064 834.102 126.376 833.67 126.82 833.37C127.276 833.07 127.846 832.92 128.53 832.92ZM138.693 843.18C137.589 843.18 136.719 842.85 136.083 842.19C135.447 841.518 135.129 840.612 135.129 839.472V833.1H136.317V839.472C136.317 840.3 136.527 840.948 136.947 841.416C137.367 841.884 137.949 842.118 138.693 842.118C139.449 842.118 140.037 841.89 140.457 841.434C140.889 840.966 141.105 840.312 141.105 839.472V833.1H142.293V839.472C142.293 840.612 141.969 841.518 141.321 842.19C140.673 842.85 139.797 843.18 138.693 843.18ZM149.558 843.18C148.418 843.18 147.518 842.85 146.858 842.19C146.198 841.53 145.868 840.636 145.868 839.508V836.592C145.868 835.464 146.198 834.57 146.858 833.91C147.53 833.25 148.43 832.92 149.558 832.92C150.662 832.92 151.544 833.232 152.204 833.856C152.876 834.468 153.218 835.296 153.23 836.34H152.042C152.03 835.596 151.802 835.014 151.358 834.594C150.926 834.174 150.326 833.964 149.558 833.964C148.778 833.964 148.166 834.198 147.722 834.666C147.278 835.134 147.056 835.776 147.056 836.592V839.508C147.056 840.324 147.278 840.966 147.722 841.434C148.166 841.902 148.778 842.136 149.558 842.136C150.326 842.136 150.926 841.926 151.358 841.506C151.802 841.086 152.03 840.504 152.042 839.76H153.23C153.218 840.804 152.876 841.638 152.204 842.262C151.544 842.874 150.662 843.18 149.558 843.18ZM161.376 843C160.584 843 159.972 842.796 159.54 842.388C159.108 841.968 158.892 841.374 158.892 840.606V834.18H156.048V833.1H158.892V830.4H160.08V833.1H164.094V834.18H160.08V840.606C160.08 841.482 160.512 841.92 161.376 841.92H163.914V843H161.376ZM171.071 843.18C169.967 843.18 169.097 842.85 168.461 842.19C167.825 841.518 167.507 840.612 167.507 839.472V833.1H168.695V839.472C168.695 840.3 168.905 840.948 169.325 841.416C169.745 841.884 170.327 842.118 171.071 842.118C171.827 842.118 172.415 841.89 172.835 841.434C173.267 840.966 173.483 840.312 173.483 839.472V833.1H174.671V839.472C174.671 840.612 174.347 841.518 173.699 842.19C173.051 842.85 172.175 843.18 171.071 843.18ZM182.494 832.92C183.55 832.92 184.384 833.244 184.996 833.892C185.608 834.54 185.914 835.422 185.914 836.538V837.096H184.672V836.592C184.672 835.752 184.462 835.098 184.042 834.63C183.622 834.162 183.028 833.928 182.26 833.928C181.504 833.928 180.91 834.162 180.478 834.63C180.058 835.098 179.848 835.752 179.848 836.592V843H178.66V833.1H179.83V834.666H179.848C180.028 834.102 180.34 833.67 180.784 833.37C181.24 833.07 181.81 832.92 182.494 832.92ZM196.311 838.32H190.209V839.508C190.209 840.348 190.425 841.002 190.857 841.47C191.289 841.926 191.901 842.154 192.693 842.154C193.329 842.154 193.851 842.016 194.259 841.74C194.679 841.452 194.955 841.05 195.087 840.534H196.275C196.131 841.35 195.741 841.998 195.105 842.478C194.469 842.946 193.665 843.18 192.693 843.18C191.565 843.18 190.671 842.85 190.011 842.19C189.363 841.518 189.039 840.624 189.039 839.508V836.592C189.039 835.476 189.363 834.588 190.011 833.928C190.671 833.256 191.565 832.92 192.693 832.92C193.809 832.92 194.691 833.256 195.339 833.928C195.987 834.588 196.311 835.476 196.311 836.592V838.32ZM190.209 837.366H195.141V836.592C195.141 835.752 194.931 835.098 194.511 834.63C194.091 834.162 193.485 833.928 192.693 833.928C191.889 833.928 191.271 834.162 190.839 834.63C190.419 835.098 190.209 835.752 190.209 836.592V837.366Z" fill="#414042"/>
<g filter="url(#filter0_d)">
<path d="M171 111C269.5 111 239.5 201 242.5 225.5" stroke="#414042"/>
</g>
<g filter="url(#filter1_d)">
<path d="M243 233L237.804 224L248.196 224L243 233Z" fill="#414042"/>
</g>
<g filter="url(#filter2_d)">
<path d="M242.501 425C242.5 492 146.5 456.5 146.5 519.5" stroke="#414042"/>
</g>
<g filter="url(#filter3_d)">
<path d="M146.696 527L141.5 518L151.892 518L146.696 527Z" fill="#414042"/>
</g>
<path d="M51.9419 143.184C32.6882 143.184 26.4852 133.227 26.4852 115.429V89.9608C26.4852 80.9781 17.5067 78.2012 10 77.549V65.7964C16.6936 64.983 26.4852 61.2244 26.4852 53.0621V27.916C26.4852 9.30532 31.7069 0 51.9419 0H56.1473V10.287H51.9419C40.1948 10.287 37.7417 16.0021 37.7417 26.9413V53.2374C37.7417 63.3632 32.0363 69.0782 22.406 70.8733V71.1959C31.0551 73.2996 37.7417 79.1969 37.7417 88.5023V114.791C37.7417 124.749 40.6854 132.911 52.1031 132.911H56.3506V143.198L51.9419 143.184Z" fill="black"/>
<path d="M138.433 89.9608V115.43C138.433 133.227 132.23 143.184 112.977 143.184H108.568V132.897H112.773C124.198 132.897 127.135 124.735 127.135 114.777V88.4882C127.135 79.1829 133.828 73.3066 142.477 71.1819V70.8593C132.847 69.0642 127.135 63.3491 127.135 53.2234V26.9413C127.135 16.0021 124.689 10.287 112.942 10.287H108.694V0H112.942C133.177 0 138.398 9.30532 138.398 27.916V53.0621C138.398 61.2244 148.211 64.983 154.883 65.7964V77.5491C147.405 78.2012 138.433 80.8168 138.433 89.9608Z" fill="black"/>
<path d="M53.582 73.9869V68.903H58.5584V73.9869H53.582Z" fill="black"/>
<path d="M82.8167 72.5704C81.5114 73.7874 79.7855 74.4509 78.0015 74.4217C77.0247 74.4441 76.0563 74.2362 75.1747 73.8147C74.2932 73.3932 73.5231 72.7699 72.927 71.9954V80.9151H70.0884V56.919H72.6116L72.8079 59.1699C73.7891 57.4589 76.1091 56.5123 78.0226 56.5123C78.9338 56.5039 79.8374 56.6783 80.6801 57.0251C81.5227 57.372 82.2874 57.8843 82.9289 58.5318C84.6351 60.4141 85.5315 62.8931 85.4241 65.4319C85.4101 68.363 84.5339 70.9225 82.8167 72.5704ZM80.714 60.2498C80.2962 59.8306 79.7972 59.5011 79.2476 59.2817C78.698 59.0622 78.1094 58.9574 77.5179 58.9736C76.4593 58.9696 75.4381 59.3653 74.6583 60.0815C73.2565 61.3297 72.7448 63.3492 72.7448 65.467C72.7448 67.5847 73.2494 69.5762 74.6583 70.8173C75.4401 71.527 76.4623 71.913 77.5179 71.8972C78.1033 71.9174 78.6865 71.817 79.2315 71.6023C79.7765 71.3876 80.2715 71.0631 80.686 70.649C81.9367 69.2227 82.5763 67.3612 82.4663 65.467C82.4803 63.4825 82.0037 61.526 80.728 60.2498H80.714Z" fill="black"/>
<path d="M98.2572 77.451C97.3811 79.6037 96.1055 81.1184 93.5472 81.1184C92.4912 81.1393 91.4441 80.9212 90.4843 80.4803V78.026C91.2744 78.3165 92.1037 78.4867 92.9444 78.5309C93.5063 78.5802 94.0683 78.437 94.5382 78.1249C95.0082 77.8127 95.3581 77.3501 95.5307 76.8128L96.6732 73.9518L89.2437 56.9189H92.7482L98.2292 70.4457L103.311 56.9189H106.577L98.2572 77.451Z" fill="black"/>
<path d="M212.339 67H211.133L214.661 53.86H216.209L219.737 67H218.531L217.577 63.328H213.275L212.339 67ZM213.545 62.302H217.307L216.047 57.496C215.783 56.452 215.579 55.564 215.435 54.832C215.327 55.408 215.117 56.296 214.805 57.496L213.545 62.302ZM226.21 67.18C225.106 67.18 224.236 66.85 223.6 66.19C222.964 65.518 222.646 64.612 222.646 63.472V57.1H223.834V63.472C223.834 64.3 224.044 64.948 224.464 65.416C224.884 65.884 225.466 66.118 226.21 66.118C226.966 66.118 227.554 65.89 227.974 65.434C228.406 64.966 228.622 64.312 228.622 63.472V57.1H229.81V63.472C229.81 64.612 229.486 65.518 228.838 66.19C228.19 66.85 227.314 67.18 226.21 67.18ZM238.101 67C237.309 67 236.697 66.796 236.265 66.388C235.833 65.968 235.617 65.374 235.617 64.606V58.18H232.773V57.1H235.617V54.4H236.805V57.1H240.819V58.18H236.805V64.606C236.805 65.482 237.237 65.92 238.101 65.92H240.639V67H238.101ZM247.814 67.18C246.71 67.18 245.828 66.85 245.168 66.19C244.508 65.53 244.178 64.636 244.178 63.508V60.592C244.178 59.464 244.508 58.57 245.168 57.91C245.828 57.25 246.71 56.92 247.814 56.92C248.918 56.92 249.8 57.25 250.46 57.91C251.12 58.57 251.45 59.464 251.45 60.592V63.508C251.45 64.636 251.12 65.53 250.46 66.19C249.8 66.85 248.918 67.18 247.814 67.18ZM247.814 66.136C248.594 66.136 249.194 65.908 249.614 65.452C250.046 64.996 250.262 64.348 250.262 63.508V60.592C250.262 59.752 250.046 59.104 249.614 58.648C249.194 58.192 248.594 57.964 247.814 57.964C247.034 57.964 246.428 58.192 245.996 58.648C245.576 59.104 245.366 59.752 245.366 60.592V63.508C245.366 64.348 245.576 64.996 245.996 65.452C246.428 65.908 247.034 66.136 247.814 66.136ZM260.767 56.92C261.367 56.92 261.835 57.136 262.171 57.568C262.507 58 262.675 58.588 262.675 59.332V67H261.559V59.386C261.559 58.918 261.451 58.552 261.235 58.288C261.031 58.012 260.743 57.874 260.371 57.874C259.987 57.874 259.681 58.012 259.453 58.288C259.237 58.564 259.129 58.93 259.129 59.386V67H258.085V59.386C258.085 58.918 257.977 58.552 257.761 58.288C257.557 58.012 257.269 57.874 256.897 57.874C256.525 57.874 256.231 58.012 256.015 58.288C255.799 58.552 255.679 58.918 255.655 59.386V67H254.539V57.1H255.583V58.378H255.673C255.733 57.922 255.907 57.568 256.195 57.316C256.483 57.052 256.855 56.92 257.311 56.92C257.755 56.92 258.121 57.046 258.409 57.298C258.709 57.55 258.919 57.91 259.039 58.378H259.111C259.171 57.922 259.345 57.568 259.633 57.316C259.921 57.052 260.299 56.92 260.767 56.92ZM269.454 56.92C270.546 56.92 271.404 57.22 272.028 57.82C272.664 58.408 272.982 59.212 272.982 60.232V67H271.812V65.38C271.656 65.932 271.296 66.37 270.732 66.694C270.168 67.018 269.472 67.18 268.644 67.18C267.624 67.18 266.82 66.922 266.232 66.406C265.644 65.878 265.35 65.17 265.35 64.282C265.35 63.394 265.632 62.692 266.196 62.176C266.772 61.66 267.552 61.402 268.536 61.402H271.794V60.25C271.794 59.53 271.584 58.972 271.164 58.576C270.756 58.18 270.18 57.982 269.436 57.982C268.776 57.982 268.23 58.138 267.798 58.45C267.366 58.762 267.114 59.182 267.042 59.71H265.854C265.986 58.858 266.37 58.18 267.006 57.676C267.654 57.172 268.47 56.92 269.454 56.92ZM268.86 66.19C269.748 66.19 270.456 65.992 270.984 65.596C271.524 65.2 271.794 64.672 271.794 64.012V62.374H268.536C267.912 62.374 267.42 62.542 267.06 62.878C266.712 63.202 266.538 63.652 266.538 64.228C266.538 64.828 266.748 65.308 267.168 65.668C267.588 66.016 268.152 66.19 268.86 66.19ZM281.273 67C280.481 67 279.869 66.796 279.437 66.388C279.005 65.968 278.789 65.374 278.789 64.606V58.18H275.945V57.1H278.789V54.4H279.977V57.1H283.991V58.18H279.977V64.606C279.977 65.482 280.409 65.92 281.273 65.92H283.811V67H281.273ZM290.986 67.18C289.882 67.18 289 66.85 288.34 66.19C287.68 65.53 287.35 64.636 287.35 63.508V60.592C287.35 59.464 287.68 58.57 288.34 57.91C289 57.25 289.882 56.92 290.986 56.92C292.09 56.92 292.972 57.25 293.632 57.91C294.292 58.57 294.622 59.464 294.622 60.592V63.508C294.622 64.636 294.292 65.53 293.632 66.19C292.972 66.85 292.09 67.18 290.986 67.18ZM290.986 66.136C291.766 66.136 292.366 65.908 292.786 65.452C293.218 64.996 293.434 64.348 293.434 63.508V60.592C293.434 59.752 293.218 59.104 292.786 58.648C292.366 58.192 291.766 57.964 290.986 57.964C290.206 57.964 289.6 58.192 289.168 58.648C288.748 59.104 288.538 59.752 288.538 60.592V63.508C288.538 64.348 288.748 64.996 289.168 65.452C289.6 65.908 290.206 66.136 290.986 66.136ZM302.121 56.92C303.105 56.92 303.891 57.232 304.479 57.856C305.067 58.48 305.361 59.32 305.361 60.376V67H304.173V60.52C304.173 59.716 303.963 59.086 303.543 58.63C303.123 58.162 302.553 57.928 301.833 57.928C301.089 57.928 300.501 58.168 300.069 58.648C299.637 59.116 299.421 59.764 299.421 60.592V67H298.233V57.1H299.421V58.882C299.553 58.258 299.853 57.778 300.321 57.442C300.789 57.094 301.389 56.92 302.121 56.92ZM204.732 89.18C203.592 89.18 202.686 88.85 202.014 88.19C201.342 87.53 201.006 86.636 201.006 85.508V79.352C201.006 78.224 201.342 77.33 202.014 76.67C202.686 76.01 203.592 75.68 204.732 75.68C205.872 75.68 206.778 76.022 207.45 76.706C208.134 77.39 208.476 78.308 208.476 79.46H207.288C207.288 78.62 207.06 77.96 206.604 77.48C206.148 76.988 205.524 76.742 204.732 76.742C203.94 76.742 203.316 76.976 202.86 77.444C202.416 77.9 202.194 78.536 202.194 79.352V85.508C202.194 86.324 202.416 86.966 202.86 87.434C203.316 87.89 203.94 88.118 204.732 88.118C205.536 88.118 206.16 87.878 206.604 87.398C207.06 86.918 207.288 86.252 207.288 85.4V83.564H204.354V82.502H208.476V85.4C208.476 86.552 208.134 87.47 207.45 88.154C206.778 88.838 205.872 89.18 204.732 89.18ZM216.047 78.92C217.103 78.92 217.937 79.244 218.549 79.892C219.161 80.54 219.467 81.422 219.467 82.538V83.096H218.225V82.592C218.225 81.752 218.015 81.098 217.595 80.63C217.175 80.162 216.581 79.928 215.813 79.928C215.057 79.928 214.463 80.162 214.031 80.63C213.611 81.098 213.401 81.752 213.401 82.592V89H212.213V79.1H213.383V80.666H213.401C213.581 80.102 213.893 79.67 214.337 79.37C214.793 79.07 215.363 78.92 216.047 78.92ZM226.228 89.18C225.124 89.18 224.242 88.85 223.582 88.19C222.922 87.53 222.592 86.636 222.592 85.508V82.592C222.592 81.464 222.922 80.57 223.582 79.91C224.242 79.25 225.124 78.92 226.228 78.92C227.332 78.92 228.214 79.25 228.874 79.91C229.534 80.57 229.864 81.464 229.864 82.592V85.508C229.864 86.636 229.534 87.53 228.874 88.19C228.214 88.85 227.332 89.18 226.228 89.18ZM226.228 88.136C227.008 88.136 227.608 87.908 228.028 87.452C228.46 86.996 228.676 86.348 228.676 85.508V82.592C228.676 81.752 228.46 81.104 228.028 80.648C227.608 80.192 227.008 79.964 226.228 79.964C225.448 79.964 224.842 80.192 224.41 80.648C223.99 81.104 223.78 81.752 223.78 82.592V85.508C223.78 86.348 223.99 86.996 224.41 87.452C224.842 87.908 225.448 88.136 226.228 88.136ZM234.051 89L232.413 79.1H233.511L234.645 86.336C234.717 86.792 234.795 87.386 234.879 88.118C234.975 87.386 235.065 86.792 235.149 86.336L236.445 79.1H237.615L238.911 86.336C238.995 86.792 239.085 87.386 239.181 88.118C239.265 87.386 239.349 86.786 239.433 86.318L240.567 79.1H241.629L239.955 89H238.533L237.363 82.034L237.021 80.072C236.913 80.816 236.805 81.47 236.697 82.034L235.473 89H234.051ZM248.894 89C248.102 89 247.49 88.796 247.058 88.388C246.626 87.968 246.41 87.374 246.41 86.606V80.18H243.566V79.1H246.41V76.4H247.598V79.1H251.612V80.18H247.598V86.606C247.598 87.482 248.03 87.92 248.894 87.92H251.432V89H248.894ZM258.949 78.92C259.933 78.92 260.719 79.232 261.307 79.856C261.895 80.48 262.189 81.32 262.189 82.376V89H261.001V82.52C261.001 81.716 260.791 81.086 260.371 80.63C259.951 80.162 259.381 79.928 258.661 79.928C257.917 79.928 257.329 80.168 256.897 80.648C256.465 81.116 256.249 81.764 256.249 82.592V89H255.061V75.86H256.249V80.72H256.285C256.429 80.156 256.735 79.718 257.203 79.406C257.671 79.082 258.253 78.92 258.949 78.92ZM276.647 89V75.86H280.481C281.645 75.86 282.575 76.196 283.271 76.868C283.967 77.54 284.315 78.434 284.315 79.55C284.315 80.474 284.063 81.254 283.559 81.89C283.055 82.526 282.365 82.934 281.489 83.114L284.441 89H283.037L280.247 83.204H277.835V89H276.647ZM280.481 82.142C281.273 82.142 281.909 81.908 282.389 81.44C282.869 80.96 283.109 80.324 283.109 79.532C283.109 78.74 282.869 78.11 282.389 77.642C281.909 77.162 281.273 76.922 280.481 76.922H277.835V82.142H280.481ZM290.968 89.18C289.864 89.18 288.994 88.85 288.358 88.19C287.722 87.518 287.404 86.612 287.404 85.472V79.1H288.592V85.472C288.592 86.3 288.802 86.948 289.222 87.416C289.642 87.884 290.224 88.118 290.968 88.118C291.724 88.118 292.312 87.89 292.732 87.434C293.164 86.966 293.38 86.312 293.38 85.472V79.1H294.568V85.472C294.568 86.612 294.244 87.518 293.596 88.19C292.948 88.85 292.072 89.18 290.968 89.18ZM302.949 89C302.109 89 301.455 88.772 300.987 88.316C300.519 87.86 300.285 87.23 300.285 86.426V76.94H297.207V75.86H301.473V86.426C301.473 86.906 301.599 87.278 301.851 87.542C302.103 87.794 302.469 87.92 302.949 87.92H306.171V89H302.949ZM316.208 84.32H310.106V85.508C310.106 86.348 310.322 87.002 310.754 87.47C311.186 87.926 311.798 88.154 312.59 88.154C313.226 88.154 313.748 88.016 314.156 87.74C314.576 87.452 314.852 87.05 314.984 86.534H316.172C316.028 87.35 315.638 87.998 315.002 88.478C314.366 88.946 313.562 89.18 312.59 89.18C311.462 89.18 310.568 88.85 309.908 88.19C309.26 87.518 308.936 86.624 308.936 85.508V82.592C308.936 81.476 309.26 80.588 309.908 79.928C310.568 79.256 311.462 78.92 312.59 78.92C313.706 78.92 314.588 79.256 315.236 79.928C315.884 80.588 316.208 81.476 316.208 82.592V84.32ZM310.106 83.366H315.038V82.592C315.038 81.752 314.828 81.098 314.408 80.63C313.988 80.162 313.382 79.928 312.59 79.928C311.786 79.928 311.168 80.162 310.736 80.63C310.316 81.098 310.106 81.752 310.106 82.592V83.366ZM322.897 89.18C321.961 89.18 321.193 88.94 320.593 88.46C320.005 87.98 319.669 87.35 319.585 86.57H320.773C320.857 87.026 321.091 87.398 321.475 87.686C321.859 87.974 322.333 88.118 322.897 88.118H323.923C324.559 88.118 325.057 87.962 325.417 87.65C325.789 87.338 325.975 86.924 325.975 86.408C325.975 85.928 325.825 85.532 325.525 85.22C325.225 84.908 324.811 84.71 324.283 84.626L322.591 84.374C320.755 84.098 319.837 83.192 319.837 81.656C319.837 80.804 320.119 80.138 320.683 79.658C321.259 79.166 322.057 78.92 323.077 78.92H323.797C324.709 78.92 325.453 79.142 326.029 79.586C326.605 80.03 326.941 80.63 327.037 81.386H325.849C325.777 80.966 325.555 80.63 325.183 80.378C324.823 80.114 324.361 79.982 323.797 79.982H323.077C322.429 79.982 321.925 80.132 321.565 80.432C321.217 80.72 321.043 81.128 321.043 81.656C321.043 82.112 321.187 82.472 321.475 82.736C321.763 82.988 322.195 83.162 322.771 83.258L324.427 83.492C325.315 83.624 325.987 83.93 326.443 84.41C326.911 84.89 327.145 85.52 327.145 86.3C327.145 87.188 326.863 87.89 326.299 88.406C325.735 88.922 324.943 89.18 323.923 89.18H322.897Z" fill="#414042"/>
<defs>
<filter id="filter0_d" x="167" y="110.5" width="82.0564" height="123.061" filterUnits="userSpaceOnUse" color-interpolation-filters="sRGB">
<feFlood flood-opacity="0" result="BackgroundImageFix"/>
<feColorMatrix in="SourceAlpha" type="matrix" values="0 0 0 0 0 0 0 0 0 0 0 0 0 0 0 0 0 0 127 0"/>
<feOffset dy="4"/>
<feGaussianBlur stdDeviation="2"/>
<feColorMatrix type="matrix" values="0 0 0 0 0 0 0 0 0 0 0 0 0 0 0 0 0 0 0.25 0"/>
<feBlend mode="normal" in2="BackgroundImageFix" result="effect1_dropShadow"/>
<feBlend mode="normal" in="SourceGraphic" in2="effect1_dropShadow" result="shape"/>
</filter>
<filter id="filter1_d" x="233.804" y="224" width="18.3923" height="17" filterUnits="userSpaceOnUse" color-interpolation-filters="sRGB">
<feFlood flood-opacity="0" result="BackgroundImageFix"/>
<feColorMatrix in="SourceAlpha" type="matrix" values="0 0 0 0 0 0 0 0 0 0 0 0 0 0 0 0 0 0 127 0"/>
<feOffset dy="4"/>
<feGaussianBlur stdDeviation="2"/>
<feColorMatrix type="matrix" values="0 0 0 0 0 0 0 0 0 0 0 0 0 0 0 0 0 0 0.25 0"/>
<feBlend mode="normal" in2="BackgroundImageFix" result="effect1_dropShadow"/>
<feBlend mode="normal" in="SourceGraphic" in2="effect1_dropShadow" result="shape"/>
</filter>
<filter id="filter2_d" x="142" y="425" width="105.001" height="102.5" filterUnits="userSpaceOnUse" color-interpolation-filters="sRGB">
<feFlood flood-opacity="0" result="BackgroundImageFix"/>
<feColorMatrix in="SourceAlpha" type="matrix" values="0 0 0 0 0 0 0 0 0 0 0 0 0 0 0 0 0 0 127 0"/>
<feOffset dy="4"/>
<feGaussianBlur stdDeviation="2"/>
<feColorMatrix type="matrix" values="0 0 0 0 0 0 0 0 0 0 0 0 0 0 0 0 0 0 0.25 0"/>
<feBlend mode="normal" in2="BackgroundImageFix" result="effect1_dropShadow"/>
<feBlend mode="normal" in="SourceGraphic" in2="effect1_dropShadow" result="shape"/>
</filter>
<filter id="filter3_d" x="137.5" y="518" width="18.3923" height="17" filterUnits="userSpaceOnUse" color-interpolation-filters="sRGB">
<feFlood flood-opacity="0" result="BackgroundImageFix"/>
<feColorMatrix in="SourceAlpha" type="matrix" values="0 0 0 0 0 0 0 0 0 0 0 0 0 0 0 0 0 0 127 0"/>
<feOffset dy="4"/>
<feGaussianBlur stdDeviation="2"/>
<feColorMatrix type="matrix" values="0 0 0 0 0 0 0 0 0 0 0 0 0 0 0 0 0 0 0.25 0"/>
<feBlend mode="normal" in2="BackgroundImageFix" result="effect1_dropShadow"/>
<feBlend mode="normal" in="SourceGraphic" in2="effect1_dropShadow" result="shape"/>
</filter>
</defs>
</svg>
