<svg width="1037" height="290" viewBox="0 0 1037 290" fill="none" xmlns="http://www.w3.org/2000/svg">
<path d="M567.152 51.0145V149.657H563.185L555.25 141.389V70.7401L567.152 51.0145Z" fill="#0097A7"/>
<path d="M596.183 4.96472C596.183 4.96472 587.941 108.319 567.257 149.657H563.129C563.129 149.657 562.631 108.319 556.926 77.3106L554.865 70.7401L567.257 51.0145L596.183 4.96472ZM467.561 70.2843H475.916V74.4566L480.121 141.298C480.121 141.298 471.738 149.657 446.688 149.657H438.333L467.561 70.2843Z" fill="#00838F"/>
<path d="M563.843 149.657C563.843 149.657 589.672 76.7918 596.905 4.96475V149.657H563.843ZM438.228 4.79645V149.488L475.915 75.0808V4.79645H438.228Z" fill="#0097A7"/>
<path d="M534.287 119.889L595.91 4.79645H548.69L501.415 119.889H534.287V119.889Z" fill="#33BDCD"/>
<path d="M439.16 4.13725L486.681 0L534.202 119.91H501.148L476.35 74.4146L439.16 4.13725Z" fill="#80D5E0"/>
<path d="M856.301 110.9C856.301 104.406 856.301 97.9104 856.301 91.4124C856.301 90.4587 856.238 89.498 856.182 88.5373C856.056 86.4336 856.568 85.7955 858.495 84.94C860.268 84.1476 862 83.3623 863.85 82.654C865.175 82.1421 866.492 81.5671 867.789 80.9851C869.429 80.2488 871.09 79.5826 872.695 78.7762C873.941 78.0769 875.263 77.5217 876.634 77.1213C876.983 77.0034 877.321 76.8556 877.644 76.6795C878.716 76.1957 879.795 75.7399 880.847 75.221C882.69 74.3234 884.583 73.531 886.454 72.6895C887.545 72.0989 888.696 71.6287 889.888 71.2871C890.277 71.1741 890.653 71.0213 891.01 70.8313C892.152 70.3264 893.267 69.7724 894.423 69.3096C895.151 69.0763 895.782 68.6115 896.221 67.9862C896.66 67.3609 896.883 66.6092 896.855 65.8455C896.855 64.0013 896.855 62.157 896.855 60.3128C896.855 48.7565 896.855 37.2026 896.855 25.651C896.864 25.0647 896.925 24.4803 897.038 23.9049C897.111 23.3127 897.372 22.7595 897.782 22.3256C898.191 21.8918 898.729 21.6 899.316 21.4927C899.785 21.3947 900.226 21.1909 900.605 20.8967C901.398 20.292 902.315 19.8705 903.29 19.6625C903.976 19.4194 904.642 19.1216 905.28 18.7719C905.441 18.6948 905.582 18.5546 905.75 18.4844C907.986 17.5588 910.285 16.7734 912.443 15.6795C914.602 14.5856 917.118 13.9755 919.214 12.5871C919.656 12.3296 920.126 12.1249 920.616 11.977C921.065 11.8157 921.562 11.7737 922.018 11.5773C924.015 10.6447 925.985 9.66997 927.975 8.73032C928.606 8.4288 929.258 8.17636 929.903 7.92391C930.106 7.83977 930.344 7.83977 930.541 7.74861C932.7 6.74585 934.879 5.79918 936.989 4.69825C938.748 3.77964 940.493 3.67446 942.12 4.73331C943.073 5.3643 944.136 5.81361 945.253 6.05864C945.653 6.11645 946.038 6.25736 946.381 6.47236C947.53 7.27853 948.815 7.87227 950.173 8.22544C950.555 8.36838 950.921 8.54927 951.266 8.76539C951.491 8.8846 951.687 9.07393 951.918 9.1721C954.224 10.1258 956.53 11.0654 958.836 12.0121C959.329 12.1527 959.801 12.3603 960.238 12.6292C961.087 13.2837 962.075 13.7348 963.126 13.9475C963.714 14.151 964.286 14.3995 964.836 14.6908L967.436 15.8478C968.305 16.2335 969.174 16.6262 970.044 17.0048C970.786 17.3204 971.536 17.6219 972.279 17.9305C972.843 18.0976 973.385 18.3331 973.891 18.6317C974.701 19.2074 975.619 19.6129 976.59 19.8238C977.309 20.0766 977.999 20.4033 978.651 20.7985C978.982 21.0288 979.337 21.2238 979.709 21.3805C981.699 21.8784 982.225 23.386 982.309 25.1461C982.372 26.5486 982.309 28.0282 982.309 29.4657C982.309 41.4638 982.309 53.4548 982.26 65.4528C982.199 66.3961 982.486 67.329 983.068 68.0739C983.649 68.8187 984.485 69.3235 985.414 69.4919C986.315 69.7792 987.186 70.1525 988.015 70.6069L994.673 73.4118C995.374 73.6993 996.019 73.9868 996.685 74.2883C997.351 74.5898 998.199 74.9895 998.963 75.3612C999.832 75.7469 1000.71 76.1185 1001.58 76.4972L1008.43 79.4494C1009.01 79.7018 1009.57 79.9543 1010.14 80.2137C1010.9 80.5643 1011.65 80.9149 1012.42 81.2796C1013.19 81.6442 1014.1 81.9808 1014.93 82.3735C1015.17 82.4717 1015.36 82.6891 1015.63 82.7522C1017.47 83.208 1019.06 84.2388 1020.77 84.9891C1022.49 85.7394 1022.88 86.1601 1022.88 88.1376C1022.88 101.419 1022.86 114.705 1022.83 127.996C1022.83 129.468 1022.83 130.948 1022.83 132.42C1022.87 132.974 1022.72 133.526 1022.41 133.983C1022.09 134.44 1021.63 134.775 1021.1 134.931C1019.32 135.632 1017.59 136.41 1015.82 137.168C1015.52 137.311 1015.23 137.475 1014.96 137.659C1014.7 137.82 1014.48 138.079 1014.21 138.135C1011.96 138.612 1010.07 139.987 1007.91 140.737C1007.41 140.859 1006.94 141.058 1006.5 141.326C1005.48 142.125 1004.22 142.322 1003.11 142.848C1000.93 143.878 998.584 144.566 996.523 145.863C995.92 146.213 995.268 146.47 994.589 146.627C993.653 146.828 992.766 147.214 991.982 147.763C991.375 148.103 990.737 148.383 990.075 148.598C989.276 148.955 988.491 149.355 987.692 149.713C986.893 150.07 986.29 150.302 985.589 150.596C984.658 150.922 983.753 151.32 982.884 151.788C982.122 152.32 981.216 152.606 980.287 152.606C979.358 152.606 978.452 152.32 977.69 151.788C976.854 151.327 975.99 150.918 975.104 150.561L972.91 149.537C972.82 149.472 972.724 149.416 972.623 149.369C970.366 148.668 968.319 147.539 966.153 146.655C965.375 146.34 964.64 145.954 963.876 145.582C963.112 145.211 962.474 145 961.773 144.692C959.327 143.619 956.811 142.707 954.455 141.417C953.818 141.073 953.054 140.912 952.409 140.632C951.764 140.351 950.951 139.966 950.229 139.615C949.998 139.503 949.808 139.299 949.577 139.208C947.474 138.36 945.421 137.532 943.353 136.684C942.668 136.421 942.003 136.11 941.363 135.751C940.849 135.418 940.25 135.241 939.638 135.241C939.026 135.241 938.428 135.418 937.914 135.751C937.13 136.151 936.325 136.509 935.503 136.824C934.977 136.99 934.469 137.211 933.989 137.483C932.955 138.19 931.781 138.668 930.548 138.886C930.112 138.964 929.702 139.144 929.349 139.412C928.472 140.098 927.451 140.577 926.363 140.814C925.895 140.921 925.456 141.126 925.074 141.417C924.191 142.16 923.104 142.357 922.081 142.763C919.768 143.682 917.525 144.776 915.254 145.786C914.553 146.087 913.894 146.34 913.228 146.634C912.422 146.985 911.623 147.335 910.831 147.707C910.635 147.798 910.474 147.981 910.278 148.065L904.096 150.652C903.232 150.953 902.395 151.326 901.593 151.767C900.808 152.332 899.863 152.631 898.896 152.62C897.929 152.61 896.991 152.292 896.218 151.711C895.516 151.313 894.785 150.968 894.031 150.68C893.197 150.295 892.37 149.895 891.529 149.53C890.828 149.208 890.029 148.941 889.293 148.626C888.557 148.31 887.639 147.861 886.804 147.49C886.167 147.209 885.515 146.971 884.877 146.69C884.239 146.41 883.419 145.989 882.683 145.695C881.947 145.4 881.064 144.993 880.258 144.664C879.452 144.334 878.597 143.899 877.763 143.535C877.062 143.233 876.326 142.967 875.625 142.658C874.924 142.35 874.118 141.915 873.347 141.571C872.716 141.284 872.065 141.045 871.427 140.765C870.558 140.386 869.695 140.001 868.833 139.608C868.7 139.545 868.595 139.419 868.462 139.362L862.49 136.831C861.614 136.459 860.731 136.095 859.855 135.716C859.28 135.471 858.726 135.162 858.138 134.952C857.582 134.798 857.097 134.455 856.768 133.981C856.439 133.507 856.286 132.932 856.336 132.357C856.371 128.928 856.336 125.492 856.371 122.063V110.9H856.301ZM937.606 110.479V91.5456C937.618 91.1763 937.587 90.807 937.515 90.4447C937.458 90.1895 937.322 89.9592 937.125 89.7875C936.928 89.6158 936.682 89.5119 936.421 89.491C935.875 89.4139 935.356 89.4559 935.104 90.038C934.62 91.1389 933.744 91.4404 932.608 91.5175C931.987 91.531 931.388 91.7506 930.905 92.1417C930.106 92.8572 929.109 93.3143 928.045 93.453C927.499 93.515 926.979 93.7207 926.539 94.049C925.726 94.7494 924.741 95.2191 923.686 95.4094C922.999 95.5314 922.346 95.794 921.765 96.1807C920.919 96.8342 919.929 97.2765 918.878 97.471C918.273 97.5974 917.702 97.8508 917.203 98.2143C916.422 98.8321 915.503 99.2508 914.525 99.4344C913.838 99.6573 913.173 99.9462 912.542 100.297C911.89 100.605 911.252 100.956 910.593 101.237C909.862 101.435 909.156 101.717 908.49 102.078C907.576 102.714 906.54 103.155 905.448 103.375C904.771 103.524 904.127 103.798 903.549 104.182C902.926 104.701 902.184 105.057 901.39 105.22C900.486 105.367 900.171 105.795 900.094 106.741C900.094 107.036 900.094 107.33 900.094 107.625C900.094 113.494 900.094 119.363 900.094 125.226C900.114 125.741 900.015 126.255 899.806 126.726C899.741 126.933 899.611 127.113 899.435 127.239C899.259 127.364 899.047 127.429 898.831 127.424C898.615 127.418 898.406 127.343 898.237 127.208C898.068 127.073 897.947 126.887 897.893 126.677C897.715 126.154 897.639 125.602 897.668 125.05C897.668 119.63 897.668 114.202 897.668 108.782C897.668 108.081 897.725 107.379 897.668 106.678C897.591 105.753 897.22 105.416 896.323 105.178C895.78 105.084 895.263 104.882 894.802 104.581C893.916 103.916 892.898 103.45 891.816 103.214C891.201 103.108 890.621 102.853 890.127 102.471C889.279 101.601 888.241 101.419 887.155 101.181C886.475 101.049 885.837 100.758 885.291 100.332C884.688 99.8526 883.983 99.5191 883.23 99.3573C882.441 99.2101 881.689 98.9099 881.015 98.4738C880.307 97.9523 879.501 97.5779 878.646 97.3728C877.815 97.09 877.005 96.7503 876.221 96.356C875.513 95.9898 874.783 95.6689 874.034 95.3954C873.101 95.1787 872.221 94.7756 871.448 94.2103C870.92 93.8208 870.312 93.5548 869.667 93.4319C868.688 93.2632 867.765 92.8535 866.983 92.2398C866.431 91.8256 865.777 91.5687 865.091 91.4965C864.032 91.3773 863.149 91.1669 862.672 90.0941C862.551 89.8419 862.341 89.643 862.083 89.5345C861.825 89.4261 861.536 89.4156 861.271 89.505C861.011 89.5316 860.767 89.6439 860.578 89.8242C860.389 90.0044 860.265 90.2424 860.226 90.5008C860.153 90.8986 860.118 91.3024 860.121 91.7069C860.121 103.483 860.121 115.257 860.121 127.028V129.686C860.106 130.357 860.317 131.015 860.72 131.553C861.123 132.091 861.694 132.478 862.343 132.652C862.616 132.75 862.918 132.785 863.191 132.897C865.413 133.837 867.635 134.79 869.857 135.737C869.927 135.737 869.976 135.828 870.046 135.856C870.845 136.214 871.644 136.558 872.457 136.922L878.625 139.517C878.758 139.573 878.863 139.699 878.989 139.762C879.781 140.127 880.573 140.512 881.38 140.842C882.018 141.007 882.636 141.242 883.223 141.543C884.256 142.175 885.359 142.683 886.51 143.058C888.396 143.864 890.211 144.811 892.173 145.463C893.465 145.999 894.718 146.625 895.923 147.335C896.743 147.749 897.227 147.518 897.486 146.634C897.633 146.136 897.689 145.617 897.844 145.127C897.886 144.867 898.022 144.631 898.226 144.465C898.43 144.298 898.688 144.212 898.951 144.222C899.533 144.222 899.764 144.671 899.904 145.148C900.044 145.624 900.164 146.298 900.332 146.866C900.349 146.996 900.398 147.121 900.474 147.228C900.55 147.336 900.65 147.424 900.768 147.484C900.885 147.544 901.015 147.574 901.146 147.573C901.278 147.572 901.407 147.538 901.523 147.476C902.75 146.971 903.963 146.431 905.161 145.884C907.264 144.937 909.289 143.97 911.357 143.016C911.455 142.974 911.574 142.967 911.672 142.925C913.813 142.051 915.946 141.167 918.072 140.274C918.205 140.225 918.303 140.092 918.436 140.029C919.228 139.657 920.013 139.278 920.819 138.928C921.52 138.626 922.263 138.395 922.964 138.079C925.2 137.062 927.422 136.025 929.665 135.008C929.924 134.889 930.246 134.889 930.513 134.769C931.08 134.524 931.634 134.222 932.195 133.956C932.886 133.547 933.622 133.22 934.389 132.981C936.554 132.568 937.655 131.389 937.62 128.872C937.543 122.729 937.599 116.601 937.599 110.479H937.606ZM981.384 126.278C981.384 132.434 981.384 138.596 981.384 144.762C981.369 145.352 981.419 145.942 981.531 146.522C981.763 147.56 982.274 147.763 983.227 147.307C983.725 147.062 984.23 146.838 984.734 146.606L990.187 144.278C990.356 144.201 990.489 144.054 990.657 143.984C991.554 143.577 992.465 143.184 993.369 142.799C994.07 142.497 994.771 142.223 995.472 141.915C996.173 141.606 996.993 141.214 997.757 140.849C998.521 140.484 999.11 140.281 999.776 139.987C1000.61 139.615 1001.43 139.215 1002.26 138.858C1002.96 138.563 1003.67 138.325 1004.3 138.03C1006.64 136.985 1008.97 135.926 1011.31 134.875C1012 134.651 1012.68 134.365 1013.32 134.019C1014.14 133.453 1015.06 133.053 1016.03 132.841C1018.13 132.329 1018.9 131.326 1018.93 129.139C1018.93 127.701 1018.93 126.264 1018.93 124.833V95.171C1018.93 93.7685 1018.93 92.3029 1018.93 90.8654C1018.95 90.5462 1018.86 90.2301 1018.66 89.9804C1018.46 89.7308 1018.17 89.566 1017.85 89.519C1017.55 89.4449 1017.23 89.4736 1016.95 89.6006C1016.66 89.7275 1016.43 89.9456 1016.28 90.2203C1015.98 90.6671 1015.56 91.0196 1015.07 91.2371C1014.09 91.6304 1013.08 91.9583 1012.06 92.2188C1011.89 92.2639 1011.71 92.2722 1011.54 92.2432C1011.37 92.2141 1011.2 92.1484 1011.06 92.0505C1010.99 91.8946 1010.95 91.7246 1010.95 91.5526C1010.95 91.3806 1010.99 91.2106 1011.06 91.0547C1011.25 90.5316 1011.59 90.0726 1012.03 89.7285C1012.47 89.3844 1012.99 89.1687 1013.55 89.1053C1014.06 89.0573 1014.57 88.9587 1015.06 88.8108C1015.21 88.7827 1015.35 88.7149 1015.46 88.6147C1015.57 88.5145 1015.66 88.3856 1015.7 88.2417C1015.75 88.0978 1015.75 87.9443 1015.72 87.7976C1015.68 87.6509 1015.61 87.5163 1015.5 87.4083C1015.36 87.1972 1015.16 87.0222 1014.94 86.8964C1013.78 86.3284 1012.62 85.7675 1011.43 85.2485C1009.33 84.337 1007.23 83.4604 1005.12 82.5628C1004.92 82.4787 1004.76 82.3104 1004.56 82.2122C1003.79 81.8616 1003.03 81.511 1002.26 81.1814C1001.63 80.9885 1001.01 80.7398 1000.43 80.4381C998.36 79.0707 995.858 78.657 993.776 77.3387C993.638 77.293 993.498 77.2555 993.355 77.2265L990.734 76.0765C990.033 75.789 989.381 75.5155 988.709 75.235C987.944 74.9787 987.207 74.6475 986.508 74.2462C985.779 73.7523 984.963 73.4002 984.104 73.2084C983.423 73.0669 982.771 72.8108 982.176 72.4511C980.613 71.4413 979.793 71.4834 978.202 72.381C976.457 73.3697 974.424 73.7834 972.756 74.9615C970.331 75.3823 968.488 77.2896 966.006 77.5841C965.677 77.6262 965.376 77.9488 965.06 78.1381C964.777 78.3738 964.464 78.5696 964.128 78.7201C962.45 79.2649 960.828 79.9694 959.285 80.8238C958.058 81.4409 956.754 81.9878 955.479 82.4927C953.495 83.2781 951.54 84.1055 949.612 85.0242C948.323 85.6342 946.977 86.1602 945.673 86.7492C945.37 86.8861 945.098 87.0842 944.874 87.3312C944.742 87.4365 944.644 87.5782 944.592 87.7387C944.54 87.8992 944.536 88.0715 944.581 88.2343C944.625 88.397 944.717 88.543 944.844 88.6542C944.971 88.7654 945.128 88.8369 945.295 88.8599C945.82 89.0142 946.402 89.0072 946.921 89.1825C947.478 89.342 948.001 89.6035 948.463 89.9538C948.986 90.4111 949.615 90.7316 950.292 90.8864C951.195 91.0456 952.061 91.3663 952.85 91.8331C953.639 92.3698 954.517 92.7616 955.444 92.9901C956.157 93.1517 956.836 93.439 957.448 93.8386C958.252 94.4255 959.172 94.8321 960.147 95.0307C960.858 95.1817 961.527 95.4856 962.109 95.9213C962.712 96.3967 963.414 96.7299 964.163 96.896C964.963 97.1368 965.741 97.4441 966.49 97.8146C967.191 98.1231 967.843 98.5158 968.544 98.8033C969.35 99.1469 970.31 99.2661 970.976 99.778C971.838 100.406 972.833 100.826 973.884 101.005C974.435 101.051 974.964 101.24 975.419 101.552C976.597 102.737 978.223 102.807 979.625 103.438C979.999 103.585 980.414 103.585 980.788 103.438C982.316 102.786 984.111 102.737 985.372 101.426C985.681 101.096 986.325 101.068 986.823 100.942C987.789 100.716 988.701 100.301 989.508 99.722C990.252 99.2603 991.086 98.9615 991.954 98.8454C992.099 98.805 992.25 98.7958 992.399 98.8183C992.548 98.8408 992.69 98.8945 992.817 98.976C992.943 99.0575 993.051 99.1648 993.133 99.291C993.215 99.4171 993.269 99.5592 993.292 99.7079C993.361 100.005 993.312 100.317 993.155 100.579C992.998 100.841 992.746 101.031 992.451 101.11C992.045 101.272 991.603 101.349 991.19 101.503C990.658 101.655 990.154 101.892 989.697 102.204C988.985 102.799 988.125 103.187 987.209 103.326C986.143 103.464 985.141 103.913 984.328 104.617C983.956 104.915 983.519 105.122 983.052 105.22C981.566 105.591 981.321 105.872 981.321 107.414L981.384 126.278ZM979.008 126.397V110.675C979.008 109.497 979.008 108.312 979.008 107.134C979.008 105.823 978.686 105.493 977.403 105.163C976.892 105.068 976.411 104.852 976.001 104.532C975.262 103.919 974.379 103.501 973.436 103.319C972.751 103.186 972.102 102.911 971.529 102.513C970.676 101.807 969.641 101.355 968.544 101.209C967.829 101.071 967.154 100.777 966.567 100.346C965.931 99.8517 965.19 99.511 964.401 99.3503C963.605 99.1045 962.835 98.7803 962.102 98.3826C961.478 98.0951 960.89 97.7375 960.259 97.471C959.481 97.1554 958.549 97.0713 957.911 96.5804C957.046 95.9573 956.063 95.516 955.023 95.2832C954.343 95.1432 953.697 94.8691 953.124 94.4767C952.4 93.9133 951.555 93.5246 950.657 93.3408C949.9 93.1744 949.185 92.8572 948.554 92.4081C947.926 91.8326 947.113 91.5016 946.262 91.4755C945.798 91.5141 945.334 91.4132 944.928 91.1858C944.522 90.9584 944.193 90.6149 943.984 90.1992C943.871 89.9192 943.657 89.6918 943.384 89.562C943.112 89.4321 942.801 89.4093 942.512 89.498C942.201 89.5614 941.923 89.7343 941.729 89.9852C941.535 90.2361 941.437 90.5485 941.454 90.8654C941.454 91.0828 941.454 91.3072 941.454 91.5316C941.454 102.639 941.454 113.747 941.454 124.854C941.454 126.481 941.454 128.101 941.454 129.728C941.431 130.21 941.536 130.691 941.757 131.12C941.979 131.55 942.309 131.913 942.715 132.175C943.194 132.445 943.699 132.666 944.222 132.834L951 135.639C952.086 136.095 953.159 136.558 954.238 137.041C954.841 137.301 955.451 137.56 956.046 137.834C956.747 138.17 957.49 138.577 958.24 138.851C960.301 139.615 962.116 140.954 964.303 141.403C964.576 141.459 964.787 141.733 965.053 141.866C965.712 142.188 966.371 142.504 967.044 142.791C969.343 143.759 971.656 144.692 973.94 145.688C975.083 146.192 976.176 146.817 977.312 147.342C978.104 147.714 978.58 147.483 978.784 146.641C978.904 146.027 978.958 145.402 978.945 144.776C979.01 138.657 979.029 132.53 979.001 126.397H979.008ZM938.475 62.8302C938.475 56.6313 938.475 50.4325 938.475 44.2336C938.475 42.6348 938.075 42.1299 936.498 41.618C935.936 41.4614 935.411 41.1918 934.956 40.8256C934.374 40.3169 933.668 39.9709 932.91 39.8229C932.191 39.6991 931.508 39.4164 930.912 38.9954C930.224 38.447 929.418 38.0654 928.557 37.8805C927.771 37.7128 927.021 37.4065 926.342 36.9759C925.614 36.4802 924.809 36.1082 923.959 35.8749C923.148 35.6544 922.374 35.3166 921.66 34.8722C920.963 34.3974 920.187 34.0508 919.368 33.8484C918.548 33.6729 917.768 33.3447 917.069 32.8807C916.416 32.4139 915.678 32.0782 914.897 31.892C914.178 31.753 913.498 31.4639 912.899 31.0435C912.137 30.4669 911.256 30.0691 910.32 29.8794C909.601 29.7436 908.919 29.4542 908.322 29.0309C907.695 28.5213 906.946 28.1831 906.149 28.0492C905.1 27.9853 904.108 27.5532 903.346 26.8291C903.106 26.5727 902.791 26.3988 902.446 26.3321C902.101 26.2653 901.744 26.3092 901.425 26.4574C900.808 26.815 900.816 27.4181 900.837 28.0212C900.879 29.7462 900.963 31.4782 900.963 33.2103C900.963 41.7326 900.963 50.2572 900.963 58.7841C900.963 60.9579 900.886 63.1318 900.837 65.3056C900.837 66.9675 901.537 68.973 903.92 69.4288C904.951 69.6939 905.937 70.1123 906.843 70.67C908.595 71.5746 910.453 72.2477 912.24 73.1103C913.509 73.7203 914.848 74.2112 916.144 74.7862C918.023 75.6066 919.894 76.4621 921.8 77.2265C922.957 77.6893 924.191 77.9277 925.179 78.7762C925.442 78.9819 925.749 79.1235 926.076 79.1899C927.31 79.4291 928.472 79.9525 929.468 80.7186C929.883 80.9565 930.329 81.1359 930.793 81.2516C931.872 81.7073 932.966 82.1211 934.017 82.654C934.93 83.2172 935.98 83.518 937.052 83.5235C937.231 83.534 937.41 83.5081 937.578 83.4475C937.746 83.3869 937.9 83.2928 938.031 83.1709C938.162 83.0491 938.267 82.9019 938.34 82.7383C938.413 82.5748 938.451 82.3982 938.454 82.2192C938.471 81.925 938.471 81.63 938.454 81.3357L938.475 62.8302ZM940.648 62.7881V77.2966C940.648 78.8463 940.648 80.396 940.648 81.9458C940.648 83.0818 941.194 83.6077 942.323 83.4885C943.205 83.4171 944.066 83.1792 944.86 82.7872C946.236 81.9991 947.705 81.3866 949.234 80.964C949.573 80.8291 949.9 80.6624 950.208 80.4662C952.367 79.4564 954.504 78.4116 956.684 77.4649C958.864 76.5182 961.044 75.7118 963.217 74.8353C963.42 74.7511 963.581 74.5828 963.777 74.4847L966.364 73.2996L968.158 72.4862C968.859 72.1496 969.602 71.7849 970.345 71.4834C971.088 71.1819 971.747 71.0486 972.448 70.7822C973.492 70.3404 974.473 69.7163 975.546 69.3797C976.396 69.1113 977.128 68.5571 977.617 67.8109C978.107 67.0646 978.323 66.1721 978.23 65.2845C978.23 64.5132 978.132 63.7348 978.132 62.9635C978.16 51.2763 978.186 39.5891 978.209 27.902C978.18 27.3997 977.959 26.9278 977.592 26.5836C977.356 26.4254 977.069 26.3621 976.789 26.4063C976.508 26.4505 976.254 26.599 976.078 26.8221C975.282 27.4995 974.31 27.9371 973.275 28.0843C972.728 28.1612 972.206 28.3601 971.747 28.6663C970.846 29.3745 969.78 29.8425 968.649 30.0267C968.042 30.1366 967.466 30.3758 966.96 30.7279C966.218 31.3387 965.337 31.7555 964.394 31.941C963.776 32.0326 963.189 32.2732 962.684 32.6423C961.89 33.3027 960.939 33.7471 959.922 33.9325C959.266 34.1141 958.628 34.3558 958.016 34.6548C957.189 35.0335 956.383 35.4612 955.556 35.8329C954.86 36.0612 954.187 36.3522 953.544 36.7024C952.706 37.2991 951.75 37.7103 950.741 37.9085C950.119 37.9953 949.528 38.2363 949.024 38.6097C948.186 39.3343 947.146 39.7846 946.045 39.9C945.492 40.0545 944.965 40.2909 944.482 40.6012C943.871 40.9928 943.234 41.3419 942.575 41.6461C941.11 42.151 940.669 42.6699 940.669 44.2056L940.648 62.7881ZM899.063 71.6377C898.667 71.668 898.277 71.7578 897.907 71.9041C896.621 72.6995 895.222 73.2953 893.757 73.6713C893.528 73.7849 893.308 73.9162 893.099 74.0639C892.309 74.4426 891.517 74.8143 890.723 75.1789C889.928 75.5435 889.129 75.9012 888.325 76.2518C887.519 76.6024 886.713 76.953 885.9 77.2826C885.199 77.5631 884.548 77.8295 883.882 78.1171C883.041 78.4817 882.214 78.8604 881.38 79.232C879.277 80.1857 877.111 81.1253 874.98 82.086C874.616 82.2543 874.321 82.6189 873.95 82.7101C872.126 83.1699 870.382 83.9028 868.777 84.8839C868.549 84.9873 868.315 85.0763 868.076 85.1504C866.801 85.7184 865.511 86.2583 864.263 86.8824C863.745 87.1419 863.163 87.5135 863.338 88.2288C863.514 88.944 864.151 88.8879 864.684 89.0001C864.865 89.0361 865.047 89.0618 865.231 89.0773C866.118 89.166 866.949 89.5543 867.586 90.1782C868.024 90.5049 868.521 90.7431 869.051 90.8794C869.836 91.1739 870.775 91.2511 871.406 91.7349C872.334 92.3971 873.388 92.8603 874.504 93.0953C875.116 93.2025 875.697 93.4418 876.207 93.7966C876.981 94.4253 877.902 94.8453 878.884 95.0167C879.499 95.1045 880.083 95.3457 880.58 95.7179C881.361 96.3949 882.315 96.8395 883.335 97.0012C883.947 97.0944 884.526 97.335 885.024 97.7024C885.709 98.2603 886.516 98.6473 887.379 98.8314C888.214 99.0923 889.027 99.4182 889.811 99.8061C890.538 100.211 891.295 100.561 892.075 100.851C893.19 101.152 894.297 101.384 895.145 102.253C895.352 102.416 895.591 102.533 895.846 102.597C896.673 102.899 897.5 103.2 898.348 103.46C898.659 103.559 898.99 103.576 899.309 103.509C900.304 103.242 901.292 102.941 902.266 102.618C902.585 102.529 902.878 102.365 903.121 102.141C903.79 101.501 904.634 101.073 905.547 100.914C906.264 100.765 906.95 100.489 907.572 100.101C908.504 99.4351 909.567 98.9783 910.691 98.7613C911.234 98.6839 911.748 98.469 912.184 98.1372C912.984 97.4209 913.98 96.9616 915.044 96.8189C915.624 96.729 916.171 96.4871 916.628 96.1176C917.342 95.4777 918.225 95.0567 919.172 94.9045C919.824 94.8079 920.446 94.5685 920.994 94.2033C921.847 93.557 922.83 93.1046 923.875 92.8779C924.494 92.7876 925.084 92.5626 925.606 92.2188C926.543 91.4995 927.639 91.0183 928.802 90.8163C929.412 90.6035 929.996 90.3212 930.541 89.9749C931.038 89.679 931.553 89.4143 932.083 89.1825C932.524 89.0212 933.05 89.0773 933.484 88.909C933.881 88.7967 934.226 88.5485 934.459 88.2077C934.676 87.7169 934.298 87.2821 933.849 87.0437C932.812 86.4897 931.746 85.9498 930.702 85.4379C929.658 84.926 928.452 84.365 927.296 83.8952C925.459 83.1519 923.644 82.3805 921.857 81.511C920.686 80.936 919.361 80.6765 918.282 79.8491C917.839 79.6079 917.368 79.4219 916.88 79.2951L910.292 76.5463C910.159 76.4902 910.06 76.364 909.927 76.3009C909.128 75.9432 908.315 75.5996 907.516 75.249C906.717 74.8984 905.925 74.5478 905.133 74.1551C904.521 73.826 903.881 73.5537 903.22 73.3417C902.281 73.1488 901.389 72.7774 900.591 72.2477C900.105 71.986 899.59 71.7813 899.056 71.6377H899.063ZM939.673 40.0052C940.928 39.6406 942.267 39.2549 943.605 38.8552C943.748 38.8143 943.875 38.7312 943.97 38.6167C944.755 37.8792 945.754 37.4102 946.823 37.2774C947.399 37.1726 947.942 36.9322 948.407 36.5762C949.125 35.9393 950.015 35.5272 950.965 35.3911C951.615 35.3145 952.235 35.0731 952.766 34.6899C953.536 34.0599 954.452 33.6352 955.43 33.4557C956.153 33.342 956.843 33.069 957.448 32.6563C958.242 31.997 959.194 31.557 960.21 31.3801C960.825 31.2856 961.409 31.0451 961.913 30.6788C962.717 30.0117 963.685 29.5732 964.717 29.4096C965.365 29.3324 965.982 29.0911 966.511 28.7084C967.256 28.0449 968.185 27.6242 969.174 27.5023C969.758 27.4506 970.318 27.2423 970.793 26.8992C971.639 26.118 972.723 25.6459 973.87 25.5598C974.41 25.4897 974.908 25.3214 975.013 24.6973C975.051 24.4174 974.991 24.133 974.842 23.8925C974.694 23.6521 974.467 23.4706 974.2 23.379C972.938 22.783 971.656 22.222 970.373 21.654C968.403 20.7845 966.546 19.6625 964.471 19.0104C964.408 19.0104 964.352 18.9192 964.289 18.8912C963.525 18.5335 962.768 18.1899 961.997 17.8323C961.226 17.4747 960.315 17.1311 959.474 16.7454C958.633 16.3597 957.918 16.1073 957.14 15.7707C954.99 14.9449 952.885 14.0087 950.832 12.9658C948.729 11.8017 946.416 11.1916 944.299 10.0627C943.227 9.48765 941.958 9.24923 940.886 8.55502C940.509 8.31532 940.074 8.18395 939.628 8.17529C939.181 8.16663 938.741 8.28103 938.356 8.50594C936.421 9.47363 934.487 10.4343 932.531 11.3669C932.139 11.5563 931.676 11.5913 931.27 11.7667C929.125 12.6923 926.987 13.6389 924.842 14.5716L924.751 14.6347C924.05 14.9643 923.3 15.3359 922.557 15.6304C920.23 16.6192 917.896 17.5939 915.548 18.5756C915.485 18.5756 915.429 18.6597 915.359 18.6878L913.046 19.7046C912.443 19.964 911.841 20.2165 911.245 20.497C910.453 20.8686 909.682 21.2753 908.883 21.633C907.544 22.236 906.191 22.811 904.853 23.4071C904.69 23.4972 904.549 23.6216 904.439 23.7717C904.298 23.8946 904.196 24.0558 904.145 24.2356C904.093 24.4155 904.095 24.6063 904.15 24.7851C904.205 24.9639 904.311 25.123 904.454 25.243C904.597 25.3631 904.772 25.4391 904.958 25.4617C905.455 25.5879 905.995 25.5739 906.479 25.7211C907.046 25.8479 907.582 26.0863 908.056 26.4224C908.721 27.0056 909.537 27.3896 910.411 27.5303C911.133 27.6215 911.82 27.8941 912.408 28.3227C913.115 28.9087 913.959 29.3046 914.862 29.4727C915.617 29.5984 916.335 29.8906 916.964 30.3282C917.691 30.8899 918.538 31.2762 919.438 31.4572C920.185 31.6243 920.897 31.921 921.541 32.3337C922.321 32.8886 923.202 33.2841 924.135 33.4978C924.854 33.6287 925.536 33.9159 926.132 34.3392C926.85 34.912 927.697 35.2996 928.599 35.4682C929.318 35.5933 929.998 35.8864 930.583 36.3237C931.235 36.8576 932.007 37.2257 932.833 37.3966C933.583 37.5478 934.297 37.8431 934.935 38.2661C936.288 39.346 937.935 39.5634 939.666 40.0052H939.673Z" fill="black"/>
<path d="M897.739 135.835C897.704 135.174 897.704 134.512 897.739 133.851C897.781 133.417 897.931 133 898.173 132.638C898.257 132.503 898.376 132.393 898.517 132.32C898.657 132.248 898.816 132.214 898.974 132.225C899.132 132.235 899.285 132.288 899.415 132.378C899.546 132.468 899.65 132.591 899.715 132.736C899.95 133.19 900.084 133.69 900.108 134.201C900.171 135.302 900.143 136.41 900.108 137.511C900.127 137.878 900.049 138.243 899.884 138.57C899.656 138.962 899.295 139.258 898.867 139.405C898.3 139.503 897.921 139.005 897.83 138.465C897.751 137.848 897.706 137.228 897.697 136.607C897.697 136.347 897.697 136.088 897.697 135.835H897.739Z" fill="black"/>
<path d="M1000.26 97.6324C999.342 97.45 998.788 97.0714 998.697 96.4403C998.606 95.8091 998.956 95.3954 999.769 95.129C1000.01 95.0466 1000.26 94.9879 1000.52 94.9537C1001.33 94.8728 1002.08 94.4898 1002.62 93.8808C1002.86 93.5986 1003.18 93.3947 1003.54 93.2948C1003.9 93.195 1004.28 93.2037 1004.63 93.3198C1004.81 93.3721 1004.98 93.4616 1005.12 93.5824C1005.26 93.7032 1005.38 93.8527 1005.46 94.021C1005.46 94.4059 1005.31 94.7749 1005.04 95.0518C1004.78 95.2579 1004.5 95.4234 1004.19 95.5427C1003.6 95.9003 1003.03 96.293 1002.41 96.6156C1001.79 96.9381 1000.97 97.3028 1000.26 97.6324Z" fill="black"/>
<path d="M52.5293 153.352C33.2756 153.352 27.0726 143.395 27.0726 125.597V100.129C27.0726 91.1459 18.0941 88.369 10.5874 87.7169V75.9643C17.281 75.1508 27.0726 71.3923 27.0726 63.2299V38.0838C27.0726 19.4732 32.2943 10.1678 52.5293 10.1678H56.7347V20.4549H52.5293C40.7822 20.4549 38.3291 26.1699 38.3291 37.1091V63.4052C38.3291 73.531 32.6237 79.246 22.9934 81.0412V81.3637C31.6425 83.4674 38.3291 89.3648 38.3291 98.6701V124.959C38.3291 134.917 41.2729 143.079 52.6905 143.079H56.938V153.366L52.5293 153.352Z" fill="black"/>
<path d="M139.021 100.129V125.597C139.021 143.395 132.818 153.352 113.564 153.352H109.155V143.065H113.361C124.785 143.065 127.722 134.903 127.722 124.945V98.6561C127.722 89.3508 134.416 83.4745 143.065 81.3497V81.0272C133.434 79.232 127.722 73.517 127.722 63.3912V37.1091C127.722 26.1699 125.276 20.4549 113.529 20.4549H109.281V10.1678H113.529C133.764 10.1678 138.986 19.4732 138.986 38.0838V63.2299C138.986 71.3923 148.798 75.1509 155.471 75.9643V87.7169C147.992 88.3691 139.021 90.9846 139.021 100.129Z" fill="black"/>
<path d="M54.1694 84.1547V79.0708H59.1458V84.1547H54.1694Z" fill="black"/>
<path d="M83.4041 82.7381C82.0988 83.9551 80.3729 84.6187 78.5889 84.5894C77.6121 84.6119 76.6437 84.4039 75.7621 83.9824C74.8806 83.5609 74.1105 82.9377 73.5144 82.1631V91.0828H70.6758V67.0867H73.199L73.3953 69.3376C74.3765 67.6266 76.6965 66.68 78.61 66.68C79.5212 66.6716 80.4248 66.846 81.2675 67.1929C82.1102 67.5397 82.8748 68.052 83.5163 68.6995C85.2225 70.5818 86.1189 73.0608 86.0115 75.5996C85.9975 78.5308 85.1213 81.0903 83.4041 82.7381ZM81.3014 70.4175C80.8836 69.9983 80.3846 69.6689 79.835 69.4494C79.2854 69.2299 78.6969 69.1251 78.1053 69.1413C77.0467 69.1373 76.0255 69.533 75.2457 70.2492C73.8439 71.4974 73.3322 73.517 73.3322 75.6347C73.3322 77.7524 73.8368 79.7439 75.2457 80.9851C76.0275 81.6948 77.0497 82.0807 78.1053 82.0649C78.6907 82.0851 79.2739 81.9847 79.8189 81.77C80.3639 81.5553 80.8589 81.2308 81.2734 80.8168C82.5242 79.3904 83.1637 77.5289 83.0537 75.6347C83.0677 73.6502 82.5911 71.6938 81.3154 70.4175H81.3014Z" fill="black"/>
<path d="M98.8447 87.6187C97.9685 89.7715 96.6929 91.2861 94.1346 91.2861C93.0786 91.307 92.0315 91.0889 91.0717 90.648V88.1937C91.8618 88.4842 92.6911 88.6544 93.5318 88.6986C94.0937 88.7479 94.6557 88.6048 95.1256 88.2926C95.5956 87.9805 95.9455 87.5178 96.1181 86.9806L97.2606 84.1196L89.8311 67.0867H93.3356L98.8166 80.6134L103.898 67.0867H107.164L98.8447 87.6187Z" fill="black"/>
<path d="M18.2488 244.799H16.5738L21.4738 226.549H23.6238L28.5238 244.799H26.8488L25.5238 239.699H19.5488L18.2488 244.799ZM19.9238 238.274H25.1488L23.3988 231.599C23.0322 230.149 22.7488 228.916 22.5488 227.899C22.3988 228.699 22.1072 229.932 21.6738 231.599L19.9238 238.274ZM37.5141 245.049C35.9807 245.049 34.7724 244.591 33.8891 243.674C33.0057 242.741 32.5641 241.482 32.5641 239.899V231.049H34.2141V239.899C34.2141 241.049 34.5057 241.949 35.0891 242.599C35.6724 243.249 36.4807 243.574 37.5141 243.574C38.5641 243.574 39.3807 243.257 39.9641 242.624C40.5641 241.974 40.8641 241.066 40.8641 239.899V231.049H42.5141V239.899C42.5141 241.482 42.0641 242.741 41.1641 243.674C40.2641 244.591 39.0474 245.049 37.5141 245.049ZM54.0293 244.799C52.9293 244.799 52.0793 244.516 51.4793 243.949C50.8793 243.366 50.5793 242.541 50.5793 241.474V232.549H46.6293V231.049H50.5793V227.299H52.2293V231.049H57.8043V232.549H52.2293V241.474C52.2293 242.691 52.8293 243.299 54.0293 243.299H57.5543V244.799H54.0293ZM67.5195 245.049C65.9862 245.049 64.7612 244.591 63.8445 243.674C62.9279 242.757 62.4695 241.516 62.4695 239.949V235.899C62.4695 234.332 62.9279 233.091 63.8445 232.174C64.7612 231.257 65.9862 230.799 67.5195 230.799C69.0529 230.799 70.2779 231.257 71.1945 232.174C72.1112 233.091 72.5695 234.332 72.5695 235.899V239.949C72.5695 241.516 72.1112 242.757 71.1945 243.674C70.2779 244.591 69.0529 245.049 67.5195 245.049ZM67.5195 243.599C68.6029 243.599 69.4362 243.282 70.0195 242.649C70.6195 242.016 70.9195 241.116 70.9195 239.949V235.899C70.9195 234.732 70.6195 233.832 70.0195 233.199C69.4362 232.566 68.6029 232.249 67.5195 232.249C66.4362 232.249 65.5945 232.566 64.9945 233.199C64.4112 233.832 64.1195 234.732 64.1195 235.899V239.949C64.1195 241.116 64.4112 242.016 64.9945 242.649C65.5945 243.282 66.4362 243.599 67.5195 243.599ZM85.5098 230.799C86.3431 230.799 86.9931 231.099 87.4598 231.699C87.9264 232.299 88.1598 233.116 88.1598 234.149V244.799H86.6098V234.224C86.6098 233.574 86.4598 233.066 86.1598 232.699C85.8764 232.316 85.4764 232.124 84.9598 232.124C84.4264 232.124 84.0014 232.316 83.6848 232.699C83.3848 233.082 83.2348 233.591 83.2348 234.224V244.799H81.7848V234.224C81.7848 233.574 81.6348 233.066 81.3348 232.699C81.0514 232.316 80.6514 232.124 80.1348 232.124C79.6181 232.124 79.2098 232.316 78.9098 232.699C78.6098 233.066 78.4431 233.574 78.4098 234.224V244.799H76.8598V231.049H78.3098V232.824H78.4348C78.5181 232.191 78.7598 231.699 79.1598 231.349C79.5598 230.982 80.0764 230.799 80.7098 230.799C81.3264 230.799 81.8348 230.974 82.2348 231.324C82.6514 231.674 82.9431 232.174 83.1098 232.824H83.2098C83.2931 232.191 83.5348 231.699 83.9348 231.349C84.3348 230.982 84.8598 230.799 85.5098 230.799ZM97.575 230.799C99.0917 230.799 100.283 231.216 101.15 232.049C102.033 232.866 102.475 233.982 102.475 235.399V244.799H100.85V242.549C100.633 243.316 100.133 243.924 99.35 244.374C98.5667 244.824 97.6 245.049 96.45 245.049C95.0333 245.049 93.9167 244.691 93.1 243.974C92.2833 243.241 91.875 242.257 91.875 241.024C91.875 239.791 92.2667 238.816 93.05 238.099C93.85 237.382 94.9333 237.024 96.3 237.024H100.825V235.424C100.825 234.424 100.533 233.649 99.95 233.099C99.3833 232.549 98.5833 232.274 97.55 232.274C96.6333 232.274 95.875 232.491 95.275 232.924C94.675 233.357 94.325 233.941 94.225 234.674H92.575C92.7583 233.491 93.2917 232.549 94.175 231.849C95.075 231.149 96.2083 230.799 97.575 230.799ZM96.75 243.674C97.9833 243.674 98.9667 243.399 99.7 242.849C100.45 242.299 100.825 241.566 100.825 240.649V238.374H96.3C95.4333 238.374 94.75 238.607 94.25 239.074C93.7667 239.524 93.525 240.149 93.525 240.949C93.525 241.782 93.8167 242.449 94.4 242.949C94.9833 243.432 95.7667 243.674 96.75 243.674ZM113.99 244.799C112.89 244.799 112.04 244.516 111.44 243.949C110.84 243.366 110.54 242.541 110.54 241.474V232.549H106.59V231.049H110.54V227.299H112.19V231.049H117.765V232.549H112.19V241.474C112.19 242.691 112.79 243.299 113.99 243.299H117.515V244.799H113.99ZM127.48 245.049C125.947 245.049 124.722 244.591 123.805 243.674C122.889 242.757 122.43 241.516 122.43 239.949V235.899C122.43 234.332 122.889 233.091 123.805 232.174C124.722 231.257 125.947 230.799 127.48 230.799C129.014 230.799 130.239 231.257 131.155 232.174C132.072 233.091 132.53 234.332 132.53 235.899V239.949C132.53 241.516 132.072 242.757 131.155 243.674C130.239 244.591 129.014 245.049 127.48 245.049ZM127.48 243.599C128.564 243.599 129.397 243.282 129.98 242.649C130.58 242.016 130.88 241.116 130.88 239.949V235.899C130.88 234.732 130.58 233.832 129.98 233.199C129.397 232.566 128.564 232.249 127.48 232.249C126.397 232.249 125.555 232.566 124.955 233.199C124.372 233.832 124.08 234.732 124.08 235.899V239.949C124.08 241.116 124.372 242.016 124.955 242.649C125.555 243.282 126.397 243.599 127.48 243.599ZM142.946 230.799C144.312 230.799 145.404 231.232 146.221 232.099C147.037 232.966 147.446 234.132 147.446 235.599V244.799H145.796V235.799C145.796 234.682 145.504 233.807 144.921 233.174C144.337 232.524 143.546 232.199 142.546 232.199C141.512 232.199 140.696 232.532 140.096 233.199C139.496 233.849 139.196 234.749 139.196 235.899V244.799H137.546V231.049H139.196V233.524C139.379 232.657 139.796 231.991 140.446 231.524C141.096 231.041 141.929 230.799 142.946 230.799ZM7.68359 276.049C6.10026 276.049 4.84193 275.591 3.90859 274.674C2.97526 273.757 2.50859 272.516 2.50859 270.949V262.399C2.50859 260.832 2.97526 259.591 3.90859 258.674C4.84193 257.757 6.10026 257.299 7.68359 257.299C9.26693 257.299 10.5253 257.774 11.4586 258.724C12.4086 259.674 12.8836 260.949 12.8836 262.549H11.2336C11.2336 261.382 10.9169 260.466 10.2836 259.799C9.65026 259.116 8.78359 258.774 7.68359 258.774C6.58359 258.774 5.71693 259.099 5.08359 259.749C4.46693 260.382 4.15859 261.266 4.15859 262.399V270.949C4.15859 272.082 4.46693 272.974 5.08359 273.624C5.71693 274.257 6.58359 274.574 7.68359 274.574C8.80026 274.574 9.66693 274.241 10.2836 273.574C10.9169 272.907 11.2336 271.982 11.2336 270.799V268.249H7.15859V266.774H12.8836V270.799C12.8836 272.399 12.4086 273.674 11.4586 274.624C10.5253 275.574 9.26693 276.049 7.68359 276.049ZM23.3988 261.799C24.8655 261.799 26.0238 262.249 26.8738 263.149C27.7238 264.049 28.1488 265.274 28.1488 266.824V267.599H26.4238V266.899C26.4238 265.732 26.1322 264.824 25.5488 264.174C24.9655 263.524 24.1405 263.199 23.0738 263.199C22.0238 263.199 21.1988 263.524 20.5988 264.174C20.0155 264.824 19.7238 265.732 19.7238 266.899V275.799H18.0738V262.049H19.6988V264.224H19.7238C19.9738 263.441 20.4072 262.841 21.0238 262.424C21.6572 262.007 22.4488 261.799 23.3988 261.799ZM37.5391 276.049C36.0057 276.049 34.7807 275.591 33.8641 274.674C32.9474 273.757 32.4891 272.516 32.4891 270.949V266.899C32.4891 265.332 32.9474 264.091 33.8641 263.174C34.7807 262.257 36.0057 261.799 37.5391 261.799C39.0724 261.799 40.2974 262.257 41.2141 263.174C42.1307 264.091 42.5891 265.332 42.5891 266.899V270.949C42.5891 272.516 42.1307 273.757 41.2141 274.674C40.2974 275.591 39.0724 276.049 37.5391 276.049ZM37.5391 274.599C38.6224 274.599 39.4557 274.282 40.0391 273.649C40.6391 273.016 40.9391 272.116 40.9391 270.949V266.899C40.9391 265.732 40.6391 264.832 40.0391 264.199C39.4557 263.566 38.6224 263.249 37.5391 263.249C36.4557 263.249 35.6141 263.566 35.0141 264.199C34.4307 264.832 34.1391 265.732 34.1391 266.899V270.949C34.1391 272.116 34.4307 273.016 35.0141 273.649C35.6141 274.282 36.4557 274.599 37.5391 274.599ZM48.4043 275.799L46.1293 262.049H47.6543L49.2293 272.099C49.3293 272.732 49.4376 273.557 49.5543 274.574C49.6876 273.557 49.8126 272.732 49.9293 272.099L51.7293 262.049H53.3543L55.1543 272.099C55.271 272.732 55.396 273.557 55.5293 274.574C55.646 273.557 55.7626 272.724 55.8793 272.074L57.4543 262.049H58.9293L56.6043 275.799H54.6293L53.0043 266.124L52.5293 263.399C52.3793 264.432 52.2293 265.341 52.0793 266.124L50.3793 275.799H48.4043ZM69.0195 275.799C67.9195 275.799 67.0695 275.516 66.4695 274.949C65.8695 274.366 65.5695 273.541 65.5695 272.474V263.549H61.6195V262.049H65.5695V258.299H67.2195V262.049H72.7945V263.549H67.2195V272.474C67.2195 273.691 67.8195 274.299 69.0195 274.299H72.5445V275.799H69.0195ZM82.9848 261.799C84.3514 261.799 85.4431 262.232 86.2598 263.099C87.0764 263.966 87.4848 265.132 87.4848 266.599V275.799H85.8348V266.799C85.8348 265.682 85.5431 264.807 84.9598 264.174C84.3764 263.524 83.5848 263.199 82.5848 263.199C81.5514 263.199 80.7348 263.532 80.1348 264.199C79.5348 264.849 79.2348 265.749 79.2348 266.899V275.799H77.5848V257.549H79.2348V264.299H79.2848C79.4848 263.516 79.9098 262.907 80.5598 262.474C81.2098 262.024 82.0181 261.799 82.9848 261.799ZM107.565 275.799V257.549H112.89C114.507 257.549 115.799 258.016 116.765 258.949C117.732 259.882 118.215 261.124 118.215 262.674C118.215 263.957 117.865 265.041 117.165 265.924C116.465 266.807 115.507 267.374 114.29 267.624L118.39 275.799H116.44L112.565 267.749H109.215V275.799H107.565ZM112.89 266.274C113.99 266.274 114.874 265.949 115.54 265.299C116.207 264.632 116.54 263.749 116.54 262.649C116.54 261.549 116.207 260.674 115.54 260.024C114.874 259.357 113.99 259.024 112.89 259.024H109.215V266.274H112.89ZM127.455 276.049C125.922 276.049 124.714 275.591 123.83 274.674C122.947 273.741 122.505 272.482 122.505 270.899V262.049H124.155V270.899C124.155 272.049 124.447 272.949 125.03 273.599C125.614 274.249 126.422 274.574 127.455 274.574C128.505 274.574 129.322 274.257 129.905 273.624C130.505 272.974 130.805 272.066 130.805 270.899V262.049H132.455V270.899C132.455 272.482 132.005 273.741 131.105 274.674C130.205 275.591 128.989 276.049 127.455 276.049ZM144.096 275.799C142.929 275.799 142.021 275.482 141.371 274.849C140.721 274.216 140.396 273.341 140.396 272.224V259.049H136.121V257.549H142.046V272.224C142.046 272.891 142.221 273.407 142.571 273.774C142.921 274.124 143.429 274.299 144.096 274.299H148.571V275.799H144.096ZM162.511 269.299H154.036V270.949C154.036 272.116 154.336 273.024 154.936 273.674C155.536 274.307 156.386 274.624 157.486 274.624C158.369 274.624 159.094 274.432 159.661 274.049C160.244 273.649 160.628 273.091 160.811 272.374H162.461C162.261 273.507 161.719 274.407 160.836 275.074C159.953 275.724 158.836 276.049 157.486 276.049C155.919 276.049 154.678 275.591 153.761 274.674C152.861 273.741 152.411 272.499 152.411 270.949V266.899C152.411 265.349 152.861 264.116 153.761 263.199C154.678 262.266 155.919 261.799 157.486 261.799C159.036 261.799 160.261 262.266 161.161 263.199C162.061 264.116 162.511 265.349 162.511 266.899V269.299ZM154.036 267.974H160.886V266.899C160.886 265.732 160.594 264.824 160.011 264.174C159.428 263.524 158.586 263.199 157.486 263.199C156.369 263.199 155.511 263.524 154.911 264.174C154.328 264.824 154.036 265.732 154.036 266.899V267.974ZM171.801 276.049C170.501 276.049 169.435 275.716 168.601 275.049C167.785 274.382 167.318 273.507 167.201 272.424H168.851C168.968 273.057 169.293 273.574 169.826 273.974C170.36 274.374 171.018 274.574 171.801 274.574H173.226C174.11 274.574 174.801 274.357 175.301 273.924C175.818 273.491 176.076 272.916 176.076 272.199C176.076 271.532 175.868 270.982 175.451 270.549C175.035 270.116 174.46 269.841 173.726 269.724L171.376 269.374C168.826 268.991 167.551 267.732 167.551 265.599C167.551 264.416 167.943 263.491 168.726 262.824C169.526 262.141 170.635 261.799 172.051 261.799H173.051C174.318 261.799 175.351 262.107 176.151 262.724C176.951 263.341 177.418 264.174 177.551 265.224H175.901C175.801 264.641 175.493 264.174 174.976 263.824C174.476 263.457 173.835 263.274 173.051 263.274H172.051C171.151 263.274 170.451 263.482 169.951 263.899C169.468 264.299 169.226 264.866 169.226 265.599C169.226 266.232 169.426 266.732 169.826 267.099C170.226 267.449 170.826 267.691 171.626 267.824L173.926 268.149C175.16 268.332 176.093 268.757 176.726 269.424C177.376 270.091 177.701 270.966 177.701 272.049C177.701 273.282 177.31 274.257 176.526 274.974C175.743 275.691 174.643 276.049 173.226 276.049H171.801Z" fill="#414042"/>
<path d="M461.239 253.799H459.564L464.464 235.549H466.614L471.514 253.799H469.839L468.514 248.699H462.539L461.239 253.799ZM462.914 247.274H468.139L466.389 240.599C466.022 239.149 465.739 237.916 465.539 236.899C465.389 237.699 465.097 238.932 464.664 240.599L462.914 247.274ZM480.504 254.049C478.971 254.049 477.763 253.591 476.879 252.674C475.996 251.741 475.554 250.482 475.554 248.899V240.049H477.204V248.899C477.204 250.049 477.496 250.949 478.079 251.599C478.663 252.249 479.471 252.574 480.504 252.574C481.554 252.574 482.371 252.257 482.954 251.624C483.554 250.974 483.854 250.066 483.854 248.899V240.049H485.504V248.899C485.504 250.482 485.054 251.741 484.154 252.674C483.254 253.591 482.038 254.049 480.504 254.049ZM497.02 253.799C495.92 253.799 495.07 253.516 494.47 252.949C493.87 252.366 493.57 251.541 493.57 250.474V241.549H489.62V240.049H493.57V236.299H495.22V240.049H500.795V241.549H495.22V250.474C495.22 251.691 495.82 252.299 497.02 252.299H500.545V253.799H497.02ZM510.51 254.049C508.976 254.049 507.751 253.591 506.835 252.674C505.918 251.757 505.46 250.516 505.46 248.949V244.899C505.46 243.332 505.918 242.091 506.835 241.174C507.751 240.257 508.976 239.799 510.51 239.799C512.043 239.799 513.268 240.257 514.185 241.174C515.101 242.091 515.56 243.332 515.56 244.899V248.949C515.56 250.516 515.101 251.757 514.185 252.674C513.268 253.591 512.043 254.049 510.51 254.049ZM510.51 252.599C511.593 252.599 512.426 252.282 513.01 251.649C513.61 251.016 513.91 250.116 513.91 248.949V244.899C513.91 243.732 513.61 242.832 513.01 242.199C512.426 241.566 511.593 241.249 510.51 241.249C509.426 241.249 508.585 241.566 507.985 242.199C507.401 242.832 507.11 243.732 507.11 244.899V248.949C507.11 250.116 507.401 251.016 507.985 251.649C508.585 252.282 509.426 252.599 510.51 252.599ZM528.775 235.549H530.425V253.799H528.775V251.624H528.75C528.517 252.374 528.067 252.966 527.4 253.399C526.733 253.832 525.925 254.049 524.975 254.049C523.608 254.049 522.508 253.599 521.675 252.699C520.858 251.782 520.45 250.557 520.45 249.024V244.849C520.45 243.316 520.858 242.091 521.675 241.174C522.492 240.257 523.592 239.799 524.975 239.799C525.925 239.799 526.733 240.016 527.4 240.449C528.067 240.882 528.517 241.474 528.75 242.224H528.8L528.775 239.399V235.549ZM525.45 252.624C526.483 252.624 527.292 252.307 527.875 251.674C528.475 251.024 528.775 250.124 528.775 248.974V244.899C528.775 243.749 528.483 242.849 527.9 242.199C527.317 241.549 526.492 241.224 525.425 241.224C524.392 241.224 523.575 241.549 522.975 242.199C522.392 242.832 522.1 243.732 522.1 244.899V248.974C522.1 250.124 522.392 251.024 522.975 251.674C523.575 252.307 524.4 252.624 525.45 252.624ZM545.54 247.299H537.065V248.949C537.065 250.116 537.365 251.024 537.965 251.674C538.565 252.307 539.415 252.624 540.515 252.624C541.399 252.624 542.124 252.432 542.69 252.049C543.274 251.649 543.657 251.091 543.84 250.374H545.49C545.29 251.507 544.749 252.407 543.865 253.074C542.982 253.724 541.865 254.049 540.515 254.049C538.949 254.049 537.707 253.591 536.79 252.674C535.89 251.741 535.44 250.499 535.44 248.949V244.899C535.44 243.349 535.89 242.116 536.79 241.199C537.707 240.266 538.949 239.799 540.515 239.799C542.065 239.799 543.29 240.266 544.19 241.199C545.09 242.116 545.54 243.349 545.54 244.899V247.299ZM537.065 245.974H543.915V244.899C543.915 243.732 543.624 242.824 543.04 242.174C542.457 241.524 541.615 241.199 540.515 241.199C539.399 241.199 538.54 241.524 537.94 242.174C537.357 242.824 537.065 243.732 537.065 244.899V245.974ZM554.83 254.049C553.53 254.049 552.464 253.716 551.63 253.049C550.814 252.382 550.347 251.507 550.23 250.424H551.88C551.997 251.057 552.322 251.574 552.855 251.974C553.389 252.374 554.047 252.574 554.83 252.574H556.255C557.139 252.574 557.83 252.357 558.33 251.924C558.847 251.491 559.105 250.916 559.105 250.199C559.105 249.532 558.897 248.982 558.48 248.549C558.064 248.116 557.489 247.841 556.755 247.724L554.405 247.374C551.855 246.991 550.58 245.732 550.58 243.599C550.58 242.416 550.972 241.491 551.755 240.824C552.555 240.141 553.664 239.799 555.08 239.799H556.08C557.347 239.799 558.38 240.107 559.18 240.724C559.98 241.341 560.447 242.174 560.58 243.224H558.93C558.83 242.641 558.522 242.174 558.005 241.824C557.505 241.457 556.864 241.274 556.08 241.274H555.08C554.18 241.274 553.48 241.482 552.98 241.899C552.497 242.299 552.255 242.866 552.255 243.599C552.255 244.232 552.455 244.732 552.855 245.099C553.255 245.449 553.855 245.691 554.655 245.824L556.955 246.149C558.189 246.332 559.122 246.757 559.755 247.424C560.405 248.091 560.73 248.966 560.73 250.049C560.73 251.282 560.339 252.257 559.555 252.974C558.772 253.691 557.672 254.049 556.255 254.049H554.83ZM567.271 253.799H565.621V235.549H567.271V245.924H570.196L574.396 240.049H576.321L571.696 246.574L576.396 253.799H574.446L570.221 247.399H567.271V253.799ZM490.17 284.799V266.549H492.47L494.77 273.099L495.57 275.599C495.836 274.716 496.103 273.882 496.37 273.099L498.595 266.549H500.87V284.799H499.27V275.549C499.27 273.149 499.395 270.424 499.645 267.374L496.42 276.724H494.67L491.395 267.374C491.645 270.357 491.77 273.082 491.77 275.549V284.799H490.17ZM510.585 270.799C512.101 270.799 513.293 271.216 514.16 272.049C515.043 272.866 515.485 273.982 515.485 275.399V284.799H513.86V282.549C513.643 283.316 513.143 283.924 512.36 284.374C511.576 284.824 510.61 285.049 509.46 285.049C508.043 285.049 506.926 284.691 506.11 283.974C505.293 283.241 504.885 282.257 504.885 281.024C504.885 279.791 505.276 278.816 506.06 278.099C506.86 277.382 507.943 277.024 509.31 277.024H513.835V275.424C513.835 274.424 513.543 273.649 512.96 273.099C512.393 272.549 511.593 272.274 510.56 272.274C509.643 272.274 508.885 272.491 508.285 272.924C507.685 273.357 507.335 273.941 507.235 274.674H505.585C505.768 273.491 506.301 272.549 507.185 271.849C508.085 271.149 509.218 270.799 510.585 270.799ZM509.76 283.674C510.993 283.674 511.976 283.399 512.71 282.849C513.46 282.299 513.835 281.566 513.835 280.649V278.374H509.31C508.443 278.374 507.76 278.607 507.26 279.074C506.776 279.524 506.535 280.149 506.535 280.949C506.535 281.782 506.826 282.449 507.41 282.949C507.993 283.432 508.776 283.674 509.76 283.674ZM522.85 289.299L524.875 283.874L519.75 271.049H521.575L524.9 279.699C525.15 280.382 525.417 281.141 525.7 281.974C525.967 281.124 526.217 280.366 526.45 279.699L529.475 271.049H531.25L524.575 289.299H522.85ZM540.565 270.799C542.082 270.799 543.274 271.216 544.14 272.049C545.024 272.866 545.465 273.982 545.465 275.399V284.799H543.84V282.549C543.624 283.316 543.124 283.924 542.34 284.374C541.557 284.824 540.59 285.049 539.44 285.049C538.024 285.049 536.907 284.691 536.09 283.974C535.274 283.241 534.865 282.257 534.865 281.024C534.865 279.791 535.257 278.816 536.04 278.099C536.84 277.382 537.924 277.024 539.29 277.024H543.815V275.424C543.815 274.424 543.524 273.649 542.94 273.099C542.374 272.549 541.574 272.274 540.54 272.274C539.624 272.274 538.865 272.491 538.265 272.924C537.665 273.357 537.315 273.941 537.215 274.674H535.565C535.749 273.491 536.282 272.549 537.165 271.849C538.065 271.149 539.199 270.799 540.565 270.799ZM539.74 283.674C540.974 283.674 541.957 283.399 542.69 282.849C543.44 282.299 543.815 281.566 543.815 280.649V278.374H539.29C538.424 278.374 537.74 278.607 537.24 279.074C536.757 279.524 536.515 280.149 536.515 280.949C536.515 281.782 536.807 282.449 537.39 282.949C537.974 283.432 538.757 283.674 539.74 283.674Z" fill="#414042"/>
<path d="M849.488 240.274C851.022 240.307 852.238 240.782 853.138 241.699C854.055 242.599 854.513 243.799 854.513 245.299V246.949C854.513 248.482 854.038 249.716 853.088 250.649C852.138 251.582 850.88 252.049 849.313 252.049C847.73 252.049 846.463 251.591 845.513 250.674C844.58 249.741 844.113 248.499 844.113 246.949H845.763C845.763 248.066 846.08 248.949 846.713 249.599C847.347 250.249 848.213 250.574 849.313 250.574C850.413 250.574 851.28 250.249 851.913 249.599C852.547 248.949 852.863 248.066 852.863 246.949V245.299C852.863 244.182 852.547 243.316 851.913 242.699C851.297 242.066 850.43 241.749 849.313 241.749H847.788V240.174L852.438 235.049H844.788V233.549H854.113V235.199L849.488 240.274ZM859.629 251.799V233.549H863.904C865.037 233.549 866.037 233.774 866.904 234.224C867.77 234.674 868.437 235.316 868.904 236.149C869.37 236.982 869.604 237.949 869.604 239.049V246.299C869.604 247.399 869.37 248.366 868.904 249.199C868.437 250.032 867.77 250.674 866.904 251.124C866.037 251.574 865.037 251.799 863.904 251.799H859.629ZM863.904 250.324C865.137 250.324 866.12 249.966 866.854 249.249C867.587 248.516 867.954 247.532 867.954 246.299V239.049C867.954 237.832 867.587 236.857 866.854 236.124C866.12 235.391 865.137 235.024 863.904 235.024H861.279V250.324H863.904ZM890.234 251.799H888.559L893.459 233.549H895.609L900.509 251.799H898.834L897.509 246.699H891.534L890.234 251.799ZM891.909 245.274H897.134L895.384 238.599C895.018 237.149 894.734 235.916 894.534 234.899C894.384 235.699 894.093 236.932 893.659 238.599L891.909 245.274ZM909.499 252.049C907.966 252.049 906.758 251.591 905.874 250.674C904.991 249.741 904.549 248.482 904.549 246.899V238.049H906.199V246.899C906.199 248.049 906.491 248.949 907.074 249.599C907.658 250.249 908.466 250.574 909.499 250.574C910.549 250.574 911.366 250.257 911.949 249.624C912.549 248.974 912.849 248.066 912.849 246.899V238.049H914.499V246.899C914.499 248.482 914.049 249.741 913.149 250.674C912.249 251.591 911.033 252.049 909.499 252.049ZM926.015 251.799C924.915 251.799 924.065 251.516 923.465 250.949C922.865 250.366 922.565 249.541 922.565 248.474V239.549H918.615V238.049H922.565V234.299H924.215V238.049H929.79V239.549H924.215V248.474C924.215 249.691 924.815 250.299 926.015 250.299H929.54V251.799H926.015ZM939.505 252.049C937.972 252.049 936.747 251.591 935.83 250.674C934.913 249.757 934.455 248.516 934.455 246.949V242.899C934.455 241.332 934.913 240.091 935.83 239.174C936.747 238.257 937.972 237.799 939.505 237.799C941.038 237.799 942.263 238.257 943.18 239.174C944.097 240.091 944.555 241.332 944.555 242.899V246.949C944.555 248.516 944.097 249.757 943.18 250.674C942.263 251.591 941.038 252.049 939.505 252.049ZM939.505 250.599C940.588 250.599 941.422 250.282 942.005 249.649C942.605 249.016 942.905 248.116 942.905 246.949V242.899C942.905 241.732 942.605 240.832 942.005 240.199C941.422 239.566 940.588 239.249 939.505 239.249C938.422 239.249 937.58 239.566 936.98 240.199C936.397 240.832 936.105 241.732 936.105 242.899V246.949C936.105 248.116 936.397 249.016 936.98 249.649C937.58 250.282 938.422 250.599 939.505 250.599ZM957.495 237.799C958.328 237.799 958.978 238.099 959.445 238.699C959.912 239.299 960.145 240.116 960.145 241.149V251.799H958.595V241.224C958.595 240.574 958.445 240.066 958.145 239.699C957.862 239.316 957.462 239.124 956.945 239.124C956.412 239.124 955.987 239.316 955.67 239.699C955.37 240.082 955.22 240.591 955.22 241.224V251.799H953.77V241.224C953.77 240.574 953.62 240.066 953.32 239.699C953.037 239.316 952.637 239.124 952.12 239.124C951.603 239.124 951.195 239.316 950.895 239.699C950.595 240.066 950.428 240.574 950.395 241.224V251.799H948.845V238.049H950.295V239.824H950.42C950.503 239.191 950.745 238.699 951.145 238.349C951.545 237.982 952.062 237.799 952.695 237.799C953.312 237.799 953.82 237.974 954.22 238.324C954.637 238.674 954.928 239.174 955.095 239.824H955.195C955.278 239.191 955.52 238.699 955.92 238.349C956.32 237.982 956.845 237.799 957.495 237.799ZM969.56 237.799C971.077 237.799 972.269 238.216 973.135 239.049C974.019 239.866 974.46 240.982 974.46 242.399V251.799H972.835V249.549C972.619 250.316 972.119 250.924 971.335 251.374C970.552 251.824 969.585 252.049 968.435 252.049C967.019 252.049 965.902 251.691 965.085 250.974C964.269 250.241 963.86 249.257 963.86 248.024C963.86 246.791 964.252 245.816 965.035 245.099C965.835 244.382 966.919 244.024 968.285 244.024H972.81V242.424C972.81 241.424 972.519 240.649 971.935 240.099C971.369 239.549 970.569 239.274 969.535 239.274C968.619 239.274 967.86 239.491 967.26 239.924C966.66 240.357 966.31 240.941 966.21 241.674H964.56C964.744 240.491 965.277 239.549 966.16 238.849C967.06 238.149 968.194 237.799 969.56 237.799ZM968.735 250.674C969.969 250.674 970.952 250.399 971.685 249.849C972.435 249.299 972.81 248.566 972.81 247.649V245.374H968.285C967.419 245.374 966.735 245.607 966.235 246.074C965.752 246.524 965.51 247.149 965.51 247.949C965.51 248.782 965.802 249.449 966.385 249.949C966.969 250.432 967.752 250.674 968.735 250.674ZM985.976 251.799C984.876 251.799 984.026 251.516 983.426 250.949C982.826 250.366 982.526 249.541 982.526 248.474V239.549H978.576V238.049H982.526V234.299H984.176V238.049H989.751V239.549H984.176V248.474C984.176 249.691 984.776 250.299 985.976 250.299H989.501V251.799H985.976ZM999.466 252.049C997.932 252.049 996.707 251.591 995.791 250.674C994.874 249.757 994.416 248.516 994.416 246.949V242.899C994.416 241.332 994.874 240.091 995.791 239.174C996.707 238.257 997.932 237.799 999.466 237.799C1001 237.799 1002.22 238.257 1003.14 239.174C1004.06 240.091 1004.52 241.332 1004.52 242.899V246.949C1004.52 248.516 1004.06 249.757 1003.14 250.674C1002.22 251.591 1001 252.049 999.466 252.049ZM999.466 250.599C1000.55 250.599 1001.38 250.282 1001.97 249.649C1002.57 249.016 1002.87 248.116 1002.87 246.949V242.899C1002.87 241.732 1002.57 240.832 1001.97 240.199C1001.38 239.566 1000.55 239.249 999.466 239.249C998.382 239.249 997.541 239.566 996.941 240.199C996.357 240.832 996.066 241.732 996.066 242.899V246.949C996.066 248.116 996.357 249.016 996.941 249.649C997.541 250.282 998.382 250.599 999.466 250.599ZM1014.93 237.799C1016.3 237.799 1017.39 238.232 1018.21 239.099C1019.02 239.966 1019.43 241.132 1019.43 242.599V251.799H1017.78V242.799C1017.78 241.682 1017.49 240.807 1016.91 240.174C1016.32 239.524 1015.53 239.199 1014.53 239.199C1013.5 239.199 1012.68 239.532 1012.08 240.199C1011.48 240.849 1011.18 241.749 1011.18 242.899V251.799H1009.53V238.049H1011.18V240.524C1011.36 239.657 1011.78 238.991 1012.43 238.524C1013.08 238.041 1013.91 237.799 1014.93 237.799ZM879.669 283.049C877.952 283.049 876.586 282.607 875.569 281.724C874.569 280.841 874.061 279.641 874.044 278.124H875.694C875.694 279.174 876.044 280.016 876.744 280.649C877.461 281.266 878.427 281.574 879.644 281.574C880.811 281.574 881.727 281.282 882.394 280.699C883.061 280.116 883.394 279.307 883.394 278.274C883.394 277.407 883.144 276.649 882.644 275.999C882.161 275.349 881.494 274.891 880.644 274.624L878.394 273.924C877.177 273.557 876.227 272.941 875.544 272.074C874.877 271.191 874.544 270.149 874.544 268.949C874.544 267.532 875.011 266.407 875.944 265.574C876.877 264.724 878.127 264.299 879.694 264.299C881.244 264.299 882.477 264.741 883.394 265.624C884.327 266.491 884.802 267.657 884.819 269.124H883.169C883.169 268.091 882.852 267.274 882.219 266.674C881.586 266.074 880.736 265.774 879.669 265.774C878.586 265.774 877.736 266.049 877.119 266.599C876.502 267.132 876.194 267.874 876.194 268.824C876.194 269.657 876.427 270.391 876.894 271.024C877.361 271.641 878.011 272.082 878.844 272.349L881.094 273.049C882.327 273.432 883.294 274.082 883.994 274.999C884.694 275.916 885.044 276.982 885.044 278.199C885.044 279.682 884.552 280.866 883.569 281.749C882.602 282.616 881.302 283.049 879.669 283.049ZM896.034 282.799C894.934 282.799 894.084 282.516 893.484 281.949C892.884 281.366 892.584 280.541 892.584 279.474V270.549H888.634V269.049H892.584V265.299H894.234V269.049H899.809V270.549H894.234V279.474C894.234 280.691 894.834 281.299 896.034 281.299H899.559V282.799H896.034ZM910.374 268.799C911.841 268.799 912.999 269.249 913.849 270.149C914.699 271.049 915.124 272.274 915.124 273.824V274.599H913.399V273.899C913.399 272.732 913.108 271.824 912.524 271.174C911.941 270.524 911.116 270.199 910.049 270.199C908.999 270.199 908.174 270.524 907.574 271.174C906.991 271.824 906.699 272.732 906.699 273.899V282.799H905.049V269.049H906.674V271.224H906.699C906.949 270.441 907.383 269.841 907.999 269.424C908.633 269.007 909.424 268.799 910.374 268.799ZM924.49 283.049C922.956 283.049 921.748 282.591 920.865 281.674C919.981 280.741 919.54 279.482 919.54 277.899V269.049H921.19V277.899C921.19 279.049 921.481 279.949 922.065 280.599C922.648 281.249 923.456 281.574 924.49 281.574C925.54 281.574 926.356 281.257 926.94 280.624C927.54 279.974 927.84 279.066 927.84 277.899V269.049H929.49V277.899C929.49 279.482 929.04 280.741 928.14 281.674C927.24 282.591 926.023 283.049 924.49 283.049ZM939.58 283.049C937.997 283.049 936.747 282.591 935.83 281.674C934.913 280.757 934.455 279.516 934.455 277.949V273.899C934.455 272.332 934.913 271.091 935.83 270.174C936.763 269.257 938.013 268.799 939.58 268.799C941.113 268.799 942.338 269.232 943.255 270.099C944.188 270.949 944.663 272.099 944.68 273.549H943.03C943.013 272.516 942.697 271.707 942.08 271.124C941.48 270.541 940.647 270.249 939.58 270.249C938.497 270.249 937.647 270.574 937.03 271.224C936.413 271.874 936.105 272.766 936.105 273.899V277.949C936.105 279.082 936.413 279.974 937.03 280.624C937.647 281.274 938.497 281.599 939.58 281.599C940.647 281.599 941.48 281.307 942.08 280.724C942.697 280.141 943.013 279.332 943.03 278.299H944.68C944.663 279.749 944.188 280.907 943.255 281.774C942.338 282.624 941.113 283.049 939.58 283.049ZM955.995 282.799C954.895 282.799 954.045 282.516 953.445 281.949C952.845 281.366 952.545 280.541 952.545 279.474V270.549H948.595V269.049H952.545V265.299H954.195V269.049H959.77V270.549H954.195V279.474C954.195 280.691 954.795 281.299 955.995 281.299H959.52V282.799H955.995ZM969.46 283.049C967.927 283.049 966.719 282.591 965.835 281.674C964.952 280.741 964.51 279.482 964.51 277.899V269.049H966.16V277.899C966.16 279.049 966.452 279.949 967.035 280.599C967.619 281.249 968.427 281.574 969.46 281.574C970.51 281.574 971.327 281.257 971.91 280.624C972.51 279.974 972.81 279.066 972.81 277.899V269.049H974.46V277.899C974.46 279.482 974.01 280.741 973.11 281.674C972.21 282.591 970.994 283.049 969.46 283.049ZM985.326 268.799C986.792 268.799 987.951 269.249 988.801 270.149C989.651 271.049 990.076 272.274 990.076 273.824V274.599H988.351V273.899C988.351 272.732 988.059 271.824 987.476 271.174C986.892 270.524 986.067 270.199 985.001 270.199C983.951 270.199 983.126 270.524 982.526 271.174C981.942 271.824 981.651 272.732 981.651 273.899V282.799H980.001V269.049H981.626V271.224H981.651C981.901 270.441 982.334 269.841 982.951 269.424C983.584 269.007 984.376 268.799 985.326 268.799ZM1004.52 276.299H996.041V277.949C996.041 279.116 996.341 280.024 996.941 280.674C997.541 281.307 998.391 281.624 999.491 281.624C1000.37 281.624 1001.1 281.432 1001.67 281.049C1002.25 280.649 1002.63 280.091 1002.82 279.374H1004.47C1004.27 280.507 1003.72 281.407 1002.84 282.074C1001.96 282.724 1000.84 283.049 999.491 283.049C997.924 283.049 996.682 282.591 995.766 281.674C994.866 280.741 994.416 279.499 994.416 277.949V273.899C994.416 272.349 994.866 271.116 995.766 270.199C996.682 269.266 997.924 268.799 999.491 268.799C1001.04 268.799 1002.27 269.266 1003.17 270.199C1004.07 271.116 1004.52 272.349 1004.52 273.899V276.299ZM996.041 274.974H1002.89V273.899C1002.89 272.732 1002.6 271.824 1002.02 271.174C1001.43 270.524 1000.59 270.199 999.491 270.199C998.374 270.199 997.516 270.524 996.916 271.174C996.332 271.824 996.041 272.732 996.041 273.899V274.974Z" fill="#414042"/>
<g filter="url(#filter0_d)">
<path d="M214.284 71.7287C285.753 51.6991 295.312 90.3927 371.334 71.7287" stroke="#414042"/>
</g>
<g filter="url(#filter1_d)">
<path d="M376.341 72.6393L368.147 77.37L368.147 67.9085L376.341 72.6393Z" fill="#414042"/>
</g>
<g filter="url(#filter2_d)">
<path d="M652 72.7287C723.469 52.6991 733.029 91.3927 809.05 72.7287" stroke="#414042"/>
</g>
<g filter="url(#filter3_d)">
<path d="M814.058 73.6393L805.864 78.37L805.864 68.9085L814.058 73.6393Z" fill="#414042"/>
</g>
<defs>
<filter id="filter0_d" x="210.149" y="65.299" width="165.304" height="20.1768" filterUnits="userSpaceOnUse" color-interpolation-filters="sRGB">
<feFlood flood-opacity="0" result="BackgroundImageFix"/>
<feColorMatrix in="SourceAlpha" type="matrix" values="0 0 0 0 0 0 0 0 0 0 0 0 0 0 0 0 0 0 127 0"/>
<feOffset dy="4"/>
<feGaussianBlur stdDeviation="2"/>
<feColorMatrix type="matrix" values="0 0 0 0 0 0 0 0 0 0 0 0 0 0 0 0 0 0 0.25 0"/>
<feBlend mode="normal" in2="BackgroundImageFix" result="effect1_dropShadow"/>
<feBlend mode="normal" in="SourceGraphic" in2="effect1_dropShadow" result="shape"/>
</filter>
<filter id="filter1_d" x="364.147" y="67.9084" width="16.1939" height="17.4615" filterUnits="userSpaceOnUse" color-interpolation-filters="sRGB">
<feFlood flood-opacity="0" result="BackgroundImageFix"/>
<feColorMatrix in="SourceAlpha" type="matrix" values="0 0 0 0 0 0 0 0 0 0 0 0 0 0 0 0 0 0 127 0"/>
<feOffset dy="4"/>
<feGaussianBlur stdDeviation="2"/>
<feColorMatrix type="matrix" values="0 0 0 0 0 0 0 0 0 0 0 0 0 0 0 0 0 0 0.25 0"/>
<feBlend mode="normal" in2="BackgroundImageFix" result="effect1_dropShadow"/>
<feBlend mode="normal" in="SourceGraphic" in2="effect1_dropShadow" result="shape"/>
</filter>
<filter id="filter2_d" x="647.865" y="66.299" width="165.304" height="20.1768" filterUnits="userSpaceOnUse" color-interpolation-filters="sRGB">
<feFlood flood-opacity="0" result="BackgroundImageFix"/>
<feColorMatrix in="SourceAlpha" type="matrix" values="0 0 0 0 0 0 0 0 0 0 0 0 0 0 0 0 0 0 127 0"/>
<feOffset dy="4"/>
<feGaussianBlur stdDeviation="2"/>
<feColorMatrix type="matrix" values="0 0 0 0 0 0 0 0 0 0 0 0 0 0 0 0 0 0 0.25 0"/>
<feBlend mode="normal" in2="BackgroundImageFix" result="effect1_dropShadow"/>
<feBlend mode="normal" in="SourceGraphic" in2="effect1_dropShadow" result="shape"/>
</filter>
<filter id="filter3_d" x="801.864" y="68.9084" width="16.1939" height="17.4615" filterUnits="userSpaceOnUse" color-interpolation-filters="sRGB">
<feFlood flood-opacity="0" result="BackgroundImageFix"/>
<feColorMatrix in="SourceAlpha" type="matrix" values="0 0 0 0 0 0 0 0 0 0 0 0 0 0 0 0 0 0 127 0"/>
<feOffset dy="4"/>
<feGaussianBlur stdDeviation="2"/>
<feColorMatrix type="matrix" values="0 0 0 0 0 0 0 0 0 0 0 0 0 0 0 0 0 0 0.25 0"/>
<feBlend mode="normal" in2="BackgroundImageFix" result="effect1_dropShadow"/>
<feBlend mode="normal" in="SourceGraphic" in2="effect1_dropShadow" result="shape"/>
</filter>
</defs>
</svg>
