<svg width="341" height="913" viewBox="0 0 341 913" fill="none" xmlns="http://www.w3.org/2000/svg">
<path d="M169.967 508.002C166.804 508.002 163.633 507.965 160.469 508.002C159.417 508.002 159.09 507.661 159.17 506.652C159.246 505.628 159.246 504.599 159.17 503.575C159.105 502.624 159.482 502.392 160.382 502.4C166.593 502.4 172.805 502.399 179.016 502.436C180.017 502.436 180.395 502.225 180.351 501.159C180.264 499.352 180.264 497.53 180.351 495.731C180.395 494.671 180.119 494.323 178.994 494.33C172.863 494.388 166.731 494.33 160.607 494.388C159.446 494.388 159.083 494.061 159.156 492.937C159.232 491.869 159.232 490.797 159.156 489.729C159.09 488.829 159.46 488.641 160.288 488.648C166.463 488.648 172.623 488.648 178.798 488.699C180.112 488.699 180.395 488.307 180.322 487.109C180.235 485.383 180.235 483.654 180.322 481.928C180.366 480.941 180.025 480.673 179.067 480.68C172.899 480.716 166.731 480.68 160.556 480.724C159.359 480.724 159.069 480.346 159.148 479.272C159.225 478.287 159.225 477.297 159.148 476.311C159.069 475.332 159.41 475.041 160.389 475.049C166.477 475.049 172.565 475.049 178.653 475.049C180.293 475.049 180.293 475.049 180.293 473.358C180.293 471.667 180.242 469.896 180.293 468.169C180.337 467.204 180.039 466.921 179.059 466.928C172.884 466.972 166.724 466.928 160.549 466.979C159.41 466.979 159.011 466.667 159.098 465.528C159.185 464.543 159.185 463.552 159.098 462.567C159.018 461.58 159.381 461.297 160.353 461.304C165.701 461.341 171.049 461.304 176.396 461.304C177.383 461.304 178.37 461.304 179.357 461.304C179.974 461.304 180.25 461.087 180.242 460.441C180.242 458.344 180.242 456.246 180.242 454.149C180.242 453.344 179.836 453.307 179.241 453.307C176.113 453.307 172.986 453.307 169.859 453.307C166.731 453.307 163.524 453.264 160.36 453.307C159.286 453.307 159.003 452.959 159.076 451.972C159.156 450.946 159.156 449.915 159.076 448.888C158.989 447.858 159.337 447.553 160.375 447.56C166.506 447.604 172.63 447.56 178.762 447.604C179.974 447.604 180.308 447.263 180.213 446.087C180.119 444.324 180.141 442.546 180.213 440.782C180.213 439.81 179.945 439.512 178.965 439.52C173.001 439.556 167.036 439.52 161.071 439.52C158.815 439.52 159.083 439.81 159.061 437.451C159.101 436.712 159.101 435.97 159.061 435.231C158.938 434.157 159.41 433.932 160.397 433.932C166.484 433.932 172.572 433.932 178.66 433.975C179.908 433.975 180.322 433.678 180.242 432.408C180.148 430.641 180.148 428.87 180.242 427.103C180.242 426.138 180.003 425.841 179.009 425.848C172.841 425.891 166.673 425.848 160.498 425.899C159.344 425.899 158.974 425.572 159.047 424.447C159.127 423.421 159.127 422.39 159.047 421.363C158.989 420.449 159.315 420.173 160.237 420.173C166.412 420.209 172.572 420.173 178.747 420.217C179.959 420.217 180.293 419.883 180.199 418.707C180.097 416.9 180.133 415.079 180.199 413.279C180.199 412.336 179.887 412.096 178.987 412.103C172.812 412.103 166.651 412.103 160.476 412.147C159.337 412.147 158.916 411.835 159.025 410.696C159.105 409.71 159.105 408.72 159.025 407.735C158.967 406.821 159.301 406.53 160.222 406.537C164.576 406.581 168.857 406.537 173.182 406.537C175.192 406.537 177.209 406.537 179.226 406.537C179.571 406.561 179.918 406.508 180.24 406.383C180.562 406.258 180.853 406.063 181.091 405.812C183.689 403.18 186.306 400.563 188.942 397.96C189.172 397.732 189.348 397.455 189.457 397.15C189.567 396.845 189.606 396.519 189.574 396.197C189.574 389.898 189.574 383.606 189.574 377.329C189.574 376.4 189.762 375.986 190.786 376.074C191.853 376.161 192.925 376.161 193.993 376.074C195.001 375.994 195.226 376.407 195.219 377.343C195.219 383.475 195.219 389.6 195.176 395.732C195.176 396.835 195.422 397.271 196.627 397.184C198.434 397.096 200.255 397.111 202.054 397.184C203.049 397.22 203.302 396.864 203.295 395.906C203.259 389.695 203.295 383.483 203.295 377.271C203.295 376.364 203.498 376.001 204.449 376.059C205.558 376.132 206.671 376.132 207.78 376.059C208.723 375.994 208.948 376.342 208.948 377.256C208.904 383.381 208.948 389.513 208.89 395.645C208.89 396.944 209.26 397.256 210.479 397.184C212.202 397.096 213.929 397.096 215.653 397.184C216.726 397.234 217.06 396.922 217.053 395.805C216.995 389.68 217.053 383.548 216.995 377.416C216.995 376.328 217.278 375.965 218.366 376.059C219.269 376.146 220.178 376.146 221.08 376.059C222.292 375.928 222.706 376.291 222.691 377.597C222.619 383.642 222.691 389.687 222.633 395.739C222.633 396.857 222.923 397.249 224.084 397.191C225.81 397.1 227.539 397.1 229.265 397.191C230.39 397.249 230.716 396.9 230.716 395.739C230.658 389.687 230.716 383.642 230.651 377.597C230.651 376.32 231.007 375.907 232.24 376.037C233.143 376.128 234.052 376.128 234.954 376.037C236.013 375.943 236.355 376.248 236.347 377.387C236.282 383.468 236.347 389.564 236.289 395.645C236.289 396.842 236.601 397.234 237.799 397.169C239.605 397.075 241.427 397.096 243.226 397.169C244.177 397.205 244.394 396.857 244.387 395.957C244.387 389.789 244.387 383.621 244.387 377.445C244.387 376.393 244.605 375.943 245.737 376.045C246.763 376.132 247.795 376.132 248.821 376.045C249.771 375.979 249.989 376.342 249.982 377.249C249.982 383.381 249.982 389.506 249.982 395.638C249.982 396.792 250.243 397.249 251.476 397.184C253.243 397.089 255.014 397.089 256.781 397.184C257.797 397.227 258.109 396.937 258.101 395.892C258.058 389.767 258.101 383.635 258.058 377.503C258.058 376.436 258.246 375.921 259.444 376.052C260.47 376.146 261.502 376.146 262.528 376.052C263.471 375.986 263.79 376.248 263.783 377.264C263.732 383.432 263.783 389.6 263.732 395.776C263.732 396.959 264.095 397.227 265.183 397.184C266.909 397.093 268.639 397.093 270.364 397.184C271.504 397.249 271.758 396.813 271.75 395.768C271.714 389.68 271.75 383.592 271.707 377.503C271.707 376.422 271.932 375.914 273.158 376.052C274.098 376.16 275.048 376.16 275.988 376.052C277.236 375.907 277.439 376.444 277.439 377.576C277.388 383.541 277.439 389.506 277.439 395.471C277.439 397.162 277.439 397.162 279.115 397.162C280.792 397.162 282.41 397.104 284.05 397.162C285.153 397.22 285.501 396.9 285.501 395.71C285.443 389.622 285.501 383.534 285.45 377.445C285.45 376.349 285.704 375.885 286.901 375.994C287.886 376.092 288.877 376.092 289.862 375.994C290.928 375.899 291.161 376.342 291.153 377.336C291.153 383.504 291.153 389.673 291.11 395.841C291.081 396.345 291.165 396.85 291.357 397.317C291.549 397.785 291.844 398.203 292.22 398.541C294.564 400.79 296.871 403.076 299.106 405.434C299.45 405.806 299.874 406.095 300.345 406.279C300.816 406.464 301.323 406.54 301.827 406.501C307.872 406.501 313.923 406.501 319.968 406.45C321.201 406.45 321.695 406.748 321.521 408.032C321.412 408.931 321.412 409.84 321.521 410.739C321.644 411.9 321.129 412.089 320.069 412.082C314.105 412.045 308.14 412.082 302.176 412.082C300.391 412.082 300.383 412.082 300.383 413.874C300.383 415.667 300.441 417.248 300.383 418.954C300.333 419.963 300.695 420.195 301.639 420.195C307.814 420.158 313.974 420.195 320.149 420.151C321.223 420.151 321.6 420.391 321.521 421.508C321.423 422.575 321.423 423.649 321.521 424.716C321.6 425.674 321.23 425.877 320.338 425.87C314.293 425.87 308.242 425.87 302.197 425.87C300.137 425.87 300.427 425.732 300.42 427.647C300.42 429.338 300.47 431.022 300.42 432.727C300.369 433.736 300.746 433.99 301.697 433.983C307.785 433.946 313.873 433.983 319.961 433.939C321.158 433.939 321.702 434.179 321.542 435.485C321.441 436.428 321.441 437.379 321.542 438.322C321.629 439.324 321.223 439.563 320.287 439.563C314.322 439.527 308.358 439.563 302.393 439.563C300.166 439.563 300.449 439.44 300.441 441.457C300.441 443.097 300.492 444.744 300.441 446.392C300.391 447.4 300.775 447.625 301.726 447.618C307.85 447.618 313.981 447.618 320.113 447.575C321.339 447.575 321.688 447.945 321.564 449.106C321.456 450.046 321.456 450.996 321.564 451.936C321.709 453.148 321.172 453.336 320.113 453.329C314.105 453.286 308.104 453.293 302.096 453.329C300.369 453.329 300.47 452.974 300.463 454.984C300.463 456.631 300.521 458.278 300.463 459.918C300.412 460.985 300.732 461.326 301.842 461.319C308.01 461.268 314.177 461.319 320.352 461.275C321.368 461.275 321.651 461.587 321.586 462.538C321.502 463.606 321.502 464.678 321.586 465.746C321.68 466.812 321.187 466.943 320.294 466.936C315.36 466.936 310.419 466.936 305.484 466.936C304.171 466.936 302.85 466.979 301.537 466.936C300.717 466.899 300.456 467.19 300.47 467.988C300.47 469.962 300.521 471.936 300.47 473.909C300.47 474.867 300.819 475.078 301.704 475.07C307.872 475.07 314.039 475.07 320.214 475.07C321.281 475.07 321.666 475.303 321.593 476.42C321.502 477.446 321.502 478.478 321.593 479.504C321.673 480.52 321.259 480.753 320.316 480.745C314.272 480.709 308.22 480.745 302.176 480.745C300.492 480.745 300.492 480.745 300.485 482.393C300.478 484.04 300.536 485.847 300.485 487.574C300.441 488.525 300.79 488.735 301.689 488.728C307.857 488.728 314.025 488.728 320.2 488.677C321.361 488.677 321.702 489.011 321.608 490.128C321.524 491.196 321.524 492.268 321.608 493.336C321.666 494.221 321.317 494.432 320.476 494.424C314.308 494.424 308.14 494.424 301.965 494.388C300.877 494.388 300.42 494.62 300.514 495.839C300.608 497.683 300.579 499.54 300.514 501.391C300.514 502.254 300.782 502.508 301.639 502.501C307.814 502.501 313.974 502.501 320.149 502.465C321.361 502.465 321.746 502.82 321.6 503.996C321.513 504.94 321.513 505.89 321.6 506.833C321.68 507.82 321.332 508.089 320.352 508.082C314.185 508.038 308.017 508.082 301.842 508.045C301.377 508.02 300.912 508.099 300.482 508.276C300.051 508.453 299.666 508.724 299.353 509.068C297.009 511.5 294.644 513.901 292.213 516.245C291.861 516.58 291.588 516.989 291.413 517.442C291.239 517.895 291.167 518.381 291.204 518.865C291.204 524.91 291.204 530.955 291.204 537.007C291.204 538.154 290.957 538.683 289.753 538.553C288.809 538.462 287.859 538.462 286.916 538.553C285.784 538.669 285.559 538.19 285.566 537.145C285.61 531.1 285.566 525.048 285.61 519.003C285.61 517.907 285.377 517.457 284.158 517.552C282.352 517.653 280.53 517.631 278.731 517.552C277.729 517.515 277.483 517.885 277.49 518.829C277.49 524.874 277.49 530.926 277.49 536.971C277.49 538.553 277.49 538.553 275.865 538.56C274.994 538.56 274.13 538.495 273.274 538.56C272.164 538.662 271.823 538.306 271.823 537.109C271.881 531.1 271.823 525.091 271.881 519.09C271.881 517.842 271.591 517.414 270.321 517.501C268.724 517.617 267.114 517.501 265.51 517.501C263.906 517.501 263.885 517.501 263.885 519.068C263.885 525.077 263.885 531.086 263.885 537.087C263.885 538.132 263.689 538.604 262.542 538.502C261.475 538.415 260.402 538.415 259.335 538.502C258.406 538.567 258.159 538.226 258.167 537.312C258.167 531.347 258.167 525.382 258.167 519.417C258.167 519.047 258.167 518.691 258.167 518.306C258.167 517.719 257.956 517.501 257.376 517.508C255.235 517.508 253.095 517.508 250.961 517.508C249.974 517.508 250.098 518.168 250.098 518.778C250.098 524.823 250.061 530.875 250.098 536.92C250.098 538.146 249.829 538.669 248.538 538.516C247.68 538.415 246.813 538.415 245.954 538.516C244.699 538.669 244.46 538.132 244.503 536.985C244.554 530.94 244.503 524.896 244.554 518.843C244.554 517.704 244.184 517.457 243.154 517.494C241.383 517.566 239.613 517.573 237.849 517.494C236.768 517.443 236.442 517.769 236.449 518.872C236.5 524.961 236.449 531.049 236.5 537.138C236.5 538.226 236.224 538.589 235.121 538.509C234.053 538.429 232.981 538.429 231.914 538.509C231.036 538.56 230.818 538.212 230.818 537.363C230.854 531.274 230.818 525.186 230.818 519.097C230.818 517.508 230.818 517.508 229.2 517.508C227.473 517.508 225.739 517.559 224.012 517.508C223.039 517.472 222.756 517.791 222.764 518.764C222.807 524.852 222.764 530.94 222.814 537.029C222.814 538.219 222.524 538.662 221.32 538.538C220.335 538.448 219.344 538.448 218.359 538.538C217.35 538.618 217.118 538.219 217.126 537.268C217.126 531.18 217.126 525.091 217.176 519.003C217.176 517.784 216.799 517.465 215.638 517.552C213.831 517.639 212.01 517.61 210.21 517.552C209.296 517.552 209.028 517.813 209.028 518.742C209.071 524.91 209.028 531.078 209.071 537.254C209.071 538.262 208.839 538.669 207.78 538.575C206.795 538.487 205.804 538.487 204.819 538.575C203.745 538.669 203.368 538.328 203.411 537.218C203.455 531.165 203.411 525.12 203.455 519.076C203.455 517.878 203.136 517.494 201.946 517.559C200.254 517.65 198.558 517.65 196.866 517.559C195.712 517.501 195.321 517.82 195.335 519.01C195.4 524.975 195.335 530.94 195.335 536.905C195.335 538.531 195.335 538.531 193.717 538.538C192.766 538.538 191.816 538.48 190.88 538.538C189.944 538.596 189.697 538.248 189.704 537.341C189.704 531.702 189.617 526.064 189.777 520.433C189.862 519.451 189.709 518.463 189.33 517.553C188.951 516.643 188.357 515.838 187.6 515.208C185.358 513.219 183.312 511.006 181.215 508.858C180.967 508.588 180.663 508.376 180.325 508.237C179.986 508.098 179.621 508.035 179.255 508.053C176.172 508.089 173.088 508.053 169.997 508.053L169.967 508.002ZM207.482 495.143C207.505 494.425 207.384 493.709 207.125 493.039C206.866 492.369 206.474 491.758 205.974 491.243C205.473 490.727 204.874 490.318 204.212 490.039C203.55 489.76 202.838 489.618 202.12 489.62C200.688 489.593 199.305 490.135 198.272 491.127C197.24 492.118 196.643 493.479 196.612 494.911C196.587 496.359 197.131 497.76 198.129 498.811C199.127 499.861 200.498 500.478 201.946 500.527C202.665 500.545 203.38 500.418 204.049 500.156C204.719 499.893 205.329 499.5 205.845 498.998C206.361 498.497 206.771 497.898 207.052 497.236C207.333 496.573 207.479 495.862 207.482 495.143V495.143ZM315.266 407.524H312.675C309.845 407.524 309.889 407.524 309.889 410.369C309.889 411.24 310.223 411.378 310.97 411.371C313.227 411.334 315.491 411.371 317.747 411.371C320.541 411.371 320.512 411.371 320.49 408.584C320.49 407.8 320.302 407.481 319.453 407.524C318.059 407.575 316.659 407.524 315.266 407.524ZM276.438 532.247V529.678C276.438 526.833 276.438 526.862 273.601 526.927C272.875 526.927 272.701 527.196 272.708 527.864C272.708 530.193 272.708 532.53 272.708 534.866C272.708 537.646 272.708 537.609 275.516 537.573C276.329 537.573 276.467 537.261 276.445 536.564C276.409 535.113 276.438 533.676 276.438 532.247ZM221.741 382.503V379.92C221.741 376.959 221.741 377.017 218.838 377.111C218.258 377.111 218.04 377.293 218.04 377.873C218.04 380.907 217.931 383.947 218.098 386.973C218.185 388.628 219.636 387.416 220.427 387.699C220.884 387.851 221.813 388.149 221.784 386.973C221.711 385.457 221.741 383.976 221.741 382.503ZM249.125 382.46V379.876C249.125 377.024 249.125 377.053 246.266 377.104C245.541 377.104 245.388 377.365 245.396 378.033C245.396 380.326 245.396 382.626 245.396 384.92C245.396 387.866 245.396 387.822 248.298 387.735C248.944 387.735 249.147 387.539 249.125 386.886C249.096 385.413 249.125 383.94 249.125 382.46ZM245.41 532.247V534.837C245.41 537.74 245.41 537.74 248.313 537.551C248.893 537.515 249.118 537.363 249.118 536.775C249.118 533.727 249.271 530.672 249.046 527.646C248.93 526.064 247.384 527.254 246.542 526.971C246.1 526.826 245.301 526.673 245.396 527.697C245.396 527.943 245.396 528.19 245.396 528.422L245.41 532.247ZM276.438 382.474V379.76C276.438 377.053 276.438 377.089 273.709 377.104C272.846 377.104 272.694 377.431 272.701 378.193C272.744 380.449 272.701 382.714 272.701 384.978C272.701 387.837 272.701 387.801 275.603 387.742C276.329 387.742 276.474 387.438 276.46 386.792C276.416 385.355 276.438 383.918 276.438 382.474V382.474ZM218.025 532.247V534.83C218.025 537.617 218.025 537.588 220.79 537.559C221.516 537.559 221.777 537.319 221.762 536.572C221.762 534.279 221.762 531.985 221.762 529.692C221.762 526.79 221.762 526.79 218.802 526.92C218.214 526.92 218.033 527.123 218.076 527.697C218.047 529.213 218.025 530.73 218.025 532.247V532.247ZM165.403 411.392H167.987C170.802 411.392 170.773 411.392 170.737 408.49C170.737 407.764 170.512 407.517 169.757 407.532C167.5 407.575 165.244 407.532 162.987 407.532C159.947 407.532 159.968 407.532 160.084 410.536C160.084 411.196 160.331 411.385 160.955 411.371C162.45 411.327 163.923 411.349 165.403 411.392ZM165.403 438.692H167.979C170.831 438.692 170.802 438.692 170.737 435.84C170.737 435.115 170.468 434.941 169.808 434.955C167.515 434.955 165.222 434.955 162.922 434.955C159.954 434.955 159.983 434.955 160.099 437.858C160.099 438.533 160.382 438.678 160.977 438.663C162.45 438.641 163.923 438.656 165.403 438.656V438.692ZM315.229 434.962H312.646C309.816 434.962 309.845 434.962 309.896 437.829C309.896 438.554 310.165 438.714 310.825 438.707C313.161 438.707 315.498 438.707 317.834 438.707C320.541 438.707 320.541 438.707 320.468 435.978C320.468 435.898 320.468 435.811 320.468 435.731C320.534 435.122 320.215 434.962 319.663 434.97C318.183 434.941 316.71 434.926 315.229 434.926V434.962ZM165.432 466.05H168.023C170.802 466.05 170.766 466.05 170.737 463.271C170.737 462.48 170.461 462.313 169.735 462.32C167.435 462.357 165.135 462.32 162.827 462.32C160.034 462.32 160.07 462.32 160.099 465.121C160.099 465.949 160.418 466.072 161.115 466.05C162.552 466.021 163.988 466.05 165.432 466.05ZM315.106 466.05H317.813C320.606 466.05 320.585 466.05 320.483 463.22C320.483 462.495 320.244 462.299 319.547 462.313C317.254 462.313 314.961 462.313 312.668 462.313C309.729 462.313 309.766 462.313 309.903 465.288C309.903 465.869 310.099 466.065 310.68 466.014C312.153 466.036 313.633 466.058 315.106 466.058V466.05ZM165.403 503.401H162.827C160.034 503.401 160.07 503.401 160.099 506.173C160.099 506.935 160.338 507.153 161.086 507.138C163.379 507.095 165.672 507.138 167.965 507.138C170.904 507.138 170.867 507.138 170.729 504.177C170.693 503.597 170.533 503.401 169.953 503.408C168.436 503.43 166.92 503.408 165.403 503.401ZM315.128 507.124H317.834C320.541 507.124 320.497 507.124 320.49 504.388C320.49 503.51 320.149 503.379 319.409 503.394C317.152 503.394 314.896 503.394 312.639 503.394C309.737 503.394 309.737 503.394 309.903 506.376C309.903 506.979 310.136 507.138 310.702 507.102C312.175 507.102 313.655 507.124 315.128 507.124ZM315.128 479.766H317.827C320.577 479.766 320.548 479.766 320.505 476.957C320.505 476.195 320.258 475.985 319.518 475.999C317.269 476.036 315.012 475.999 312.762 475.999C309.751 475.999 309.766 475.999 309.925 479.004C309.925 479.577 310.107 479.787 310.702 479.773C312.153 479.744 313.626 479.766 315.106 479.766H315.128ZM194.406 382.525V379.825C194.406 377.039 194.406 377.082 191.62 377.104C190.793 377.104 190.706 377.431 190.713 378.12C190.713 380.42 190.713 382.721 190.713 385.021C190.713 387.815 190.713 387.779 193.485 387.742C194.298 387.742 194.428 387.416 194.406 386.726C194.356 385.326 194.385 383.933 194.385 382.532L194.406 382.525ZM204.326 382.401V384.992C204.326 387.815 204.326 387.786 207.228 387.728C207.917 387.728 208.142 387.539 208.128 386.828C208.128 384.528 208.128 382.227 208.128 379.927C208.128 376.966 208.128 376.988 205.225 377.104C204.58 377.104 204.369 377.329 204.384 377.968C204.326 379.462 204.304 380.914 204.304 382.409L204.326 382.401ZM231.725 382.285V384.999C231.725 387.771 231.725 387.735 234.475 387.735C235.266 387.735 235.433 387.481 235.418 386.748C235.375 384.448 235.418 382.147 235.418 379.847C235.418 376.944 235.418 377.002 232.516 377.097C231.848 377.097 231.689 377.351 231.703 377.968C231.725 379.412 231.703 380.856 231.703 382.293L231.725 382.285ZM262.774 382.401V379.825C262.774 377.039 262.774 377.068 259.981 377.111C259.255 377.111 259.066 377.307 259.081 378.011C259.081 380.355 259.081 382.692 259.081 385.036C259.081 387.815 259.081 387.771 261.846 387.742C262.666 387.742 262.796 387.423 262.774 386.726C262.724 385.268 262.753 383.817 262.753 382.409L262.774 382.401ZM286.495 382.401C286.495 383.853 286.495 385.362 286.495 386.843C286.495 387.155 286.292 387.663 286.894 387.684C287.837 387.684 288.781 387.684 289.724 387.684C290.225 387.684 290.159 387.3 290.167 386.959C290.167 383.921 290.167 380.88 290.167 377.837C290.167 377.568 290.261 377.162 289.869 377.111C288.844 377.053 287.817 377.053 286.792 377.111C286.328 377.111 286.509 377.626 286.502 377.917C286.466 379.462 286.473 380.914 286.473 382.423L286.495 382.401ZM235.397 532.326V529.612C235.397 526.761 235.397 526.782 232.494 526.898C231.819 526.898 231.681 527.16 231.689 527.769C231.689 530.113 231.689 532.457 231.689 534.801C231.689 537.595 231.689 537.573 234.468 537.53C235.15 537.53 235.404 537.363 235.375 536.637C235.339 535.222 235.375 533.785 235.375 532.348L235.397 532.326ZM315.106 424.991H317.813C320.585 424.991 320.556 424.991 320.483 422.169C320.483 421.479 320.258 421.261 319.561 421.269C317.268 421.312 314.968 421.269 312.668 421.269C309.766 421.269 309.766 421.269 309.903 424.215C309.903 424.796 310.085 424.999 310.673 424.984C312.146 424.97 313.626 424.991 315.106 424.991ZM194.385 532.21V529.62C194.385 526.855 194.385 526.884 191.584 526.92C190.902 526.92 190.677 527.102 190.691 527.805C190.691 530.149 190.691 532.493 190.691 534.83C190.691 537.646 190.691 537.617 193.47 537.551C194.152 537.551 194.406 537.355 194.377 536.644C194.348 535.171 194.377 533.691 194.385 532.21ZM165.36 479.766H167.95C170.722 479.766 170.693 479.766 170.7 477.03C170.7 476.246 170.519 475.963 169.692 475.985C167.428 476.043 165.171 475.985 162.914 475.985C159.939 475.985 159.961 475.985 160.077 478.888C160.077 479.519 160.266 479.751 160.926 479.729C162.428 479.737 163.909 479.766 165.389 479.766H165.36ZM208.034 532.123V529.678C208.034 526.84 208.034 526.869 205.131 526.942C204.405 526.942 204.231 527.167 204.239 527.856C204.239 530.157 204.239 532.457 204.239 534.757C204.239 537.725 204.239 537.66 207.141 537.566C207.801 537.566 207.983 537.319 207.975 536.702C208.034 535.164 208.034 533.64 208.034 532.123ZM165.454 493.394H168.045C170.809 493.394 170.766 493.394 170.737 490.615C170.737 489.78 170.388 489.7 169.714 489.707C167.406 489.707 165.106 489.707 162.806 489.707C159.939 489.707 159.961 489.707 160.106 492.61C160.106 493.212 160.317 493.379 160.89 493.372C162.414 493.35 163.93 493.394 165.454 493.394ZM286.473 532.276V534.866C286.473 537.66 286.473 537.631 289.281 537.551C290.007 537.551 290.174 537.276 290.167 536.608C290.167 534.308 290.167 532.007 290.167 529.707C290.167 526.753 290.167 526.804 287.213 526.92C286.596 526.92 286.488 527.16 286.488 527.718C286.488 529.235 286.473 530.759 286.473 532.276ZM165.396 424.991H167.979C170.802 424.991 170.78 424.991 170.729 422.154C170.729 421.428 170.519 421.261 169.822 421.276C167.529 421.32 165.229 421.276 162.929 421.276C159.983 421.276 160.026 421.276 160.099 424.179C160.099 424.861 160.353 425.013 160.963 424.999C162.443 424.97 163.916 424.991 165.396 424.991ZM315.135 493.394H317.842C320.57 493.394 320.541 493.394 320.483 490.644C320.483 489.867 320.207 489.678 319.474 489.693C317.218 489.736 314.954 489.693 312.697 489.693C309.737 489.693 309.795 489.693 309.903 492.632C309.903 493.241 310.121 493.401 310.694 493.358C312.175 493.35 313.655 493.394 315.135 493.394ZM315.135 448.707C313.684 448.707 312.175 448.757 310.694 448.707C309.853 448.67 309.758 449.164 309.969 449.694C310.259 450.586 309.091 452.19 310.615 452.328C313.633 452.604 316.695 452.415 319.736 452.408C320.011 452.408 320.403 452.48 320.461 452.088C320.519 451.063 320.519 450.036 320.461 449.011C320.461 448.576 319.932 448.743 319.634 448.736C318.11 448.678 316.63 448.692 315.15 448.685L315.135 448.707ZM165.389 452.393H167.979C170.824 452.393 170.802 452.393 170.715 449.49C170.715 448.823 170.49 448.678 169.866 448.685C167.522 448.685 165.178 448.685 162.842 448.685C159.939 448.685 159.939 448.685 160.092 451.544C160.092 452.204 160.324 452.393 160.955 452.379C162.443 452.35 163.923 452.371 165.403 452.371L165.389 452.393ZM259.059 532.145V534.859C259.059 537.667 259.059 537.631 261.831 537.573C262.637 537.573 262.767 537.247 262.753 536.55C262.753 534.249 262.753 531.949 262.753 529.641C262.753 526.869 262.753 526.891 259.966 526.942C259.284 526.942 259.037 527.116 259.059 527.827C259.11 529.242 259.074 530.686 259.074 532.123L259.059 532.145ZM176.026 411.392H177.478C180.431 411.392 180.416 411.392 180.264 408.395C180.264 407.749 180.025 407.539 179.393 407.553C177.833 407.553 176.273 407.553 174.706 407.553C171.716 407.553 171.731 407.553 171.898 410.609C171.898 411.189 172.079 411.414 172.674 411.392C173.813 411.327 174.923 411.392 176.026 411.392ZM304.498 411.392H305.847C308.851 411.392 308.83 411.392 308.75 408.381C308.75 407.735 308.525 407.532 307.893 407.546C306.29 407.546 304.686 407.546 303.09 407.546C300.296 407.546 300.296 407.546 300.398 410.362C300.398 410.449 300.398 410.529 300.398 410.609C300.34 411.218 300.644 411.392 301.21 411.378C302.277 411.334 303.387 411.349 304.498 411.349V411.392ZM245.418 393.12V394.702C245.418 397.525 245.418 397.503 248.32 397.329C248.944 397.285 249.191 397.104 249.176 396.458C249.176 394.905 249.176 393.352 249.176 391.792C249.176 388.889 249.176 388.889 246.274 388.962C245.635 388.962 245.403 389.136 245.432 389.789C245.454 390.863 245.418 391.973 245.418 393.076V393.12ZM276.438 393.12V391.668C276.438 388.845 276.438 388.867 273.535 388.969C272.919 388.969 272.679 389.15 272.686 389.803C272.686 391.98 272.686 394.223 272.686 396.436C272.686 396.741 272.585 397.213 273.013 397.249C274.033 397.314 275.055 397.314 276.075 397.249C276.518 397.249 276.387 396.741 276.394 396.436C276.445 395.319 276.438 394.215 276.438 393.105V393.12ZM175.976 438.656C177.122 438.656 178.276 438.656 179.422 438.656C179.72 438.656 180.199 438.787 180.22 438.329C180.279 437.309 180.279 436.287 180.22 435.267C180.22 434.897 179.8 434.941 179.495 434.941H172.609C172.34 434.941 171.956 434.882 171.941 435.289C171.941 436.312 171.941 437.335 171.941 438.358C171.941 438.772 172.369 438.663 172.623 438.663C173.762 438.663 174.873 438.656 175.976 438.656ZM176.055 479.766C177.202 479.766 178.356 479.729 179.502 479.766C180.489 479.809 180.373 479.083 180.228 478.605C179.981 477.741 181.077 476.239 179.567 476.065C177.229 475.915 174.884 475.895 172.543 476.007C172.173 476.007 171.985 476.108 171.919 476.551C171.484 479.454 171.752 479.758 174.568 479.758L176.055 479.766ZM304.527 479.766C305.673 479.766 306.82 479.722 307.966 479.766C308.735 479.809 308.815 479.337 308.692 478.851C308.423 477.908 309.475 476.297 308.068 476.086C305.782 475.745 303.416 475.999 301.08 475.978C300.412 475.978 300.296 476.377 300.398 476.841C300.601 477.806 299.839 478.938 300.877 479.744C301.007 479.845 301.276 479.744 301.479 479.744L304.527 479.766ZM304.527 503.401H303.075C300.267 503.401 300.289 503.401 300.391 506.238C300.391 506.92 300.623 507.167 301.319 507.145C302.879 507.102 304.432 507.145 305.992 507.145C308.895 507.145 308.895 507.145 308.757 504.192C308.757 503.611 308.583 503.394 307.988 503.408C306.791 503.43 305.644 503.401 304.498 503.401H304.527ZM304.592 466.058H308.031C308.438 466.058 308.757 466.014 308.757 465.477C308.757 464.613 308.757 463.757 308.757 462.894C308.757 462.473 308.561 462.328 308.155 462.328C305.825 462.328 303.474 462.175 301.16 462.386C299.607 462.524 300.688 463.96 300.434 464.78C300.311 465.238 300.071 466.116 301.16 466.058C301.363 466.058 301.566 466.058 301.776 466.058H304.592ZM176.034 507.124H177.485C180.489 507.124 180.467 507.124 180.264 504.148C180.22 503.539 179.996 503.386 179.451 503.423C177.855 503.423 176.251 503.423 174.655 503.423C171.752 503.423 171.753 503.423 171.905 506.391C171.905 506.979 172.115 507.167 172.696 507.153C173.821 507.102 174.923 507.124 176.034 507.124ZM175.976 466.058C177.122 466.058 178.269 466.058 179.415 466.058C179.72 466.058 180.191 466.181 180.22 465.731C180.279 464.708 180.264 463.685 180.22 462.661C180.22 462.277 179.807 462.342 179.531 462.342C177.238 462.342 174.945 462.342 172.652 462.342C172.384 462.342 171.992 462.27 171.977 462.676C171.977 463.692 171.934 464.722 171.977 465.738C171.977 466.145 172.406 466.043 172.703 466.043C173.762 466.058 174.873 466.05 175.976 466.058V466.058ZM204.275 393.062V394.513C204.275 397.517 204.275 397.496 207.286 397.263C207.896 397.213 208.012 396.988 208.012 396.436C208.012 394.876 208.012 393.316 208.012 391.755C208.012 388.708 208.012 388.722 205 388.904C204.405 388.904 204.217 389.121 204.231 389.702C204.326 390.841 204.304 391.951 204.304 393.062H204.275ZM221.69 393.149V391.697C221.69 388.875 221.69 388.904 218.831 388.947C218.105 388.947 217.953 389.23 217.967 389.876C217.967 391.639 217.967 393.395 217.967 395.159C217.967 397.336 217.967 397.256 220.195 397.336C221.334 397.372 221.857 397.111 221.704 395.885C221.662 394.973 221.671 394.059 221.733 393.149H221.69ZM304.41 438.656H305.862C308.706 438.656 308.67 438.656 308.634 435.826C308.634 435.006 308.314 434.89 307.618 434.911C306.058 434.955 304.505 434.911 302.945 434.911C300.042 434.911 300.079 434.911 300.267 437.872C300.267 438.46 300.485 438.663 301.065 438.649C302.248 438.634 303.358 438.656 304.461 438.656H304.41ZM249.14 521.579C249.14 520.476 249.14 519.402 249.14 518.256C249.14 517.777 249.046 517.377 248.48 517.494C247.464 517.697 246.303 516.949 245.425 517.914C245.359 517.98 245.425 518.154 245.425 518.277C245.425 520.498 245.425 522.718 245.425 524.932C245.425 525.498 245.584 525.694 246.15 525.723C249.118 525.875 249.118 525.897 249.118 522.936C249.133 522.486 249.14 522.036 249.14 521.579ZM276.438 521.579V520.128C276.438 517.356 276.438 517.385 273.622 517.465C272.933 517.465 272.694 517.675 272.708 518.379C272.708 520.309 272.788 522.247 272.708 524.184C272.643 525.374 272.911 525.824 274.225 525.752C276.445 525.621 276.452 525.716 276.452 523.466L276.438 521.579ZM218.018 521.492C218.018 522.646 218.018 523.8 218.018 524.946C218.018 525.672 218.439 525.817 218.947 525.672C219.861 525.389 221.45 526.485 221.653 525.091C221.987 522.791 221.733 520.418 221.748 518.074C221.748 517.348 221.218 517.392 220.804 517.479C219.883 517.668 218.802 516.92 218.047 517.944C217.946 518.074 218.047 518.343 218.047 518.553L218.018 521.492ZM176.106 421.291H174.655C171.847 421.291 171.876 421.291 171.934 424.142C171.934 424.868 172.202 425.02 172.863 425.006C174.423 424.962 175.983 425.006 177.536 425.006C180.438 425.006 180.395 425.006 180.293 422.103C180.293 421.486 180.126 421.225 179.459 421.254C178.341 421.32 177.238 421.291 176.106 421.291ZM290.152 393.033V391.676C290.152 388.824 290.152 388.853 287.25 388.933C286.589 388.933 286.415 389.136 286.43 389.774C286.473 391.378 286.43 392.982 286.43 394.586C286.43 397.532 286.43 397.488 289.332 397.3C289.92 397.256 290.116 397.06 290.101 396.487C290.13 395.333 290.152 394.179 290.152 393.033ZM262.753 393.141V391.69C262.753 388.918 262.753 388.962 259.988 388.962C259.175 388.962 259.037 389.23 259.059 389.949C259.11 391.596 259.059 393.243 259.059 394.89C259.059 397.343 259.059 397.307 261.505 397.343C262.426 397.343 262.869 397.176 262.767 396.131C262.666 395.086 262.76 394.128 262.753 393.141ZM304.541 448.685H302.937C300.274 448.685 300.303 448.685 300.325 451.326C300.325 452.103 300.507 452.422 301.348 452.393C302.908 452.328 304.476 452.393 306.036 452.393C308.721 452.393 308.699 452.393 308.684 449.672C308.684 448.946 308.554 448.634 307.748 448.692C306.718 448.743 305.637 448.685 304.541 448.685ZM235.36 393.141V391.69C235.36 388.838 235.36 388.867 232.458 388.962C231.79 388.962 231.623 389.187 231.638 389.818C231.638 391.501 231.638 393.185 231.638 394.898C231.638 397.358 231.638 397.329 234.083 397.35C234.99 397.35 235.447 397.198 235.339 396.146C235.301 395.144 235.315 394.141 235.382 393.141H235.36ZM176.106 448.685C174.96 448.685 173.806 448.685 172.652 448.685C172.137 448.685 171.818 448.823 171.927 449.367C172.173 450.354 171.317 451.544 172.406 452.364C172.406 452.364 172.485 452.364 172.529 452.364C174.873 452.364 177.216 452.364 179.56 452.364C180.286 452.364 180.286 451.929 180.228 451.479C180.032 450.55 180.779 449.461 179.771 448.692C179.64 448.591 179.372 448.692 179.161 448.692L176.106 448.685ZM194.385 393.025V391.668C194.385 388.824 194.385 388.853 191.482 388.933C190.815 388.933 190.655 389.165 190.669 389.782C190.669 391.385 190.669 392.989 190.669 394.593C190.669 397.546 190.669 397.496 193.572 397.292C194.152 397.242 194.363 397.067 194.341 396.48C194.356 395.333 194.385 394.179 194.385 393.025ZM304.577 421.291H303.126C300.224 421.291 300.274 421.291 300.369 424.15C300.369 424.875 300.688 425.013 301.327 425.006C302.93 425.006 304.527 425.006 306.13 425.006C308.735 425.006 308.699 425.006 308.728 422.386C308.728 421.566 308.59 421.211 307.676 421.283C306.762 421.356 305.608 421.291 304.577 421.291V421.291ZM304.44 493.394C305.63 493.394 306.827 493.394 308.017 493.394C308.967 493.394 308.786 492.668 308.655 492.305C308.387 491.449 309.519 489.947 308.031 489.773C305.696 489.617 303.353 489.595 301.015 489.707C300.768 489.707 300.434 489.707 300.42 489.998C300.383 491.021 300.354 492.051 300.42 493.075C300.42 493.517 300.928 493.379 301.232 493.379C302.299 493.394 303.373 493.394 304.44 493.394ZM176.201 489.707H174.749C171.789 489.707 171.811 489.707 171.956 492.646C171.956 493.256 172.181 493.408 172.747 493.372C175.011 493.372 177.274 493.372 179.531 493.372C179.843 493.372 180.257 493.474 180.257 492.966C180.257 492.022 180.257 491.079 180.257 490.128C180.257 489.657 179.865 489.693 179.531 489.686L176.201 489.707ZM190.713 521.528C190.713 522.682 190.713 523.829 190.713 524.975C190.677 525.701 191.069 525.875 191.605 525.701C192.52 525.418 194.109 526.499 194.305 525.135C194.631 522.815 194.631 520.46 194.305 518.139C194.102 516.652 192.527 517.827 191.627 517.523C191.163 517.363 190.604 517.414 190.706 518.197C190.717 518.362 190.717 518.527 190.706 518.691C190.706 519.62 190.706 520.563 190.698 521.507L190.713 521.528ZM231.718 521.644V523.001C231.718 525.839 231.718 525.817 234.569 525.745C235.194 525.745 235.433 525.592 235.411 524.925C235.36 523.328 235.411 521.724 235.411 520.128C235.411 517.348 235.411 517.37 232.581 517.479C231.972 517.479 231.696 517.66 231.718 518.328C231.74 519.409 231.703 520.52 231.703 521.623L231.718 521.644ZM259.088 521.601V522.951C259.088 525.897 259.088 525.897 261.991 525.73H262.107C262.578 525.781 262.767 525.578 262.767 525.099C262.767 522.806 262.767 520.508 262.767 518.205C262.767 517.777 262.666 517.566 262.172 517.479C259.313 517.073 259.081 517.254 259.081 520.106L259.088 521.601ZM204.318 521.652V523.009C204.318 525.911 204.318 525.911 207.308 525.745C207.896 525.745 208.092 525.541 208.084 524.961C208.084 523.408 208.084 521.848 208.084 520.295C208.084 517.341 208.084 517.392 205.182 517.494C204.558 517.494 204.311 517.69 204.333 518.335C204.333 519.417 204.304 520.527 204.304 521.63L204.318 521.652ZM290.159 521.557C290.159 520.454 290.159 519.38 290.159 518.241C290.159 517.973 290.254 517.573 289.855 517.552C288.829 517.508 287.806 517.508 286.785 517.552C286.372 517.552 286.495 517.98 286.495 518.241C286.495 520.498 286.495 522.747 286.495 525.004C286.495 525.266 286.372 525.672 286.785 525.73C287.808 525.73 288.831 525.73 289.855 525.73C290.268 525.73 290.159 525.309 290.159 525.048C290.152 523.872 290.152 522.689 290.145 521.536L290.159 521.557Z" fill="#232021"/>
<path d="M207.482 495.143C207.479 495.862 207.333 496.574 207.052 497.236C206.771 497.898 206.36 498.497 205.845 498.998C205.329 499.5 204.719 499.893 204.049 500.156C203.379 500.418 202.664 500.545 201.945 500.527C200.497 500.478 199.127 499.862 198.129 498.811C197.131 497.76 196.586 496.359 196.612 494.911C196.642 493.479 197.239 492.118 198.272 491.127C199.304 490.135 200.688 489.593 202.119 489.62C202.838 489.618 203.549 489.761 204.211 490.039C204.874 490.318 205.473 490.727 205.973 491.243C206.474 491.758 206.865 492.369 207.124 493.039C207.384 493.709 207.505 494.425 207.482 495.143Z" fill="#6D6D6E"/>
<path d="M315.266 407.524C316.659 407.524 318.059 407.575 319.452 407.524C320.301 407.481 320.483 407.8 320.49 408.584C320.49 411.371 320.541 411.371 317.747 411.371C315.491 411.371 313.227 411.371 310.97 411.371C310.244 411.371 309.896 411.24 309.889 410.369C309.889 407.524 309.845 407.524 312.675 407.524H315.266Z" fill="#C8C9CB"/>
<path d="M276.438 532.247C276.438 533.698 276.438 535.113 276.438 536.55C276.438 537.276 276.322 537.551 275.509 537.559C272.701 537.595 272.701 537.631 272.701 534.852C272.701 532.515 272.701 530.179 272.701 527.849C272.701 527.182 272.868 526.935 273.594 526.913C276.431 526.848 276.431 526.819 276.431 529.663L276.438 532.247Z" fill="#CCCECF"/>
<path d="M221.74 382.503C221.74 383.954 221.74 385.457 221.74 386.93C221.74 388.12 220.84 387.822 220.383 387.655C219.592 387.401 218.141 388.613 218.054 386.93C217.887 383.904 218.01 380.863 217.996 377.83C217.996 377.249 218.214 377.104 218.794 377.068C221.697 376.937 221.697 376.915 221.697 379.876V382.46L221.74 382.503Z" fill="#CCCDCF"/>
<path d="M249.125 382.46C249.125 383.911 249.125 385.413 249.125 386.886C249.125 387.539 248.944 387.714 248.298 387.735C245.395 387.844 245.395 387.866 245.395 384.92C245.395 382.627 245.395 380.326 245.395 378.033C245.395 377.365 245.54 377.119 246.266 377.104C249.125 377.053 249.125 377.024 249.125 379.876V382.46V382.46Z" fill="#CCCDCF"/>
<path d="M245.41 532.247V528.422C245.41 528.176 245.41 527.929 245.41 527.697C245.316 526.688 246.136 526.84 246.557 526.971C247.398 527.254 248.944 526.064 249.06 527.646C249.285 530.672 249.118 533.727 249.133 536.775C249.133 537.363 248.908 537.501 248.327 537.551C245.425 537.711 245.425 537.726 245.425 534.837L245.41 532.247Z" fill="#CCCDCF"/>
<path d="M276.437 382.474C276.437 383.925 276.437 385.377 276.437 386.792C276.437 387.438 276.336 387.728 275.581 387.743C272.679 387.801 272.679 387.837 272.679 384.978C272.679 382.714 272.679 380.449 272.679 378.193C272.679 377.431 272.824 377.111 273.687 377.104C276.416 377.104 276.416 377.053 276.416 379.76L276.437 382.474Z" fill="#CCCECF"/>
<path d="M218.025 532.247C218.025 530.73 218.025 529.213 218.025 527.697C218.025 527.123 218.192 526.971 218.751 526.92C221.711 526.775 221.711 526.753 221.711 529.692C221.711 531.985 221.711 534.279 221.711 536.572C221.711 537.297 221.501 537.544 220.739 537.559C217.974 537.559 217.974 537.617 217.974 534.83V532.247H218.025Z" fill="#CCCDCF"/>
<path d="M165.403 411.392C163.952 411.392 162.45 411.392 160.97 411.392C160.346 411.392 160.128 411.218 160.099 410.558C159.968 407.553 159.947 407.553 163.002 407.553C165.258 407.553 167.515 407.59 169.772 407.553C170.497 407.553 170.737 407.757 170.751 408.511C170.751 411.414 170.816 411.414 168.001 411.414L165.403 411.392Z" fill="#C9CACC"/>
<path d="M165.403 438.656C163.952 438.656 162.45 438.656 160.977 438.656C160.382 438.656 160.12 438.525 160.099 437.851C159.983 434.948 159.954 434.948 162.921 434.948C165.222 434.948 167.515 434.948 169.808 434.948C170.468 434.948 170.715 435.115 170.736 435.833C170.802 438.685 170.831 438.685 167.979 438.685L165.403 438.656Z" fill="#CCCDCF"/>
<path d="M315.23 434.926C316.681 434.926 318.183 434.926 319.663 434.926C320.215 434.926 320.534 435.078 320.469 435.688C320.469 435.768 320.469 435.855 320.469 435.935C320.541 438.663 320.541 438.663 317.835 438.663C315.498 438.663 313.162 438.663 310.825 438.663C310.165 438.663 309.911 438.511 309.896 437.785C309.845 434.919 309.816 434.919 312.646 434.919L315.23 434.926Z" fill="#CCCCCF"/>
<path d="M165.432 466.05C163.981 466.05 162.53 466.05 161.115 466.05C160.389 466.05 160.106 465.949 160.099 465.122C160.099 462.32 160.034 462.32 162.827 462.32C165.135 462.32 167.435 462.32 169.735 462.32C170.461 462.32 170.729 462.48 170.737 463.271C170.737 466.05 170.802 466.05 168.023 466.05H165.432Z" fill="#CCCECF"/>
<path d="M315.106 466.058C313.654 466.058 312.152 466.058 310.679 466.058C310.099 466.058 309.954 465.876 309.903 465.332C309.751 462.357 309.729 462.357 312.668 462.357C314.96 462.357 317.253 462.357 319.546 462.357C320.272 462.357 320.461 462.567 320.482 463.264C320.584 466.094 320.606 466.094 317.812 466.094L315.106 466.058Z" fill="#CCCCCF"/>
<path d="M165.403 503.408C166.92 503.408 168.436 503.408 169.953 503.408C170.533 503.408 170.679 503.597 170.729 504.177C170.889 507.138 170.904 507.138 167.965 507.138C165.672 507.138 163.379 507.138 161.086 507.138C160.36 507.138 160.106 506.935 160.099 506.173C160.099 503.401 160.034 503.401 162.827 503.401L165.403 503.408Z" fill="#CCCDCF"/>
<path d="M315.128 507.124C313.677 507.124 312.175 507.124 310.702 507.124C310.136 507.124 309.933 506.979 309.904 506.398C309.729 503.416 309.708 503.423 312.639 503.416C314.896 503.416 317.153 503.416 319.409 503.416C320.135 503.416 320.49 503.532 320.49 504.41C320.49 507.146 320.541 507.146 317.835 507.146L315.128 507.124Z" fill="#CCCCCF"/>
<path d="M315.106 479.766C313.655 479.766 312.153 479.766 310.68 479.766C310.085 479.766 309.954 479.57 309.903 478.996C309.744 475.992 309.729 475.992 312.74 475.992C314.99 475.992 317.246 475.992 319.496 475.992C320.221 475.992 320.475 476.188 320.483 476.95C320.526 479.758 320.555 479.758 317.805 479.758L315.106 479.766Z" fill="#CECFD0"/>
<path d="M194.385 382.532C194.385 383.933 194.385 385.326 194.385 386.726C194.385 387.452 194.276 387.735 193.463 387.742C190.691 387.779 190.691 387.815 190.691 385.021C190.691 382.721 190.691 380.42 190.691 378.12C190.691 377.394 190.771 377.111 191.598 377.104C194.385 377.104 194.385 377.039 194.385 379.825V382.532Z" fill="#CED0D1"/>
<path d="M204.304 382.409C204.304 380.957 204.304 379.448 204.304 377.975C204.304 377.336 204.5 377.14 205.146 377.111C208.048 376.995 208.048 376.973 208.048 379.934C208.048 382.235 208.048 384.535 208.048 386.835C208.048 387.561 207.838 387.721 207.148 387.735C204.246 387.793 204.246 387.822 204.246 384.999L204.304 382.409Z" fill="#CED0D1"/>
<path d="M231.703 382.293C231.703 380.841 231.703 379.39 231.703 377.939C231.703 377.322 231.848 377.09 232.516 377.068C235.418 376.973 235.418 376.944 235.418 379.818C235.418 382.119 235.418 384.419 235.418 386.719C235.418 387.445 235.266 387.706 234.475 387.706C231.725 387.706 231.725 387.743 231.725 384.97L231.703 382.293Z" fill="#CFCFD1"/>
<path d="M262.752 382.409C262.752 383.86 262.752 385.311 262.752 386.727C262.752 387.452 262.643 387.735 261.823 387.742C259.059 387.742 259.059 387.815 259.059 385.036C259.059 382.692 259.059 380.355 259.059 378.011C259.059 377.285 259.262 377.126 259.959 377.111C262.752 377.068 262.752 377.039 262.752 379.825V382.409Z" fill="#CED0D1"/>
<path d="M286.473 382.423C286.473 380.972 286.473 379.462 286.473 377.982C286.473 377.692 286.299 377.198 286.763 377.177C287.788 377.119 288.815 377.119 289.84 377.177C290.232 377.177 290.137 377.605 290.137 377.902C290.137 380.94 290.137 383.981 290.137 387.024C290.137 387.351 290.195 387.75 289.695 387.75C288.751 387.75 287.808 387.75 286.865 387.75C286.262 387.75 286.466 387.22 286.466 386.908C286.466 385.457 286.466 383.947 286.466 382.467L286.473 382.423Z" fill="#CED0D1"/>
<path d="M235.375 532.348C235.375 533.8 235.375 535.251 235.375 536.659C235.375 537.384 235.15 537.537 234.468 537.551C231.689 537.595 231.689 537.617 231.689 534.823C231.689 532.479 231.689 530.135 231.689 527.791C231.689 527.181 231.819 526.949 232.494 526.92C235.397 526.804 235.397 526.782 235.397 529.634V532.348H235.375Z" fill="#CFCFD1"/>
<path d="M315.106 424.991C313.654 424.991 312.145 424.991 310.672 424.991C310.084 424.991 309.946 424.803 309.903 424.222C309.772 421.276 309.75 421.276 312.667 421.276C314.968 421.276 317.268 421.276 319.561 421.276C320.287 421.276 320.461 421.486 320.482 422.176C320.555 424.999 320.584 424.999 317.812 424.999L315.106 424.991Z" fill="#CFD0D2"/>
<path d="M194.377 532.21C194.377 533.662 194.377 535.171 194.377 536.644C194.377 537.37 194.152 537.537 193.47 537.551C190.691 537.617 190.691 537.646 190.691 534.83C190.691 532.493 190.691 530.15 190.691 527.806C190.691 527.08 190.902 526.927 191.584 526.92C194.385 526.884 194.385 526.855 194.385 529.62C194.385 530.483 194.385 531.347 194.377 532.21Z" fill="#CED0D1"/>
<path d="M165.388 479.766C163.937 479.766 162.428 479.766 160.955 479.766C160.295 479.766 160.128 479.555 160.106 478.924C159.99 476.021 159.968 476.021 162.943 476.021C165.2 476.021 167.456 476.021 169.72 476.021C170.548 476.021 170.736 476.282 170.729 477.066C170.729 479.802 170.729 479.802 167.979 479.802L165.388 479.766Z" fill="#CFCFD1"/>
<path d="M208.034 532.123C208.034 533.64 208.034 535.164 208.034 536.681C208.034 537.297 207.859 537.515 207.199 537.544C204.297 537.675 204.297 537.704 204.297 534.736C204.297 532.435 204.297 530.135 204.297 527.835C204.297 527.145 204.485 526.942 205.189 526.92C208.092 526.848 208.092 526.819 208.092 529.656V532.123H208.034Z" fill="#CED0D1"/>
<path d="M165.454 493.394C163.93 493.394 162.413 493.394 160.89 493.394C160.316 493.394 160.164 493.234 160.106 492.632C159.961 489.729 159.939 489.729 162.805 489.729C165.105 489.729 167.406 489.729 169.713 489.729C170.388 489.729 170.722 489.802 170.736 490.636C170.736 493.423 170.809 493.416 168.044 493.416L165.454 493.394Z" fill="#CED0D1"/>
<path d="M286.473 532.276C286.473 530.759 286.473 529.235 286.473 527.718C286.473 527.16 286.597 526.949 287.199 526.92C290.152 526.775 290.152 526.753 290.152 529.707C290.152 532.007 290.152 534.308 290.152 536.608C290.152 537.276 289.993 537.53 289.267 537.551C286.459 537.631 286.459 537.66 286.459 534.866L286.473 532.276Z" fill="#CED0D1"/>
<path d="M165.396 424.992C163.945 424.992 162.443 424.992 160.962 424.992C160.353 424.992 160.121 424.854 160.099 424.171C160.012 421.269 159.983 421.269 162.929 421.269C165.229 421.269 167.529 421.269 169.822 421.269C170.548 421.269 170.715 421.443 170.729 422.147C170.78 424.984 170.802 424.984 167.979 424.984L165.396 424.992Z" fill="#D1D2D3"/>
<path d="M315.135 493.394C313.684 493.394 312.174 493.394 310.694 493.394C310.121 493.394 309.932 493.249 309.903 492.668C309.758 489.729 309.736 489.729 312.697 489.729C314.954 489.729 317.218 489.729 319.474 489.729C320.2 489.729 320.468 489.903 320.483 490.68C320.541 493.43 320.57 493.43 317.842 493.43L315.135 493.394Z" fill="#CECFD0"/>
<path d="M315.149 448.685C316.6 448.685 318.11 448.685 319.59 448.685C319.887 448.685 320.388 448.525 320.417 448.961C320.475 449.985 320.475 451.013 320.417 452.037C320.417 452.429 320.004 452.357 319.692 452.357C316.651 452.357 313.589 452.553 310.57 452.277C309.047 452.139 310.215 450.535 309.925 449.643C309.751 449.113 309.845 448.62 310.65 448.656C312.189 448.736 313.669 448.685 315.149 448.685Z" fill="#CECFD0"/>
<path d="M165.403 452.371C163.952 452.371 162.442 452.371 160.969 452.371C160.338 452.371 160.128 452.197 160.106 451.537C159.99 448.678 159.968 448.678 162.856 448.678C165.192 448.678 167.536 448.678 169.88 448.678C170.504 448.678 170.714 448.815 170.729 449.483C170.816 452.386 170.838 452.386 167.993 452.386L165.403 452.371Z" fill="#CFCFD1"/>
<path d="M259.073 532.123C259.073 530.672 259.073 529.221 259.073 527.806C259.073 527.08 259.298 526.928 259.981 526.92C262.767 526.869 262.767 526.848 262.767 529.62C262.767 531.927 262.767 534.228 262.767 536.528C262.767 537.254 262.651 537.537 261.845 537.551C259.073 537.609 259.073 537.646 259.073 534.837V532.123Z" fill="#CED0D1"/>
<path d="M176.026 411.392C174.923 411.392 173.849 411.392 172.703 411.392C172.108 411.392 171.977 411.189 171.927 410.609C171.76 407.553 171.745 407.553 174.735 407.553C176.302 407.553 177.862 407.553 179.422 407.553C180.054 407.553 180.257 407.749 180.293 408.395C180.46 411.392 180.46 411.392 177.507 411.392H176.026Z" fill="#C8C9CB"/>
<path d="M304.497 411.349C303.387 411.349 302.277 411.349 301.174 411.349C300.608 411.349 300.303 411.189 300.361 410.58C300.361 410.5 300.361 410.42 300.361 410.333C300.259 407.517 300.259 407.517 303.053 407.517C304.649 407.517 306.253 407.517 307.857 407.517C308.488 407.517 308.684 407.706 308.713 408.352C308.829 411.363 308.851 411.363 305.81 411.363H304.461L304.497 411.349Z" fill="#C8C9CB"/>
<path d="M245.417 393.076C245.417 391.973 245.453 390.899 245.417 389.76C245.417 389.107 245.62 388.947 246.259 388.933C249.161 388.846 249.161 388.824 249.161 391.763C249.161 393.323 249.161 394.876 249.161 396.429C249.161 397.075 248.929 397.256 248.305 397.3C245.403 397.474 245.403 397.496 245.403 394.673V393.076H245.417Z" fill="#CCCCCF"/>
<path d="M276.437 393.105C276.437 394.215 276.437 395.282 276.437 396.422C276.437 396.726 276.561 397.205 276.118 397.234C275.098 397.3 274.075 397.3 273.056 397.234C272.628 397.198 272.729 396.726 272.729 396.422C272.729 394.208 272.729 391.995 272.729 389.789C272.729 389.136 272.962 388.976 273.578 388.954C276.481 388.853 276.481 388.831 276.481 391.654V393.105H276.437Z" fill="#CBCCCE"/>
<path d="M175.975 438.656C174.872 438.656 173.762 438.656 172.652 438.656C172.398 438.656 171.984 438.765 171.97 438.351C171.97 437.328 171.97 436.305 171.97 435.282C171.97 434.875 172.369 434.933 172.638 434.933H179.524C179.799 434.933 180.206 434.89 180.249 435.26C180.307 436.28 180.307 437.302 180.249 438.322C180.249 438.779 179.749 438.649 179.451 438.649C178.283 438.663 177.122 438.656 175.975 438.656Z" fill="#CBCCCE"/>
<path d="M176.055 479.766H174.604C171.788 479.766 171.52 479.432 171.955 476.558C172.021 476.116 172.209 476.014 172.579 476.014C174.92 475.903 177.265 475.922 179.603 476.072C181.113 476.246 180.017 477.748 180.264 478.612C180.401 479.091 180.518 479.816 179.538 479.773C178.355 479.729 177.201 479.766 176.055 479.766Z" fill="#CDCED0"/>
<path d="M304.541 479.766H301.472C301.269 479.766 301 479.853 300.87 479.766C299.832 478.967 300.594 477.835 300.391 476.863C300.289 476.399 300.391 475.992 301.073 475.999C303.409 475.999 305.775 475.767 308.061 476.108C309.468 476.319 308.416 477.93 308.685 478.873C308.83 479.359 308.75 479.831 307.959 479.787C306.82 479.722 305.673 479.766 304.541 479.766Z" fill="#CDCED0"/>
<path d="M304.498 503.401C305.644 503.401 306.791 503.401 307.937 503.401C308.532 503.401 308.663 503.604 308.706 504.185C308.852 507.138 308.866 507.138 305.942 507.138C304.382 507.138 302.829 507.138 301.269 507.138C300.543 507.138 300.369 506.913 300.34 506.231C300.238 503.394 300.217 503.394 303.025 503.394L304.498 503.401Z" fill="#CCCCCF"/>
<path d="M304.541 466.058H301.718C301.508 466.058 301.304 466.058 301.101 466.058C300.013 466.116 300.252 465.238 300.376 464.78C300.601 463.96 299.519 462.524 301.101 462.386C303.416 462.175 305.767 462.335 308.096 462.328C308.502 462.328 308.706 462.473 308.698 462.894C308.698 463.757 308.698 464.614 308.698 465.477C308.698 466.014 308.408 466.065 307.973 466.058H304.541Z" fill="#CBCCCE"/>
<path d="M176.034 507.124C174.923 507.124 173.857 507.124 172.718 507.124C172.137 507.124 171.992 506.949 171.927 506.362C171.76 503.394 171.738 503.394 174.677 503.394C176.273 503.394 177.877 503.394 179.473 503.394C180.017 503.394 180.242 503.539 180.286 504.119C180.489 507.102 180.511 507.095 177.507 507.095L176.034 507.124Z" fill="#CBCCCE"/>
<path d="M175.976 466.05C174.873 466.05 173.762 466.05 172.659 466.05C172.398 466.05 171.992 466.152 171.934 465.746C171.934 464.73 171.934 463.699 171.934 462.683C171.934 462.277 172.34 462.349 172.609 462.349C174.902 462.349 177.195 462.349 179.488 462.349C179.763 462.349 180.162 462.284 180.177 462.669C180.22 463.692 180.235 464.715 180.177 465.738C180.177 466.188 179.676 466.058 179.371 466.065C178.283 466.065 177.122 466.058 175.976 466.05Z" fill="#CBCCCE"/>
<path d="M204.303 393.062C204.303 391.951 204.303 390.841 204.303 389.731C204.303 389.15 204.478 388.969 205.073 388.933C208.084 388.751 208.084 388.737 208.084 391.785C208.084 393.345 208.084 394.905 208.084 396.465C208.084 397.017 207.932 397.242 207.358 397.292C204.34 397.525 204.347 397.546 204.347 394.542L204.303 393.062Z" fill="#CDCED0"/>
<path d="M221.733 393.149C221.682 394.048 221.682 394.949 221.733 395.848C221.886 397.089 221.363 397.35 220.224 397.3C218.004 397.22 217.996 397.3 217.996 395.123C217.996 393.359 217.996 391.603 217.996 389.84C217.996 389.194 218.12 388.925 218.86 388.911C221.726 388.867 221.719 388.838 221.719 391.661L221.733 393.149Z" fill="#CBCCCE"/>
<path d="M304.461 438.656C303.358 438.656 302.284 438.656 301.145 438.656C300.564 438.656 300.383 438.467 300.347 437.88C300.158 434.919 300.136 434.919 303.024 434.919C304.584 434.919 306.137 434.919 307.697 434.919C308.423 434.919 308.706 435.013 308.713 435.833C308.713 438.663 308.786 438.663 305.941 438.663L304.461 438.656Z" fill="#CBCCCE"/>
<path d="M249.14 521.579C249.14 522.036 249.14 522.486 249.14 522.936C249.14 525.897 249.14 525.875 246.172 525.723C245.57 525.723 245.403 525.498 245.446 524.932C245.446 522.755 245.446 520.498 245.446 518.277C245.446 518.154 245.395 517.98 245.446 517.915C246.339 516.949 247.485 517.697 248.501 517.494C249.067 517.378 249.169 517.777 249.161 518.256C249.161 519.366 249.161 520.476 249.161 521.579H249.14Z" fill="#CDCED0"/>
<path d="M276.438 521.608V523.459C276.438 525.708 276.438 525.636 274.21 525.745C272.897 525.817 272.628 525.367 272.694 524.177C272.788 522.247 272.744 520.309 272.694 518.372C272.694 517.646 272.919 517.479 273.608 517.457C276.423 517.378 276.423 517.349 276.423 520.121L276.438 521.608Z" fill="#CDCED0"/>
<path d="M218.018 521.521V518.568C218.018 518.357 217.938 518.089 218.018 517.958C218.743 516.935 219.853 517.682 220.775 517.494C221.189 517.407 221.718 517.356 221.718 518.089C221.718 520.433 221.958 522.806 221.624 525.106C221.421 526.499 219.832 525.404 218.917 525.687C218.409 525.846 217.96 525.723 217.989 524.961C218.032 523.814 217.989 522.661 217.989 521.507L218.018 521.521Z" fill="#CCCDCF"/>
<path d="M176.106 421.291C177.216 421.291 178.319 421.291 179.429 421.291C180.097 421.291 180.234 421.523 180.264 422.14C180.365 425.042 180.38 425.042 177.506 425.042C175.953 425.042 174.393 425.042 172.833 425.042C172.173 425.042 171.919 424.919 171.904 424.179C171.846 421.327 171.817 421.327 174.625 421.327L176.106 421.291Z" fill="#CFD0D2"/>
<path d="M290.152 393.033C290.152 394.179 290.152 395.333 290.152 396.487C290.152 397.06 289.971 397.256 289.383 397.3C286.48 397.517 286.48 397.532 286.48 394.586C286.48 392.982 286.48 391.378 286.48 389.774C286.48 389.136 286.64 388.947 287.3 388.933C290.203 388.853 290.203 388.824 290.203 391.676L290.152 393.033Z" fill="#CDCED0"/>
<path d="M262.753 393.142C262.753 394.128 262.68 395.123 262.753 396.095C262.825 397.067 262.412 397.314 261.49 397.307C259.045 397.271 259.045 397.307 259.045 394.854C259.045 393.207 259.045 391.56 259.045 389.912C259.045 389.187 259.161 388.933 259.974 388.925C262.738 388.925 262.738 388.882 262.738 391.654L262.753 393.142Z" fill="#CDCED0"/>
<path d="M304.541 448.685C305.615 448.685 306.718 448.743 307.748 448.685C308.554 448.627 308.685 448.939 308.685 449.665C308.685 452.386 308.685 452.386 306.036 452.386C304.476 452.386 302.908 452.342 301.348 452.386C300.507 452.386 300.325 452.096 300.325 451.319C300.325 448.678 300.274 448.678 302.938 448.678L304.541 448.685Z" fill="#CECFD0"/>
<path d="M235.382 393.142C235.331 394.125 235.331 395.111 235.382 396.095C235.491 397.147 235.034 397.314 234.127 397.3C231.681 397.3 231.681 397.3 231.681 394.847C231.681 393.156 231.681 391.472 231.681 389.767C231.681 389.136 231.834 388.933 232.501 388.911C235.404 388.816 235.404 388.787 235.404 391.639L235.382 393.142Z" fill="#CDCED0"/>
<path d="M176.106 448.685H179.19C179.4 448.685 179.669 448.605 179.799 448.685C180.808 449.454 180.06 450.543 180.256 451.471C180.343 451.921 180.256 452.364 179.589 452.357C177.245 452.357 174.901 452.357 172.557 452.357C172.514 452.357 172.463 452.357 172.434 452.357C171.346 451.515 172.202 450.347 171.955 449.36C171.817 448.816 172.137 448.634 172.681 448.678C173.806 448.707 174.959 448.685 176.106 448.685Z" fill="#CECFD0"/>
<path d="M194.384 393.025C194.384 394.179 194.384 395.333 194.384 396.48C194.384 397.067 194.196 397.242 193.615 397.292C190.713 397.525 190.713 397.546 190.713 394.593C190.713 392.989 190.713 391.385 190.713 389.782C190.713 389.165 190.858 388.947 191.525 388.933C194.428 388.853 194.428 388.824 194.428 391.668L194.384 393.025Z" fill="#CDCED0"/>
<path d="M304.577 421.291C305.607 421.291 306.638 421.356 307.654 421.291C308.669 421.225 308.72 421.574 308.706 422.394C308.706 425.013 308.706 425.013 306.108 425.013C304.504 425.013 302.908 425.013 301.304 425.013C300.666 425.013 300.375 424.912 300.346 424.157C300.252 421.298 300.216 421.298 303.104 421.298L304.577 421.291Z" fill="#CFD0D2"/>
<path d="M304.44 493.394C303.373 493.394 302.263 493.394 301.232 493.394C300.928 493.394 300.449 493.532 300.42 493.089C300.354 492.066 300.383 491.035 300.42 490.012C300.42 489.715 300.768 489.722 301.015 489.722C303.353 489.609 305.696 489.631 308.031 489.787C309.519 489.961 308.387 491.464 308.656 492.32C308.786 492.719 308.968 493.445 308.017 493.408C306.827 493.365 305.63 493.408 304.44 493.408V493.394Z" fill="#CDCED0"/>
<path d="M176.2 489.686H179.531C179.857 489.686 180.256 489.686 180.256 490.128C180.256 491.079 180.256 492.022 180.256 492.966C180.256 493.474 179.828 493.372 179.531 493.372C177.274 493.372 175.01 493.372 172.746 493.372C172.18 493.372 171.984 493.227 171.955 492.646C171.81 489.707 171.788 489.707 174.749 489.707L176.2 489.686Z" fill="#CDCED0"/>
<path d="M190.706 521.507V518.676C190.717 518.512 190.717 518.347 190.706 518.183C190.604 517.399 191.163 517.349 191.627 517.508C192.527 517.813 194.102 516.637 194.305 518.125C194.631 520.445 194.631 522.8 194.305 525.121C194.109 526.485 192.52 525.404 191.605 525.687C191.068 525.853 190.677 525.687 190.713 524.961C190.735 523.807 190.698 522.66 190.706 521.507Z" fill="#CFD0D2"/>
<path d="M231.703 521.623C231.703 520.52 231.703 519.446 231.703 518.306C231.703 517.639 231.957 517.486 232.566 517.457C235.396 517.349 235.396 517.327 235.396 520.106C235.396 521.703 235.36 523.306 235.396 524.903C235.396 525.57 235.179 525.708 234.555 525.723C231.703 525.795 231.703 525.817 231.703 522.98V521.623Z" fill="#CFD0D2"/>
<path d="M259.073 521.579V520.128C259.073 517.276 259.306 517.095 262.165 517.501C262.658 517.574 262.76 517.784 262.76 518.227C262.76 520.525 262.76 522.823 262.76 525.121C262.76 525.6 262.571 525.803 262.099 525.752H261.983C259.081 525.919 259.081 525.919 259.081 522.973L259.073 521.579Z" fill="#CFD0D2"/>
<path d="M204.304 521.63C204.304 520.527 204.304 519.417 204.304 518.314C204.304 517.668 204.529 517.494 205.153 517.472C208.055 517.341 208.055 517.319 208.055 520.273C208.055 521.826 208.055 523.386 208.055 524.939C208.055 525.52 207.867 525.665 207.279 525.723C204.289 525.882 204.289 525.904 204.289 522.987L204.304 521.63Z" fill="#CFD0D2"/>
<path d="M290.144 521.536C290.144 522.689 290.144 523.836 290.144 524.983C290.144 525.244 290.253 525.65 289.84 525.665C288.817 525.708 287.793 525.708 286.77 525.665C286.357 525.665 286.48 525.237 286.48 524.939C286.48 522.682 286.48 520.433 286.48 518.176C286.48 517.915 286.357 517.501 286.77 517.486C287.796 517.443 288.819 517.443 289.84 517.486C290.239 517.486 290.144 517.907 290.144 518.176C290.152 519.322 290.144 520.433 290.144 521.536Z" fill="#CFD0D2"/>
<path d="M160.978 685.978H2.00854V911.41H160.978V685.978Z" stroke="black" stroke-width="2" stroke-miterlimit="10"/>
<path d="M141.48 862.173H22.8411V743.525H141.48V862.173ZM82.77 758.401C71.1166 758.401 59.4632 758.357 47.8097 758.401C39.8787 758.444 37.7308 760.426 37.7018 768.118C37.6244 791.228 37.6244 814.341 37.7018 837.456C37.7018 844.822 40.0093 847.282 47.1784 847.318C70.4853 847.434 93.7947 847.434 117.106 847.318C124.283 847.282 126.598 844.829 126.627 837.5C126.699 814.385 126.699 791.272 126.627 768.161C126.627 760.455 124.45 758.444 116.548 758.401C105.293 758.386 94.0317 758.43 82.77 758.43V758.401Z" fill="white"/>
<path d="M82.7702 758.43C94.0319 758.43 105.265 758.386 116.548 758.43C124.443 758.474 126.598 760.484 126.627 768.19C126.704 791.301 126.704 814.414 126.627 837.529C126.627 844.858 124.283 847.311 117.107 847.347C93.7949 847.459 70.4855 847.459 47.1785 847.347C40.0094 847.311 37.7454 844.851 37.7018 837.485C37.6244 814.37 37.6244 791.257 37.7018 768.147C37.7018 760.455 39.8788 758.474 47.8098 758.43C59.4633 758.386 71.1167 758.43 82.7702 758.43ZM123.688 803.422C123.688 792.15 123.688 780.88 123.688 769.613C123.688 762.022 123.006 761.311 115.706 761.304C93.3667 761.304 71.0273 761.304 48.6878 761.304C41.5114 761.304 40.7059 762.095 40.7059 769.01C40.7059 791.55 40.8075 814.089 40.6189 836.622C40.5753 842.122 42.3168 844.488 48.1145 844.437C70.8507 844.229 93.5868 844.229 116.323 844.437C122.128 844.488 123.957 842.144 123.826 836.636C123.507 825.591 123.688 814.518 123.688 803.444V803.422Z" fill="black"/>
<path d="M123.688 803.444C123.688 814.51 123.507 825.591 123.761 836.658C123.891 842.166 122.041 844.51 116.258 844.459C93.5217 844.251 70.7856 844.251 48.0494 844.459C42.2444 844.51 40.5102 842.144 40.5538 836.644C40.7424 814.111 40.6191 791.572 40.6408 769.032C40.6408 762.116 41.4753 761.333 48.6227 761.325C70.9573 761.325 93.2968 761.325 115.641 761.325C122.963 761.325 123.623 762.051 123.623 769.634C123.686 780.907 123.708 792.176 123.688 803.444ZM78.9319 777.929L76.6607 777.885L69.8906 804.888L64.8113 795.236L55.8862 803.175L56.5537 804.561L64.3832 801.339C66.0013 804.409 67.9097 808.045 69.8181 811.68L71.3927 811.31L76.5881 790.701H77.6112L82.4439 824.742L84.5119 824.96C86.6235 817.907 88.7278 810.853 91.0861 802.987L95.3382 812.74C98.1899 807.718 99.5468 801.804 106.223 805.302C106.447 805.425 108.138 803.64 108.349 802.58C108.472 801.942 106.897 800.2 106.36 800.316C102.652 801.107 99.0244 802.254 94.9899 803.4C94.17 801.39 92.9581 798.422 91.7536 795.418L90.2298 795.49L84.6933 813.088L83.7645 812.769C82.1584 801.172 80.5476 789.559 78.9319 777.929V777.929Z" fill="white"/>
<path d="M78.9318 777.929C80.5427 789.54 82.1559 801.175 83.7716 812.834L84.7004 813.153L90.2369 795.556L91.7607 795.483C92.9652 798.451 94.177 801.419 94.9969 803.465C99.0314 802.319 102.66 801.172 106.367 800.381C106.897 800.265 108.479 802.007 108.356 802.645C108.145 803.705 106.455 805.49 106.23 805.367C99.5757 801.869 98.2478 807.783 95.3453 812.805L91.0931 803.052C88.7348 810.918 86.6306 817.972 84.519 825.025L82.451 824.808L77.6184 790.766H76.5952L71.3998 811.375L69.8252 811.745C67.9168 808.117 66.0084 804.489 64.3903 801.405L56.5608 804.627L55.8933 803.24L64.8184 795.302L69.8977 804.953L76.6678 777.951L78.9318 777.929Z" fill="black"/>
<path d="M39.2605 472.978H32.0245V459.838H39.2605V460.9H33.2125V465.58H38.6305V466.66H33.2125V471.916H39.2605V472.978ZM46.2915 473.158C45.0555 473.158 44.0715 472.84 43.3395 472.204C42.6195 471.568 42.2535 470.704 42.2415 469.612H43.4295C43.4295 470.368 43.6815 470.974 44.1855 471.43C44.7015 471.874 45.3975 472.096 46.2735 472.096C47.1135 472.096 47.7735 471.886 48.2535 471.466C48.7335 471.046 48.9735 470.464 48.9735 469.72C48.9735 469.096 48.7935 468.55 48.4335 468.082C48.0855 467.614 47.6055 467.284 46.9935 467.092L45.3735 466.588C44.4975 466.324 43.8135 465.88 43.3215 465.256C42.8415 464.62 42.6015 463.87 42.6015 463.006C42.6015 461.986 42.9375 461.176 43.6095 460.576C44.2815 459.964 45.1815 459.658 46.3095 459.658C47.4255 459.658 48.3135 459.976 48.9735 460.612C49.6455 461.236 49.9875 462.076 49.9995 463.132H48.8115C48.8115 462.388 48.5835 461.8 48.1275 461.368C47.6715 460.936 47.0595 460.72 46.2915 460.72C45.5115 460.72 44.8995 460.918 44.4555 461.314C44.0115 461.698 43.7895 462.232 43.7895 462.916C43.7895 463.516 43.9575 464.044 44.2935 464.5C44.6295 464.944 45.0975 465.262 45.6975 465.454L47.3175 465.958C48.2055 466.234 48.9015 466.702 49.4055 467.362C49.9095 468.022 50.1615 468.79 50.1615 469.666C50.1615 470.734 49.8075 471.586 49.0995 472.222C48.4035 472.846 47.4675 473.158 46.2915 473.158ZM53.4485 472.978V459.838H57.4625C58.6385 459.838 59.5745 460.18 60.2705 460.864C60.9785 461.536 61.3325 462.442 61.3325 463.582C61.3325 464.71 60.9785 465.616 60.2705 466.3C59.5745 466.984 58.6385 467.326 57.4625 467.326H54.6365V472.978H53.4485ZM57.4625 466.264C58.2665 466.264 58.9085 466.024 59.3885 465.544C59.8805 465.052 60.1265 464.398 60.1265 463.582C60.1265 462.766 59.8865 462.118 59.4065 461.638C58.9265 461.146 58.2785 460.9 57.4625 460.9H54.6365V466.264H57.4625ZM71.5495 467.56H64.0255V466.498H71.5495V467.56ZM80.0924 466.084C80.8484 466.24 81.4544 466.636 81.9104 467.272C82.3664 467.908 82.5944 468.652 82.5944 469.504C82.5944 470.62 82.2344 471.508 81.5144 472.168C80.8064 472.828 79.8284 473.158 78.5804 473.158C77.3324 473.158 76.3484 472.834 75.6284 472.186C74.9204 471.526 74.5664 470.638 74.5664 469.522C74.5664 468.67 74.7944 467.926 75.2504 467.29C75.7064 466.642 76.3124 466.24 77.0684 466.084C76.3964 465.964 75.8564 465.634 75.4484 465.094C75.0404 464.554 74.8364 463.894 74.8364 463.114C74.8364 462.07 75.1724 461.236 75.8444 460.612C76.5284 459.976 77.4404 459.658 78.5804 459.658C79.7204 459.658 80.6264 459.976 81.2984 460.612C81.9824 461.236 82.3244 462.07 82.3244 463.114C82.3244 463.894 82.1204 464.554 81.7124 465.094C81.3044 465.634 80.7644 465.964 80.0924 466.084ZM76.0424 463.168C76.0424 463.924 76.2704 464.524 76.7264 464.968C77.1824 465.4 77.8004 465.616 78.5804 465.616C79.3604 465.616 79.9784 465.4 80.4344 464.968C80.8904 464.524 81.1184 463.924 81.1184 463.168C81.1184 462.412 80.8904 461.818 80.4344 461.386C79.9784 460.954 79.3604 460.738 78.5804 460.738C77.8004 460.738 77.1824 460.954 76.7264 461.386C76.2704 461.818 76.0424 462.412 76.0424 463.168ZM78.5804 472.078C79.4444 472.078 80.1284 471.844 80.6324 471.376C81.1364 470.896 81.3884 470.242 81.3884 469.414C81.3884 468.574 81.1364 467.902 80.6324 467.398C80.1284 466.894 79.4444 466.642 78.5804 466.642C77.7164 466.642 77.0324 466.894 76.5284 467.398C76.0244 467.902 75.7724 468.574 75.7724 469.414C75.7724 470.242 76.0244 470.896 76.5284 471.376C77.0324 471.844 77.7164 472.078 78.5804 472.078ZM85.6654 472.978V471.718L89.7874 467.488C90.5554 466.696 91.1134 465.976 91.4614 465.328C91.8214 464.668 92.0014 464.02 92.0014 463.384C92.0014 462.568 91.7614 461.92 91.2814 461.44C90.8014 460.948 90.1534 460.702 89.3374 460.702C88.4854 460.702 87.8134 460.948 87.3214 461.44C86.8294 461.92 86.5834 462.58 86.5834 463.42H85.3954C85.4074 462.268 85.7674 461.356 86.4754 460.684C87.1954 460 88.1494 459.658 89.3374 459.658C90.5134 459.658 91.4494 459.994 92.1454 460.666C92.8414 461.326 93.1894 462.22 93.1894 463.348C93.1894 464.128 92.9734 464.914 92.5414 465.706C92.1214 466.486 91.4554 467.338 90.5434 468.262L86.9254 471.898H93.4774V472.978H85.6654ZM100.184 473.158C99.3924 473.158 98.6904 472.984 98.0784 472.636C97.4784 472.288 97.0104 471.802 96.6744 471.178C96.3384 470.542 96.1704 469.81 96.1704 468.982C96.1704 467.782 96.5184 466.606 97.2144 465.454L100.58 459.838H101.912L98.1684 465.922L98.2404 465.976C98.3964 465.76 98.6784 465.538 99.0864 465.31C99.5064 465.082 100.01 464.968 100.598 464.968C101.306 464.968 101.93 465.136 102.47 465.472C103.01 465.796 103.424 466.264 103.712 466.876C104.012 467.476 104.162 468.178 104.162 468.982C104.162 469.81 103.994 470.542 103.658 471.178C103.334 471.802 102.866 472.288 102.254 472.636C101.654 472.984 100.964 473.158 100.184 473.158ZM100.166 472.096C101.006 472.096 101.684 471.814 102.2 471.25C102.716 470.674 102.974 469.918 102.974 468.982C102.974 468.082 102.716 467.356 102.2 466.804C101.684 466.24 101.006 465.958 100.166 465.958C99.3264 465.958 98.6484 466.24 98.1324 466.804C97.6164 467.356 97.3584 468.094 97.3584 469.018C97.3584 469.942 97.6164 470.686 98.1324 471.25C98.6484 471.814 99.3264 472.096 100.166 472.096ZM110.977 473.158C110.185 473.158 109.483 472.984 108.871 472.636C108.271 472.288 107.803 471.802 107.467 471.178C107.131 470.542 106.963 469.81 106.963 468.982C106.963 467.782 107.311 466.606 108.007 465.454L111.373 459.838H112.705L108.961 465.922L109.033 465.976C109.189 465.76 109.471 465.538 109.879 465.31C110.299 465.082 110.803 464.968 111.391 464.968C112.099 464.968 112.723 465.136 113.263 465.472C113.803 465.796 114.217 466.264 114.505 466.876C114.805 467.476 114.955 468.178 114.955 468.982C114.955 469.81 114.787 470.542 114.451 471.178C114.127 471.802 113.659 472.288 113.047 472.636C112.447 472.984 111.757 473.158 110.977 473.158ZM110.959 472.096C111.799 472.096 112.477 471.814 112.993 471.25C113.509 470.674 113.767 469.918 113.767 468.982C113.767 468.082 113.509 467.356 112.993 466.804C112.477 466.24 111.799 465.958 110.959 465.958C110.119 465.958 109.441 466.24 108.925 466.804C108.409 467.356 108.151 468.094 108.151 469.018C108.151 469.942 108.409 470.686 108.925 471.25C109.441 471.814 110.119 472.096 110.959 472.096Z" fill="#414042"/>
<g filter="url(#filter0_d)">
<path d="M191.509 220.978C290.009 220.978 227.009 311.478 230.009 335.978" stroke="#414042"/>
</g>
<g filter="url(#filter1_d)">
<path d="M230.009 343.978L224.812 334.978L235.205 334.978L230.009 343.978Z" fill="#414042"/>
</g>
<g filter="url(#filter2_d)">
<path d="M185.264 221.483L194.035 215.909L194.476 226.292L185.264 221.483Z" fill="#414042"/>
</g>
<g filter="url(#filter3_d)">
<path d="M174.509 570.978C174.509 637.978 32.0091 612.978 42.5676 658.478" stroke="#414042"/>
</g>
<g filter="url(#filter4_d)">
<path d="M42.0085 663.978L36.8124 654.978L47.2047 654.978L42.0085 663.978Z" fill="#414042"/>
</g>
<path d="M198.499 801.158C197.263 801.158 196.279 800.84 195.547 800.204C194.827 799.568 194.461 798.704 194.449 797.612H195.637C195.637 798.368 195.889 798.974 196.393 799.43C196.909 799.874 197.605 800.096 198.481 800.096C199.321 800.096 199.981 799.886 200.461 799.466C200.941 799.046 201.181 798.464 201.181 797.72C201.181 797.096 201.001 796.55 200.641 796.082C200.293 795.614 199.813 795.284 199.201 795.092L197.581 794.588C196.705 794.324 196.021 793.88 195.529 793.256C195.049 792.62 194.809 791.87 194.809 791.006C194.809 789.986 195.145 789.176 195.817 788.576C196.489 787.964 197.389 787.658 198.517 787.658C199.633 787.658 200.521 787.976 201.181 788.612C201.853 789.236 202.195 790.076 202.207 791.132H201.019C201.019 790.388 200.791 789.8 200.335 789.368C199.879 788.936 199.267 788.72 198.499 788.72C197.719 788.72 197.107 788.918 196.663 789.314C196.219 789.698 195.997 790.232 195.997 790.916C195.997 791.516 196.165 792.044 196.501 792.5C196.837 792.944 197.305 793.262 197.905 793.454L199.525 793.958C200.413 794.234 201.109 794.702 201.613 795.362C202.117 796.022 202.369 796.79 202.369 797.666C202.369 798.734 202.015 799.586 201.307 800.222C200.611 800.846 199.675 801.158 198.499 801.158ZM212.838 796.298H206.736V797.486C206.736 798.326 206.952 798.98 207.384 799.448C207.816 799.904 208.428 800.132 209.22 800.132C209.856 800.132 210.378 799.994 210.786 799.718C211.206 799.43 211.482 799.028 211.614 798.512H212.802C212.658 799.328 212.268 799.976 211.632 800.456C210.996 800.924 210.192 801.158 209.22 801.158C208.092 801.158 207.198 800.828 206.538 800.168C205.89 799.496 205.566 798.602 205.566 797.486V794.57C205.566 793.454 205.89 792.566 206.538 791.906C207.198 791.234 208.092 790.898 209.22 790.898C210.336 790.898 211.218 791.234 211.866 791.906C212.514 792.566 212.838 793.454 212.838 794.57V796.298ZM206.736 795.344H211.668V794.57C211.668 793.73 211.458 793.076 211.038 792.608C210.618 792.14 210.012 791.906 209.22 791.906C208.416 791.906 207.798 792.14 207.366 792.608C206.946 793.076 206.736 793.73 206.736 794.57V795.344ZM220.336 790.898C221.32 790.898 222.106 791.21 222.694 791.834C223.282 792.458 223.576 793.298 223.576 794.354V800.978H222.388V794.498C222.388 793.694 222.178 793.064 221.758 792.608C221.338 792.14 220.768 791.906 220.048 791.906C219.304 791.906 218.716 792.146 218.284 792.626C217.852 793.094 217.636 793.742 217.636 794.57V800.978H216.448V791.078H217.636V792.86C217.768 792.236 218.068 791.756 218.536 791.42C219.004 791.072 219.604 790.898 220.336 790.898ZM230.319 801.158C229.383 801.158 228.615 800.918 228.015 800.438C227.427 799.958 227.091 799.328 227.007 798.548H228.195C228.279 799.004 228.513 799.376 228.897 799.664C229.281 799.952 229.755 800.096 230.319 800.096H231.345C231.981 800.096 232.479 799.94 232.839 799.628C233.211 799.316 233.397 798.902 233.397 798.386C233.397 797.906 233.247 797.51 232.947 797.198C232.647 796.886 232.233 796.688 231.705 796.604L230.013 796.352C228.177 796.076 227.259 795.17 227.259 793.634C227.259 792.782 227.541 792.116 228.105 791.636C228.681 791.144 229.479 790.898 230.499 790.898H231.219C232.131 790.898 232.875 791.12 233.451 791.564C234.027 792.008 234.363 792.608 234.459 793.364H233.271C233.199 792.944 232.977 792.608 232.605 792.356C232.245 792.092 231.783 791.96 231.219 791.96H230.499C229.851 791.96 229.347 792.11 228.987 792.41C228.639 792.698 228.465 793.106 228.465 793.634C228.465 794.09 228.609 794.45 228.897 794.714C229.185 794.966 229.617 795.14 230.193 795.236L231.849 795.47C232.737 795.602 233.409 795.908 233.865 796.388C234.333 796.868 234.567 797.498 234.567 798.278C234.567 799.166 234.285 799.868 233.721 800.384C233.157 800.9 232.365 801.158 231.345 801.158H230.319ZM241.58 801.158C240.476 801.158 239.594 800.828 238.934 800.168C238.274 799.508 237.944 798.614 237.944 797.486V794.57C237.944 793.442 238.274 792.548 238.934 791.888C239.594 791.228 240.476 790.898 241.58 790.898C242.684 790.898 243.566 791.228 244.226 791.888C244.886 792.548 245.216 793.442 245.216 794.57V797.486C245.216 798.614 244.886 799.508 244.226 800.168C243.566 800.828 242.684 801.158 241.58 801.158ZM241.58 800.114C242.36 800.114 242.96 799.886 243.38 799.43C243.812 798.974 244.028 798.326 244.028 797.486V794.57C244.028 793.73 243.812 793.082 243.38 792.626C242.96 792.17 242.36 791.942 241.58 791.942C240.8 791.942 240.194 792.17 239.762 792.626C239.342 793.082 239.132 793.73 239.132 794.57V797.486C239.132 798.326 239.342 798.974 239.762 799.43C240.194 799.886 240.8 800.114 241.58 800.114ZM252.985 790.898C254.041 790.898 254.875 791.222 255.487 791.87C256.099 792.518 256.405 793.4 256.405 794.516V795.074H255.163V794.57C255.163 793.73 254.953 793.076 254.533 792.608C254.113 792.14 253.519 791.906 252.751 791.906C251.995 791.906 251.401 792.14 250.969 792.608C250.549 793.076 250.339 793.73 250.339 794.57V800.978H249.151V791.078H250.321V792.644H250.339C250.519 792.08 250.831 791.648 251.275 791.348C251.731 791.048 252.301 790.898 252.985 790.898ZM262.698 801.158C261.762 801.158 260.994 800.918 260.394 800.438C259.806 799.958 259.47 799.328 259.386 798.548H260.574C260.658 799.004 260.892 799.376 261.276 799.664C261.66 799.952 262.134 800.096 262.698 800.096H263.724C264.36 800.096 264.858 799.94 265.218 799.628C265.59 799.316 265.776 798.902 265.776 798.386C265.776 797.906 265.626 797.51 265.326 797.198C265.026 796.886 264.612 796.688 264.084 796.604L262.392 796.352C260.556 796.076 259.638 795.17 259.638 793.634C259.638 792.782 259.92 792.116 260.484 791.636C261.06 791.144 261.858 790.898 262.878 790.898H263.598C264.51 790.898 265.254 791.12 265.83 791.564C266.406 792.008 266.742 792.608 266.838 793.364H265.65C265.578 792.944 265.356 792.608 264.984 792.356C264.624 792.092 264.162 791.96 263.598 791.96H262.878C262.23 791.96 261.726 792.11 261.366 792.41C261.018 792.698 260.844 793.106 260.844 793.634C260.844 794.09 260.988 794.45 261.276 794.714C261.564 794.966 261.996 795.14 262.572 795.236L264.228 795.47C265.116 795.602 265.788 795.908 266.244 796.388C266.712 796.868 266.946 797.498 266.946 798.278C266.946 799.166 266.664 799.868 266.1 800.384C265.536 800.9 264.744 801.158 263.724 801.158H262.698ZM198.409 823.158C197.305 823.158 196.423 822.828 195.763 822.168C195.103 821.508 194.773 820.614 194.773 819.486V816.57C194.773 815.442 195.103 814.548 195.763 813.888C196.423 813.228 197.305 812.898 198.409 812.898C199.513 812.898 200.395 813.228 201.055 813.888C201.715 814.548 202.045 815.442 202.045 816.57V819.486C202.045 820.614 201.715 821.508 201.055 822.168C200.395 822.828 199.513 823.158 198.409 823.158ZM198.409 822.114C199.189 822.114 199.789 821.886 200.209 821.43C200.641 820.974 200.857 820.326 200.857 819.486V816.57C200.857 815.73 200.641 815.082 200.209 814.626C199.789 814.17 199.189 813.942 198.409 813.942C197.629 813.942 197.023 814.17 196.591 814.626C196.171 815.082 195.961 815.73 195.961 816.57V819.486C195.961 820.326 196.171 820.974 196.591 821.43C197.023 821.886 197.629 822.114 198.409 822.114ZM209.544 812.898C210.528 812.898 211.314 813.21 211.902 813.834C212.49 814.458 212.784 815.298 212.784 816.354V822.978H211.596V816.498C211.596 815.694 211.386 815.064 210.966 814.608C210.546 814.14 209.976 813.906 209.256 813.906C208.512 813.906 207.924 814.146 207.492 814.626C207.06 815.094 206.844 815.742 206.844 816.57V822.978H205.656V813.078H206.844V814.86C206.976 814.236 207.276 813.756 207.744 813.42C208.212 813.072 208.812 812.898 209.544 812.898ZM220.372 812.898C221.368 812.898 222.16 813.228 222.748 813.888C223.336 814.548 223.63 815.43 223.63 816.534V819.54C223.63 820.644 223.33 821.526 222.73 822.186C222.142 822.834 221.356 823.158 220.372 823.158C219.688 823.158 219.106 823.002 218.626 822.69C218.146 822.378 217.822 821.952 217.654 821.412H217.636V822.978H216.448V809.838H217.636V812.61L217.618 814.644H217.654C217.822 814.104 218.146 813.678 218.626 813.366C219.106 813.054 219.688 812.898 220.372 812.898ZM222.442 816.57C222.442 815.73 222.226 815.082 221.794 814.626C221.374 814.158 220.792 813.924 220.048 813.924C219.28 813.924 218.686 814.158 218.266 814.626C217.846 815.094 217.636 815.742 217.636 816.57V819.504C217.636 820.332 217.846 820.98 218.266 821.448C218.698 821.904 219.286 822.132 220.03 822.132C220.786 822.132 221.374 821.904 221.794 821.448C222.226 820.98 222.442 820.332 222.442 819.504V816.57ZM230.787 823.158C229.683 823.158 228.801 822.828 228.141 822.168C227.481 821.508 227.151 820.614 227.151 819.486V816.57C227.151 815.442 227.481 814.548 228.141 813.888C228.801 813.228 229.683 812.898 230.787 812.898C231.891 812.898 232.773 813.228 233.433 813.888C234.093 814.548 234.423 815.442 234.423 816.57V819.486C234.423 820.614 234.093 821.508 233.433 822.168C232.773 822.828 231.891 823.158 230.787 823.158ZM230.787 822.114C231.567 822.114 232.167 821.886 232.587 821.43C233.019 820.974 233.235 820.326 233.235 819.486V816.57C233.235 815.73 233.019 815.082 232.587 814.626C232.167 814.17 231.567 813.942 230.787 813.942C230.007 813.942 229.401 814.17 228.969 814.626C228.549 815.082 228.339 815.73 228.339 816.57V819.486C228.339 820.326 228.549 820.974 228.969 821.43C229.401 821.886 230.007 822.114 230.787 822.114ZM241.634 812.898C242.726 812.898 243.584 813.198 244.208 813.798C244.844 814.386 245.162 815.19 245.162 816.21V822.978H243.992V821.358C243.836 821.91 243.476 822.348 242.912 822.672C242.348 822.996 241.652 823.158 240.824 823.158C239.804 823.158 239 822.9 238.412 822.384C237.824 821.856 237.53 821.148 237.53 820.26C237.53 819.372 237.812 818.67 238.376 818.154C238.952 817.638 239.732 817.38 240.716 817.38H243.974V816.228C243.974 815.508 243.764 814.95 243.344 814.554C242.936 814.158 242.36 813.96 241.616 813.96C240.956 813.96 240.41 814.116 239.978 814.428C239.546 814.74 239.294 815.16 239.222 815.688H238.034C238.166 814.836 238.55 814.158 239.186 813.654C239.834 813.15 240.65 812.898 241.634 812.898ZM241.04 822.168C241.928 822.168 242.636 821.97 243.164 821.574C243.704 821.178 243.974 820.65 243.974 819.99V818.352H240.716C240.092 818.352 239.6 818.52 239.24 818.856C238.892 819.18 238.718 819.63 238.718 820.206C238.718 820.806 238.928 821.286 239.348 821.646C239.768 821.994 240.332 822.168 241.04 822.168ZM252.985 812.898C254.041 812.898 254.875 813.222 255.487 813.87C256.099 814.518 256.405 815.4 256.405 816.516V817.074H255.163V816.57C255.163 815.73 254.953 815.076 254.533 814.608C254.113 814.14 253.519 813.906 252.751 813.906C251.995 813.906 251.401 814.14 250.969 814.608C250.549 815.076 250.339 815.73 250.339 816.57V822.978H249.151V813.078H250.321V814.644H250.339C250.519 814.08 250.831 813.648 251.275 813.348C251.731 813.048 252.301 812.898 252.985 812.898ZM265.524 809.838H266.712V822.978H265.524V821.412H265.506C265.338 821.952 265.014 822.378 264.534 822.69C264.054 823.002 263.472 823.158 262.788 823.158C261.804 823.158 261.012 822.834 260.412 822.186C259.824 821.526 259.53 820.644 259.53 819.54V816.534C259.53 815.43 259.824 814.548 260.412 813.888C261 813.228 261.792 812.898 262.788 812.898C263.472 812.898 264.054 813.054 264.534 813.366C265.014 813.678 265.338 814.104 265.506 814.644H265.542L265.524 812.61V809.838ZM263.13 822.132C263.874 822.132 264.456 821.904 264.876 821.448C265.308 820.98 265.524 820.332 265.524 819.504V816.57C265.524 815.742 265.314 815.094 264.894 814.626C264.474 814.158 263.88 813.924 263.112 813.924C262.368 813.924 261.78 814.158 261.348 814.626C260.928 815.082 260.718 815.73 260.718 816.57V819.504C260.718 820.332 260.928 820.98 261.348 821.448C261.78 821.904 262.374 822.132 263.13 822.132Z" fill="#414042"/>
<path d="M145.662 70.9931C145.742 72.4445 145.895 73.8233 145.902 75.2383C145.938 79.411 145.953 83.5909 145.902 87.7635C145.773 88.3592 145.566 88.9352 145.285 89.4761C145.079 89.9987 144.952 90.549 144.908 91.1089C144.908 97.5021 144.864 103.895 144.908 110.289C144.908 111.101 145.358 111.914 145.691 113.024C145.749 114.36 145.887 116.036 145.895 117.712C145.895 127.698 145.895 137.678 145.895 147.654C145.895 148.532 146.011 149.374 145.133 150.136C144.712 150.498 144.864 151.587 144.864 152.371C144.864 176.836 144.864 201.298 144.864 225.758C144.864 241.607 144.864 257.458 144.864 273.312C144.982 278.855 143.017 284.241 139.357 288.406C137.455 290.66 135.084 292.472 132.41 293.714C129.735 294.956 126.821 295.599 123.872 295.598C118.72 295.656 113.561 295.489 108.416 295.685C89.9202 296.41 71.4096 296.664 52.9281 296.098C41.8623 295.757 30.7966 295.953 19.7381 295.576C11.6257 295.3 3.86156 288.987 1.17676 280.692C0.330055 277.869 -0.0642474 274.93 0.0085067 271.984C0.0085067 223.518 0.0085067 175.05 0.0085067 126.58C0.0085067 92.4006 0.0085067 58.2188 0.0085067 24.0345C-0.00113923 21.2974 0.271193 18.5665 0.821199 15.8852C2.73684 7.148 8.49827 1.77798 17.3509 0.384679C18.9613 0.129621 20.5892 0.00102322 22.2198 6.77685e-05C55.7435 6.77685e-05 89.2696 6.77685e-05 122.798 6.77685e-05C124.688 -0.00403617 126.574 0.178265 128.429 0.544326C137.477 2.36578 143.116 8.34536 144.393 17.7429C144.793 21.3057 144.958 24.8911 144.886 28.4757C144.93 41.654 144.886 54.825 144.886 68.0033C144.984 68.9644 145.181 69.9128 145.474 70.8335L145.662 70.9931ZM142.078 147.915C142.078 109.154 142.078 70.3981 142.078 31.6469C142.078 27.3509 142.136 23.0258 141.715 18.7588C141.047 12.0971 138.029 6.83595 131.556 4.14369C128.948 3.07955 126.151 2.55616 123.335 2.60525C118.836 2.63912 114.337 2.65847 109.839 2.66331C80.2187 2.66331 50.5988 2.598 20.979 2.66331C18.3753 2.71514 15.8022 3.23375 13.3817 4.19449C6.74227 6.78516 3.83253 12.2713 3.22301 18.9838C2.80215 23.4395 2.88197 27.9604 2.88197 32.4451C2.88197 112.11 2.88197 191.775 2.88197 271.44C2.92032 274.041 3.25876 276.63 3.89058 279.154C4.73194 282.493 6.55199 285.505 9.11714 287.803C11.6823 290.101 14.8755 291.579 18.2869 292.049C20.939 292.311 23.6045 292.41 26.2687 292.347C58.5637 292.347 90.8587 292.347 123.154 292.347C129.031 292.347 133.973 290.278 137.746 285.67C140.873 281.853 142.042 277.354 142.042 272.55C142.085 231.012 142.097 189.462 142.078 147.9V147.915Z" fill="black"/>
<path d="M73.5721 25.5004C72.3603 25.5004 71.1413 25.5657 69.944 25.5004C69.2847 25.5032 68.6496 25.2524 68.1701 24.7999C67.6906 24.3473 67.4034 23.7278 67.368 23.0694C67.3297 22.7229 67.3638 22.3723 67.468 22.0396C67.5723 21.707 67.7445 21.3997 67.9736 21.137C68.2028 20.8744 68.484 20.6622 68.7995 20.5139C69.1149 20.3656 69.4577 20.2845 69.8061 20.2755C72.392 20.1268 74.9843 20.1268 77.5703 20.2755C78.2631 20.289 78.9221 20.5771 79.4025 21.0766C79.8829 21.576 80.1452 22.2459 80.1317 22.9388C80.1182 23.6316 79.8301 24.2907 79.3307 24.7711C78.8313 25.2515 78.1615 25.5139 77.4687 25.5004C76.1698 25.573 74.8637 25.5004 73.5721 25.5004Z" fill="black"/>
<path d="M24.9915 8.75906C25.7748 8.74847 26.5302 9.04949 27.0915 9.5959C27.6528 10.1423 27.9741 10.8893 27.9847 11.6727C27.9953 12.456 27.6943 13.2114 27.1479 13.7728C26.6016 14.3342 25.8546 14.6555 25.0713 14.6661C24.3176 14.6665 23.5933 14.3736 23.0516 13.8495C22.5099 13.3254 22.1934 12.6111 22.1689 11.8577C22.1484 11.4683 22.2054 11.0788 22.3365 10.7116C22.4677 10.3445 22.6705 10.007 22.933 9.71875C23.1956 9.43052 23.5127 9.19728 23.8661 9.03254C24.2194 8.8678 24.602 8.77485 24.9915 8.75906Z" fill="black"/>
<path d="M137.158 29.702H7.62744V260.584H137.158V29.702Z" stroke="black" stroke-miterlimit="10"/>
<path d="M75.3352 96.8418C88.3601 96.8418 102.183 102.212 114.033 112.698C117.719 115.963 118.386 119.149 115.876 121.711C112.647 124.969 109.679 123.554 106.653 121.021C85.5301 103.308 59.045 103.279 38.1253 120.942C35.1358 123.467 32.1825 124.998 28.8882 121.805C26.1888 119.193 26.958 116 30.9344 112.487C42.8346 102.059 56.6794 96.7765 75.3352 96.8418Z" fill="#CED0D1"/>
<path d="M72.0917 115.267C83.7016 115.267 93.6644 119.301 102.205 126.943C105.057 129.49 106.457 132.451 103.707 135.651C100.957 138.851 97.902 137.828 94.927 135.375C80.088 123.039 64.7992 123.104 49.5829 135.528C46.7457 137.843 43.8142 138.728 41.1439 135.825C38.2922 132.727 39.4387 129.708 42.3049 127.117C50.8092 119.425 60.7139 115.332 72.0917 115.267Z" fill="#CED0D1"/>
<path d="M87.8449 151.993C86.0534 151.001 84.3167 149.914 82.6422 148.735C75.9737 143.423 68.6522 143.271 62.2087 148.699C59.1393 151.289 56.0264 152.632 53.0876 149.192C50.1489 145.752 52.1225 142.726 55.0033 140.157C65.0821 131.152 81.561 131.449 90.5079 141.137C91.9592 142.69 92.5469 145.716 92.2567 147.886C92.0608 149.344 89.5936 150.484 87.8449 151.993Z" fill="#CED0D1"/>
<path d="M72.273 166.1C70.9644 166.086 69.6892 165.686 68.6071 164.95C67.5251 164.213 66.6845 163.174 66.1906 161.962C65.6968 160.75 65.5717 159.419 65.831 158.136C66.0904 156.853 66.7226 155.676 67.6485 154.751C68.5744 153.826 69.7527 153.195 71.0357 152.937C72.3187 152.679 73.6494 152.805 74.8608 153.301C76.0722 153.796 77.1104 154.638 77.8454 155.72C78.5804 156.803 78.9793 158.079 78.9923 159.388C78.9552 161.158 78.2351 162.845 76.9828 164.096C75.7304 165.347 74.0428 166.065 72.273 166.1V166.1Z" fill="#CED0D1"/>
<path d="M193.557 147.978V134.838H195.213L196.869 139.554L197.445 141.354C197.637 140.718 197.829 140.118 198.021 139.554L199.623 134.838H201.261V147.978H200.109V141.318C200.109 139.59 200.199 137.628 200.379 135.432L198.057 142.164H196.797L194.439 135.432C194.619 137.58 194.709 139.542 194.709 141.318V147.978H193.557ZM208.202 148.158C207.098 148.158 206.216 147.828 205.556 147.168C204.896 146.508 204.566 145.614 204.566 144.486V141.57C204.566 140.442 204.896 139.548 205.556 138.888C206.216 138.228 207.098 137.898 208.202 137.898C209.306 137.898 210.188 138.228 210.848 138.888C211.508 139.548 211.838 140.442 211.838 141.57V144.486C211.838 145.614 211.508 146.508 210.848 147.168C210.188 147.828 209.306 148.158 208.202 148.158ZM208.202 147.114C208.982 147.114 209.582 146.886 210.002 146.43C210.434 145.974 210.65 145.326 210.65 144.486V141.57C210.65 140.73 210.434 140.082 210.002 139.626C209.582 139.17 208.982 138.942 208.202 138.942C207.422 138.942 206.816 139.17 206.384 139.626C205.964 140.082 205.754 140.73 205.754 141.57V144.486C205.754 145.326 205.964 145.974 206.384 146.43C206.816 146.886 207.422 147.114 208.202 147.114ZM219.372 137.898C220.368 137.898 221.16 138.228 221.748 138.888C222.336 139.548 222.63 140.43 222.63 141.534V144.54C222.63 145.644 222.33 146.526 221.73 147.186C221.142 147.834 220.356 148.158 219.372 148.158C218.688 148.158 218.106 148.002 217.626 147.69C217.146 147.378 216.822 146.952 216.654 146.412H216.636V147.978H215.448V134.838H216.636V137.61L216.618 139.644H216.654C216.822 139.104 217.146 138.678 217.626 138.366C218.106 138.054 218.688 137.898 219.372 137.898ZM221.442 141.57C221.442 140.73 221.226 140.082 220.794 139.626C220.374 139.158 219.792 138.924 219.048 138.924C218.28 138.924 217.686 139.158 217.266 139.626C216.846 140.094 216.636 140.742 216.636 141.57V144.504C216.636 145.332 216.846 145.98 217.266 146.448C217.698 146.904 218.286 147.132 219.03 147.132C219.786 147.132 220.374 146.904 220.794 146.448C221.226 145.98 221.442 145.332 221.442 144.504V141.57ZM229.895 136.314C229.583 136.314 229.325 136.224 229.121 136.044C228.929 135.852 228.833 135.6 228.833 135.288C228.833 134.988 228.929 134.742 229.121 134.55C229.325 134.358 229.583 134.262 229.895 134.262H230.093C230.405 134.262 230.657 134.358 230.849 134.55C231.053 134.742 231.155 134.988 231.155 135.288C231.155 135.6 231.053 135.852 230.849 136.044C230.657 136.224 230.405 136.314 230.093 136.314H229.895ZM234.125 147.978H225.989V146.898H229.571V139.158H226.439V138.078H230.759V146.898H234.125V147.978ZM241.75 147.978C240.91 147.978 240.256 147.75 239.788 147.294C239.32 146.838 239.086 146.208 239.086 145.404V135.918H236.008V134.838H240.274V145.404C240.274 145.884 240.4 146.256 240.652 146.52C240.904 146.772 241.27 146.898 241.75 146.898H244.972V147.978H241.75ZM255.009 143.298H248.907V144.486C248.907 145.326 249.123 145.98 249.555 146.448C249.987 146.904 250.599 147.132 251.391 147.132C252.027 147.132 252.549 146.994 252.957 146.718C253.377 146.43 253.653 146.028 253.785 145.512H254.973C254.829 146.328 254.439 146.976 253.803 147.456C253.167 147.924 252.363 148.158 251.391 148.158C250.263 148.158 249.369 147.828 248.709 147.168C248.061 146.496 247.737 145.602 247.737 144.486V141.57C247.737 140.454 248.061 139.566 248.709 138.906C249.369 138.234 250.263 137.898 251.391 137.898C252.507 137.898 253.389 138.234 254.037 138.906C254.685 139.566 255.009 140.454 255.009 141.57V143.298ZM248.907 142.344H253.839V141.57C253.839 140.73 253.629 140.076 253.209 139.608C252.789 139.14 252.183 138.906 251.391 138.906C250.587 138.906 249.969 139.14 249.537 139.608C249.117 140.076 248.907 140.73 248.907 141.57V142.344Z" fill="#414042"/>
<defs>
<filter id="filter0_d" x="187.509" y="220.478" width="64.1022" height="123.561" filterUnits="userSpaceOnUse" color-interpolation-filters="sRGB">
<feFlood flood-opacity="0" result="BackgroundImageFix"/>
<feColorMatrix in="SourceAlpha" type="matrix" values="0 0 0 0 0 0 0 0 0 0 0 0 0 0 0 0 0 0 127 0"/>
<feOffset dy="4"/>
<feGaussianBlur stdDeviation="2"/>
<feColorMatrix type="matrix" values="0 0 0 0 0 0 0 0 0 0 0 0 0 0 0 0 0 0 0.25 0"/>
<feBlend mode="normal" in2="BackgroundImageFix" result="effect1_dropShadow"/>
<feBlend mode="normal" in="SourceGraphic" in2="effect1_dropShadow" result="shape"/>
</filter>
<filter id="filter1_d" x="220.812" y="334.978" width="18.3923" height="17" filterUnits="userSpaceOnUse" color-interpolation-filters="sRGB">
<feFlood flood-opacity="0" result="BackgroundImageFix"/>
<feColorMatrix in="SourceAlpha" type="matrix" values="0 0 0 0 0 0 0 0 0 0 0 0 0 0 0 0 0 0 127 0"/>
<feOffset dy="4"/>
<feGaussianBlur stdDeviation="2"/>
<feColorMatrix type="matrix" values="0 0 0 0 0 0 0 0 0 0 0 0 0 0 0 0 0 0 0.25 0"/>
<feBlend mode="normal" in2="BackgroundImageFix" result="effect1_dropShadow"/>
<feBlend mode="normal" in="SourceGraphic" in2="effect1_dropShadow" result="shape"/>
</filter>
<filter id="filter2_d" x="181.043" y="215.909" width="17.4338" height="18.7656" filterUnits="userSpaceOnUse" color-interpolation-filters="sRGB">
<feFlood flood-opacity="0" result="BackgroundImageFix"/>
<feColorMatrix in="SourceAlpha" type="matrix" values="0 0 0 0 0 0 0 0 0 0 0 0 0 0 0 0 0 0 127 0"/>
<feOffset dy="4"/>
<feGaussianBlur stdDeviation="2"/>
<feColorMatrix type="matrix" values="0 0 0 0 0 0 0 0 0 0 0 0 0 0 0 0 0 0 0.25 0"/>
<feBlend mode="normal" in2="BackgroundImageFix" result="effect1_dropShadow"/>
<feBlend mode="normal" in="SourceGraphic" in2="effect1_dropShadow" result="shape"/>
</filter>
<filter id="filter3_d" x="37.5085" y="570.978" width="141.5" height="95.6129" filterUnits="userSpaceOnUse" color-interpolation-filters="sRGB">
<feFlood flood-opacity="0" result="BackgroundImageFix"/>
<feColorMatrix in="SourceAlpha" type="matrix" values="0 0 0 0 0 0 0 0 0 0 0 0 0 0 0 0 0 0 127 0"/>
<feOffset dy="4"/>
<feGaussianBlur stdDeviation="2"/>
<feColorMatrix type="matrix" values="0 0 0 0 0 0 0 0 0 0 0 0 0 0 0 0 0 0 0.25 0"/>
<feBlend mode="normal" in2="BackgroundImageFix" result="effect1_dropShadow"/>
<feBlend mode="normal" in="SourceGraphic" in2="effect1_dropShadow" result="shape"/>
</filter>
<filter id="filter4_d" x="32.8125" y="654.978" width="18.3923" height="17" filterUnits="userSpaceOnUse" color-interpolation-filters="sRGB">
<feFlood flood-opacity="0" result="BackgroundImageFix"/>
<feColorMatrix in="SourceAlpha" type="matrix" values="0 0 0 0 0 0 0 0 0 0 0 0 0 0 0 0 0 0 127 0"/>
<feOffset dy="4"/>
<feGaussianBlur stdDeviation="2"/>
<feColorMatrix type="matrix" values="0 0 0 0 0 0 0 0 0 0 0 0 0 0 0 0 0 0 0.25 0"/>
<feBlend mode="normal" in2="BackgroundImageFix" result="effect1_dropShadow"/>
<feBlend mode="normal" in="SourceGraphic" in2="effect1_dropShadow" result="shape"/>
</filter>
</defs>
</svg>
