<svg width="1159" height="344" viewBox="0 0 1159 344" fill="none" xmlns="http://www.w3.org/2000/svg">
<g clip-path="url(#clip0)">
<path d="M476.059 204.358C472.895 204.358 469.724 204.322 466.56 204.358C465.508 204.358 465.181 204.017 465.261 203.008C465.337 201.984 465.337 200.956 465.261 199.931C465.196 198.981 465.573 198.749 466.473 198.756C472.684 198.756 478.896 198.756 485.107 198.792C486.108 198.792 486.486 198.582 486.442 197.515C486.355 195.708 486.355 193.887 486.442 192.087C486.486 191.027 486.21 190.679 485.085 190.686C478.954 190.744 472.822 190.686 466.698 190.744C465.537 190.744 465.174 190.418 465.247 189.293C465.323 188.225 465.323 187.153 465.247 186.086C465.181 185.186 465.552 184.997 466.379 185.004C472.554 185.004 478.714 185.004 484.889 185.055C486.203 185.055 486.486 184.663 486.413 183.466C486.326 181.74 486.326 180.01 486.413 178.284C486.457 177.298 486.116 177.029 485.158 177.036C478.99 177.073 472.822 177.036 466.647 177.08C465.45 177.08 465.16 176.702 465.24 175.628C465.316 174.643 465.316 173.653 465.24 172.668C465.16 171.688 465.501 171.398 466.48 171.405C472.568 171.405 478.656 171.405 484.744 171.405C486.384 171.405 486.384 171.405 486.384 169.714C486.384 168.023 486.333 166.253 486.384 164.526C486.428 163.56 486.13 163.277 485.151 163.285C478.976 163.328 472.815 163.285 466.64 163.336C465.501 163.336 465.102 163.023 465.189 161.884C465.276 160.899 465.276 159.908 465.189 158.923C465.109 157.936 465.472 157.653 466.444 157.661C471.792 157.697 477.14 157.661 482.488 157.661C483.474 157.661 484.461 157.661 485.448 157.661C486.065 157.661 486.341 157.443 486.333 156.797C486.333 154.7 486.333 152.603 486.333 150.506C486.333 149.7 485.927 149.664 485.332 149.664C482.205 149.664 479.077 149.664 475.95 149.664C472.822 149.664 469.615 149.62 466.451 149.664C465.377 149.664 465.094 149.315 465.167 148.329C465.247 147.302 465.247 146.271 465.167 145.244C465.08 144.214 465.428 143.909 466.466 143.916C472.597 143.96 478.722 143.916 484.853 143.96C486.065 143.96 486.399 143.619 486.304 142.443C486.21 140.68 486.232 138.902 486.304 137.139C486.304 136.166 486.036 135.869 485.056 135.876C479.092 135.912 473.127 135.876 467.162 135.876C464.906 135.876 465.174 136.166 465.152 133.808C465.192 133.068 465.192 132.327 465.152 131.587C465.029 130.513 465.501 130.288 466.488 130.288C472.576 130.288 478.664 130.288 484.751 130.332C486 130.332 486.413 130.034 486.333 128.764C486.239 126.997 486.239 125.226 486.333 123.46C486.333 122.494 486.094 122.197 485.1 122.204C478.932 122.248 472.764 122.204 466.589 122.255C465.435 122.255 465.065 121.928 465.138 120.804C465.218 119.777 465.218 118.746 465.138 117.719C465.08 116.805 465.406 116.529 466.328 116.529C472.503 116.566 478.664 116.529 484.839 116.573C486.05 116.573 486.384 116.239 486.29 115.063C486.188 113.256 486.224 111.435 486.29 109.635C486.29 108.692 485.978 108.453 485.078 108.46C478.903 108.46 472.742 108.46 466.567 108.503C465.428 108.503 465.007 108.191 465.116 107.052C465.196 106.067 465.196 105.076 465.116 104.091C465.058 103.177 465.392 102.887 466.313 102.894C470.667 102.937 474.948 102.894 479.273 102.894C481.283 102.894 483.3 102.894 485.317 102.894C485.663 102.917 486.009 102.865 486.331 102.739C486.653 102.614 486.944 102.419 487.182 102.168C489.78 99.5363 492.397 96.9191 495.034 94.3163C495.263 94.0879 495.439 93.8111 495.548 93.506C495.658 93.2009 495.697 92.8753 495.665 92.5529C495.665 86.254 495.665 79.9624 495.665 73.6853C495.665 72.7564 495.853 72.3428 496.877 72.4299C497.944 72.5169 499.017 72.5169 500.084 72.4299C501.092 72.35 501.317 72.7637 501.31 73.6998C501.31 79.8318 501.31 85.9565 501.267 92.0885C501.267 93.1915 501.513 93.6269 502.718 93.5398C504.525 93.4527 506.346 93.4673 508.145 93.5398C509.14 93.5761 509.394 93.2205 509.386 92.2626C509.35 86.0508 509.386 79.839 509.386 73.6272C509.386 72.7201 509.589 72.3573 510.54 72.4154C511.649 72.4879 512.762 72.4879 513.871 72.4154C514.814 72.35 515.039 72.6984 515.039 73.6127C514.995 79.7374 515.039 85.8694 514.981 92.0014C514.981 93.3004 515.351 93.6124 516.57 93.5398C518.293 93.4527 520.02 93.4527 521.744 93.5398C522.818 93.5906 523.151 93.2786 523.144 92.161C523.086 86.0363 523.144 79.9043 523.086 73.7724C523.086 72.6839 523.369 72.321 524.457 72.4154C525.36 72.5024 526.269 72.5024 527.171 72.4154C528.383 72.2847 528.797 72.6476 528.782 73.9538C528.71 79.9987 528.782 86.0436 528.724 92.0957C528.724 93.2133 529.014 93.6051 530.175 93.5471C531.901 93.4563 533.63 93.4563 535.356 93.5471C536.481 93.6051 536.808 93.2568 536.808 92.0957C536.749 86.0436 536.807 79.9987 536.742 73.9538C536.742 72.6766 537.098 72.263 538.331 72.3936C539.234 72.4843 540.143 72.4843 541.045 72.3936C542.105 72.2992 542.446 72.604 542.438 73.7433C542.373 79.8245 542.438 85.9202 542.38 92.0014C542.38 93.1988 542.692 93.5906 543.89 93.5253C545.696 93.431 547.518 93.4527 549.317 93.5253C550.268 93.5616 550.485 93.2133 550.478 92.3134C550.478 86.1452 550.478 79.9769 550.478 73.8014C550.478 72.7492 550.696 72.2992 551.828 72.4008C552.854 72.4879 553.886 72.4879 554.912 72.4008C555.862 72.3355 556.08 72.6984 556.073 73.6055C556.073 79.7374 556.073 85.8622 556.073 91.9941C556.073 93.148 556.334 93.6051 557.568 93.5398C559.334 93.4455 561.105 93.4455 562.872 93.5398C563.888 93.5834 564.2 93.2931 564.192 92.2481C564.149 86.1234 564.192 79.9914 564.149 73.8595C564.149 72.7927 564.338 72.2775 565.535 72.4081C566.561 72.5025 567.593 72.5025 568.619 72.4081C569.562 72.3428 569.881 72.604 569.874 73.62C569.823 79.7882 569.874 85.9565 569.823 92.132C569.823 93.3149 570.186 93.5834 571.274 93.5398C573 93.4491 574.73 93.4491 576.455 93.5398C577.595 93.6051 577.849 93.1697 577.841 92.1248C577.805 86.0363 577.841 79.9479 577.798 73.8595C577.798 72.7782 578.023 72.2702 579.249 72.4081C580.189 72.5167 581.139 72.5167 582.079 72.4081C583.327 72.263 583.53 72.8 583.53 73.932C583.479 79.8971 583.53 85.8622 583.53 91.8272C583.53 93.5181 583.53 93.5181 585.206 93.5181C586.883 93.5181 588.501 93.46 590.141 93.5181C591.244 93.5761 591.592 93.2568 591.592 92.0667C591.534 85.9783 591.592 79.8898 591.541 73.8014C591.541 72.7056 591.795 72.2412 592.992 72.35C593.977 72.448 594.968 72.448 595.953 72.35C597.02 72.2557 597.252 72.6984 597.244 73.6926C597.244 79.8608 597.244 86.0291 597.201 92.1973C597.172 92.7018 597.256 93.2063 597.448 93.6737C597.64 94.141 597.935 94.559 598.311 94.8968C600.655 97.1464 602.962 99.4323 605.197 101.791C605.541 102.162 605.965 102.451 606.436 102.636C606.907 102.82 607.414 102.896 607.918 102.858C613.963 102.858 620.014 102.858 626.059 102.807C627.292 102.807 627.786 103.104 627.612 104.389C627.503 105.288 627.503 106.197 627.612 107.095C627.735 108.257 627.22 108.445 626.16 108.438C620.196 108.402 614.231 108.438 608.267 108.438C606.482 108.438 606.474 108.438 606.474 110.23C606.474 112.023 606.532 113.605 606.474 115.31C606.424 116.319 606.786 116.551 607.73 116.551C613.905 116.515 620.065 116.551 626.24 116.508C627.314 116.508 627.692 116.747 627.612 117.865C627.514 118.931 627.514 120.005 627.612 121.072C627.692 122.03 627.321 122.233 626.429 122.226C620.385 122.226 614.333 122.226 608.288 122.226C606.228 122.226 606.518 122.088 606.511 124.004C606.511 125.695 606.561 127.378 606.511 129.084C606.46 130.092 606.837 130.346 607.788 130.339C613.876 130.303 619.964 130.339 626.052 130.295C627.249 130.295 627.793 130.535 627.633 131.841C627.532 132.784 627.532 133.735 627.633 134.678C627.721 135.68 627.314 135.919 626.378 135.919C620.414 135.883 614.449 135.919 608.484 135.919C606.257 135.919 606.54 135.796 606.532 137.813C606.532 139.453 606.583 141.101 606.532 142.748C606.482 143.757 606.866 143.982 607.817 143.974C613.941 143.974 620.073 143.974 626.204 143.931C627.43 143.931 627.779 144.301 627.655 145.462C627.547 146.402 627.547 147.352 627.655 148.292C627.8 149.504 627.263 149.693 626.204 149.686C620.196 149.642 614.195 149.649 608.187 149.686C606.46 149.686 606.561 149.33 606.554 151.34C606.554 152.987 606.612 154.635 606.554 156.275C606.503 157.341 606.823 157.682 607.933 157.675C614.101 157.624 620.268 157.675 626.443 157.632C627.459 157.632 627.742 157.944 627.677 158.894C627.594 159.962 627.594 161.034 627.677 162.102C627.771 163.169 627.278 163.299 626.385 163.292C621.451 163.292 616.51 163.292 611.575 163.292C610.262 163.292 608.941 163.336 607.628 163.292C606.808 163.256 606.547 163.546 606.561 164.344C606.561 166.318 606.612 168.292 606.561 170.266C606.561 171.224 606.91 171.434 607.795 171.427C613.963 171.427 620.131 171.427 626.306 171.427C627.372 171.427 627.757 171.659 627.684 172.777C627.594 173.803 627.594 174.835 627.684 175.861C627.764 176.877 627.35 177.109 626.407 177.102C620.363 177.065 614.311 177.102 608.267 177.102C606.583 177.102 606.583 177.102 606.576 178.749C606.569 180.396 606.627 182.203 606.576 183.93C606.532 184.881 606.881 185.091 607.78 185.084C613.948 185.084 620.116 185.084 626.291 185.033C627.452 185.033 627.793 185.367 627.699 186.485C627.615 187.552 627.615 188.625 627.699 189.692C627.757 190.577 627.409 190.788 626.567 190.781C620.399 190.781 614.231 190.781 608.056 190.744C606.968 190.744 606.511 190.977 606.605 192.196C606.699 194.039 606.67 195.897 606.605 197.747C606.605 198.611 606.873 198.865 607.73 198.857C613.905 198.857 620.065 198.857 626.24 198.821C627.452 198.821 627.837 199.177 627.692 200.352C627.604 201.296 627.604 202.246 627.692 203.19C627.771 204.177 627.423 204.445 626.443 204.438C620.276 204.394 614.108 204.438 607.933 204.402C607.468 204.377 607.004 204.456 606.573 204.633C606.143 204.809 605.757 205.08 605.444 205.425C603.1 207.856 600.735 210.258 598.304 212.602C597.952 212.936 597.679 213.345 597.504 213.798C597.33 214.251 597.259 214.737 597.295 215.221C597.295 221.266 597.295 227.311 597.295 233.363C597.295 234.51 597.049 235.04 595.844 234.909C594.9 234.818 593.95 234.818 593.007 234.909C591.875 235.025 591.65 234.546 591.657 233.501C591.701 227.456 591.657 221.404 591.701 215.359C591.701 214.264 591.468 213.814 590.249 213.908C588.443 214.01 586.621 213.988 584.822 213.908C583.82 213.872 583.574 214.242 583.581 215.185C583.581 221.23 583.581 227.282 583.581 233.327C583.581 234.909 583.581 234.909 581.956 234.916C581.085 234.916 580.221 234.851 579.365 234.916C578.255 235.018 577.914 234.662 577.914 233.465C577.972 227.456 577.914 221.448 577.972 215.446C577.972 214.198 577.682 213.77 576.412 213.857C574.816 213.973 573.205 213.857 571.601 213.857C569.997 213.857 569.976 213.857 569.976 215.425C569.976 221.433 569.976 227.442 569.976 233.443C569.976 234.488 569.78 234.96 568.633 234.858C567.566 234.771 566.493 234.771 565.426 234.858C564.497 234.924 564.251 234.583 564.258 233.668C564.258 227.703 564.258 221.738 564.258 215.773C564.258 215.403 564.258 215.047 564.258 214.663C564.258 214.075 564.047 213.857 563.467 213.864C561.326 213.864 559.186 213.864 557.052 213.864C556.065 213.864 556.189 214.525 556.189 215.134C556.189 221.179 556.153 227.231 556.189 233.276C556.189 234.503 555.92 235.025 554.629 234.873C553.771 234.771 552.904 234.771 552.046 234.873C550.79 235.025 550.551 234.488 550.594 233.342C550.645 227.297 550.594 221.252 550.645 215.2C550.645 214.06 550.275 213.814 549.245 213.85C547.474 213.922 545.704 213.93 543.94 213.85C542.859 213.799 542.533 214.126 542.54 215.229C542.591 221.317 542.54 227.406 542.591 233.494C542.591 234.583 542.315 234.945 541.212 234.866C540.144 234.786 539.072 234.786 538.005 234.866C537.127 234.916 536.909 234.568 536.909 233.719C536.945 227.631 536.909 221.542 536.909 215.454C536.909 213.864 536.909 213.864 535.291 213.864C533.564 213.864 531.83 213.915 530.103 213.864C529.13 213.828 528.847 214.147 528.855 215.12C528.898 221.208 528.855 227.297 528.905 233.385C528.905 234.575 528.615 235.018 527.411 234.895C526.426 234.804 525.435 234.804 524.45 234.895C523.442 234.974 523.209 234.575 523.217 233.625C523.217 227.536 523.217 221.448 523.267 215.359C523.267 214.14 522.89 213.821 521.729 213.908C519.922 213.995 518.101 213.966 516.301 213.908C515.387 213.908 515.119 214.169 515.119 215.098C515.162 221.266 515.119 227.435 515.162 233.61C515.162 234.619 514.93 235.025 513.871 234.931C512.886 234.844 511.895 234.844 510.91 234.931C509.836 235.025 509.459 234.684 509.502 233.574C509.546 227.522 509.502 221.477 509.546 215.432C509.546 214.235 509.227 213.85 508.037 213.915C506.345 214.007 504.649 214.007 502.957 213.915C501.804 213.857 501.412 214.176 501.426 215.367C501.492 221.332 501.426 227.297 501.426 233.262C501.426 234.887 501.426 234.887 499.808 234.895C498.858 234.895 497.907 234.837 496.971 234.895C496.035 234.953 495.788 234.604 495.795 233.697C495.795 228.059 495.708 222.42 495.868 216.789C495.953 215.807 495.8 214.819 495.421 213.909C495.042 212.999 494.448 212.195 493.691 211.564C491.449 209.576 489.403 207.362 487.306 205.214C487.058 204.945 486.754 204.733 486.416 204.593C486.077 204.454 485.712 204.391 485.346 204.409C482.263 204.445 479.179 204.409 476.088 204.409L476.059 204.358ZM513.573 191.499C513.597 190.781 513.475 190.066 513.216 189.395C512.957 188.725 512.565 188.114 512.065 187.599C511.564 187.084 510.965 186.674 510.303 186.395C509.641 186.117 508.929 185.974 508.211 185.977C506.779 185.949 505.396 186.491 504.363 187.483C503.331 188.475 502.734 189.835 502.703 191.267C502.678 192.716 503.223 194.116 504.22 195.167C505.218 196.218 506.589 196.834 508.037 196.884C508.756 196.901 509.471 196.775 510.14 196.512C510.81 196.25 511.421 195.856 511.936 195.355C512.452 194.853 512.862 194.254 513.143 193.592C513.424 192.93 513.57 192.218 513.573 191.499V191.499ZM621.357 103.881H618.766C615.936 103.881 615.98 103.881 615.98 106.725C615.98 107.596 616.314 107.734 617.061 107.727C619.318 107.691 621.582 107.727 623.838 107.727C626.632 107.727 626.603 107.727 626.581 104.94C626.581 104.156 626.393 103.837 625.544 103.881C624.15 103.932 622.75 103.881 621.357 103.881ZM582.529 228.603V226.034C582.529 223.189 582.529 223.218 579.692 223.284C578.966 223.284 578.792 223.552 578.799 224.22C578.799 226.549 578.799 228.886 578.799 231.223C578.799 234.002 578.799 233.966 581.607 233.929C582.42 233.929 582.558 233.617 582.536 232.921C582.5 231.469 582.529 230.033 582.529 228.603ZM527.832 78.8594V76.276C527.832 73.3152 527.832 73.3732 524.929 73.4676C524.349 73.4676 524.131 73.649 524.131 74.2295C524.131 77.2629 524.022 80.3035 524.189 83.3296C524.276 84.9841 525.727 83.7722 526.518 84.0552C526.975 84.2076 527.904 84.5051 527.875 83.3296C527.803 81.8129 527.832 80.3325 527.832 78.8594ZM555.217 78.8158V76.2324C555.217 73.3805 555.217 73.4095 552.358 73.4603C551.632 73.4603 551.48 73.7216 551.487 74.3892C551.487 76.6823 551.487 78.9827 551.487 81.2759C551.487 84.2221 551.487 84.1786 554.389 84.0915C555.035 84.0915 555.238 83.8956 555.217 83.2425C555.187 81.7693 555.217 80.2962 555.217 78.8158ZM551.501 228.603V231.194C551.501 234.096 551.501 234.096 554.404 233.908C554.984 233.871 555.209 233.719 555.209 233.131C555.209 230.083 555.362 227.028 555.137 224.002C555.021 222.42 553.475 223.61 552.633 223.327C552.191 223.182 551.392 223.03 551.487 224.053C551.487 224.3 551.487 224.546 551.487 224.779L551.501 228.603ZM582.529 78.8303V76.1163C582.529 73.4095 582.529 73.4458 579.801 73.4603C578.937 73.4603 578.785 73.7869 578.792 74.5488C578.835 76.8057 578.792 79.0698 578.792 81.3339C578.792 84.1931 578.792 84.1568 581.694 84.0988C582.42 84.0988 582.565 83.794 582.551 83.1481C582.507 81.7113 582.529 80.2744 582.529 78.8303V78.8303ZM524.116 228.603V231.186C524.116 233.973 524.116 233.944 526.881 233.915C527.607 233.915 527.868 233.675 527.853 232.928C527.853 230.635 527.853 228.342 527.853 226.049C527.853 223.146 527.853 223.146 524.893 223.276C524.305 223.276 524.124 223.48 524.167 224.053C524.138 225.57 524.116 227.086 524.116 228.603V228.603ZM471.494 107.749H474.078C476.893 107.749 476.864 107.749 476.828 104.846C476.828 104.12 476.603 103.873 475.848 103.888C473.591 103.932 471.335 103.888 469.078 103.888C466.038 103.888 466.059 103.888 466.176 106.892C466.176 107.553 466.422 107.741 467.046 107.727C468.541 107.683 470.014 107.705 471.494 107.749ZM471.494 135.049H474.07C476.922 135.049 476.893 135.049 476.828 132.197C476.828 131.471 476.559 131.297 475.899 131.311C473.606 131.311 471.313 131.311 469.013 131.311C466.045 131.311 466.074 131.311 466.19 134.214C466.19 134.889 466.473 135.034 467.068 135.02C468.541 134.998 470.014 135.012 471.494 135.012V135.049ZM621.321 131.319H618.737C615.907 131.319 615.936 131.319 615.987 134.185C615.987 134.911 616.256 135.07 616.916 135.063C619.253 135.063 621.589 135.063 623.926 135.063C626.632 135.063 626.632 135.063 626.56 132.335C626.56 132.255 626.56 132.168 626.56 132.088C626.625 131.478 626.306 131.319 625.754 131.326C624.274 131.297 622.801 131.282 621.321 131.282V131.319ZM471.523 162.407H474.114C476.893 162.407 476.857 162.407 476.828 159.627C476.828 158.836 476.552 158.669 475.826 158.677C473.526 158.713 471.226 158.677 468.918 158.677C466.125 158.677 466.161 158.677 466.19 161.478C466.19 162.305 466.509 162.428 467.206 162.407C468.643 162.378 470.079 162.407 471.523 162.407ZM621.197 162.407H623.904C626.697 162.407 626.676 162.407 626.574 159.577C626.574 158.851 626.335 158.655 625.638 158.669C623.345 158.669 621.052 158.669 618.759 158.669C615.82 158.669 615.857 158.669 615.995 161.645C615.995 162.225 616.19 162.421 616.771 162.37C618.244 162.392 619.724 162.414 621.197 162.414V162.407ZM471.494 199.757H468.918C466.125 199.757 466.161 199.757 466.19 202.529C466.19 203.291 466.43 203.509 467.177 203.494C469.47 203.451 471.763 203.494 474.056 203.494C476.995 203.494 476.958 203.494 476.82 200.534C476.784 199.953 476.625 199.757 476.044 199.765C474.527 199.786 473.011 199.765 471.494 199.757ZM621.219 203.48H623.926C626.632 203.48 626.589 203.48 626.581 200.744C626.581 199.866 626.24 199.735 625.5 199.75C623.243 199.75 620.987 199.75 618.73 199.75C615.828 199.75 615.828 199.75 615.995 202.733C615.995 203.335 616.227 203.495 616.793 203.458C618.266 203.458 619.746 203.48 621.219 203.48ZM621.219 176.122H623.918C626.668 176.122 626.639 176.122 626.596 173.314C626.596 172.552 626.349 172.341 625.609 172.356C623.36 172.392 621.103 172.356 618.853 172.356C615.842 172.356 615.857 172.356 616.016 175.36C616.016 175.933 616.198 176.144 616.793 176.129C618.244 176.1 619.717 176.122 621.197 176.122H621.219ZM500.497 78.8811V76.1816C500.497 73.395 500.497 73.4386 497.711 73.4603C496.884 73.4603 496.797 73.7869 496.804 74.4763C496.804 76.7767 496.804 79.0771 496.804 81.3775C496.804 84.1713 496.804 84.1351 499.576 84.0988C500.389 84.0988 500.519 83.7722 500.497 83.0828C500.447 81.6823 500.476 80.289 500.476 78.8884L500.497 78.8811ZM510.417 78.7578V81.3484C510.417 84.1713 510.417 84.1423 513.319 84.0843C514.009 84.0843 514.233 83.8956 514.219 83.1844C514.219 80.884 514.219 78.5836 514.219 76.2832C514.219 73.3225 514.219 73.3442 511.316 73.4603C510.671 73.4603 510.46 73.6853 510.475 74.3239C510.417 75.8188 510.395 77.2701 510.395 78.765L510.417 78.7578ZM537.816 78.6417V81.3557C537.816 84.1278 537.816 84.0915 540.566 84.0915C541.357 84.0915 541.524 83.8375 541.51 83.1046C541.466 80.8042 541.51 78.5038 541.51 76.2034C541.51 73.3007 541.51 73.3587 538.607 73.4531C537.939 73.4531 537.78 73.7071 537.794 74.3239C537.816 75.768 537.794 77.2121 537.794 78.6489L537.816 78.6417ZM568.865 78.7578V76.1816C568.865 73.395 568.865 73.424 566.072 73.4676C565.346 73.4676 565.157 73.6635 565.172 74.3674C565.172 76.7114 565.172 79.048 565.172 81.392C565.172 84.1713 565.172 84.1278 567.937 84.0988C568.757 84.0988 568.887 83.7795 568.865 83.0828C568.815 81.6242 568.844 80.1728 568.844 78.765L568.865 78.7578ZM592.586 78.7578C592.586 80.2091 592.586 81.7185 592.586 83.1989C592.586 83.511 592.383 84.0189 592.985 84.0407C593.928 84.0407 594.872 84.0407 595.815 84.0407C596.316 84.0407 596.25 83.6561 596.258 83.315C596.258 80.2769 596.258 77.2363 596.258 74.1933C596.258 73.9248 596.352 73.5184 595.96 73.4676C594.935 73.4095 593.908 73.4095 592.883 73.4676C592.419 73.4676 592.6 73.9828 592.593 74.2731C592.557 75.8188 592.564 77.2701 592.564 78.7796L592.586 78.7578ZM541.488 228.683V225.969C541.488 223.117 541.488 223.139 538.585 223.255C537.91 223.255 537.773 223.516 537.78 224.126C537.78 226.469 537.78 228.813 537.78 231.157C537.78 233.951 537.78 233.929 540.559 233.886C541.241 233.886 541.495 233.719 541.466 232.993C541.43 231.578 541.466 230.141 541.466 228.705L541.488 228.683ZM621.197 121.348H623.904C626.676 121.348 626.647 121.348 626.574 118.525C626.574 117.836 626.349 117.618 625.653 117.625C623.36 117.669 621.059 117.625 618.759 117.625C615.857 117.625 615.857 117.625 615.995 120.571C615.995 121.152 616.176 121.355 616.764 121.341C618.237 121.326 619.717 121.348 621.197 121.348ZM500.476 228.567V225.976C500.476 223.211 500.476 223.24 497.675 223.276C496.993 223.276 496.768 223.458 496.782 224.162C496.782 226.506 496.782 228.85 496.782 231.186C496.782 234.002 496.782 233.973 499.561 233.908C500.243 233.908 500.497 233.712 500.468 233.001C500.439 231.527 500.468 230.047 500.476 228.567ZM471.451 176.122H474.041C476.813 176.122 476.784 176.122 476.791 173.386C476.791 172.602 476.61 172.319 475.783 172.341C473.519 172.399 471.262 172.341 469.006 172.341C466.03 172.341 466.052 172.341 466.168 175.244C466.168 175.875 466.357 176.107 467.017 176.086C468.519 176.093 470 176.122 471.48 176.122H471.451ZM514.125 228.48V226.034C514.125 223.197 514.125 223.226 511.222 223.298C510.496 223.298 510.322 223.523 510.33 224.213C510.33 226.513 510.33 228.813 510.33 231.114C510.33 234.082 510.33 234.016 513.232 233.922C513.892 233.922 514.074 233.675 514.067 233.059C514.125 231.52 514.125 229.996 514.125 228.48ZM471.545 189.75H474.136C476.9 189.75 476.857 189.75 476.828 186.971C476.828 186.136 476.479 186.056 475.805 186.064C473.497 186.064 471.197 186.064 468.897 186.064C466.03 186.064 466.052 186.064 466.197 188.966C466.197 189.569 466.408 189.736 466.981 189.728C468.505 189.707 470.021 189.75 471.545 189.75ZM592.564 228.632V231.223C592.564 234.016 592.564 233.987 595.372 233.908C596.098 233.908 596.265 233.632 596.258 232.964C596.258 230.664 596.258 228.363 596.258 226.063C596.258 223.11 596.258 223.16 593.304 223.276C592.688 223.276 592.579 223.516 592.579 224.075C592.579 225.591 592.564 227.115 592.564 228.632ZM471.487 121.348H474.07C476.893 121.348 476.871 121.348 476.82 118.51C476.82 117.785 476.61 117.618 475.913 117.632C473.62 117.676 471.32 117.632 469.02 117.632C466.074 117.632 466.118 117.632 466.19 120.535C466.19 121.217 466.444 121.37 467.054 121.355C468.534 121.326 470.007 121.348 471.487 121.348ZM621.226 189.75H623.933C626.661 189.75 626.632 189.75 626.574 187C626.574 186.223 626.298 186.035 625.565 186.049C623.309 186.093 621.045 186.049 618.788 186.049C615.828 186.049 615.886 186.049 615.995 188.988C615.995 189.598 616.212 189.757 616.785 189.714C618.266 189.707 619.746 189.75 621.226 189.75ZM621.226 145.063C619.775 145.063 618.266 145.114 616.785 145.063C615.944 145.027 615.849 145.52 616.06 146.05C616.35 146.942 615.182 148.546 616.706 148.684C619.724 148.96 622.786 148.771 625.827 148.764C626.102 148.764 626.494 148.836 626.552 148.445C626.61 147.42 626.61 146.393 626.552 145.368C626.552 144.932 626.023 145.099 625.725 145.092C624.201 145.034 622.721 145.048 621.241 145.041L621.226 145.063ZM471.48 148.749H474.07C476.915 148.749 476.893 148.749 476.806 145.847C476.806 145.179 476.581 145.034 475.957 145.041C473.613 145.041 471.269 145.041 468.933 145.041C466.03 145.041 466.03 145.041 466.183 147.9C466.183 148.561 466.415 148.749 467.046 148.735C468.534 148.706 470.014 148.728 471.494 148.728L471.48 148.749ZM565.15 228.501V231.215C565.15 234.024 565.15 233.987 567.922 233.929C568.728 233.929 568.858 233.603 568.844 232.906C568.844 230.606 568.844 228.305 568.844 225.998C568.844 223.226 568.844 223.247 566.057 223.298C565.375 223.298 565.128 223.472 565.15 224.184C565.201 225.599 565.165 227.043 565.165 228.48L565.15 228.501ZM482.117 107.749H483.569C486.522 107.749 486.507 107.749 486.355 104.752C486.355 104.106 486.116 103.895 485.484 103.91C483.924 103.91 482.364 103.91 480.797 103.91C477.807 103.91 477.822 103.91 477.989 106.965C477.989 107.545 478.17 107.77 478.765 107.749C479.904 107.683 481.015 107.749 482.117 107.749ZM610.589 107.749H611.938C614.942 107.749 614.921 107.749 614.841 104.737C614.841 104.091 614.616 103.888 613.985 103.903C612.381 103.903 610.777 103.903 609.181 103.903C606.387 103.903 606.387 103.903 606.489 106.718C606.489 106.805 606.489 106.885 606.489 106.965C606.431 107.574 606.736 107.749 607.302 107.734C608.368 107.691 609.478 107.705 610.589 107.705V107.749ZM551.509 89.476V91.058C551.509 93.8809 551.509 93.8591 554.411 93.685C555.035 93.6414 555.282 93.46 555.267 92.8142C555.267 91.2612 555.267 89.7083 555.267 88.1481C555.267 85.2453 555.267 85.2453 552.365 85.3179C551.726 85.3179 551.494 85.4921 551.523 86.1452C551.545 87.2192 551.509 88.3295 551.509 89.4325V89.476ZM582.529 89.476V88.0247C582.529 85.2018 582.529 85.2236 579.626 85.3252C579.01 85.3252 578.77 85.5066 578.777 86.1597C578.777 88.3367 578.777 90.5791 578.777 92.7924C578.777 93.0972 578.676 93.5689 579.104 93.6051C580.124 93.6705 581.146 93.6705 582.166 93.6051C582.609 93.6051 582.478 93.0972 582.485 92.7924C582.536 91.6748 582.529 90.5718 582.529 89.4615V89.476ZM482.067 135.012C483.213 135.012 484.367 135.012 485.513 135.012C485.811 135.012 486.29 135.143 486.312 134.686C486.37 133.666 486.37 132.643 486.312 131.623C486.312 131.253 485.891 131.297 485.586 131.297H478.7C478.431 131.297 478.047 131.239 478.032 131.645C478.032 132.668 478.032 133.692 478.032 134.715C478.032 135.128 478.46 135.02 478.714 135.02C479.854 135.02 480.964 135.012 482.067 135.012ZM482.146 176.122C483.293 176.122 484.447 176.086 485.593 176.122C486.58 176.165 486.464 175.44 486.319 174.961C486.072 174.097 487.168 172.595 485.659 172.421C483.32 172.271 480.975 172.252 478.635 172.363C478.264 172.363 478.076 172.465 478.01 172.907C477.575 175.81 477.844 176.115 480.659 176.115L482.146 176.122ZM610.618 176.122C611.764 176.122 612.911 176.078 614.057 176.122C614.826 176.165 614.906 175.694 614.783 175.208C614.514 174.264 615.566 172.653 614.159 172.443C611.873 172.102 609.507 172.356 607.171 172.334C606.503 172.334 606.387 172.733 606.489 173.197C606.692 174.163 605.93 175.295 606.968 176.1C607.098 176.202 607.367 176.1 607.57 176.1L610.618 176.122ZM610.618 199.757H609.166C606.358 199.757 606.38 199.757 606.482 202.595C606.482 203.277 606.714 203.524 607.41 203.502C608.97 203.458 610.523 203.502 612.083 203.502C614.986 203.502 614.986 203.502 614.848 200.548C614.848 199.968 614.674 199.75 614.079 199.765C612.882 199.786 611.735 199.757 610.589 199.757H610.618ZM610.683 162.414H614.122C614.529 162.414 614.848 162.37 614.848 161.833C614.848 160.97 614.848 160.113 614.848 159.25C614.848 158.829 614.652 158.684 614.246 158.684C611.916 158.684 609.566 158.532 607.251 158.742C605.698 158.88 606.779 160.317 606.525 161.137C606.402 161.594 606.162 162.472 607.251 162.414C607.454 162.414 607.657 162.414 607.868 162.414H610.683ZM482.125 203.48H483.576C486.58 203.48 486.558 203.48 486.355 200.505C486.312 199.895 486.087 199.743 485.542 199.779C483.946 199.779 482.342 199.779 480.746 199.779C477.844 199.779 477.844 199.779 477.996 202.747C477.996 203.335 478.206 203.524 478.787 203.509C479.912 203.458 481.015 203.48 482.125 203.48ZM482.067 162.414C483.213 162.414 484.36 162.414 485.506 162.414C485.811 162.414 486.283 162.537 486.312 162.087C486.37 161.064 486.355 160.041 486.312 159.018C486.312 158.633 485.898 158.698 485.622 158.698C483.329 158.698 481.036 158.698 478.743 158.698C478.475 158.698 478.083 158.626 478.068 159.032C478.068 160.048 478.025 161.079 478.068 162.095C478.068 162.501 478.497 162.399 478.794 162.399C479.854 162.414 480.964 162.407 482.067 162.414V162.414ZM510.366 89.418V90.8693C510.366 93.8736 510.366 93.8519 513.377 93.6197C513.987 93.5689 514.103 93.3439 514.103 92.7924C514.103 91.2322 514.103 89.672 514.103 88.1118C514.103 85.0639 514.103 85.0784 511.092 85.2598C510.496 85.2598 510.308 85.4776 510.322 86.0581C510.417 87.1974 510.395 88.3077 510.395 89.418H510.366ZM527.781 89.5051V88.0537C527.781 85.2308 527.781 85.2599 524.922 85.3034C524.196 85.3034 524.044 85.5864 524.058 86.2323C524.058 87.9957 524.058 89.7518 524.058 91.5152C524.058 93.6922 524.058 93.6124 526.286 93.6922C527.425 93.7285 527.948 93.4673 527.795 92.2409C527.753 91.3291 527.762 90.4157 527.824 89.5051H527.781ZM610.502 135.012H611.953C614.797 135.012 614.761 135.012 614.725 132.182C614.725 131.362 614.405 131.246 613.709 131.268C612.149 131.311 610.596 131.268 609.036 131.268C606.133 131.268 606.17 131.268 606.358 134.229C606.358 134.816 606.576 135.02 607.156 135.005C608.339 134.991 609.449 135.012 610.552 135.012H610.502ZM555.231 217.935C555.231 216.832 555.231 215.758 555.231 214.612C555.231 214.133 555.137 213.734 554.571 213.85C553.555 214.053 552.394 213.306 551.516 214.271C551.451 214.336 551.516 214.51 551.516 214.634C551.516 216.854 551.516 219.075 551.516 221.288C551.516 221.854 551.675 222.05 552.241 222.079C555.209 222.231 555.209 222.253 555.209 219.292C555.224 218.843 555.231 218.393 555.231 217.935ZM582.529 217.935V216.484C582.529 213.712 582.529 213.741 579.713 213.821C579.024 213.821 578.785 214.031 578.799 214.735C578.799 216.666 578.879 218.603 578.799 220.541C578.734 221.731 579.002 222.181 580.316 222.108C582.536 221.978 582.543 222.072 582.543 219.822L582.529 217.935ZM524.109 217.848C524.109 219.002 524.109 220.156 524.109 221.303C524.109 222.028 524.53 222.173 525.038 222.028C525.952 221.745 527.541 222.841 527.745 221.448C528.078 219.147 527.824 216.774 527.839 214.43C527.839 213.705 527.309 213.748 526.896 213.835C525.974 214.024 524.893 213.277 524.138 214.3C524.037 214.43 524.138 214.699 524.138 214.909L524.109 217.848ZM482.197 117.647H480.746C477.938 117.647 477.967 117.647 478.025 120.499C478.025 121.224 478.293 121.377 478.954 121.362C480.514 121.319 482.074 121.362 483.627 121.362C486.529 121.362 486.486 121.362 486.384 118.46C486.384 117.843 486.217 117.582 485.55 117.611C484.432 117.676 483.329 117.647 482.197 117.647ZM596.243 89.389V88.0319C596.243 85.18 596.243 85.2091 593.341 85.2889C592.68 85.2889 592.506 85.4921 592.521 86.1307C592.564 87.7344 592.521 89.3382 592.521 90.9419C592.521 93.8882 592.521 93.8446 595.423 93.6559C596.011 93.6124 596.207 93.4165 596.192 92.8432C596.221 91.6894 596.243 90.5355 596.243 89.389ZM568.844 89.4978V88.0465C568.844 85.2744 568.844 85.3179 566.079 85.3179C565.266 85.3179 565.128 85.5864 565.15 86.3048C565.201 87.9521 565.15 89.5994 565.15 91.2467C565.15 93.6995 565.15 93.6632 567.596 93.6995C568.517 93.6995 568.96 93.5326 568.858 92.4876C568.757 91.4426 568.851 90.4847 568.844 89.4978ZM610.632 145.041H609.029C606.365 145.041 606.395 145.041 606.416 147.683C606.416 148.459 606.598 148.778 607.439 148.749C609 148.684 610.567 148.749 612.127 148.749C614.812 148.749 614.79 148.749 614.775 146.028C614.775 145.302 614.645 144.99 613.839 145.048C612.809 145.099 611.728 145.041 610.632 145.041ZM541.451 89.4978V88.0465C541.451 85.1945 541.451 85.2236 538.549 85.3179C537.881 85.3179 537.715 85.5429 537.729 86.1742C537.729 87.8578 537.729 89.5414 537.729 91.254C537.729 93.714 537.729 93.685 540.174 93.7067C541.081 93.7067 541.539 93.5543 541.43 92.5021C541.392 91.5006 541.406 90.4978 541.473 89.4978H541.451ZM482.197 145.041C481.051 145.041 479.897 145.041 478.743 145.041C478.228 145.041 477.909 145.179 478.018 145.723C478.264 146.71 477.408 147.9 478.497 148.72C478.497 148.72 478.576 148.72 478.62 148.72C480.964 148.72 483.307 148.72 485.651 148.72C486.377 148.72 486.377 148.285 486.319 147.835C486.123 146.906 486.87 145.818 485.862 145.048C485.731 144.947 485.463 145.048 485.252 145.048L482.197 145.041ZM500.476 89.3817V88.0247C500.476 85.18 500.476 85.2091 497.573 85.2889C496.906 85.2889 496.746 85.5211 496.76 86.1379C496.76 87.7417 496.76 89.3454 496.76 90.9492C496.76 93.9027 496.76 93.8519 499.663 93.6487C500.243 93.5979 500.454 93.4237 500.432 92.8359C500.447 91.6894 500.476 90.5355 500.476 89.3817ZM610.668 117.647H609.217C606.315 117.647 606.366 117.647 606.46 120.506C606.46 121.232 606.779 121.37 607.418 121.362C609.021 121.362 610.618 121.362 612.221 121.362C614.826 121.362 614.79 121.362 614.819 118.743C614.819 117.923 614.681 117.567 613.767 117.64C612.853 117.712 611.699 117.647 610.668 117.647V117.647ZM610.531 189.75C611.721 189.75 612.918 189.75 614.108 189.75C615.058 189.75 614.877 189.024 614.746 188.662C614.478 187.805 615.61 186.303 614.122 186.129C611.787 185.973 609.444 185.951 607.106 186.064C606.859 186.064 606.525 186.064 606.511 186.354C606.474 187.377 606.445 188.408 606.511 189.431C606.511 189.874 607.019 189.736 607.323 189.736C608.39 189.75 609.464 189.75 610.531 189.75ZM482.292 186.064H480.84C477.88 186.064 477.902 186.064 478.047 189.003C478.047 189.612 478.272 189.765 478.838 189.728C481.102 189.728 483.366 189.728 485.622 189.728C485.934 189.728 486.348 189.83 486.348 189.322C486.348 188.379 486.348 187.435 486.348 186.485C486.348 186.013 485.956 186.049 485.622 186.042L482.292 186.064ZM496.804 217.885C496.804 219.039 496.804 220.185 496.804 221.332C496.768 222.057 497.16 222.231 497.697 222.057C498.611 221.774 500.2 222.856 500.396 221.491C500.722 219.171 500.722 216.816 500.396 214.496C500.193 213.008 498.618 214.184 497.718 213.879C497.254 213.719 496.695 213.77 496.797 214.554C496.808 214.718 496.808 214.883 496.797 215.047C496.797 215.976 496.797 216.92 496.79 217.863L496.804 217.885ZM537.809 218.001V219.358C537.809 222.195 537.809 222.173 540.661 222.101C541.285 222.101 541.524 221.948 541.502 221.281C541.451 219.684 541.502 218.081 541.502 216.484C541.502 213.705 541.502 213.727 538.672 213.835C538.063 213.835 537.787 214.017 537.809 214.684C537.831 215.766 537.794 216.876 537.794 217.979L537.809 218.001ZM565.179 217.957V219.307C565.179 222.253 565.179 222.253 568.082 222.086H568.198C568.67 222.137 568.858 221.934 568.858 221.455C568.858 219.162 568.858 216.864 568.858 214.561C568.858 214.133 568.757 213.922 568.263 213.835C565.404 213.429 565.172 213.61 565.172 216.462L565.179 217.957ZM510.409 218.008V219.365C510.409 222.268 510.409 222.268 513.399 222.101C513.987 222.101 514.183 221.898 514.175 221.317C514.175 219.764 514.175 218.204 514.175 216.651C514.175 213.698 514.175 213.748 511.273 213.85C510.649 213.85 510.402 214.046 510.424 214.692C510.424 215.773 510.395 216.883 510.395 217.986L510.409 218.008ZM596.25 217.914C596.25 216.811 596.25 215.737 596.25 214.597C596.25 214.329 596.345 213.93 595.946 213.908C594.92 213.864 593.897 213.864 592.876 213.908C592.463 213.908 592.586 214.336 592.586 214.597C592.586 216.854 592.586 219.104 592.586 221.361C592.586 221.622 592.463 222.028 592.876 222.086C593.899 222.086 594.922 222.086 595.946 222.086C596.359 222.086 596.25 221.665 596.25 221.404C596.243 220.229 596.243 219.046 596.236 217.892L596.25 217.914Z" fill="#232021"/>
<path d="M513.573 191.499C513.57 192.218 513.424 192.93 513.143 193.592C512.862 194.254 512.451 194.853 511.936 195.355C511.42 195.856 510.81 196.25 510.14 196.512C509.471 196.775 508.755 196.901 508.036 196.884C506.588 196.834 505.218 196.218 504.22 195.167C503.222 194.116 502.677 192.716 502.703 191.267C502.733 189.835 503.33 188.475 504.363 187.483C505.395 186.491 506.779 185.949 508.21 185.977C508.929 185.974 509.64 186.117 510.303 186.396C510.965 186.674 511.564 187.084 512.064 187.599C512.565 188.114 512.956 188.725 513.216 189.396C513.475 190.066 513.596 190.781 513.573 191.499Z" fill="#6D6D6E"/>
<path d="M621.357 103.881C622.75 103.881 624.151 103.932 625.544 103.881C626.393 103.837 626.574 104.156 626.581 104.94C626.581 107.727 626.632 107.727 623.839 107.727C621.582 107.727 619.318 107.727 617.061 107.727C616.336 107.727 615.987 107.596 615.98 106.725C615.98 103.881 615.937 103.881 618.766 103.881H621.357Z" fill="#C8C9CB"/>
<path d="M582.529 228.603C582.529 230.054 582.529 231.469 582.529 232.906C582.529 233.632 582.413 233.908 581.6 233.915C578.792 233.951 578.792 233.987 578.792 231.208C578.792 228.871 578.792 226.535 578.792 224.205C578.792 223.538 578.959 223.291 579.684 223.269C582.522 223.204 582.522 223.175 582.522 226.02L582.529 228.603Z" fill="#CCCECF"/>
<path d="M527.831 78.8594C527.831 80.3107 527.831 81.8129 527.831 83.286C527.831 84.4761 526.931 84.1786 526.474 84.0117C525.683 83.7577 524.232 84.9696 524.145 83.286C523.978 80.2599 524.102 77.2194 524.087 74.186C524.087 73.6055 524.305 73.4603 524.885 73.4241C527.788 73.2934 527.788 73.2717 527.788 76.2324V78.8158L527.831 78.8594Z" fill="#CCCDCF"/>
<path d="M555.216 78.8158C555.216 80.2672 555.216 81.7693 555.216 83.2425C555.216 83.8956 555.035 84.0697 554.389 84.0915C551.487 84.2003 551.487 84.2221 551.487 81.2759C551.487 78.9827 551.487 76.6823 551.487 74.3892C551.487 73.7216 551.632 73.4748 552.358 73.4603C555.216 73.4095 555.216 73.3805 555.216 76.2324V78.8158V78.8158Z" fill="#CCCDCF"/>
<path d="M551.501 228.603V224.779C551.501 224.532 551.501 224.285 551.501 224.053C551.407 223.044 552.227 223.197 552.648 223.327C553.489 223.61 555.035 222.42 555.151 224.002C555.376 227.028 555.209 230.083 555.224 233.131C555.224 233.719 554.999 233.857 554.418 233.908C551.516 234.067 551.516 234.082 551.516 231.194L551.501 228.603Z" fill="#CCCDCF"/>
<path d="M582.529 78.8304C582.529 80.2818 582.529 81.7331 582.529 83.1482C582.529 83.7941 582.427 84.0843 581.673 84.0988C578.77 84.1569 578.77 84.1932 578.77 81.334C578.77 79.0699 578.77 76.8058 578.77 74.5489C578.77 73.7869 578.915 73.4677 579.779 73.4604C582.507 73.4604 582.507 73.4096 582.507 76.1164L582.529 78.8304Z" fill="#CCCECF"/>
<path d="M524.116 228.603C524.116 227.086 524.116 225.57 524.116 224.053C524.116 223.48 524.283 223.327 524.842 223.276C527.802 223.131 527.802 223.11 527.802 226.049C527.802 228.342 527.802 230.635 527.802 232.928C527.802 233.654 527.592 233.9 526.83 233.915C524.065 233.915 524.065 233.973 524.065 231.186V228.603H524.116Z" fill="#CCCDCF"/>
<path d="M471.494 107.749C470.043 107.749 468.541 107.749 467.061 107.749C466.437 107.749 466.219 107.574 466.19 106.914C466.06 103.91 466.038 103.91 469.093 103.91C471.349 103.91 473.606 103.946 475.863 103.91C476.588 103.91 476.828 104.113 476.842 104.868C476.842 107.77 476.908 107.77 474.092 107.77L471.494 107.749Z" fill="#C9CACC"/>
<path d="M471.494 135.012C470.043 135.012 468.541 135.012 467.068 135.012C466.473 135.012 466.211 134.882 466.19 134.207C466.074 131.304 466.045 131.304 469.012 131.304C471.313 131.304 473.606 131.304 475.899 131.304C476.559 131.304 476.806 131.471 476.827 132.189C476.893 135.041 476.922 135.041 474.07 135.041L471.494 135.012Z" fill="#CCCDCF"/>
<path d="M621.32 131.282C622.772 131.282 624.274 131.282 625.754 131.282C626.305 131.282 626.625 131.435 626.559 132.044C626.559 132.124 626.559 132.211 626.559 132.291C626.632 135.02 626.632 135.02 623.925 135.02C621.589 135.02 619.252 135.02 616.916 135.02C616.256 135.02 616.002 134.867 615.987 134.141C615.936 131.275 615.907 131.275 618.737 131.275L621.32 131.282Z" fill="#CCCCCF"/>
<path d="M471.523 162.407C470.072 162.407 468.621 162.407 467.206 162.407C466.48 162.407 466.197 162.305 466.19 161.478C466.19 158.677 466.125 158.677 468.918 158.677C471.226 158.677 473.526 158.677 475.826 158.677C476.552 158.677 476.82 158.836 476.828 159.627C476.828 162.407 476.893 162.407 474.114 162.407H471.523Z" fill="#CCCECF"/>
<path d="M621.197 162.414C619.746 162.414 618.244 162.414 616.771 162.414C616.19 162.414 616.045 162.233 615.994 161.688C615.842 158.713 615.82 158.713 618.759 158.713C621.052 158.713 623.345 158.713 625.638 158.713C626.363 158.713 626.552 158.923 626.574 159.62C626.675 162.45 626.697 162.45 623.903 162.45L621.197 162.414Z" fill="#CCCCCF"/>
<path d="M471.494 199.765C473.011 199.765 474.527 199.765 476.044 199.765C476.625 199.765 476.77 199.953 476.82 200.534C476.98 203.495 476.995 203.495 474.056 203.495C471.763 203.495 469.47 203.495 467.177 203.495C466.451 203.495 466.197 203.291 466.19 202.529C466.19 199.757 466.125 199.757 468.918 199.757L471.494 199.765Z" fill="#CCCDCF"/>
<path d="M621.219 203.48C619.768 203.48 618.266 203.48 616.793 203.48C616.227 203.48 616.023 203.335 615.994 202.754C615.82 199.772 615.799 199.779 618.73 199.772C620.987 199.772 623.243 199.772 625.5 199.772C626.226 199.772 626.581 199.888 626.581 200.766C626.581 203.502 626.632 203.502 623.925 203.502L621.219 203.48Z" fill="#CCCCCF"/>
<path d="M621.197 176.122C619.746 176.122 618.244 176.122 616.771 176.122C616.176 176.122 616.045 175.926 615.994 175.353C615.835 172.348 615.82 172.348 618.832 172.348C621.081 172.348 623.338 172.348 625.587 172.348C626.313 172.348 626.567 172.544 626.574 173.306C626.618 176.115 626.647 176.115 623.897 176.115L621.197 176.122Z" fill="#CECFD0"/>
<path d="M500.476 78.8884C500.476 80.289 500.476 81.6823 500.476 83.0828C500.476 83.8085 500.367 84.0915 499.554 84.0988C496.782 84.1351 496.782 84.1713 496.782 81.3775C496.782 79.0771 496.782 76.7767 496.782 74.4763C496.782 73.7506 496.862 73.4676 497.689 73.4603C500.476 73.4603 500.476 73.395 500.476 76.1816V78.8884Z" fill="#CED0D1"/>
<path d="M510.395 78.7651C510.395 77.3137 510.395 75.8043 510.395 74.3312C510.395 73.6926 510.591 73.4967 511.237 73.4676C514.139 73.3515 514.139 73.3298 514.139 76.2905C514.139 78.5909 514.139 80.8913 514.139 83.1917C514.139 83.9174 513.929 84.077 513.239 84.0916C510.337 84.1496 510.337 84.1787 510.337 81.3558L510.395 78.7651Z" fill="#CED0D1"/>
<path d="M537.794 78.6489C537.794 77.1975 537.794 75.7462 537.794 74.2948C537.794 73.678 537.94 73.4458 538.607 73.424C541.51 73.3297 541.51 73.3007 541.51 76.1744C541.51 78.4747 541.51 80.7751 541.51 83.0755C541.51 83.8012 541.357 84.0625 540.566 84.0625C537.816 84.0625 537.816 84.0987 537.816 81.3266L537.794 78.6489Z" fill="#CFCFD1"/>
<path d="M568.843 78.7651C568.843 80.2164 568.843 81.6678 568.843 83.0828C568.843 83.8085 568.735 84.0915 567.915 84.0988C565.15 84.0988 565.15 84.1713 565.15 81.392C565.15 79.0481 565.15 76.7114 565.15 74.3674C565.15 73.6418 565.353 73.4821 566.05 73.4676C568.843 73.4241 568.843 73.395 568.843 76.1816V78.7651Z" fill="#CED0D1"/>
<path d="M592.564 78.7796C592.564 77.3282 592.564 75.8188 592.564 74.3384C592.564 74.0482 592.39 73.5547 592.854 73.5329C593.879 73.4749 594.906 73.4749 595.931 73.5329C596.323 73.5329 596.229 73.9611 596.229 74.2586C596.229 77.2968 596.229 80.3374 596.229 83.3804C596.229 83.7069 596.287 84.106 595.786 84.106C594.843 84.106 593.899 84.106 592.956 84.106C592.354 84.106 592.557 83.5763 592.557 83.2643C592.557 81.8129 592.557 80.3035 592.557 78.8231L592.564 78.7796Z" fill="#CED0D1"/>
<path d="M541.466 228.705C541.466 230.156 541.466 231.607 541.466 233.015C541.466 233.741 541.241 233.893 540.559 233.908C537.78 233.951 537.78 233.973 537.78 231.179C537.78 228.835 537.78 226.491 537.78 224.147C537.78 223.538 537.91 223.306 538.585 223.277C541.488 223.16 541.488 223.139 541.488 225.991V228.705H541.466Z" fill="#CFCFD1"/>
<path d="M621.197 121.348C619.746 121.348 618.236 121.348 616.763 121.348C616.176 121.348 616.038 121.159 615.994 120.579C615.864 117.632 615.842 117.632 618.759 117.632C621.059 117.632 623.359 117.632 625.652 117.632C626.378 117.632 626.552 117.843 626.574 118.532C626.646 121.355 626.675 121.355 623.903 121.355L621.197 121.348Z" fill="#CFD0D2"/>
<path d="M500.468 228.567C500.468 230.018 500.468 231.528 500.468 233.001C500.468 233.726 500.243 233.893 499.561 233.908C496.782 233.973 496.782 234.002 496.782 231.186C496.782 228.85 496.782 226.506 496.782 224.162C496.782 223.436 496.993 223.284 497.675 223.277C500.476 223.24 500.476 223.211 500.476 225.976C500.476 226.84 500.476 227.703 500.468 228.567Z" fill="#CED0D1"/>
<path d="M471.479 176.122C470.028 176.122 468.519 176.122 467.046 176.122C466.386 176.122 466.219 175.911 466.197 175.28C466.081 172.377 466.059 172.377 469.034 172.377C471.291 172.377 473.547 172.377 475.811 172.377C476.639 172.377 476.827 172.639 476.82 173.422C476.82 176.158 476.82 176.158 474.07 176.158L471.479 176.122Z" fill="#CFCFD1"/>
<path d="M514.125 228.48C514.125 229.996 514.125 231.52 514.125 233.037C514.125 233.654 513.95 233.871 513.29 233.9C510.388 234.031 510.388 234.06 510.388 231.092C510.388 228.792 510.388 226.491 510.388 224.191C510.388 223.502 510.576 223.298 511.28 223.277C514.183 223.204 514.183 223.175 514.183 226.012V228.48H514.125Z" fill="#CED0D1"/>
<path d="M471.545 189.75C470.021 189.75 468.505 189.75 466.981 189.75C466.408 189.75 466.255 189.591 466.197 188.988C466.052 186.086 466.03 186.086 468.897 186.086C471.197 186.086 473.497 186.086 475.805 186.086C476.479 186.086 476.813 186.158 476.828 186.993C476.828 189.779 476.9 189.772 474.136 189.772L471.545 189.75Z" fill="#CED0D1"/>
<path d="M592.564 228.632C592.564 227.115 592.564 225.591 592.564 224.075C592.564 223.516 592.688 223.306 593.29 223.277C596.243 223.131 596.243 223.11 596.243 226.063C596.243 228.364 596.243 230.664 596.243 232.964C596.243 233.632 596.084 233.886 595.358 233.908C592.55 233.988 592.55 234.017 592.55 231.223L592.564 228.632Z" fill="#CED0D1"/>
<path d="M471.487 121.348C470.036 121.348 468.534 121.348 467.053 121.348C466.444 121.348 466.212 121.21 466.19 120.528C466.103 117.625 466.074 117.625 469.02 117.625C471.32 117.625 473.62 117.625 475.913 117.625C476.639 117.625 476.806 117.799 476.82 118.503C476.871 121.341 476.893 121.341 474.07 121.341L471.487 121.348Z" fill="#D1D2D3"/>
<path d="M621.226 189.75C619.775 189.75 618.266 189.75 616.786 189.75C616.212 189.75 616.024 189.605 615.995 189.025C615.849 186.086 615.828 186.086 618.788 186.086C621.045 186.086 623.309 186.086 625.566 186.086C626.291 186.086 626.56 186.26 626.574 187.036C626.632 189.787 626.661 189.786 623.933 189.786L621.226 189.75Z" fill="#CECFD0"/>
<path d="M621.24 145.041C622.692 145.041 624.201 145.041 625.681 145.041C625.979 145.041 626.479 144.882 626.508 145.317C626.567 146.342 626.567 147.369 626.508 148.394C626.508 148.786 626.095 148.713 625.783 148.713C622.742 148.713 619.68 148.909 616.662 148.633C615.138 148.495 616.306 146.892 616.016 145.999C615.842 145.469 615.936 144.976 616.742 145.012C618.28 145.092 619.76 145.041 621.24 145.041Z" fill="#CECFD0"/>
<path d="M471.494 148.728C470.043 148.728 468.534 148.728 467.061 148.728C466.43 148.728 466.219 148.553 466.197 147.893C466.081 145.034 466.059 145.034 468.947 145.034C471.284 145.034 473.628 145.034 475.972 145.034C476.596 145.034 476.806 145.172 476.821 145.839C476.908 148.742 476.929 148.742 474.085 148.742L471.494 148.728Z" fill="#CFCFD1"/>
<path d="M565.165 228.48C565.165 227.028 565.165 225.577 565.165 224.162C565.165 223.436 565.389 223.284 566.072 223.276C568.858 223.226 568.858 223.204 568.858 225.976C568.858 228.284 568.858 230.584 568.858 232.884C568.858 233.61 568.742 233.893 567.936 233.908C565.165 233.966 565.165 234.002 565.165 231.194V228.48Z" fill="#CED0D1"/>
<path d="M482.117 107.749C481.014 107.749 479.941 107.749 478.794 107.749C478.199 107.749 478.068 107.545 478.018 106.965C477.851 103.91 477.836 103.91 480.826 103.91C482.393 103.91 483.953 103.91 485.513 103.91C486.145 103.91 486.348 104.106 486.384 104.752C486.551 107.749 486.551 107.749 483.598 107.749H482.117Z" fill="#C8C9CB"/>
<path d="M610.589 107.705C609.479 107.705 608.368 107.705 607.265 107.705C606.699 107.705 606.395 107.545 606.453 106.936C606.453 106.856 606.453 106.776 606.453 106.689C606.351 103.874 606.351 103.874 609.145 103.874C610.741 103.874 612.345 103.874 613.948 103.874C614.58 103.874 614.776 104.062 614.805 104.708C614.921 107.72 614.943 107.72 611.902 107.72H610.553L610.589 107.705Z" fill="#C8C9CB"/>
<path d="M551.508 89.4325C551.508 88.3295 551.544 87.2555 551.508 86.1162C551.508 85.4631 551.711 85.3034 552.35 85.2889C555.252 85.2018 555.252 85.1801 555.252 88.1191C555.252 89.6793 555.252 91.2322 555.252 92.7852C555.252 93.431 555.02 93.6124 554.396 93.656C551.494 93.8302 551.494 93.8519 551.494 91.029V89.4325H551.508Z" fill="#CCCCCF"/>
<path d="M582.529 89.4615C582.529 90.5718 582.529 91.6386 582.529 92.7779C582.529 93.0827 582.652 93.5616 582.209 93.5906C581.19 93.656 580.167 93.656 579.147 93.5906C578.719 93.5543 578.821 93.0827 578.821 92.7779C578.821 90.5645 578.821 88.3512 578.821 86.1452C578.821 85.4921 579.053 85.3324 579.67 85.3106C582.572 85.2091 582.572 85.1873 582.572 88.0102V89.4615H582.529Z" fill="#CBCCCE"/>
<path d="M482.066 135.012C480.964 135.012 479.853 135.012 478.743 135.012C478.489 135.012 478.076 135.121 478.061 134.708C478.061 133.684 478.061 132.661 478.061 131.638C478.061 131.232 478.46 131.29 478.729 131.29H485.615C485.891 131.29 486.297 131.246 486.34 131.616C486.398 132.636 486.398 133.659 486.34 134.679C486.34 135.136 485.84 135.005 485.542 135.005C484.374 135.02 483.213 135.012 482.066 135.012Z" fill="#CBCCCE"/>
<path d="M482.146 176.122H480.695C477.879 176.122 477.611 175.788 478.046 172.914C478.112 172.472 478.3 172.37 478.67 172.37C481.011 172.259 483.356 172.278 485.694 172.428C487.204 172.602 486.108 174.105 486.355 174.968C486.493 175.447 486.609 176.173 485.629 176.129C484.446 176.086 483.293 176.122 482.146 176.122Z" fill="#CDCED0"/>
<path d="M610.632 176.122H607.563C607.36 176.122 607.091 176.209 606.961 176.122C605.923 175.324 606.685 174.192 606.482 173.219C606.38 172.755 606.482 172.349 607.164 172.356C609.5 172.356 611.866 172.124 614.151 172.465C615.559 172.675 614.507 174.286 614.775 175.229C614.921 175.716 614.841 176.187 614.05 176.144C612.911 176.078 611.764 176.122 610.632 176.122Z" fill="#CDCED0"/>
<path d="M610.589 199.757C611.735 199.757 612.882 199.757 614.028 199.757C614.623 199.757 614.754 199.96 614.797 200.541C614.942 203.495 614.957 203.495 612.033 203.495C610.473 203.495 608.92 203.495 607.36 203.495C606.634 203.495 606.46 203.27 606.431 202.587C606.329 199.75 606.307 199.75 609.116 199.75L610.589 199.757Z" fill="#CCCCCF"/>
<path d="M610.632 162.414H607.809C607.599 162.414 607.396 162.414 607.192 162.414C606.104 162.472 606.344 161.594 606.467 161.137C606.692 160.317 605.611 158.88 607.192 158.742C609.507 158.531 611.858 158.691 614.187 158.684C614.594 158.684 614.797 158.829 614.79 159.25C614.79 160.113 614.79 160.97 614.79 161.833C614.79 162.37 614.499 162.421 614.064 162.414H610.632Z" fill="#CBCCCE"/>
<path d="M482.125 203.48C481.015 203.48 479.948 203.48 478.809 203.48C478.228 203.48 478.083 203.306 478.018 202.718C477.851 199.75 477.829 199.75 480.768 199.75C482.364 199.75 483.968 199.75 485.564 199.75C486.108 199.75 486.333 199.895 486.377 200.476C486.58 203.458 486.602 203.451 483.598 203.451L482.125 203.48Z" fill="#CBCCCE"/>
<path d="M482.067 162.407C480.964 162.407 479.853 162.407 478.751 162.407C478.489 162.407 478.083 162.508 478.025 162.102C478.025 161.086 478.025 160.055 478.025 159.04C478.025 158.633 478.431 158.706 478.7 158.706C480.993 158.706 483.286 158.706 485.579 158.706C485.854 158.706 486.253 158.64 486.268 159.025C486.311 160.048 486.326 161.071 486.268 162.095C486.268 162.545 485.767 162.414 485.463 162.421C484.374 162.421 483.213 162.414 482.067 162.407Z" fill="#CBCCCE"/>
<path d="M510.395 89.418C510.395 88.3077 510.395 87.1975 510.395 86.0872C510.395 85.5066 510.569 85.3252 511.164 85.2889C514.175 85.1075 514.175 85.093 514.175 88.1408C514.175 89.701 514.175 91.2612 514.175 92.8215C514.175 93.373 514.023 93.5979 513.449 93.6487C510.431 93.881 510.438 93.9027 510.438 90.8984L510.395 89.418Z" fill="#CDCED0"/>
<path d="M527.824 89.5051C527.773 90.4042 527.773 91.3055 527.824 92.2046C527.977 93.4455 527.454 93.7067 526.315 93.6559C524.095 93.5761 524.087 93.6559 524.087 91.4789C524.087 89.7155 524.087 87.9594 524.087 86.196C524.087 85.5501 524.211 85.2816 524.951 85.2671C527.817 85.2236 527.81 85.1945 527.81 88.0174L527.824 89.5051Z" fill="#CBCCCE"/>
<path d="M610.552 135.012C609.449 135.012 608.375 135.012 607.236 135.012C606.656 135.012 606.474 134.824 606.438 134.236C606.249 131.275 606.228 131.275 609.116 131.275C610.676 131.275 612.228 131.275 613.789 131.275C614.514 131.275 614.797 131.369 614.804 132.189C614.804 135.02 614.877 135.02 612.033 135.02L610.552 135.012Z" fill="#CBCCCE"/>
<path d="M555.231 217.935C555.231 218.393 555.231 218.843 555.231 219.292C555.231 222.253 555.231 222.231 552.263 222.079C551.661 222.079 551.494 221.854 551.537 221.288C551.537 219.111 551.537 216.854 551.537 214.634C551.537 214.51 551.486 214.336 551.537 214.271C552.43 213.306 553.576 214.053 554.592 213.85C555.158 213.734 555.26 214.133 555.252 214.612C555.252 215.722 555.252 216.832 555.252 217.935H555.231Z" fill="#CDCED0"/>
<path d="M582.529 217.965V219.815C582.529 222.065 582.529 221.992 580.301 222.101C578.988 222.173 578.719 221.724 578.784 220.533C578.879 218.603 578.835 216.666 578.784 214.728C578.784 214.002 579.009 213.835 579.699 213.814C582.514 213.734 582.514 213.705 582.514 216.477L582.529 217.965Z" fill="#CDCED0"/>
<path d="M524.109 217.878V214.924C524.109 214.714 524.029 214.445 524.109 214.314C524.834 213.291 525.945 214.039 526.866 213.85C527.28 213.763 527.809 213.712 527.809 214.445C527.809 216.789 528.049 219.162 527.715 221.462C527.512 222.856 525.923 221.76 525.008 222.043C524.501 222.203 524.051 222.079 524.08 221.317C524.123 220.171 524.08 219.017 524.08 217.863L524.109 217.878Z" fill="#CCCDCF"/>
<path d="M482.197 117.647C483.307 117.647 484.41 117.647 485.521 117.647C486.188 117.647 486.326 117.879 486.355 118.496C486.457 121.399 486.471 121.399 483.598 121.399C482.045 121.399 480.485 121.399 478.925 121.399C478.264 121.399 478.01 121.275 477.996 120.535C477.938 117.683 477.909 117.683 480.717 117.683L482.197 117.647Z" fill="#CFD0D2"/>
<path d="M596.243 89.389C596.243 90.5356 596.243 91.6894 596.243 92.8432C596.243 93.4165 596.062 93.6124 595.474 93.656C592.571 93.8737 592.571 93.8882 592.571 90.942C592.571 89.3382 592.571 87.7345 592.571 86.1307C592.571 85.4921 592.731 85.3034 593.391 85.2889C596.294 85.2091 596.294 85.1801 596.294 88.032L596.243 89.389Z" fill="#CDCED0"/>
<path d="M568.844 89.4979C568.844 90.4848 568.771 91.4789 568.844 92.4514C568.916 93.4238 568.503 93.6705 567.581 93.6632C565.136 93.627 565.136 93.6632 565.136 91.2105C565.136 89.5632 565.136 87.9159 565.136 86.2686C565.136 85.5429 565.252 85.2889 566.065 85.2817C568.829 85.2817 568.829 85.2381 568.829 88.0102L568.844 89.4979Z" fill="#CDCED0"/>
<path d="M610.632 145.041C611.706 145.041 612.809 145.099 613.839 145.041C614.645 144.983 614.775 145.295 614.775 146.021C614.775 148.742 614.775 148.742 612.127 148.742C610.567 148.742 608.999 148.699 607.439 148.742C606.597 148.742 606.416 148.452 606.416 147.675C606.416 145.034 606.365 145.034 609.028 145.034L610.632 145.041Z" fill="#CECFD0"/>
<path d="M541.473 89.4978C541.422 90.4817 541.422 91.4675 541.473 92.4513C541.582 93.5036 541.125 93.6705 540.218 93.656C537.772 93.656 537.772 93.656 537.772 91.2032C537.772 89.5123 537.772 87.8288 537.772 86.1234C537.772 85.4921 537.925 85.2889 538.592 85.2671C541.495 85.1728 541.495 85.1438 541.495 87.9957L541.473 89.4978Z" fill="#CDCED0"/>
<path d="M482.197 145.041H485.281C485.491 145.041 485.76 144.961 485.89 145.041C486.899 145.81 486.151 146.899 486.347 147.828C486.434 148.278 486.347 148.72 485.68 148.713C483.336 148.713 480.992 148.713 478.649 148.713C478.605 148.713 478.554 148.713 478.525 148.713C477.437 147.871 478.293 146.703 478.046 145.716C477.908 145.172 478.228 144.99 478.772 145.034C479.897 145.063 481.05 145.041 482.197 145.041Z" fill="#CECFD0"/>
<path d="M500.475 89.3818C500.475 90.5356 500.475 91.6894 500.475 92.836C500.475 93.4238 500.287 93.598 499.706 93.6488C496.804 93.881 496.804 93.9027 496.804 90.9492C496.804 89.3455 496.804 87.7417 496.804 86.138C496.804 85.5212 496.949 85.3035 497.616 85.289C500.519 85.2091 500.519 85.1801 500.519 88.0248L500.475 89.3818Z" fill="#CDCED0"/>
<path d="M610.668 117.647C611.699 117.647 612.729 117.712 613.745 117.647C614.761 117.582 614.811 117.93 614.797 118.75C614.797 121.37 614.797 121.37 612.199 121.37C610.596 121.37 608.999 121.37 607.396 121.37C606.757 121.37 606.467 121.268 606.438 120.513C606.343 117.654 606.307 117.654 609.195 117.654L610.668 117.647Z" fill="#CFD0D2"/>
<path d="M610.53 189.75C609.464 189.75 608.354 189.75 607.323 189.75C607.018 189.75 606.54 189.888 606.511 189.445C606.445 188.422 606.474 187.392 606.511 186.369C606.511 186.071 606.859 186.078 607.106 186.078C609.444 185.966 611.787 185.987 614.122 186.144C615.61 186.318 614.478 187.82 614.746 188.676C614.877 189.075 615.058 189.801 614.108 189.765C612.918 189.721 611.72 189.765 610.53 189.765V189.75Z" fill="#CDCED0"/>
<path d="M482.291 186.042H485.622C485.948 186.042 486.347 186.042 486.347 186.485C486.347 187.435 486.347 188.379 486.347 189.322C486.347 189.83 485.919 189.728 485.622 189.728C483.365 189.728 481.101 189.728 478.837 189.728C478.271 189.728 478.075 189.583 478.046 189.003C477.901 186.064 477.879 186.064 480.84 186.064L482.291 186.042Z" fill="#CDCED0"/>
<path d="M496.797 217.863V215.033C496.808 214.868 496.808 214.704 496.797 214.539C496.695 213.756 497.254 213.705 497.718 213.864C498.618 214.169 500.193 212.994 500.396 214.481C500.722 216.802 500.722 219.156 500.396 221.477C500.2 222.841 498.611 221.76 497.697 222.043C497.16 222.21 496.768 222.043 496.804 221.317C496.826 220.163 496.79 219.017 496.797 217.863Z" fill="#CFD0D2"/>
<path d="M537.794 217.979C537.794 216.876 537.794 215.802 537.794 214.663C537.794 213.995 538.048 213.843 538.658 213.814C541.488 213.705 541.488 213.683 541.488 216.462C541.488 218.059 541.452 219.663 541.488 221.259C541.488 221.927 541.27 222.065 540.646 222.079C537.794 222.152 537.794 222.173 537.794 219.336V217.979Z" fill="#CFD0D2"/>
<path d="M565.165 217.936V216.484C565.165 213.632 565.397 213.451 568.256 213.857C568.749 213.93 568.851 214.14 568.851 214.583C568.851 216.881 568.851 219.179 568.851 221.477C568.851 221.956 568.662 222.159 568.19 222.108H568.074C565.172 222.275 565.172 222.275 565.172 219.329L565.165 217.936Z" fill="#CFD0D2"/>
<path d="M510.395 217.986C510.395 216.883 510.395 215.773 510.395 214.67C510.395 214.024 510.62 213.85 511.244 213.828C514.146 213.698 514.146 213.676 514.146 216.629C514.146 218.182 514.146 219.742 514.146 221.295C514.146 221.876 513.958 222.021 513.37 222.079C510.38 222.239 510.38 222.261 510.38 219.343L510.395 217.986Z" fill="#CFD0D2"/>
<path d="M596.236 217.892C596.236 219.046 596.236 220.192 596.236 221.339C596.236 221.6 596.345 222.007 595.931 222.021C594.908 222.065 593.885 222.065 592.862 222.021C592.448 222.021 592.571 221.593 592.571 221.295C592.571 219.039 592.571 216.789 592.571 214.532C592.571 214.271 592.448 213.857 592.862 213.843C593.887 213.799 594.91 213.799 595.931 213.843C596.33 213.843 596.236 214.264 596.236 214.532C596.243 215.679 596.236 216.789 596.236 217.892Z" fill="#CFD0D2"/>
<path d="M145.654 71.0148C145.734 72.4662 145.886 73.845 145.893 75.2601C145.93 79.4327 145.944 83.6126 145.893 87.7853C145.765 88.381 145.557 88.9569 145.277 89.4979C145.071 90.0204 144.944 90.5707 144.899 91.1306C144.899 97.5239 144.856 103.917 144.899 110.31C144.899 111.123 145.349 111.936 145.683 113.046C145.741 114.381 145.879 116.058 145.886 117.734C145.886 127.719 145.886 137.7 145.886 147.675C145.886 148.553 146.002 149.395 145.124 150.157C144.703 150.52 144.856 151.609 144.856 152.392C144.856 176.857 144.856 201.32 144.856 225.78C144.856 241.629 144.856 257.48 144.856 273.334C144.973 278.877 143.008 284.263 139.348 288.428C137.447 290.682 135.076 292.494 132.401 293.736C129.726 294.978 126.813 295.621 123.863 295.619C118.712 295.677 113.552 295.511 108.408 295.706C89.9117 296.432 71.4011 296.686 52.9195 296.12C41.8538 295.779 30.7881 295.975 19.7296 295.598C11.6172 295.322 3.85301 289.008 1.16821 280.714C0.32151 277.891 -0.0727923 274.952 -3.82186e-05 272.006C-3.82186e-05 223.54 -3.82186e-05 175.072 -3.82186e-05 126.602C-3.82186e-05 92.4223 -3.82186e-05 58.2405 -3.82186e-05 24.0562C-0.00968415 21.3191 0.262648 18.5882 0.812654 15.9069C2.72829 7.16972 8.48973 1.79971 17.3423 0.406407C18.9528 0.151349 20.5807 0.0227517 22.2112 0.0217963C55.7349 0.0217963 89.261 0.0217963 122.79 0.0217963C124.68 0.0176923 126.566 0.199994 128.42 0.566055C137.469 2.38751 143.107 8.36709 144.384 17.7646C144.785 21.3274 144.95 24.9128 144.877 28.4974C144.921 41.6757 144.877 54.8467 144.877 68.025C144.975 68.9861 145.172 69.9346 145.465 70.8552L145.654 71.0148ZM142.069 147.937C142.069 109.176 142.069 70.4198 142.069 31.6686C142.069 27.3726 142.127 23.0476 141.707 18.7806C141.039 12.1188 138.02 6.85768 131.548 4.16542C128.94 3.10128 126.143 2.57789 123.327 2.62698C118.828 2.66084 114.329 2.6802 109.83 2.68503C80.2101 2.68503 50.5903 2.61972 20.9704 2.68503C18.3668 2.73686 15.7936 3.25547 13.3732 4.21622C6.73373 6.80688 3.82399 12.293 3.21446 19.0055C2.7936 23.4612 2.87342 27.9822 2.87342 32.4668C2.87342 112.132 2.87342 191.797 2.87342 271.462C2.91177 274.063 3.25022 276.652 3.88203 279.175C4.7234 282.515 6.54345 285.527 9.10859 287.825C11.6737 290.122 14.8669 291.601 18.2784 292.071C20.9304 292.333 23.596 292.432 26.2602 292.368C58.5552 292.368 90.8501 292.368 123.145 292.368C129.023 292.368 133.964 290.3 137.737 285.692C140.865 281.875 142.033 277.376 142.033 272.572C142.077 231.034 142.089 189.484 142.069 147.922V147.937Z" fill="black"/>
<path d="M73.5635 25.5221C72.3517 25.5221 71.1327 25.5874 69.9354 25.5221C69.2761 25.5249 68.641 25.2741 68.1615 24.8215C67.682 24.369 67.3949 23.7494 67.3595 23.091C67.3212 22.7446 67.3553 22.3939 67.4595 22.0613C67.5637 21.7287 67.7359 21.4213 67.9651 21.1587C68.1943 20.8961 68.4755 20.6839 68.7909 20.5356C69.1063 20.3873 69.4491 20.3061 69.7976 20.2972C72.3835 20.1484 74.9758 20.1484 77.5617 20.2972C78.2545 20.3107 78.9136 20.5988 79.394 21.0983C79.8743 21.5977 80.1366 22.2676 80.1231 22.9604C80.1097 23.6533 79.8215 24.3124 79.3221 24.7928C78.8227 25.2732 78.1529 25.5355 77.4601 25.5221C76.1613 25.5946 74.8551 25.5221 73.5635 25.5221Z" fill="black"/>
<path d="M24.9832 8.78073C25.7665 8.77014 26.5219 9.07116 27.0832 9.61757C27.6445 10.164 27.9658 10.911 27.9764 11.6943C27.987 12.4776 27.686 13.2331 27.1396 13.7945C26.5933 14.3558 25.8463 14.6772 25.063 14.6877C24.3093 14.6881 23.585 14.3953 23.0433 13.8712C22.5016 13.3471 22.1851 12.6327 22.1606 11.8794C22.1401 11.49 22.1971 11.1005 22.3282 10.7333C22.4594 10.3661 22.6622 10.0286 22.9247 9.74041C23.1873 9.45219 23.5044 9.21894 23.8578 9.05421C24.2111 8.88947 24.5937 8.79651 24.9832 8.78073Z" fill="black"/>
<path d="M137.15 29.7238H7.6189V260.605H137.15V29.7238Z" stroke="black" stroke-miterlimit="10"/>
<path d="M1106.23 31.4581H947.262V256.89H1106.23V31.4581Z" stroke="black" stroke-width="2" stroke-miterlimit="10"/>
<path d="M1086.73 207.653H968.095V89.0044H1086.73V207.653ZM1028.02 103.881C1016.37 103.881 1004.72 103.837 993.063 103.881C985.132 103.924 982.984 105.905 982.955 113.598C982.878 136.708 982.878 159.821 982.955 182.936C982.955 190.302 985.263 192.762 992.432 192.798C1015.74 192.914 1039.05 192.914 1062.36 192.798C1069.54 192.762 1071.85 190.309 1071.88 182.98C1071.95 159.864 1071.95 136.752 1071.88 113.641C1071.88 105.934 1069.7 103.924 1061.8 103.881C1050.55 103.866 1039.29 103.91 1028.02 103.91V103.881Z" fill="white"/>
<path d="M1028.02 103.91C1039.29 103.91 1050.52 103.866 1061.8 103.91C1069.7 103.953 1071.85 105.963 1071.88 113.67C1071.96 136.781 1071.96 159.893 1071.88 183.009C1071.88 190.338 1069.54 192.791 1062.36 192.827C1039.05 192.938 1015.74 192.938 992.432 192.827C985.263 192.791 982.999 190.331 982.956 182.965C982.878 159.85 982.878 136.737 982.956 113.627C982.956 105.934 985.132 103.953 993.063 103.91C1004.72 103.866 1016.37 103.91 1028.02 103.91ZM1068.94 148.902C1068.94 137.63 1068.94 126.36 1068.94 115.092C1068.94 107.502 1068.26 106.791 1060.96 106.783C1038.62 106.783 1016.28 106.783 993.941 106.783C986.765 106.783 985.96 107.574 985.96 114.49C985.96 137.03 986.061 159.569 985.873 182.101C985.829 187.602 987.57 189.968 993.368 189.917C1016.1 189.709 1038.84 189.709 1061.58 189.917C1067.38 189.968 1069.21 187.624 1069.08 182.116C1068.76 171.071 1068.94 159.997 1068.94 148.924V148.902Z" fill="black"/>
<path d="M1068.94 148.924C1068.94 159.99 1068.76 171.071 1069.01 182.138C1069.15 187.646 1067.29 189.99 1061.51 189.939C1038.78 189.731 1016.04 189.731 993.303 189.939C987.498 189.99 985.764 187.624 985.807 182.123C985.996 159.591 985.873 137.051 985.895 114.512C985.895 107.596 986.729 106.812 993.876 106.805C1016.21 106.805 1038.55 106.805 1060.89 106.805C1068.22 106.805 1068.88 107.531 1068.88 115.114C1068.94 126.386 1068.96 137.656 1068.94 148.924ZM1024.19 123.409L1021.91 123.365L1015.14 150.368L1010.06 140.716L1001.14 148.655L1001.81 150.041L1009.64 146.819C1011.25 149.889 1013.16 153.524 1015.07 157.16L1016.65 156.79L1021.84 136.181H1022.86L1027.7 170.222L1029.77 170.44C1031.88 163.386 1033.98 156.333 1036.34 148.466L1040.59 158.219C1043.44 153.198 1044.8 147.283 1051.48 150.781C1051.7 150.905 1053.39 149.119 1053.6 148.06C1053.73 147.421 1052.15 145.68 1051.61 145.796C1047.91 146.587 1044.28 147.733 1040.24 148.88C1039.42 146.87 1038.21 143.902 1037.01 140.898L1035.48 140.97L1029.95 158.568L1029.02 158.248C1027.41 146.652 1025.8 135.039 1024.19 123.409V123.409Z" fill="white"/>
<path d="M1024.19 123.409C1025.8 135.02 1027.41 146.655 1029.03 158.314L1029.95 158.633L1035.49 141.035L1037.01 140.963C1038.22 143.931 1039.43 146.899 1040.25 148.945C1044.29 147.799 1047.91 146.652 1051.62 145.861C1052.15 145.745 1053.73 147.487 1053.61 148.125C1053.4 149.185 1051.71 150.97 1051.48 150.847C1044.83 147.349 1043.5 153.263 1040.6 158.285L1036.35 148.532C1033.99 156.398 1031.88 163.452 1029.77 170.505L1027.7 170.287L1022.87 136.246H1021.85L1016.65 156.855L1015.08 157.225C1013.17 153.597 1011.26 149.968 1009.64 146.884L1001.81 150.106L1001.15 148.72L1010.07 140.781L1015.15 150.433L1021.92 123.43L1024.19 123.409Z" fill="black"/>
<path d="M75.3266 96.8634C88.3515 96.8634 102.175 102.233 114.024 112.719C117.71 115.985 118.378 119.171 115.867 121.732C112.638 124.991 109.67 123.576 106.644 121.043C85.5216 103.329 59.0364 103.3 38.1168 120.963C35.1272 123.488 32.1739 125.02 28.8796 121.827C26.1803 119.214 26.9495 116.021 30.9259 112.509C42.826 102.081 56.6709 96.7981 75.3266 96.8634Z" fill="#CED0D1"/>
<path d="M72.0831 115.288C83.6931 115.288 93.6558 119.323 102.196 126.965C105.048 129.512 106.449 132.472 103.698 135.673C100.948 138.873 97.8935 137.85 94.9184 135.397C80.0795 123.06 64.7906 123.126 49.5743 135.549C46.7372 137.864 43.8057 138.75 41.1354 135.847C38.2837 132.748 39.4302 129.729 42.2964 127.139C50.8006 119.447 60.7054 115.354 72.0831 115.288Z" fill="#CED0D1"/>
<path d="M87.8366 152.015C86.0451 151.023 84.3084 149.935 82.6339 148.757C75.9654 143.445 68.6439 143.292 62.2004 148.72C59.131 151.311 56.0181 152.654 53.0793 149.214C50.1406 145.774 52.1142 142.748 54.995 140.179C65.0738 131.173 81.5527 131.471 90.4996 141.159C91.9509 142.712 92.5386 145.738 92.2484 147.908C92.0525 149.366 89.5853 150.506 87.8366 152.015Z" fill="#CED0D1"/>
<path d="M72.2647 166.122C70.9561 166.108 69.6809 165.707 68.5988 164.971C67.5168 164.235 66.6762 163.196 66.1823 161.984C65.6885 160.772 65.5634 159.441 65.8227 158.158C66.0821 156.875 66.7143 155.697 67.6402 154.773C68.5661 153.848 69.7444 153.217 71.0274 152.959C72.3104 152.701 73.6411 152.827 74.8525 153.322C76.0639 153.817 77.1021 154.659 77.8371 155.742C78.5721 156.825 78.971 158.101 78.984 159.41C78.9469 161.18 78.2268 162.866 76.9745 164.118C75.7221 165.369 74.0345 166.087 72.2647 166.122V166.122Z" fill="#CED0D1"/>
<g filter="url(#filter0_d)">
<path d="M713.284 155.93C784.753 135.9 794.312 174.594 870.334 155.93" stroke="#414042"/>
</g>
<g filter="url(#filter1_d)">
<path d="M875.341 156.84L867.147 161.571L867.147 152.11L875.341 156.84Z" fill="#414042"/>
</g>
<g filter="url(#filter2_d)">
<path d="M706.232 156.389L714.217 151.314L714.62 160.767L706.232 156.389Z" fill="#414042"/>
</g>
</g>
<path d="M29.15 343V324.75H31.45L33.75 331.3L34.55 333.8C34.8167 332.917 35.0833 332.083 35.35 331.3L37.575 324.75H39.85V343H38.25V333.75C38.25 331.35 38.375 328.625 38.625 325.575L35.4 334.925H33.65L30.375 325.575C30.625 328.558 30.75 331.283 30.75 333.75V343H29.15ZM49.4902 343.25C47.9569 343.25 46.7319 342.792 45.8152 341.875C44.8986 340.958 44.4402 339.717 44.4402 338.15V334.1C44.4402 332.533 44.8986 331.292 45.8152 330.375C46.7319 329.458 47.9569 329 49.4902 329C51.0236 329 52.2486 329.458 53.1652 330.375C54.0819 331.292 54.5402 332.533 54.5402 334.1V338.15C54.5402 339.717 54.0819 340.958 53.1652 341.875C52.2486 342.792 51.0236 343.25 49.4902 343.25ZM49.4902 341.8C50.5736 341.8 51.4069 341.483 51.9902 340.85C52.5902 340.217 52.8902 339.317 52.8902 338.15V334.1C52.8902 332.933 52.5902 332.033 51.9902 331.4C51.4069 330.767 50.5736 330.45 49.4902 330.45C48.4069 330.45 47.5652 330.767 46.9652 331.4C46.3819 332.033 46.0902 332.933 46.0902 334.1V338.15C46.0902 339.317 46.3819 340.217 46.9652 340.85C47.5652 341.483 48.4069 341.8 49.4902 341.8ZM65.0055 329C66.3888 329 67.4888 329.458 68.3055 330.375C69.1221 331.292 69.5305 332.517 69.5305 334.05V338.225C69.5305 339.758 69.1138 340.983 68.2805 341.9C67.4638 342.8 66.3721 343.25 65.0055 343.25C64.0555 343.25 63.2471 343.033 62.5805 342.6C61.9138 342.167 61.4638 341.575 61.2305 340.825H61.2055V343H59.5555V324.75H61.2055V328.6L61.1805 331.425H61.2305C61.4638 330.675 61.9138 330.083 62.5805 329.65C63.2471 329.217 64.0555 329 65.0055 329ZM67.8805 334.1C67.8805 332.933 67.5805 332.033 66.9805 331.4C66.3971 330.75 65.5888 330.425 64.5555 330.425C63.4888 330.425 62.6638 330.75 62.0805 331.4C61.4971 332.05 61.2055 332.95 61.2055 334.1V338.175C61.2055 339.325 61.4971 340.225 62.0805 340.875C62.6805 341.508 63.4971 341.825 64.5305 341.825C65.5805 341.825 66.3971 341.508 66.9805 340.875C67.5805 340.225 67.8805 339.325 67.8805 338.175V334.1ZM79.6207 326.8C79.1874 326.8 78.829 326.675 78.5457 326.425C78.279 326.158 78.1457 325.808 78.1457 325.375C78.1457 324.958 78.279 324.617 78.5457 324.35C78.829 324.083 79.1874 323.95 79.6207 323.95H79.8957C80.329 323.95 80.679 324.083 80.9457 324.35C81.229 324.617 81.3707 324.958 81.3707 325.375C81.3707 325.808 81.229 326.158 80.9457 326.425C80.679 326.675 80.329 326.8 79.8957 326.8H79.6207ZM85.4957 343H74.1957V341.5H79.1707V330.75H74.8207V329.25H80.8207V341.5H85.4957V343ZM96.0859 343C94.9193 343 94.0109 342.683 93.3609 342.05C92.7109 341.417 92.3859 340.542 92.3859 339.425V326.25H88.1109V324.75H94.0359V339.425C94.0359 340.092 94.2109 340.608 94.5609 340.975C94.9109 341.325 95.4193 341.5 96.0859 341.5H100.561V343H96.0859ZM114.501 336.5H106.026V338.15C106.026 339.317 106.326 340.225 106.926 340.875C107.526 341.508 108.376 341.825 109.476 341.825C110.36 341.825 111.085 341.633 111.651 341.25C112.235 340.85 112.618 340.292 112.801 339.575H114.451C114.251 340.708 113.71 341.608 112.826 342.275C111.943 342.925 110.826 343.25 109.476 343.25C107.91 343.25 106.668 342.792 105.751 341.875C104.851 340.942 104.401 339.7 104.401 338.15V334.1C104.401 332.55 104.851 331.317 105.751 330.4C106.668 329.467 107.91 329 109.476 329C111.026 329 112.251 329.467 113.151 330.4C114.051 331.317 114.501 332.55 114.501 334.1V336.5ZM106.026 335.175H112.876V334.1C112.876 332.933 112.585 332.025 112.001 331.375C111.418 330.725 110.576 330.4 109.476 330.4C108.36 330.4 107.501 330.725 106.901 331.375C106.318 332.025 106.026 332.933 106.026 334.1V335.175Z" fill="#414042"/>
<path d="M502.85 343H492.8V324.75H502.85V326.225H494.45V332.725H501.975V334.225H494.45V341.525H502.85V343ZM512.615 343.25C510.899 343.25 509.532 342.808 508.515 341.925C507.515 341.042 507.007 339.842 506.99 338.325H508.64C508.64 339.375 508.99 340.217 509.69 340.85C510.407 341.467 511.374 341.775 512.59 341.775C513.757 341.775 514.674 341.483 515.34 340.9C516.007 340.317 516.34 339.508 516.34 338.475C516.34 337.608 516.09 336.85 515.59 336.2C515.107 335.55 514.44 335.092 513.59 334.825L511.34 334.125C510.124 333.758 509.174 333.142 508.49 332.275C507.824 331.392 507.49 330.35 507.49 329.15C507.49 327.733 507.957 326.608 508.89 325.775C509.824 324.925 511.074 324.5 512.64 324.5C514.19 324.5 515.424 324.942 516.34 325.825C517.274 326.692 517.749 327.858 517.765 329.325H516.115C516.115 328.292 515.799 327.475 515.165 326.875C514.532 326.275 513.682 325.975 512.615 325.975C511.532 325.975 510.682 326.25 510.065 326.8C509.449 327.333 509.14 328.075 509.14 329.025C509.14 329.858 509.374 330.592 509.84 331.225C510.307 331.842 510.957 332.283 511.79 332.55L514.04 333.25C515.274 333.633 516.24 334.283 516.94 335.2C517.64 336.117 517.99 337.183 517.99 338.4C517.99 339.883 517.499 341.067 516.515 341.95C515.549 342.817 514.249 343.25 512.615 343.25ZM522.555 343V324.75H528.13C529.764 324.75 531.064 325.225 532.03 326.175C533.014 327.108 533.505 328.367 533.505 329.95C533.505 331.517 533.014 332.775 532.03 333.725C531.064 334.675 529.764 335.15 528.13 335.15H524.205V343H522.555ZM528.13 333.675C529.247 333.675 530.139 333.342 530.805 332.675C531.489 331.992 531.83 331.083 531.83 329.95C531.83 328.817 531.497 327.917 530.83 327.25C530.164 326.567 529.264 326.225 528.13 326.225H524.205V333.675H528.13ZM547.696 335.475H537.246V334H547.696V335.475ZM559.561 333.425C560.611 333.642 561.453 334.192 562.086 335.075C562.719 335.958 563.036 336.992 563.036 338.175C563.036 339.725 562.536 340.958 561.536 341.875C560.553 342.792 559.194 343.25 557.461 343.25C555.728 343.25 554.361 342.8 553.361 341.9C552.378 340.983 551.886 339.75 551.886 338.2C551.886 337.017 552.203 335.983 552.836 335.1C553.469 334.2 554.311 333.642 555.361 333.425C554.428 333.258 553.678 332.8 553.111 332.05C552.544 331.3 552.261 330.383 552.261 329.3C552.261 327.85 552.728 326.692 553.661 325.825C554.611 324.942 555.878 324.5 557.461 324.5C559.044 324.5 560.303 324.942 561.236 325.825C562.186 326.692 562.661 327.85 562.661 329.3C562.661 330.383 562.378 331.3 561.811 332.05C561.244 332.8 560.494 333.258 559.561 333.425ZM553.936 329.375C553.936 330.425 554.253 331.258 554.886 331.875C555.519 332.475 556.378 332.775 557.461 332.775C558.544 332.775 559.403 332.475 560.036 331.875C560.669 331.258 560.986 330.425 560.986 329.375C560.986 328.325 560.669 327.5 560.036 326.9C559.403 326.3 558.544 326 557.461 326C556.378 326 555.519 326.3 554.886 326.9C554.253 327.5 553.936 328.325 553.936 329.375ZM557.461 341.75C558.661 341.75 559.611 341.425 560.311 340.775C561.011 340.108 561.361 339.2 561.361 338.05C561.361 336.883 561.011 335.95 560.311 335.25C559.611 334.55 558.661 334.2 557.461 334.2C556.261 334.2 555.311 334.55 554.611 335.25C553.911 335.95 553.561 336.883 553.561 338.05C553.561 339.2 553.911 340.108 554.611 340.775C555.311 341.425 556.261 341.75 557.461 341.75ZM567.301 343V341.25L573.026 335.375C574.093 334.275 574.868 333.275 575.351 332.375C575.851 331.458 576.101 330.558 576.101 329.675C576.101 328.542 575.768 327.642 575.101 326.975C574.435 326.292 573.535 325.95 572.401 325.95C571.218 325.95 570.285 326.292 569.601 326.975C568.918 327.642 568.576 328.558 568.576 329.725H566.926C566.943 328.125 567.443 326.858 568.426 325.925C569.426 324.975 570.751 324.5 572.401 324.5C574.035 324.5 575.335 324.967 576.301 325.9C577.268 326.817 577.751 328.058 577.751 329.625C577.751 330.708 577.451 331.8 576.851 332.9C576.268 333.983 575.343 335.167 574.076 336.45L569.051 341.5H578.151V343H567.301ZM587.466 343.25C586.366 343.25 585.391 343.008 584.541 342.525C583.708 342.042 583.058 341.367 582.591 340.5C582.125 339.617 581.891 338.6 581.891 337.45C581.891 335.783 582.375 334.15 583.341 332.55L588.016 324.75H589.866L584.666 333.2L584.766 333.275C584.983 332.975 585.375 332.667 585.941 332.35C586.525 332.033 587.225 331.875 588.041 331.875C589.025 331.875 589.891 332.108 590.641 332.575C591.391 333.025 591.966 333.675 592.366 334.525C592.783 335.358 592.991 336.333 592.991 337.45C592.991 338.6 592.758 339.617 592.291 340.5C591.841 341.367 591.191 342.042 590.341 342.525C589.508 343.008 588.55 343.25 587.466 343.25ZM587.441 341.775C588.608 341.775 589.55 341.383 590.266 340.6C590.983 339.8 591.341 338.75 591.341 337.45C591.341 336.2 590.983 335.192 590.266 334.425C589.55 333.642 588.608 333.25 587.441 333.25C586.275 333.25 585.333 333.642 584.616 334.425C583.9 335.192 583.541 336.217 583.541 337.5C583.541 338.783 583.9 339.817 584.616 340.6C585.333 341.383 586.275 341.775 587.441 341.775ZM602.457 343.25C601.357 343.25 600.382 343.008 599.532 342.525C598.698 342.042 598.048 341.367 597.582 340.5C597.115 339.617 596.882 338.6 596.882 337.45C596.882 335.783 597.365 334.15 598.332 332.55L603.007 324.75H604.857L599.657 333.2L599.757 333.275C599.973 332.975 600.365 332.667 600.932 332.35C601.515 332.033 602.215 331.875 603.032 331.875C604.015 331.875 604.882 332.108 605.632 332.575C606.382 333.025 606.957 333.675 607.357 334.525C607.773 335.358 607.982 336.333 607.982 337.45C607.982 338.6 607.748 339.617 607.282 340.5C606.832 341.367 606.182 342.042 605.332 342.525C604.498 343.008 603.54 343.25 602.457 343.25ZM602.432 341.775C603.598 341.775 604.54 341.383 605.257 340.6C605.973 339.8 606.332 338.75 606.332 337.45C606.332 336.2 605.973 335.192 605.257 334.425C604.54 333.642 603.598 333.25 602.432 333.25C601.265 333.25 600.323 333.642 599.607 334.425C598.89 335.192 598.532 336.217 598.532 337.5C598.532 338.783 598.89 339.817 599.607 340.6C600.323 341.383 601.265 341.775 602.432 341.775Z" fill="#414042"/>
<path d="M915.625 343.25C913.908 343.25 912.542 342.808 911.525 341.925C910.525 341.042 910.017 339.842 910 338.325H911.65C911.65 339.375 912 340.217 912.7 340.85C913.417 341.467 914.383 341.775 915.6 341.775C916.767 341.775 917.683 341.483 918.35 340.9C919.017 340.317 919.35 339.508 919.35 338.475C919.35 337.608 919.1 336.85 918.6 336.2C918.117 335.55 917.45 335.092 916.6 334.825L914.35 334.125C913.133 333.758 912.183 333.142 911.5 332.275C910.833 331.392 910.5 330.35 910.5 329.15C910.5 327.733 910.967 326.608 911.9 325.775C912.833 324.925 914.083 324.5 915.65 324.5C917.2 324.5 918.433 324.942 919.35 325.825C920.283 326.692 920.758 327.858 920.775 329.325H919.125C919.125 328.292 918.808 327.475 918.175 326.875C917.542 326.275 916.692 325.975 915.625 325.975C914.542 325.975 913.692 326.25 913.075 326.8C912.458 327.333 912.15 328.075 912.15 329.025C912.15 329.858 912.383 330.592 912.85 331.225C913.317 331.842 913.967 332.283 914.8 332.55L917.05 333.25C918.283 333.633 919.25 334.283 919.95 335.2C920.65 336.117 921 337.183 921 338.4C921 339.883 920.508 341.067 919.525 341.95C918.558 342.817 917.258 343.25 915.625 343.25ZM935.54 336.5H927.065V338.15C927.065 339.317 927.365 340.225 927.965 340.875C928.565 341.508 929.415 341.825 930.515 341.825C931.399 341.825 932.124 341.633 932.69 341.25C933.274 340.85 933.657 340.292 933.84 339.575H935.49C935.29 340.708 934.749 341.608 933.865 342.275C932.982 342.925 931.865 343.25 930.515 343.25C928.949 343.25 927.707 342.792 926.79 341.875C925.89 340.942 925.44 339.7 925.44 338.15V334.1C925.44 332.55 925.89 331.317 926.79 330.4C927.707 329.467 928.949 329 930.515 329C932.065 329 933.29 329.467 934.19 330.4C935.09 331.317 935.54 332.55 935.54 334.1V336.5ZM927.065 335.175H933.915V334.1C933.915 332.933 933.624 332.025 933.04 331.375C932.457 330.725 931.615 330.4 930.515 330.4C929.399 330.4 928.54 330.725 927.94 331.375C927.357 332.025 927.065 332.933 927.065 334.1V335.175ZM945.955 329C947.322 329 948.414 329.433 949.23 330.3C950.047 331.167 950.455 332.333 950.455 333.8V343H948.805V334C948.805 332.883 948.514 332.008 947.93 331.375C947.347 330.725 946.555 330.4 945.555 330.4C944.522 330.4 943.705 330.733 943.105 331.4C942.505 332.05 942.205 332.95 942.205 334.1V343H940.555V329.25H942.205V331.725C942.389 330.858 942.805 330.192 943.455 329.725C944.105 329.242 944.939 329 945.955 329ZM959.821 343.25C958.521 343.25 957.454 342.917 956.621 342.25C955.804 341.583 955.337 340.708 955.221 339.625H956.871C956.987 340.258 957.312 340.775 957.846 341.175C958.379 341.575 959.037 341.775 959.821 341.775H961.246C962.129 341.775 962.821 341.558 963.321 341.125C963.837 340.692 964.096 340.117 964.096 339.4C964.096 338.733 963.887 338.183 963.471 337.75C963.054 337.317 962.479 337.042 961.746 336.925L959.396 336.575C956.846 336.192 955.571 334.933 955.571 332.8C955.571 331.617 955.962 330.692 956.746 330.025C957.546 329.342 958.654 329 960.071 329H961.071C962.337 329 963.371 329.308 964.171 329.925C964.971 330.542 965.437 331.375 965.571 332.425H963.921C963.821 331.842 963.512 331.375 962.996 331.025C962.496 330.658 961.854 330.475 961.071 330.475H960.071C959.171 330.475 958.471 330.683 957.971 331.1C957.487 331.5 957.246 332.067 957.246 332.8C957.246 333.433 957.446 333.933 957.846 334.3C958.246 334.65 958.846 334.892 959.646 335.025L961.946 335.35C963.179 335.533 964.112 335.958 964.746 336.625C965.396 337.292 965.721 338.167 965.721 339.25C965.721 340.483 965.329 341.458 964.546 342.175C963.762 342.892 962.662 343.25 961.246 343.25H959.821ZM975.461 343.25C973.928 343.25 972.703 342.792 971.786 341.875C970.869 340.958 970.411 339.717 970.411 338.15V334.1C970.411 332.533 970.869 331.292 971.786 330.375C972.703 329.458 973.928 329 975.461 329C976.994 329 978.219 329.458 979.136 330.375C980.053 331.292 980.511 332.533 980.511 334.1V338.15C980.511 339.717 980.053 340.958 979.136 341.875C978.219 342.792 976.994 343.25 975.461 343.25ZM975.461 341.8C976.544 341.8 977.378 341.483 977.961 340.85C978.561 340.217 978.861 339.317 978.861 338.15V334.1C978.861 332.933 978.561 332.033 977.961 331.4C977.378 330.767 976.544 330.45 975.461 330.45C974.378 330.45 973.536 330.767 972.936 331.4C972.353 332.033 972.061 332.933 972.061 334.1V338.15C972.061 339.317 972.353 340.217 972.936 340.85C973.536 341.483 974.378 341.8 975.461 341.8ZM991.301 329C992.768 329 993.926 329.45 994.776 330.35C995.626 331.25 996.051 332.475 996.051 334.025V334.8H994.326V334.1C994.326 332.933 994.035 332.025 993.451 331.375C992.868 330.725 992.043 330.4 990.976 330.4C989.926 330.4 989.101 330.725 988.501 331.375C987.918 332.025 987.626 332.933 987.626 334.1V343H985.976V329.25H987.601V331.425H987.626C987.876 330.642 988.31 330.042 988.926 329.625C989.56 329.208 990.351 329 991.301 329ZM1004.79 343.25C1003.49 343.25 1002.42 342.917 1001.59 342.25C1000.77 341.583 1000.31 340.708 1000.19 339.625H1001.84C1001.96 340.258 1002.28 340.775 1002.82 341.175C1003.35 341.575 1004.01 341.775 1004.79 341.775H1006.22C1007.1 341.775 1007.79 341.558 1008.29 341.125C1008.81 340.692 1009.07 340.117 1009.07 339.4C1009.07 338.733 1008.86 338.183 1008.44 337.75C1008.02 337.317 1007.45 337.042 1006.72 336.925L1004.37 336.575C1001.82 336.192 1000.54 334.933 1000.54 332.8C1000.54 331.617 1000.93 330.692 1001.72 330.025C1002.52 329.342 1003.62 329 1005.04 329H1006.04C1007.31 329 1008.34 329.308 1009.14 329.925C1009.94 330.542 1010.41 331.375 1010.54 332.425H1008.89C1008.79 331.842 1008.48 331.375 1007.97 331.025C1007.47 330.658 1006.82 330.475 1006.04 330.475H1005.04C1004.14 330.475 1003.44 330.683 1002.94 331.1C1002.46 331.5 1002.22 332.067 1002.22 332.8C1002.22 333.433 1002.42 333.933 1002.82 334.3C1003.22 334.65 1003.82 334.892 1004.62 335.025L1006.92 335.35C1008.15 335.533 1009.08 335.958 1009.72 336.625C1010.37 337.292 1010.69 338.167 1010.69 339.25C1010.69 340.483 1010.3 341.458 1009.52 342.175C1008.73 342.892 1007.63 343.25 1006.22 343.25H1004.79ZM1035.42 343.25C1033.89 343.25 1032.66 342.792 1031.75 341.875C1030.83 340.958 1030.37 339.717 1030.37 338.15V334.1C1030.37 332.533 1030.83 331.292 1031.75 330.375C1032.66 329.458 1033.89 329 1035.42 329C1036.96 329 1038.18 329.458 1039.1 330.375C1040.01 331.292 1040.47 332.533 1040.47 334.1V338.15C1040.47 339.717 1040.01 340.958 1039.1 341.875C1038.18 342.792 1036.96 343.25 1035.42 343.25ZM1035.42 341.8C1036.51 341.8 1037.34 341.483 1037.92 340.85C1038.52 340.217 1038.82 339.317 1038.82 338.15V334.1C1038.82 332.933 1038.52 332.033 1037.92 331.4C1037.34 330.767 1036.51 330.45 1035.42 330.45C1034.34 330.45 1033.5 330.767 1032.9 331.4C1032.31 332.033 1032.02 332.933 1032.02 334.1V338.15C1032.02 339.317 1032.31 340.217 1032.9 340.85C1033.5 341.483 1034.34 341.8 1035.42 341.8ZM1050.89 329C1052.25 329 1053.35 329.433 1054.16 330.3C1054.98 331.167 1055.39 332.333 1055.39 333.8V343H1053.74V334C1053.74 332.883 1053.45 332.008 1052.86 331.375C1052.28 330.725 1051.49 330.4 1050.49 330.4C1049.45 330.4 1048.64 330.733 1048.04 331.4C1047.44 332.05 1047.14 332.95 1047.14 334.1V343H1045.49V329.25H1047.14V331.725C1047.32 330.858 1047.74 330.192 1048.39 329.725C1049.04 329.242 1049.87 329 1050.89 329ZM1065.93 329C1067.31 329 1068.41 329.458 1069.23 330.375C1070.04 331.292 1070.45 332.517 1070.45 334.05V338.225C1070.45 339.758 1070.04 340.983 1069.2 341.9C1068.39 342.8 1067.29 343.25 1065.93 343.25C1064.98 343.25 1064.17 343.033 1063.5 342.6C1062.84 342.167 1062.39 341.575 1062.15 340.825H1062.13V343H1060.48V324.75H1062.13V328.6L1062.1 331.425H1062.15C1062.39 330.675 1062.84 330.083 1063.5 329.65C1064.17 329.217 1064.98 329 1065.93 329ZM1068.8 334.1C1068.8 332.933 1068.5 332.033 1067.9 331.4C1067.32 330.75 1066.51 330.425 1065.48 330.425C1064.41 330.425 1063.59 330.75 1063 331.4C1062.42 332.05 1062.13 332.95 1062.13 334.1V338.175C1062.13 339.325 1062.42 340.225 1063 340.875C1063.6 341.508 1064.42 341.825 1065.45 341.825C1066.5 341.825 1067.32 341.508 1067.9 340.875C1068.5 340.225 1068.8 339.325 1068.8 338.175V334.1ZM1080.39 343.25C1078.86 343.25 1077.63 342.792 1076.72 341.875C1075.8 340.958 1075.34 339.717 1075.34 338.15V334.1C1075.34 332.533 1075.8 331.292 1076.72 330.375C1077.63 329.458 1078.86 329 1080.39 329C1081.93 329 1083.15 329.458 1084.07 330.375C1084.98 331.292 1085.44 332.533 1085.44 334.1V338.15C1085.44 339.717 1084.98 340.958 1084.07 341.875C1083.15 342.792 1081.93 343.25 1080.39 343.25ZM1080.39 341.8C1081.48 341.8 1082.31 341.483 1082.89 340.85C1083.49 340.217 1083.79 339.317 1083.79 338.15V334.1C1083.79 332.933 1083.49 332.033 1082.89 331.4C1082.31 330.767 1081.48 330.45 1080.39 330.45C1079.31 330.45 1078.47 330.767 1077.87 331.4C1077.28 332.033 1076.99 332.933 1076.99 334.1V338.15C1076.99 339.317 1077.28 340.217 1077.87 340.85C1078.47 341.483 1079.31 341.8 1080.39 341.8ZM1095.46 329C1096.97 329 1098.17 329.417 1099.03 330.25C1099.92 331.067 1100.36 332.183 1100.36 333.6V343H1098.73V340.75C1098.52 341.517 1098.02 342.125 1097.23 342.575C1096.45 343.025 1095.48 343.25 1094.33 343.25C1092.92 343.25 1091.8 342.892 1090.98 342.175C1090.17 341.442 1089.76 340.458 1089.76 339.225C1089.76 337.992 1090.15 337.017 1090.93 336.3C1091.73 335.583 1092.82 335.225 1094.18 335.225H1098.71V333.625C1098.71 332.625 1098.42 331.85 1097.83 331.3C1097.27 330.75 1096.47 330.475 1095.43 330.475C1094.52 330.475 1093.76 330.692 1093.16 331.125C1092.56 331.558 1092.21 332.142 1092.11 332.875H1090.46C1090.64 331.692 1091.17 330.75 1092.06 330.05C1092.96 329.35 1094.09 329 1095.46 329ZM1094.63 341.875C1095.87 341.875 1096.85 341.6 1097.58 341.05C1098.33 340.5 1098.71 339.767 1098.71 338.85V336.575H1094.18C1093.32 336.575 1092.63 336.808 1092.13 337.275C1091.65 337.725 1091.41 338.35 1091.41 339.15C1091.41 339.983 1091.7 340.65 1092.28 341.15C1092.87 341.633 1093.65 341.875 1094.63 341.875ZM1111.22 329C1112.69 329 1113.85 329.45 1114.7 330.35C1115.55 331.25 1115.97 332.475 1115.97 334.025V334.8H1114.25V334.1C1114.25 332.933 1113.96 332.025 1113.37 331.375C1112.79 330.725 1111.96 330.4 1110.9 330.4C1109.85 330.4 1109.02 330.725 1108.42 331.375C1107.84 332.025 1107.55 332.933 1107.55 334.1V343H1105.9V329.25H1107.52V331.425H1107.55C1107.8 330.642 1108.23 330.042 1108.85 329.625C1109.48 329.208 1110.27 329 1111.22 329ZM1128.64 324.75H1130.29V343H1128.64V340.825H1128.61C1128.38 341.575 1127.93 342.167 1127.26 342.6C1126.6 343.033 1125.79 343.25 1124.84 343.25C1123.47 343.25 1122.37 342.8 1121.54 341.9C1120.72 340.983 1120.31 339.758 1120.31 338.225V334.05C1120.31 332.517 1120.72 331.292 1121.54 330.375C1122.35 329.458 1123.45 329 1124.84 329C1125.79 329 1126.6 329.217 1127.26 329.65C1127.93 330.083 1128.38 330.675 1128.61 331.425H1128.66L1128.64 328.6V324.75ZM1125.31 341.825C1126.35 341.825 1127.15 341.508 1127.74 340.875C1128.34 340.225 1128.64 339.325 1128.64 338.175V334.1C1128.64 332.95 1128.35 332.05 1127.76 331.4C1127.18 330.75 1126.35 330.425 1125.29 330.425C1124.25 330.425 1123.44 330.75 1122.84 331.4C1122.25 332.033 1121.96 332.933 1121.96 334.1V338.175C1121.96 339.325 1122.25 340.225 1122.84 340.875C1123.44 341.508 1124.26 341.825 1125.31 341.825Z" fill="#414042"/>
<g filter="url(#filter3_d)">
<path d="M235.284 158.93C306.753 138.9 316.312 177.594 392.334 158.93" stroke="#414042"/>
</g>
<g filter="url(#filter4_d)">
<path d="M397.341 159.84L389.147 164.571L389.147 155.11L397.341 159.84Z" fill="#414042"/>
</g>
<g filter="url(#filter5_d)">
<path d="M228.232 159.389L236.217 154.314L236.62 163.767L228.232 159.389Z" fill="#414042"/>
</g>
<defs>
<filter id="filter0_d" x="709.149" y="149.5" width="165.304" height="20.1768" filterUnits="userSpaceOnUse" color-interpolation-filters="sRGB">
<feFlood flood-opacity="0" result="BackgroundImageFix"/>
<feColorMatrix in="SourceAlpha" type="matrix" values="0 0 0 0 0 0 0 0 0 0 0 0 0 0 0 0 0 0 127 0"/>
<feOffset dy="4"/>
<feGaussianBlur stdDeviation="2"/>
<feColorMatrix type="matrix" values="0 0 0 0 0 0 0 0 0 0 0 0 0 0 0 0 0 0 0.25 0"/>
<feBlend mode="normal" in2="BackgroundImageFix" result="effect1_dropShadow"/>
<feBlend mode="normal" in="SourceGraphic" in2="effect1_dropShadow" result="shape"/>
</filter>
<filter id="filter1_d" x="863.147" y="152.109" width="16.1939" height="17.4615" filterUnits="userSpaceOnUse" color-interpolation-filters="sRGB">
<feFlood flood-opacity="0" result="BackgroundImageFix"/>
<feColorMatrix in="SourceAlpha" type="matrix" values="0 0 0 0 0 0 0 0 0 0 0 0 0 0 0 0 0 0 127 0"/>
<feOffset dy="4"/>
<feGaussianBlur stdDeviation="2"/>
<feColorMatrix type="matrix" values="0 0 0 0 0 0 0 0 0 0 0 0 0 0 0 0 0 0 0.25 0"/>
<feBlend mode="normal" in2="BackgroundImageFix" result="effect1_dropShadow"/>
<feBlend mode="normal" in="SourceGraphic" in2="effect1_dropShadow" result="shape"/>
</filter>
<filter id="filter2_d" x="702.031" y="151.314" width="16.5888" height="17.8014" filterUnits="userSpaceOnUse" color-interpolation-filters="sRGB">
<feFlood flood-opacity="0" result="BackgroundImageFix"/>
<feColorMatrix in="SourceAlpha" type="matrix" values="0 0 0 0 0 0 0 0 0 0 0 0 0 0 0 0 0 0 127 0"/>
<feOffset dy="4"/>
<feGaussianBlur stdDeviation="2"/>
<feColorMatrix type="matrix" values="0 0 0 0 0 0 0 0 0 0 0 0 0 0 0 0 0 0 0.25 0"/>
<feBlend mode="normal" in2="BackgroundImageFix" result="effect1_dropShadow"/>
<feBlend mode="normal" in="SourceGraphic" in2="effect1_dropShadow" result="shape"/>
</filter>
<filter id="filter3_d" x="231.149" y="152.5" width="165.304" height="20.1768" filterUnits="userSpaceOnUse" color-interpolation-filters="sRGB">
<feFlood flood-opacity="0" result="BackgroundImageFix"/>
<feColorMatrix in="SourceAlpha" type="matrix" values="0 0 0 0 0 0 0 0 0 0 0 0 0 0 0 0 0 0 127 0"/>
<feOffset dy="4"/>
<feGaussianBlur stdDeviation="2"/>
<feColorMatrix type="matrix" values="0 0 0 0 0 0 0 0 0 0 0 0 0 0 0 0 0 0 0.25 0"/>
<feBlend mode="normal" in2="BackgroundImageFix" result="effect1_dropShadow"/>
<feBlend mode="normal" in="SourceGraphic" in2="effect1_dropShadow" result="shape"/>
</filter>
<filter id="filter4_d" x="385.147" y="155.109" width="16.1939" height="17.4615" filterUnits="userSpaceOnUse" color-interpolation-filters="sRGB">
<feFlood flood-opacity="0" result="BackgroundImageFix"/>
<feColorMatrix in="SourceAlpha" type="matrix" values="0 0 0 0 0 0 0 0 0 0 0 0 0 0 0 0 0 0 127 0"/>
<feOffset dy="4"/>
<feGaussianBlur stdDeviation="2"/>
<feColorMatrix type="matrix" values="0 0 0 0 0 0 0 0 0 0 0 0 0 0 0 0 0 0 0.25 0"/>
<feBlend mode="normal" in2="BackgroundImageFix" result="effect1_dropShadow"/>
<feBlend mode="normal" in="SourceGraphic" in2="effect1_dropShadow" result="shape"/>
</filter>
<filter id="filter5_d" x="224.031" y="154.314" width="16.5888" height="17.8014" filterUnits="userSpaceOnUse" color-interpolation-filters="sRGB">
<feFlood flood-opacity="0" result="BackgroundImageFix"/>
<feColorMatrix in="SourceAlpha" type="matrix" values="0 0 0 0 0 0 0 0 0 0 0 0 0 0 0 0 0 0 127 0"/>
<feOffset dy="4"/>
<feGaussianBlur stdDeviation="2"/>
<feColorMatrix type="matrix" values="0 0 0 0 0 0 0 0 0 0 0 0 0 0 0 0 0 0 0.25 0"/>
<feBlend mode="normal" in2="BackgroundImageFix" result="effect1_dropShadow"/>
<feBlend mode="normal" in="SourceGraphic" in2="effect1_dropShadow" result="shape"/>
</filter>
<clipPath id="clip0">
<rect width="1112" height="338.993" fill="white"/>
</clipPath>
</defs>
</svg>
